<svg width="880" height="650" viewBox="0 0 880 650" fill="none" xmlns="http://www.w3.org/2000/svg">
<path d="M140.878 147.05C140.878 148.289 140.51 149.499 139.822 150.529C139.134 151.558 138.156 152.361 137.011 152.834C135.866 153.308 134.607 153.432 133.392 153.191C132.177 152.949 131.061 152.353 130.185 151.477C129.309 150.602 128.712 149.486 128.47 148.272C128.229 147.057 128.353 145.799 128.827 144.655C129.301 143.511 130.104 142.533 131.134 141.845C132.164 141.157 133.375 140.79 134.614 140.79C136.275 140.79 137.868 141.449 139.043 142.623C140.218 143.798 140.878 145.39 140.878 147.05Z" fill="#FFB1A5"/>
<path d="M165.207 147.05C165.207 148.289 164.84 149.5 164.151 150.53C163.462 151.56 162.483 152.362 161.337 152.836C160.192 153.309 158.932 153.432 157.716 153.19C156.501 152.947 155.385 152.349 154.509 151.472C153.634 150.596 153.038 149.479 152.798 148.263C152.558 147.048 152.684 145.789 153.16 144.645C153.636 143.501 154.441 142.524 155.473 141.838C156.505 141.152 157.718 140.787 158.957 140.79C160.616 140.793 162.206 141.455 163.377 142.628C164.549 143.802 165.207 145.392 165.207 147.05Z" fill="#EAD254"/>
<path d="M189.55 147.05C189.55 148.289 189.183 149.499 188.495 150.529C187.807 151.558 186.828 152.361 185.684 152.834C184.539 153.308 183.28 153.432 182.064 153.191C180.849 152.949 179.733 152.353 178.857 151.477C177.981 150.602 177.385 149.486 177.143 148.272C176.901 147.057 177.025 145.799 177.499 144.655C177.973 143.511 178.776 142.533 179.806 141.845C180.837 141.157 182.048 140.79 183.286 140.79C184.947 140.793 186.538 141.454 187.712 142.627C188.886 143.801 189.547 145.391 189.55 147.05Z" fill="#00857B"/>
<path d="M869.158 154.955H708.296C703.761 154.955 700.085 158.629 700.085 163.161V311.855C700.085 316.387 703.761 320.061 708.296 320.061H869.158C873.692 320.061 877.368 316.387 877.368 311.855V163.161C877.368 158.629 873.692 154.955 869.158 154.955Z" fill="#EDEDED"/>
<path d="M747.195 277.113H830.807C835.364 277.113 839.058 273.421 839.058 268.866V200.383C839.058 195.828 835.364 192.135 830.807 192.135H747.195C742.638 192.135 738.944 195.828 738.944 200.383V268.866C738.944 273.421 742.638 277.113 747.195 277.113Z" fill="#C98BD2"/>
<path d="M161.246 295.238H7.82655C3.50406 295.238 0 298.74 0 303.06V436.754C0 441.074 3.50406 444.576 7.82655 444.576H161.246C165.569 444.576 169.073 441.074 169.073 436.754V303.06C169.073 298.74 165.569 295.238 161.246 295.238Z" fill="#EDEDED"/>
<path d="M123.936 320.815H44.3687C39.3422 320.815 35.2674 324.887 35.2674 329.911V406.711C35.2674 411.734 39.3422 415.807 44.3687 415.807H123.936C128.963 415.807 133.038 411.734 133.038 406.711V329.911C133.038 324.887 128.963 320.815 123.936 320.815Z" fill="#FFB1A5"/>
<path d="M65.2029 349.666C61.3383 353.528 58.7065 358.45 57.6402 363.807C56.5738 369.164 57.121 374.718 59.2124 379.764C61.3039 384.811 64.8456 389.124 69.3898 392.159C73.9341 395.194 79.2766 396.814 84.7419 396.814C90.2072 396.814 95.5498 395.194 100.094 392.159C104.638 389.124 108.18 384.811 110.271 379.764C112.363 374.718 112.91 369.164 111.844 363.807C110.777 358.45 108.145 353.528 104.281 349.666C99.0864 344.51 92.0627 341.617 84.7419 341.617C77.4212 341.617 70.3974 344.51 65.2029 349.666ZM104.199 353.639H95.4126C94.5008 350.782 93.3547 348.005 91.9859 345.337C96.7989 346.815 101.055 349.708 104.199 353.639ZM74.5921 367.585C74.6081 363.971 75.0684 360.373 75.9627 356.872H93.6444C94.5091 360.377 94.9463 363.974 94.9466 367.585H74.5921ZM94.7821 370.818C94.5188 374.44 93.885 378.025 92.8906 381.517H76.5933C75.5988 378.025 74.965 374.44 74.7017 370.818H94.7821ZM84.7488 344.268C86.0527 344.269 87.3545 344.374 88.6415 344.583C90.2749 347.463 91.6201 350.496 92.6576 353.639H76.7851C77.8533 350.492 79.2307 347.459 80.8972 344.583C82.1707 344.377 83.4586 344.271 84.7488 344.268ZM77.4979 345.337C76.1291 348.005 74.983 350.782 74.0712 353.639H65.2578C68.4089 349.703 72.6749 346.81 77.4979 345.337ZM63.0784 356.872H73.1666C72.3075 360.38 71.8477 363.974 71.7959 367.585H59.8573C60.0991 363.815 61.2009 360.15 63.0784 356.872ZM63.0784 381.531C61.2046 378.257 60.1073 374.596 59.871 370.832H71.8096C71.9908 374.447 72.5513 378.033 73.4818 381.531H63.0784ZM65.2715 384.764H74.4413C75.3831 387.639 76.5141 390.449 77.8269 393.176C72.865 391.737 68.4729 388.793 65.2578 384.75L65.2715 384.764ZM84.7625 394.135C83.6672 394.136 82.5731 394.067 81.4866 393.929C79.9959 390.963 78.7046 387.901 77.6213 384.764H91.8626C90.7793 387.901 89.488 390.963 87.9973 393.929C86.9196 394.061 85.8346 394.125 84.7488 394.121L84.7625 394.135ZM91.6158 393.162C92.9327 390.44 94.0683 387.635 95.0151 384.764H104.199C100.989 388.796 96.6071 391.735 91.657 393.176L91.6158 393.162ZM106.378 381.531H95.9746C96.9029 378.032 97.4679 374.447 97.6605 370.832H109.681C109.426 374.596 108.31 378.252 106.419 381.517L106.378 381.531ZM109.681 367.585H97.7428C97.6846 363.974 97.2248 360.381 96.3721 356.872H106.46C108.338 360.15 109.44 363.815 109.681 367.585Z" fill="white"/>
<path d="M152.172 85.115H13.1173C11.7396 85.115 10.4183 84.568 9.44403 83.5942C8.46981 82.6205 7.92249 81.2999 7.92249 79.9229C7.92249 78.5446 8.46936 77.2225 9.4432 76.2466C10.417 75.2707 11.7383 74.7207 13.1173 74.7171H152.172C153.554 74.7171 154.878 75.2655 155.855 76.2418C156.832 77.2181 157.381 78.5422 157.381 79.9229C157.377 81.3012 156.827 82.6218 155.85 83.5951C154.874 84.5684 153.551 85.115 152.172 85.115Z" fill="#C98BD2"/>
<path d="M874.819 424.424H807.354C805.976 424.424 804.655 423.877 803.681 422.903C802.707 421.93 802.159 420.609 802.159 419.232C802.158 418.55 802.291 417.874 802.551 417.243C802.812 416.612 803.194 416.039 803.677 415.557C804.16 415.074 804.733 414.692 805.364 414.431C805.995 414.171 806.672 414.038 807.354 414.04H874.805C876.178 414.04 877.495 414.583 878.469 415.551C879.442 416.519 879.993 417.832 880 419.205C880.004 420.583 879.46 421.906 878.489 422.885C877.518 423.863 876.198 424.417 874.819 424.424Z" fill="#56DFED"/>
<path d="M827.585 468.961H819.334C817.169 468.961 815.414 470.715 815.414 472.879V480.619C815.414 482.783 817.169 484.537 819.334 484.537H827.585C829.75 484.537 831.506 482.783 831.506 480.619V472.879C831.506 470.715 829.75 468.961 827.585 468.961Z" fill="#C98BD2"/>
<path d="M46.2328 504.963H37.9814C35.8163 504.963 34.0612 506.718 34.0612 508.882V516.622C34.0612 518.786 35.8163 520.54 37.9814 520.54H46.2328C48.3978 520.54 50.153 518.786 50.153 516.622V508.882C50.153 506.718 48.3978 504.963 46.2328 504.963Z" fill="#FFB1A5"/>
<path d="M677.126 38.0161H539.936C537.657 38.0161 535.81 39.8623 535.81 42.1397V75.6212C535.81 77.8986 537.657 79.7448 539.936 79.7448H677.126C679.405 79.7448 681.252 77.8986 681.252 75.6212V42.1397C681.252 39.8623 679.405 38.0161 677.126 38.0161Z" fill="#FFB1A5"/>
<path d="M551.641 75.0184V91.2934L572.105 75.0184H551.641Z" fill="#FFB1A5"/>
<path d="M270.845 1.01643e-10H340.078C342.426 1.01645e-10 344.678 0.932395 346.339 2.59207C348 4.25174 348.932 6.50274 348.932 8.84987V73.3745C348.925 75.7169 347.989 77.9609 346.329 79.6146C344.67 81.2684 342.421 82.197 340.078 82.197H273.669C270.571 82.197 267.601 80.9673 265.411 78.7783C263.221 76.5894 261.991 73.6206 261.991 70.525V8.87727C261.987 7.71279 262.213 6.55904 262.657 5.48216C263.1 4.40528 263.752 3.42644 264.574 2.60175C265.397 1.77706 266.374 1.12273 267.45 0.676268C268.526 0.229808 269.68 -5.58077e-06 270.845 1.01643e-10Z" fill="#56DFED"/>
<path d="M325.754 47.1948L320.765 42.2492C320.371 41.789 319.884 41.4169 319.336 41.1573C318.788 40.8976 318.191 40.7562 317.585 40.7423C316.387 40.7696 315.247 41.2608 314.405 42.1123L311.582 44.9481L311.047 44.6741C310.745 44.5474 310.452 44.4009 310.17 44.2357C307.369 42.4159 304.887 40.1481 302.823 37.5229C301.903 36.4237 301.134 35.2076 300.534 33.9063C301.233 33.2761 301.905 32.5363 302.467 31.9609L303.262 31.1664C303.717 30.7471 304.084 30.2419 304.343 29.68C304.602 29.118 304.747 28.5104 304.769 27.8922C304.747 27.274 304.602 26.6663 304.343 26.1044C304.084 25.5424 303.717 25.0372 303.262 24.618L300.794 22.1521C300.509 21.8739 300.244 21.5763 299.999 21.2616L298.313 19.5903C297.476 18.7314 296.333 18.2388 295.133 18.2203C294.538 18.2202 293.949 18.3417 293.402 18.5773C292.855 18.8128 292.362 19.1576 291.954 19.5903L288.856 22.6727C287.701 23.8391 286.984 25.3682 286.827 27.0017C286.727 29.3003 287.119 31.5937 287.979 33.7282C289.518 37.9815 291.843 41.9082 294.832 45.3042C298.721 49.9351 303.54 53.6971 308.977 56.346C311.465 57.6045 314.157 58.4116 316.927 58.7297H317.544C318.541 58.7457 319.53 58.5486 320.445 58.1517C321.36 57.7548 322.179 57.1672 322.849 56.4282L322.944 56.346C323.449 55.7806 324.004 55.2624 324.603 54.798L325.754 53.6472C326.194 53.2324 326.544 52.7322 326.783 52.1775C327.022 51.6228 327.145 51.0251 327.145 50.421C327.145 49.8169 327.022 49.2192 326.783 48.6645C326.544 48.1097 326.194 47.6096 325.754 47.1948ZM323.712 51.7841L322.657 52.8527C322.04 53.3732 321.505 54.0034 320.888 54.6199C320.485 55.0593 319.993 55.4084 319.445 55.6445C318.897 55.8806 318.305 55.9983 317.708 55.9898H317.27C314.87 55.7386 312.542 55.022 310.416 53.8801C305.35 51.3913 300.863 47.8676 297.244 43.537C294.527 40.3512 292.35 36.7414 290.802 32.8514C289.978 31.1477 289.61 29.2598 289.733 27.3716C289.796 26.387 290.244 25.4667 290.98 24.8098L293.982 21.8096C294.136 21.6281 294.324 21.479 294.536 21.3708C294.747 21.2626 294.979 21.1976 295.216 21.1794C295.455 21.1894 295.689 21.2508 295.902 21.3596C296.114 21.4684 296.301 21.6219 296.449 21.8096L297.998 23.2891C298.266 23.6049 298.559 23.8981 298.875 24.1659L301.356 26.6455C301.696 26.9746 301.914 27.4094 301.973 27.8785C301.936 28.3539 301.714 28.7961 301.356 29.1114L298.259 32.2075C297.946 32.4705 297.726 32.8261 297.63 33.2228C297.534 33.6195 297.567 34.0365 297.724 34.4131V34.509C298.472 36.2255 299.454 37.83 300.644 39.2765C302.896 42.1525 305.616 44.6301 308.689 46.6057C309.049 46.8532 309.435 47.0599 309.841 47.2222C310.143 47.3531 310.436 47.5041 310.718 47.6742L310.814 47.7564C311.215 47.9701 311.676 48.043 312.123 47.9635C312.571 47.884 312.978 47.6567 313.281 47.3181L316.379 44.222C316.697 43.8675 317.138 43.6472 317.613 43.6055C318.059 43.663 318.469 43.8824 318.764 44.222L323.712 49.1675C323.909 49.324 324.068 49.5229 324.177 49.7495C324.287 49.976 324.344 50.2243 324.344 50.4758C324.344 50.7273 324.287 50.9756 324.177 51.2021C324.068 51.4286 323.909 51.6276 323.712 51.7841Z" fill="white"/>
<path d="M628.947 393.559L578.904 386.901L579.302 391.86L536.523 397.559C536.523 397.559 508.945 466.701 533.219 618.751H568.021L580.549 464.564H584.99L597.12 618.751H631.908C656.251 466.701 628.947 393.559 628.947 393.559Z" fill="#8E716C"/>
<path d="M658.156 320.568C653.88 313.718 629.838 313.979 628.564 313.828C622.067 313.061 632.676 364.763 646.259 409.957C646.875 411.997 647.914 413.885 649.308 415.497C650.702 417.109 652.421 418.41 654.351 419.314C656.281 420.219 658.381 420.707 660.512 420.747C662.644 420.787 664.76 420.378 666.723 419.547L666.984 419.424C670.154 418.08 672.773 415.7 674.412 412.673C676.05 409.646 676.611 406.153 676.003 402.765C669.574 368.626 663.105 328.514 658.156 320.568Z" fill="#FFB1A5"/>
<path d="M663.886 339.309L633.196 351.214L630.318 336.665L662.104 328.733L663.886 339.309Z" fill="#F3978E"/>
<path d="M669.684 368.434C669.684 368.434 655.141 387.956 655.84 387.052C656.539 386.148 667.244 355.543 667.244 355.543L669.684 368.434Z" fill="#F3978E"/>
<path d="M690.477 342.2L648.795 396.176C647.501 397.852 646.569 399.778 646.057 401.832C645.546 403.886 645.466 406.024 645.823 408.111C646.179 410.198 646.965 412.188 648.13 413.956C649.295 415.724 650.814 417.231 652.591 418.383C654.36 419.539 656.349 420.316 658.434 420.667C660.518 421.017 662.652 420.932 664.702 420.417C666.752 419.902 668.673 418.969 670.344 417.676C672.015 416.382 673.401 414.757 674.413 412.903L709.104 348.926L690.477 342.2Z" fill="#FFB1A5"/>
<path d="M701.278 356.064C698.039 355.02 695.182 353.04 693.069 350.373C690.957 347.707 689.683 344.474 689.409 341.084C689.135 337.693 689.873 334.298 691.53 331.327C693.188 328.357 695.689 325.944 698.719 324.394C701.748 322.845 705.17 322.228 708.55 322.623C711.93 323.017 715.117 324.405 717.708 326.61C720.299 328.816 722.177 331.739 723.105 335.012C724.033 338.284 723.969 341.758 722.921 344.994C721.517 349.329 718.449 352.93 714.391 355.005C710.333 357.081 705.617 357.461 701.278 356.064Z" fill="#FFB1A5"/>
<path d="M719.097 329.377C719.097 329.377 723.798 324.486 715.451 321.075C707.103 317.664 696.782 318.431 690.189 334.418L719.097 329.377Z" fill="#FFB1A5"/>
<path d="M727.745 295.265L745.194 302.827C745.425 302.932 745.631 303.084 745.799 303.275C745.966 303.465 746.092 303.688 746.167 303.93C746.242 304.172 746.265 304.427 746.234 304.679C746.204 304.93 746.12 305.172 745.989 305.389L723.03 348.255C722.785 348.739 722.369 349.114 721.863 349.309C721.356 349.504 720.796 349.504 720.289 349.31L702.827 341.748C702.595 341.642 702.388 341.488 702.221 341.296C702.053 341.105 701.928 340.88 701.855 340.636C701.781 340.392 701.76 340.136 701.792 339.884C701.825 339.631 701.911 339.389 702.045 339.172L725.004 296.306C725.252 295.825 725.669 295.453 726.175 295.261C726.681 295.068 727.241 295.07 727.745 295.265Z" fill="#372F5F"/>
<path d="M726.073 294.539L743.536 302.101C743.766 302.209 743.971 302.364 744.137 302.555C744.303 302.747 744.427 302.972 744.501 303.215C744.575 303.458 744.597 303.714 744.565 303.965C744.533 304.217 744.449 304.46 744.317 304.677L721.358 347.543C721.11 348.024 720.693 348.396 720.187 348.588C719.681 348.781 719.122 348.779 718.617 348.584L701.168 341.022C700.929 340.914 700.717 340.755 700.547 340.556C700.377 340.357 700.253 340.123 700.183 339.87C700.114 339.618 700.101 339.353 700.146 339.095C700.191 338.837 700.292 338.592 700.442 338.378L723.4 295.512C723.66 295.061 724.07 294.716 724.559 294.538C725.048 294.36 725.585 294.36 726.073 294.539Z" fill="#261B43"/>
<path d="M724.099 298.868L739.437 305.512L720.728 340.446L705.39 333.802L724.099 298.868Z" fill="#E6E6E6"/>
<path d="M739.437 305.512L705.39 333.802L724.099 298.868L739.437 305.512Z" fill="white"/>
<path d="M710.448 319.65C713.028 320.208 715.516 321.13 717.836 322.39C718.589 322.812 719.184 323.469 719.528 324.261C719.872 325.053 719.947 325.936 719.741 326.774C719.551 327.542 719.133 328.233 718.54 328.757C717.947 329.281 717.209 329.612 716.424 329.706L707.35 330.857C707.35 330.857 702.621 339.076 696.385 339.926L702.059 325.61L710.448 319.65Z" fill="#FFB1A5"/>
<path d="M594.557 252.646C593.557 252.646 658.91 261.674 669.684 336.213L635.773 341.405L628.92 397.573H534.343L515.565 293.704C515.565 293.704 536.523 263.674 575.436 252.605L594.557 252.646Z" fill="#56DFED"/>
<path d="M600.766 253.701V227.836H570.447V254.016C567.624 254.902 564.875 256.006 562.223 257.318L585.881 271.401L610.059 257.318C607.127 255.725 604.004 254.51 600.766 253.701Z" fill="#FFB1A5"/>
<path d="M570.228 231.001C570.228 231.001 575.71 245.454 590.212 244.207C603.576 243.056 601.452 223.028 601.452 223.028L570.228 231.001Z" fill="#282828"/>
<path d="M556.932 211.781C552.176 216.082 541.553 199.739 546.145 195.149C550.737 190.56 554.246 197.766 554.246 197.766L556.288 202.643L557.837 209.246L558.207 210.986L556.932 211.781Z" fill="#F3978E"/>
<path d="M613.143 211.287C617.516 215.973 629.496 200.588 625.301 195.629C621.107 190.67 617.077 197.547 617.077 197.547L614.624 202.232L612.513 208.684L612.006 210.383L613.143 211.287Z" fill="#F3978E"/>
<path d="M548.598 179.559C548.598 201.191 565.047 211.452 585.456 211.452C605.865 211.452 622.327 201.191 622.327 179.559C622.327 157.928 605.879 143.201 585.456 143.201C565.033 143.201 548.598 157.928 548.598 179.559Z" fill="#282828"/>
<path d="M553.601 181.066C553.618 192.132 554.878 203.161 557.357 213.945C559.194 221.904 564.361 227.48 571.653 231.96L573.024 232.768C576.865 235.096 581.261 236.35 585.752 236.401C590.244 236.451 594.667 235.296 598.56 233.056C606.468 228.453 612.006 222.37 613.705 213.877C615.691 203.062 616.841 192.112 617.146 181.121C617.146 181.121 620.093 147.585 585.853 148.242C551.614 148.9 553.601 181.066 553.601 181.066Z" fill="#FFB1A5"/>
<path d="M577.835 182.203L560.811 186.19C560.811 186.19 561.592 181.861 568.555 180.285C575.518 178.71 577.835 182.203 577.835 182.203Z" fill="#282828"/>
<path d="M592.94 182.203L609.388 186.19C609.388 186.19 608.634 181.861 601.918 180.285C595.201 178.71 592.94 182.203 592.94 182.203Z" fill="#282828"/>
<path d="M571.365 197.56C572.947 197.56 574.23 196.279 574.23 194.697C574.23 193.116 572.947 191.834 571.365 191.834C569.783 191.834 568.501 193.116 568.501 194.697C568.501 196.279 569.783 197.56 571.365 197.56Z" fill="#282828"/>
<path d="M601.452 194.697C601.457 195.267 601.293 195.826 600.98 196.303C600.667 196.78 600.219 197.153 599.694 197.375C599.168 197.597 598.589 197.657 598.029 197.55C597.469 197.442 596.953 197.17 596.548 196.769C596.142 196.367 595.866 195.855 595.752 195.296C595.639 194.737 595.694 194.157 595.911 193.63C596.128 193.103 596.497 192.652 596.971 192.335C597.445 192.017 598.003 191.848 598.573 191.848C598.949 191.846 599.322 191.918 599.671 192.06C600.019 192.203 600.336 192.412 600.603 192.677C600.87 192.941 601.083 193.256 601.228 193.603C601.374 193.949 601.45 194.321 601.452 194.697Z" fill="#282828"/>
<path d="M574.244 212.164H596.366C596.366 212.164 586.566 224.083 574.244 212.164Z" fill="white"/>
<path d="M616.666 192.177C616.666 192.177 602.959 173.682 606.139 154.941C609.458 156.901 612.317 159.548 614.526 162.705C616.734 165.863 618.24 169.456 618.941 173.244C621.587 186.436 616.666 192.177 616.666 192.177Z" fill="#282828"/>
<path d="M553.588 193.437C553.588 193.437 569.488 172.422 566.335 153.708C559.358 158.162 554.43 165.195 552.628 173.271C550.01 186.436 553.588 193.437 553.588 193.437Z" fill="#282828"/>
<path d="M615.46 162.325C615.46 162.325 597.888 181.505 549.777 178.258C549.777 178.258 557.151 150.037 580.453 147.023C580.508 147.023 607.428 143.845 615.46 162.325Z" fill="#282828"/>
<path d="M636.963 143.499C638.985 130.98 630.471 119.193 617.945 117.173C605.42 115.152 593.627 123.662 591.605 136.18C589.584 148.699 598.098 160.486 610.623 162.506C623.149 164.527 634.941 156.017 636.963 143.499Z" fill="#282828"/>
<path d="M333.924 393.504L291.145 387.805L291.542 382.846L241.499 389.504C241.499 389.504 214.195 462.646 238.525 614.696H273.326L285.457 460.522H289.897L302.398 614.696H337.213C361.501 462.646 333.924 393.504 333.924 393.504Z" fill="#282828"/>
<path d="M330.511 185.491C324.128 177.841 319.253 169.05 316.146 159.585C311.911 147.626 298.067 152.489 298.067 152.489C298.067 152.489 286.526 137.653 269.159 142.817C251.793 147.982 245.762 160.284 245.378 175.025C244.994 189.765 233.467 191.998 224.571 208.986C208.863 238.974 235.317 264.236 283.51 257.235V256.756C289.246 258.345 295.219 258.907 301.151 258.414C359.034 254.975 353.456 212.465 330.511 185.491Z" fill="#282828"/>
<path d="M311.568 207.725C316.324 212.027 326.961 195.684 322.369 191.094C317.777 186.505 314.268 193.711 314.268 193.711L312.212 198.588L310.663 205.191L310.307 206.931L311.568 207.725Z" fill="#F3978E"/>
<path d="M255.356 207.232C250.984 211.918 239.018 196.533 243.199 191.574C247.379 186.615 251.491 193.492 251.491 193.492L253.945 198.177L256.042 204.629L256.563 206.328L255.356 207.232Z" fill="#F3978E"/>
<path d="M319.915 175.504C319.915 197.149 303.467 207.397 283.044 207.397C262.621 207.397 246.173 197.149 246.173 175.504C246.173 153.859 262.621 139.146 283.044 139.146C303.467 139.146 319.915 153.873 319.915 175.504Z" fill="#282828"/>
<path d="M298.067 223.781H267.734V263.03H298.067V223.781Z" fill="#FFB1A5"/>
<path d="M263.32 221.343C263.32 221.343 271.75 238.179 282.139 240.81C284.932 241.478 287.86 241.306 290.555 240.317C294.462 238.947 299.424 233.111 300.26 226.617L300.657 222.932C300.657 222.932 282.167 233.042 263.32 221.343Z" fill="#282828"/>
<path d="M314.899 177.011C314.883 188.077 313.623 199.106 311.143 209.89C309.32 217.863 304.152 223.425 296.847 227.905L295.476 228.713C291.636 231.043 287.24 232.3 282.748 232.35C278.255 232.401 273.832 231.244 269.94 229.001C262.032 224.398 256.494 218.315 254.863 209.822C252.886 199.006 251.735 188.056 251.423 177.066C251.423 177.066 248.476 143.53 282.729 144.187C316.982 144.845 314.899 177.011 314.899 177.011Z" fill="#FFB1A5"/>
<path d="M287.869 179.792L306.085 184.094C306.085 184.094 305.263 179.422 297.861 177.71C290.459 175.997 287.869 179.792 287.869 179.792Z" fill="#282828"/>
<path d="M278.274 179.792L259.825 184.094C259.825 184.094 260.661 179.422 268.213 177.71C275.766 175.997 278.274 179.792 278.274 179.792Z" fill="#282828"/>
<path d="M271.722 191.094C271.725 191.664 271.559 192.221 271.244 192.696C270.929 193.171 270.481 193.542 269.955 193.762C269.429 193.982 268.85 194.041 268.291 193.931C267.732 193.822 267.217 193.549 266.813 193.147C266.41 192.745 266.134 192.233 266.022 191.674C265.91 191.116 265.966 190.537 266.183 190.01C266.401 189.484 266.77 189.034 267.243 188.717C267.717 188.4 268.274 188.231 268.844 188.231C269.221 188.229 269.595 188.302 269.944 188.445C270.294 188.588 270.611 188.799 270.878 189.065C271.146 189.331 271.358 189.647 271.503 189.995C271.648 190.344 271.722 190.717 271.722 191.094Z" fill="#282828"/>
<path d="M298.93 191.094C298.933 191.664 298.766 192.221 298.452 192.696C298.137 193.171 297.689 193.542 297.163 193.762C296.637 193.982 296.058 194.041 295.499 193.931C294.939 193.822 294.425 193.549 294.021 193.147C293.617 192.745 293.342 192.233 293.23 191.674C293.118 191.116 293.174 190.537 293.391 190.01C293.609 189.484 293.978 189.034 294.451 188.717C294.925 188.4 295.482 188.231 296.052 188.231C296.429 188.229 296.803 188.302 297.152 188.445C297.501 188.588 297.819 188.799 298.086 189.065C298.354 189.331 298.566 189.647 298.711 189.995C298.856 190.344 298.93 190.717 298.93 191.094Z" fill="#282828"/>
<path d="M269.817 207.397H295.01C295.01 207.397 293.228 214.315 281.811 214.315C279.37 214.367 276.962 213.749 274.847 212.529C272.733 211.31 270.993 209.535 269.817 207.397Z" fill="white"/>
<path d="M251.834 188.121C251.834 188.121 265.541 169.627 262.374 150.886C259.055 152.846 256.194 155.494 253.984 158.651C251.773 161.808 250.264 165.401 249.559 169.189C246.913 182.381 251.834 188.121 251.834 188.121Z" fill="#282828"/>
<path d="M314.926 187.519C314.926 187.519 299.012 168.339 302.179 149.626C309.156 154.079 314.084 161.113 315.885 169.189C318.503 182.381 314.926 187.519 314.926 187.519Z" fill="#282828"/>
<path d="M252.985 158.27C252.985 158.27 268.693 179.368 316.804 176.08C316.804 176.08 311.321 145.941 288.02 142.982C287.992 142.982 261.072 139.735 252.985 158.27Z" fill="#282828"/>
<path d="M209.137 486.332C208.438 487.428 249.175 309.184 237.085 311.883C235.975 312.129 214.798 314.088 211.646 320.486C202.531 339.049 196.034 484.962 196.034 484.962L209.137 486.332Z" fill="#FFB1A5"/>
<path d="M196.034 484.962C196.034 484.962 189.468 515.416 214.291 518.745C215.07 518.833 215.855 518.656 216.522 518.243C217.188 517.831 217.696 517.207 217.965 516.471V516.266C218.238 515.437 218.192 514.536 217.834 513.74C217.476 512.944 216.833 512.31 216.032 511.964C211.988 510.156 205.711 505.58 208.822 495.209C208.822 495.209 212.413 494.771 214.387 501.456C214.504 501.861 214.708 502.235 214.985 502.553C215.263 502.87 215.606 503.122 215.992 503.292C216.378 503.462 216.796 503.545 217.217 503.536C217.639 503.526 218.053 503.424 218.431 503.237C218.965 502.969 219.402 502.542 219.682 502.014C219.962 501.486 220.071 500.884 219.993 500.292C219.404 495.607 217.046 484.332 208 481.304L196.034 484.962Z" fill="#FFB1A5"/>
<path d="M204.326 363.338C204.326 363.338 227.806 396.368 227.929 395.724C228.053 395.08 236.153 349.351 236.153 349.351L207.671 337.021L204.326 363.338Z" fill="#F3978E"/>
<path d="M269.543 256.578C270.544 256.578 211.536 257.633 200.763 332.09L234.673 337.282L241.526 393.45H336.103L354.881 289.58C354.881 289.58 341.531 267.14 302.617 256.181L269.543 256.578Z" fill="#00857B"/>
<path d="M240.704 265.578C240.704 265.578 249.038 276.648 283.195 276.648C317.051 276.648 325.686 265.003 325.686 265.003C325.686 265.003 305.729 253.852 282.578 250.249C267.948 253.296 253.842 258.46 240.704 265.578Z" fill="#FFB1A5"/>
<path d="M356.8 501.484L356.882 650H430.392L436.039 501.484H356.8Z" fill="#005683"/>
<path d="M516.401 501.484L516.319 650H442.81L437.163 501.484H516.401Z" fill="#005683"/>
<path d="M476.254 501.484H400.25V553.076H476.254V501.484Z" fill="#005683"/>
<path d="M562.84 371.887C567.39 422.205 562.593 458.878 563.923 551.473L520.061 553.309L513.523 379.983L562.84 371.887Z" fill="#FFB1A5"/>
<path d="M518.923 411.149C518.923 411.149 546.09 408.67 564.663 396.422L564.169 385.641L518.937 391.806L518.923 411.149Z" fill="#F3978E"/>
<path d="M475.336 256.016C475.336 256.016 561.688 277.716 577.259 387.189C577.259 387.189 535.029 405.491 492.702 397.614L502.229 361.009L475.336 256.016Z" fill="#C98BD2"/>
<path d="M217.567 301.54L281.824 377.38L262.155 432.726C262.155 432.726 213.318 364.872 191.373 312.417L217.567 301.54Z" fill="#FFB1A5"/>
<path d="M219.678 304.28C219.678 304.28 197.117 317.02 191.373 312.417C181.34 304.362 173.061 274.88 173.061 274.88C173.061 274.88 215.223 258.92 214.853 259.605C214.483 260.29 219.678 304.28 219.678 304.28Z" fill="#FFB1A5"/>
<path d="M219.678 304.28C219.28 302.005 228.039 277.524 231.041 268.332C231.199 267.786 231.241 267.212 231.162 266.649C231.082 266.086 230.885 265.546 230.582 265.064C230.279 264.583 229.877 264.171 229.404 263.856C228.93 263.541 228.395 263.329 227.833 263.236C226.851 262.976 225.81 263.044 224.87 263.429C223.929 263.815 223.141 264.498 222.625 265.373L212.03 283.443L219.678 304.28Z" fill="#FFB1A5"/>
<path d="M218.897 277.798L211.632 241.673C211.406 240.504 210.728 239.47 209.746 238.796C208.764 238.122 207.555 237.861 206.382 238.07C205.375 238.238 204.474 238.794 203.872 239.619C203.27 240.444 203.015 241.471 203.161 242.481L206.328 269.387L218.897 277.798Z" fill="#FFB1A5"/>
<path d="M204.45 264.482L194.581 238.673C194.177 237.584 193.37 236.692 192.326 236.182C191.283 235.672 190.082 235.582 188.975 235.933C188.043 236.242 187.262 236.889 186.784 237.747C186.307 238.604 186.169 239.609 186.398 240.563L193.717 270.373L204.45 264.482Z" fill="#FFB1A5"/>
<path d="M193.854 272.086L181.368 246.728C180.814 245.598 179.854 244.72 178.679 244.27C177.504 243.82 176.202 243.832 175.035 244.303C174.511 244.529 174.037 244.857 173.641 245.267C173.245 245.678 172.933 246.162 172.726 246.694C172.518 247.225 172.418 247.792 172.43 248.362C172.443 248.933 172.569 249.495 172.801 250.016L182.752 273.99L193.854 272.086Z" fill="#FFB1A5"/>
<path d="M173.061 274.88L163.261 259.345C163.063 258.926 162.95 258.471 162.929 258.007C162.908 257.544 162.979 257.081 163.139 256.645C163.298 256.209 163.542 255.809 163.858 255.469C164.173 255.128 164.552 254.853 164.974 254.66C165.822 254.287 166.774 254.219 167.666 254.469C168.559 254.719 169.337 255.271 169.868 256.03L182.752 273.839L173.061 274.88Z" fill="#FFB1A5"/>
<path d="M249.12 406.875C249.12 406.875 261.209 448.672 285.292 443.11C309.375 437.548 346.904 386.148 346.904 386.148L338.502 298.375L270.914 381.517L249.12 406.875Z" fill="#FFB1A5"/>
<path d="M291.885 355.666C291.885 355.666 314.693 390.066 334.17 402.245L346.904 386.161L297.751 348.159L291.885 355.666Z" fill="#F3978E"/>
<path d="M391.725 254.126C391.725 254.126 324.726 269.195 289.02 347.036C289.02 347.036 310.595 379.531 345.218 393.97L368.369 365.612L391.725 254.126Z" fill="#C98BD2"/>
<path d="M391.725 253.879C375.954 261.97 361.567 272.508 349.097 285.1L354.264 512.594H519.184L518.649 286.319C518.649 286.319 497.87 265.989 475.336 256.071C456.201 247.605 410.325 244.344 391.725 253.879Z" fill="#C98BD2"/>
<path d="M393.657 170.792L386.804 136.803C386.42 134.063 385.338 129.748 386.653 125.734C388.833 119.103 396.837 106.335 410.517 112.185L413.477 125.638C413.477 125.638 399.277 128.501 393.575 147.078L393.657 170.792Z" fill="#282828"/>
<path d="M409.489 119.186C409.242 123.652 405.295 143.201 391.423 150.311C391.423 150.325 379.279 124.296 409.489 119.186Z" fill="#282828"/>
<path d="M458.134 247.618V189.902H404.897V247.618L389.038 254.811C389.038 254.811 392.767 278.744 432.077 279.278C471.388 279.812 475.336 255.989 475.336 255.989L458.134 247.618Z" fill="#FFB1A5"/>
<path d="M410.489 112.185C410.489 112.185 420.262 86.4164 450.39 100.116C468.633 108.336 473.691 119.514 475.912 127.392C476.633 130.399 476.91 133.496 476.734 136.584L469.442 170.833L440.987 123.46L413.45 125.638L410.489 112.185Z" fill="#282828"/>
<path d="M469.442 170.792C469.442 170.792 473.033 165.079 480.407 167.887C487.782 170.696 484.519 188.669 473.348 190.957C472.102 191.177 470.822 191.125 469.597 190.806C468.371 190.487 467.23 189.908 466.248 189.108C466.248 189.108 469.003 175.833 469.442 170.792Z" fill="#F3978E"/>
<path d="M393.657 170.792C393.657 170.792 390.066 165.079 382.692 167.887C375.318 170.696 378.58 188.669 389.737 190.957C390.984 191.177 392.264 191.125 393.489 190.806C394.714 190.487 395.856 189.908 396.837 189.108C396.837 189.108 394.082 175.833 393.657 170.792Z" fill="#F3978E"/>
<path d="M470.169 153.736C470.169 164.572 469.099 187.231 462.438 200.684C456.188 213.315 445.839 220.124 432.283 220.521C418.727 220.918 408.612 215.699 400.511 199.314C392.41 182.929 392.808 153.941 392.808 153.941C392.808 153.941 392.808 115.24 431.077 115.24C471.375 115.24 470.169 153.736 470.169 153.736Z" fill="#FFB1A5"/>
<path d="M405.295 207.383C405.295 207.383 409.749 230.001 429.446 232.604C452.103 235.59 458.134 207.945 458.134 207.945C458.134 207.945 448.128 220.493 432.283 220.507C427.088 220.484 421.964 219.292 417.292 217.02C412.62 214.748 408.52 211.454 405.295 207.383Z" fill="#282828"/>
<path d="M417.466 165.531C417.469 166.223 417.266 166.899 416.884 167.476C416.501 168.052 415.956 168.502 415.318 168.768C414.68 169.035 413.976 169.106 413.297 168.973C412.618 168.839 411.994 168.508 411.504 168.02C411.014 167.532 410.68 166.909 410.544 166.231C410.408 165.553 410.476 164.85 410.74 164.211C411.005 163.572 411.453 163.026 412.028 162.641C412.603 162.257 413.279 162.051 413.971 162.051C414.895 162.051 415.782 162.418 416.438 163.07C417.093 163.722 417.462 164.607 417.466 165.531Z" fill="#282828"/>
<path d="M450.129 165.531C450.132 166.223 449.929 166.899 449.547 167.476C449.164 168.052 448.62 168.502 447.981 168.768C447.343 169.035 446.64 169.106 445.961 168.973C445.282 168.839 444.658 168.508 444.167 168.02C443.677 167.532 443.343 166.909 443.207 166.231C443.071 165.553 443.139 164.85 443.404 164.211C443.668 163.572 444.116 163.026 444.691 162.641C445.266 162.257 445.942 162.051 446.634 162.051C447.559 162.051 448.446 162.418 449.101 163.07C449.756 163.722 450.126 164.607 450.129 165.531Z" fill="#282828"/>
<path d="M437.725 148.201L461.149 154.256C461.149 154.256 460.08 147.681 450.499 145.297C440.918 142.913 437.725 148.201 437.725 148.201Z" fill="#282828"/>
<path d="M423.168 148.201L399.743 154.256C399.743 154.256 400.812 147.681 410.393 145.297C419.974 142.913 423.168 148.201 423.168 148.201Z" fill="#282828"/>
<path d="M405.295 120.076C405.295 120.076 412.408 140.269 444.482 139.653C466.276 139.228 471.484 154.996 471.484 154.996C471.484 154.996 467.688 119.747 466.701 120.076C465.714 120.405 433.53 111.5 433.53 111.5L405.295 120.076Z" fill="#282828"/>
</svg>
