<svg width="379" height="368" viewBox="0 0 379 368" fill="none" xmlns="http://www.w3.org/2000/svg">
<path d="M299.983 5.9625L298.731 6.4871C293.541 8.59884 289.03 12.085 285.686 16.5683C282.342 21.0516 280.292 26.3612 279.758 31.9222C279.631 33.3735 279.613 34.832 279.702 36.286C280.1 41.5675 281.801 46.6692 284.653 51.1383C287.505 55.6073 291.42 59.3053 296.051 61.9039C301.53 64.9243 308.126 66.522 312.121 71.299C317.321 77.5147 316.157 86.584 314.713 94.4927C313.27 102.401 312.129 111.471 317.361 117.67C320.631 121.549 325.839 123.401 330.919 123.886C344.398 125.174 357.748 117.663 365.468 106.741C373.188 95.8201 375.836 81.9818 375.126 68.6681C374.209 50.013 366.744 31.3341 352.756 18.6165C338.767 5.89891 317.999 0.18395 299.983 5.9625Z" fill="#F5F5F5"/>
<path d="M299.433 285.145L299.066 283.841C297.481 277.697 293.989 272.21 289.087 268.163C284.186 264.116 278.126 261.716 271.774 261.307C266.461 261.042 261.165 262.09 256.356 264.357C251.547 266.624 247.375 270.041 244.212 274.303C240.519 279.351 238.102 285.67 232.855 289.024C226.012 293.396 217.135 291.114 209.439 288.698C201.743 286.282 192.85 284.032 186.032 288.428C181.765 291.178 179.268 296.098 178.152 301.074C175.193 314.244 180.999 328.385 190.912 337.374C200.826 346.364 214.264 350.68 227.599 351.682C246.293 353.073 265.88 348.018 280.236 335.785C294.592 323.552 302.942 303.673 299.433 285.145Z" fill="#F5F5F5"/>
<path d="M338.376 190.28C349.066 190.28 357.732 181.643 357.732 170.989C357.732 160.335 349.066 151.698 338.376 151.698C327.686 151.698 319.02 160.335 319.02 170.989C319.02 181.643 327.686 190.28 338.376 190.28Z" fill="#F5F5F5"/>
<path d="M30.1379 190.28C40.828 190.28 49.494 181.643 49.494 170.989C49.494 160.335 40.828 151.698 30.1379 151.698C19.4478 151.698 10.7818 160.335 10.7818 170.989C10.7818 181.643 19.4478 190.28 30.1379 190.28Z" fill="#F5F5F5"/>
<path d="M131.52 27.5903C136.867 27.5903 141.202 23.2701 141.202 17.9409C141.202 12.6116 136.867 8.2914 131.52 8.2914C126.173 8.2914 121.838 12.6116 121.838 17.9409C121.838 23.2701 126.173 27.5903 131.52 27.5903Z" fill="#F5F5F5"/>
<path d="M97.7926 40.3317C109.086 28.7111 105.417 9.19753 90.4154 3.01361C74.9832 -3.34518 52.4927 1.16956 36.6139 9.02266C13.2621 20.5639 -0.870143 49.6633 0.605292 75.5992C1.21142 86.0037 4.59295 96.758 12.3928 103.721C20.1927 110.684 32.9771 112.615 41.1518 106.105C51.1609 98.157 50.2597 82.721 56.7117 71.7123C63.0361 60.9263 75.4856 55.6803 86.2204 49.2738C90.4462 46.7995 94.3354 43.7942 97.7926 40.3317Z" fill="#F5F5F5"/>
<path d="M143.722 99.9533C147.548 96.4852 151.824 93.5445 156.435 91.21L156.571 76.9027L179.747 71.8952L185.808 84.8512C190.981 85.0842 196.098 86.0065 201.025 87.5934L211.258 77.5863L231.196 90.3833L226.291 103.808C229.771 107.621 232.721 111.883 235.064 116.478L249.419 116.613L254.444 139.712L241.452 145.752C241.208 150.901 240.275 155.993 238.677 160.894L248.71 171.092L235.877 190.963L222.407 186.075C218.578 189.539 214.302 192.479 209.694 194.818L209.559 209.126L186.374 214.149L180.321 201.201C175.149 200.965 170.032 200.043 165.104 198.459L154.888 208.466L134.95 195.669L139.854 182.252C136.378 178.436 133.428 174.175 131.082 169.582L116.726 169.447L111.702 146.341L124.701 140.3C124.921 135.144 125.833 130.041 127.413 125.126L117.404 114.944L130.244 95.073L143.722 99.9533ZM156.666 126.072C153.303 131.279 151.565 137.363 151.671 143.554C151.777 149.746 153.723 155.767 157.263 160.856C160.802 165.945 165.777 169.874 171.557 172.146C177.337 174.418 183.663 174.93 189.736 173.618C195.808 172.306 201.354 169.229 205.671 164.776C209.989 160.323 212.885 154.694 213.993 148.601C215.1 142.508 214.37 136.224 211.894 130.545C209.419 124.865 205.309 120.044 200.084 116.693C196.614 114.461 192.736 112.934 188.673 112.197C184.609 111.461 180.44 111.53 176.404 112.402C172.368 113.273 168.543 114.929 165.15 117.274C161.756 119.62 158.86 122.61 156.627 126.072H156.666Z" fill="#E0E0E0"/>
<path d="M156.627 126.072L156.906 125.651C157.113 125.365 157.392 124.951 157.767 124.427L158.397 123.529C158.652 123.203 158.955 122.885 159.266 122.519L160.287 121.351C160.688 120.918 161.112 120.507 161.555 120.119C163.753 118.016 166.263 116.262 168.996 114.92C172.609 113.112 176.538 112.016 180.568 111.693L182.267 111.574C182.841 111.574 183.416 111.574 184.006 111.574C184.596 111.574 185.186 111.574 185.784 111.653L187.587 111.868L188.504 111.987L189.413 112.186L191.255 112.599C191.877 112.758 192.476 112.989 193.098 113.18C193.725 113.364 194.34 113.587 194.94 113.847C196.184 114.347 197.392 114.934 198.553 115.604C199.135 115.946 199.749 116.264 200.323 116.645L202.03 117.853C202.309 118.068 202.612 118.251 202.883 118.481L203.681 119.181C204.207 119.658 204.766 120.111 205.276 120.619C206.308 121.654 207.27 122.756 208.155 123.918C209.069 125.11 209.903 126.36 210.651 127.662C211.01 128.321 211.321 129.021 211.672 129.704C211.832 130.054 212.023 130.388 212.159 130.754L212.565 131.835C213.123 133.299 213.581 134.8 213.937 136.326C214.251 137.9 214.459 139.493 214.559 141.095L214.647 142.303V144.735C214.646 145.145 214.617 145.554 214.559 145.959C214.456 146.754 214.352 147.549 214.256 148.407L213.706 150.832C212.027 157.419 208.235 163.28 202.907 167.523L200.913 169.026L198.752 170.345L198.226 170.663L195.466 171.998L194.334 172.42C192.836 172.985 191.301 173.45 189.74 173.811C188.2 174.118 186.642 174.325 185.075 174.431L183.91 174.51C183.527 174.51 183.113 174.51 182.754 174.51C181.956 174.51 181.222 174.51 180.465 174.431C178.97 174.294 177.486 174.057 176.023 173.723C174.594 173.397 173.187 172.981 171.812 172.475C171.134 172.213 170.488 171.895 169.834 171.609L168.861 171.18C168.542 171.029 168.247 170.83 167.936 170.663L166.133 169.638C165.543 169.272 165.009 168.843 164.45 168.453C163.358 167.679 162.321 166.829 161.348 165.91C160.863 165.471 160.405 165.004 159.976 164.511C159.546 164.026 159.083 163.581 158.684 163.08L157.544 161.578L156.985 160.839L156.499 160.044C156.18 159.527 155.869 159.011 155.55 158.502C155.231 157.993 155.016 157.437 154.752 156.912C154.489 156.388 154.234 155.871 154.003 155.322C153.771 154.774 153.612 154.257 153.412 153.733C152.039 149.943 151.414 145.924 151.57 141.897C151.668 138.863 152.23 135.861 153.237 132.995C153.452 132.415 153.588 131.835 153.835 131.334L154.481 129.927C154.689 129.49 154.856 129.085 155.047 128.727C155.239 128.369 155.438 128.059 155.606 127.773L156.403 126.493C156.579 126.207 156.674 126.064 156.674 126.064C156.674 126.064 156.603 126.223 156.443 126.517C156.284 126.811 156.028 127.256 155.717 127.821L155.175 128.775C154.992 129.132 154.832 129.569 154.633 129.983L154.011 131.39C153.789 131.933 153.594 132.488 153.428 133.051C152.453 135.906 151.916 138.891 151.833 141.905C151.701 145.898 152.343 149.879 153.724 153.629L154.314 155.219C154.545 155.736 154.808 156.244 155.063 156.809C155.319 157.373 155.542 157.874 155.861 158.399C156.18 158.923 156.483 159.416 156.802 159.925L157.281 160.719L157.839 161.451C158.214 161.944 158.636 162.436 158.971 162.937C159.306 163.438 159.825 163.867 160.255 164.344C160.679 164.83 161.131 165.289 161.611 165.719C162.578 166.626 163.607 167.465 164.69 168.231C165.24 168.62 165.774 169.026 166.356 169.399L168.151 170.425C168.454 170.591 168.749 170.782 169.068 170.933L170.041 171.227C170.687 171.506 171.325 171.824 171.987 172.078C173.347 172.573 174.738 172.982 176.15 173.302C177.597 173.635 179.065 173.866 180.545 173.993C181.294 174.057 182.052 174.041 182.81 174.073C183.184 174.073 183.567 174.073 183.95 174.073L185.098 173.993C186.644 173.891 188.181 173.686 189.7 173.381C191.24 173.025 192.754 172.562 194.23 171.998L195.355 171.577L196.439 171.06L197.532 170.528L198.074 170.266L198.593 169.956L200.674 168.676L202.636 167.197C207.904 163.006 211.649 157.21 213.299 150.696C213.483 149.902 213.658 149.107 213.842 148.312C214.025 147.517 214.041 146.722 214.137 145.927C214.198 145.53 214.227 145.129 214.224 144.727V142.319L214.137 141.126C214.037 139.554 213.832 137.99 213.522 136.445C213.174 134.941 212.723 133.461 212.175 132.018L211.776 130.944C211.648 130.587 211.457 130.253 211.297 129.911C210.954 129.236 210.651 128.544 210.292 127.892C209.559 126.606 208.739 125.371 207.836 124.196C206.962 123.044 206.014 121.95 204.997 120.921C204.486 120.421 203.936 119.976 203.402 119.507L202.604 118.807C202.333 118.585 202.038 118.394 201.759 118.187C201.201 117.782 200.634 117.392 200.084 116.979C199.534 116.566 198.904 116.295 198.329 115.954C197.183 115.285 195.988 114.701 194.757 114.205C194.165 113.945 193.558 113.722 192.938 113.537C192.324 113.347 191.734 113.116 191.12 112.957L189.301 112.552L188.4 112.345L187.491 112.226L185.705 112.003C185.122 111.916 184.524 111.948 183.95 111.916C183.376 111.884 182.794 111.876 182.227 111.916L180.545 112.027C176.547 112.33 172.646 113.396 169.052 115.167C166.328 116.484 163.822 118.208 161.619 120.278C161.173 120.658 160.747 121.062 160.343 121.486L159.314 122.638C158.995 122.996 158.684 123.314 158.437 123.632L157.783 124.514L156.898 125.714C156.813 125.838 156.722 125.957 156.627 126.072Z" fill="#263238"/>
<path d="M143.722 99.9533L142.861 99.6513L130.164 95.1286H130.244L117.436 115V114.873L127.485 125.055L127.533 125.102V125.174C125.958 130.066 125.041 135.144 124.805 140.276V140.363H124.733L111.741 146.412L111.821 146.245C113.416 153.518 115.091 161.244 116.862 169.352L116.702 169.216L131.058 169.344H131.161L131.209 169.439C133.558 174.019 136.508 178.266 139.982 182.069L140.054 182.149V182.252L135.157 195.669L135.085 195.454L155.023 208.243H154.784L165.009 198.236L165.096 198.149H165.208C170.115 199.725 175.211 200.644 180.361 200.883H180.481L180.529 200.994C182.427 205.056 184.516 209.475 186.59 213.95L186.367 213.831L209.543 208.824L209.383 209.022C209.383 204.516 209.471 199.643 209.519 194.715V194.596L209.631 194.54C214.219 192.196 218.475 189.256 222.287 185.797L222.383 185.717H222.503L235.965 190.606L235.726 190.685L248.566 170.814V171.068L238.533 160.87L238.445 160.783V160.664C240.036 155.775 240.962 150.696 241.197 145.562V145.442L241.309 145.387L254.308 139.354L254.197 139.576C252.485 131.686 250.812 123.984 249.18 116.47L249.364 116.621L235.008 116.478H234.888L234.841 116.375C232.495 111.794 229.544 107.546 226.068 103.745L225.996 103.665V103.562L230.901 90.1449L230.973 90.3436L211.034 77.5386H211.234L200.993 87.5378L200.929 87.6014H200.842C195.936 86.0159 190.84 85.091 185.689 84.8512H185.609V84.7797L179.611 71.9349L179.747 71.9985L156.555 76.9743L156.627 76.8868C156.563 82.6097 156.515 87.2914 156.467 91.1941V91.2338C152.998 92.9941 149.712 95.0921 146.657 97.4972C145.652 98.2921 144.927 98.92 144.44 99.3333C143.954 99.7467 143.722 99.9533 143.722 99.9533C143.722 99.9533 144.616 99.0631 146.618 97.4495C149.653 95.0031 152.932 92.8724 156.403 91.0908V91.1543C156.403 87.2675 156.475 82.5859 156.515 76.8471V76.7755H156.587L179.763 71.7362H179.859V71.8236C181.741 75.7979 183.727 80.0583 185.936 84.7638L185.816 84.6922C191.001 84.9218 196.132 85.8414 201.073 87.4265H200.921L211.106 77.4353L211.194 77.3478L211.305 77.4114L231.244 90.2005L231.363 90.2721L231.315 90.4072C229.72 94.763 228.125 99.2221 226.419 103.824L226.379 103.641C229.882 107.47 232.856 111.746 235.223 116.359L235.056 116.256L249.411 116.391H249.563V116.542C251.201 124.05 252.878 131.75 254.595 139.64V139.799L254.452 139.863L241.46 145.903L241.572 145.729C241.338 150.903 240.41 156.022 238.812 160.95L238.764 160.743L248.805 170.941L248.917 171.052L248.829 171.196L235.989 191.067L235.901 191.202L235.75 191.146L222.279 186.258L222.495 186.218C218.653 189.704 214.362 192.663 209.734 195.017L209.846 194.834C209.798 199.739 209.75 204.611 209.71 209.142V209.301L209.543 209.34L186.367 214.34L186.207 214.38L186.135 214.229L180.082 201.281L180.249 201.392C175.061 201.154 169.927 200.227 164.985 198.634L165.184 198.586L155.008 208.585L154.896 208.689L154.768 208.609L134.83 195.804L134.702 195.725L134.75 195.582C136.465 190.916 138.14 186.322 139.663 182.164V182.347C136.169 178.518 133.202 174.241 130.842 169.63L130.994 169.717L116.638 169.574H116.511V169.447C114.756 161.339 113.081 153.614 111.502 146.341V146.229L111.606 146.174L124.606 140.149L124.534 140.268C124.777 135.121 125.705 130.029 127.293 125.126V125.245L117.268 115.04L117.205 114.984L117.252 114.912L130.125 95.0411V94.9935H130.172L140.181 98.6657L142.749 99.6115L143.722 99.9533Z" fill="#263238"/>
<path d="M250.129 220.238L203.952 249.647H355.332V220.238H250.129Z" fill="#455A64"/>
<path d="M335.513 202.075V267.801L378.5 234.934L335.513 202.075Z" fill="#455A64"/>
<path d="M279.303 233.623H280.547V237.995H283.291V239.004H279.303V233.623Z" fill="#263238"/>
<path d="M287.549 237.844H285.045L284.567 238.988H283.291L285.683 233.623H286.919L289.312 238.988H288.004L287.549 237.844ZM287.151 236.898L286.297 234.815L285.444 236.866L287.151 236.898Z" fill="#263238"/>
<path d="M289.727 236.627V233.623H290.971V236.58C290.971 237.605 291.417 238.026 292.175 238.026C292.933 238.026 293.371 237.605 293.371 236.58V233.623H294.608V236.627C294.608 237.273 294.35 237.891 293.893 238.347C293.435 238.803 292.814 239.06 292.167 239.06C291.52 239.06 290.899 238.803 290.441 238.347C289.984 237.891 289.727 237.273 289.727 236.627Z" fill="#263238"/>
<path d="M300.773 233.623V238.988H299.752L297.064 235.729V238.988H295.836V233.623H296.849L299.52 236.882V233.623H300.773Z" fill="#263238"/>
<path d="M301.706 236.31C301.742 235.732 301.947 235.178 302.296 234.715C302.645 234.253 303.122 233.902 303.669 233.708C304.216 233.513 304.808 233.483 305.372 233.62C305.936 233.758 306.447 234.057 306.842 234.481L306.044 235.221C305.88 235.022 305.672 234.862 305.438 234.753C305.203 234.645 304.947 234.59 304.688 234.593C304.232 234.593 303.793 234.774 303.47 235.096C303.147 235.418 302.966 235.854 302.966 236.31C302.966 236.765 303.147 237.202 303.47 237.524C303.793 237.846 304.232 238.026 304.688 238.026C304.948 238.03 305.205 237.974 305.44 237.864C305.675 237.754 305.881 237.592 306.044 237.391L306.842 238.122C306.449 238.549 305.94 238.852 305.376 238.992C304.812 239.132 304.219 239.104 303.672 238.911C303.124 238.717 302.645 238.368 302.296 237.905C301.946 237.443 301.741 236.888 301.706 236.31Z" fill="#263238"/>
<path d="M312.616 233.623V238.988H311.372V236.794H308.923V238.988H307.679V233.623H308.923V235.737H311.372V233.623H312.616Z" fill="#263238"/>
<path d="M63.7699 146.833C68.5072 206.709 118.911 253.979 180.21 253.979V224.57C157.068 224.551 134.879 215.383 118.513 199.077C102.146 182.772 92.9391 160.661 92.9117 137.597C92.9117 137.597 94.2276 122.416 95.1448 117.845L66.0907 112.409C65.03 117.599 63.3472 141.556 63.7699 146.833Z" fill="#92E3A9"/>
<path d="M101.254 197.37L100.751 199.111V199.158L101.437 200.001L102.602 199.055L103.399 200.009L99.2361 203.411L97.7607 201.614C96.8515 200.502 96.8595 199.341 97.7607 198.578C98.0324 198.337 98.3725 198.186 98.734 198.146C99.0955 198.107 99.4604 198.18 99.7784 198.356L100.353 196.337L101.254 197.37ZM98.614 201.026L99.26 201.821L100.712 200.637L100.066 199.842C99.587 199.254 99.0686 199.182 98.614 199.548C98.1594 199.913 98.1355 200.438 98.614 201.026Z" fill="#263238"/>
<path d="M96.6681 192.927L97.4656 192.331L99.938 195.669L95.6153 198.848L93.2227 195.589L94.0202 194.993L95.6951 197.267L96.6362 196.575L95.1527 194.572L95.9503 194L97.4337 196.003L98.4306 195.264L96.6681 192.927Z" fill="#263238"/>
<path d="M89.6019 190.304L95.3681 189.247L96.054 190.264L92.8638 195.168L92.1141 194.055L94.3951 190.566L90.2798 191.321L89.6019 190.304Z" fill="#263238"/>
<path d="M89.3148 189.835L88.6529 188.778L93.2227 185.94L93.8847 186.989L89.3148 189.835Z" fill="#263238"/>
<path d="M89.6099 181.799L90.4792 181.298L92.5687 184.891L87.8952 187.585L85.8535 184.08L86.7228 183.579L88.1424 186.019L89.1553 185.431L87.8952 183.277L88.7406 182.792L89.9927 184.946L91.0694 184.326L89.6099 181.799Z" fill="#263238"/>
<path d="M81.5149 175.798L87.0977 174.931L87.7118 176.116L85.0002 178.818L88.8044 178.254L89.4025 179.43L85.4149 183.404L84.8327 182.26L87.648 179.47L83.7002 180.05L83.1818 179.033L86.013 176.211L82.0254 176.823L81.5149 175.798Z" fill="#263238"/>
<path d="M113.265 110.565L55.2602 94.7073L74.0261 139.831L113.265 110.565Z" fill="#455A64"/>
<path d="M98.4785 109.444C104.643 92.7239 115.802 78.2887 130.451 68.0832C145.1 57.8777 162.536 52.3922 180.409 52.3657V22.9564C129.917 22.9564 86.8106 55.0523 70.5489 99.85L98.4785 109.444Z" fill="#455A64"/>
<path d="M102.546 69.3596L104.564 67.9845C106.023 66.991 107.618 67.1897 108.551 68.533C109.484 69.8763 109.07 71.4262 107.618 72.4118L105.6 73.7869L102.546 69.3596ZM106.972 71.609C107.172 71.4941 107.345 71.3394 107.482 71.1546C107.619 70.9697 107.716 70.7587 107.768 70.5347C107.819 70.3108 107.823 70.0787 107.78 69.8529C107.737 69.6272 107.648 69.4128 107.518 69.223C107.388 69.0332 107.221 68.8722 107.025 68.75C106.83 68.6278 106.612 68.5471 106.384 68.5129C106.156 68.4788 105.923 68.4918 105.701 68.5514C105.478 68.6109 105.27 68.7156 105.09 68.8588L104.149 69.5027L106.031 72.2449L106.972 71.609Z" fill="#263238"/>
<path d="M113.703 67.0545L114.27 67.8494L110.824 70.1862L107.834 65.7907L111.191 63.5016L111.757 64.2964L109.421 65.8861L110.075 66.8479L112.1 65.5125L112.643 66.3074L110.585 67.7143L111.287 68.7396L113.703 67.0545Z" fill="#263238"/>
<path d="M117.005 61.8721C117.683 62.8657 117.364 63.9864 116.208 64.7892L115.314 65.4013L116.112 66.6253L115.091 67.3248L112.052 62.8895L113.975 61.578C115.163 60.7434 116.327 60.8786 117.005 61.8721ZM115.968 62.5875C115.633 62.0947 115.123 62.0311 114.493 62.4524L113.695 63.0247L114.748 64.5667L115.546 63.9944C116.176 63.5652 116.295 63.0644 115.968 62.5875Z" fill="#263238"/>
<path d="M116.606 59.7737L117.635 59.0743L120.1 62.667L122.325 61.1488L122.899 61.9437L119.637 64.1613L116.606 59.7737Z" fill="#263238"/>
<path d="M121.631 59.6227C121.269 59.1564 121.056 58.5924 121.019 58.0038C120.983 57.4153 121.125 56.8295 121.427 56.3224C121.729 55.8153 122.176 55.4103 122.712 55.1601C123.248 54.9098 123.847 54.8258 124.431 54.919C125.015 55.0121 125.558 55.2781 125.988 55.6825C126.419 56.0868 126.718 56.6108 126.846 57.1865C126.974 57.7621 126.925 58.3629 126.706 58.9107C126.487 59.4585 126.108 59.9281 125.618 60.2586C125.318 60.4863 124.974 60.6509 124.608 60.7424C124.242 60.8339 123.861 60.8504 123.488 60.791C123.115 60.7315 122.759 60.5973 122.439 60.3965C122.12 60.1957 121.845 59.9325 121.631 59.6227ZM125.459 57.0156C125.264 56.7504 124.996 56.548 124.686 56.4336C124.377 56.3193 124.041 56.298 123.72 56.3724C123.399 56.4468 123.106 56.6137 122.88 56.8522C122.653 57.0908 122.501 57.3905 122.444 57.7142C122.386 58.0379 122.426 58.3712 122.557 58.6728C122.688 58.9744 122.905 59.2309 123.181 59.4105C123.458 59.5902 123.781 59.6849 124.11 59.6831C124.44 59.6812 124.762 59.5828 125.036 59.4002C125.23 59.2784 125.395 59.1177 125.523 58.9284C125.65 58.7391 125.737 58.5254 125.776 58.301C125.816 58.0765 125.808 57.8462 125.754 57.6249C125.699 57.4036 125.599 57.196 125.459 57.0156Z" fill="#263238"/>
<path d="M129.662 55.108L130.731 56.6977L129.702 57.3971L128.625 55.8074L124.949 54.1303L126.041 53.3911L128.569 54.5357L128.41 51.7537L129.423 51.0701L129.662 55.108Z" fill="#263238"/>
<path d="M197.061 73.93L158.636 32.0335L207.669 4.3569L197.061 73.93Z" fill="#E0E0E0"/>
<path d="M250.081 80.3762C241.889 71.0301 231.784 63.5391 220.447 58.4063C209.109 53.2735 196.801 50.6176 184.349 50.6171V21.2077C201.009 21.2091 217.476 24.7618 232.646 31.6273C247.815 38.4928 261.336 48.5123 272.301 61.0137L250.081 80.3762Z" fill="#E0E0E0"/>
<path d="M216.872 40.8722L215.277 40.2602L215.636 39.3143L220.022 40.9835L219.655 41.9294L218.06 41.3173L216.465 45.379L215.309 44.9339L216.872 40.8722Z" fill="#263238"/>
<path d="M222.949 46.77L222.598 47.7079L218.69 46.2136L220.621 41.2061L224.417 42.6606L224.058 43.5906L221.418 42.5812L220.995 43.6701L223.332 44.5603L222.989 45.4585L220.652 44.5683L220.206 45.7288L222.949 46.77Z" fill="#263238"/>
<path d="M223.316 47.4138L224.042 46.6905C224.403 47.2108 224.911 47.6121 225.501 47.8431C226.195 48.1054 226.562 47.9861 226.682 47.6761C227.041 46.7382 223.866 46.2693 224.584 44.4093C224.911 43.5588 225.876 43.1137 227.304 43.6145C227.927 43.8351 228.478 44.2196 228.899 44.7272L228.205 45.4744C227.877 45.0637 227.448 44.7435 226.961 44.5444C226.275 44.2821 225.908 44.4411 225.789 44.7511C225.43 45.6811 228.596 46.158 227.894 47.9941C227.567 48.7889 226.602 49.2817 225.158 48.7333C224.423 48.4923 223.78 48.0316 223.316 47.4138Z" fill="#263238"/>
<path d="M230.653 46.1103L229.058 45.4983L229.417 44.5524L233.796 46.2216L233.437 47.1674L231.842 46.5554L230.247 50.6171L229.058 50.1799L230.653 46.1103Z" fill="#263238"/>
<path d="M287.908 191.218L261.191 178.731C266.63 167.166 271.623 150.49 271.623 137.597C271.664 123.963 268.458 110.514 262.268 98.3557C261.191 96.2334 257.283 89.1831 256.206 87.4106L281.456 72.1813C283.004 74.7407 287.278 82.5143 288.586 85.0658C296.886 101.338 301.186 119.343 301.131 137.597C301.131 154.838 295.206 175.71 287.908 191.218Z" fill="#92E3A9"/>
<path d="M245.815 100.828L296.067 67.8732L249.675 52.1273L245.815 100.828Z" fill="#92E3A9"/>
<path d="M283.522 106.272L284.184 108.617C284.662 110.31 283.969 111.797 282.405 112.194C280.842 112.591 279.486 111.765 279.008 110.08L278.346 107.695L283.522 106.272ZM279.973 109.738C280.004 109.975 280.087 110.203 280.214 110.406C280.342 110.609 280.512 110.782 280.713 110.914C280.913 111.045 281.14 111.132 281.377 111.169C281.615 111.205 281.857 111.191 282.089 111.126C282.32 111.06 282.534 110.947 282.717 110.792C282.9 110.637 283.048 110.444 283.15 110.227C283.252 110.011 283.306 109.774 283.308 109.535C283.31 109.296 283.261 109.058 283.163 108.84L282.852 107.743L279.662 108.649L279.973 109.738Z" fill="#263238"/>
<path d="M281.887 117.591L280.914 117.806L279.997 113.76L285.237 112.576L286.138 116.55L285.165 116.772L284.543 114.022L283.402 114.284L283.953 116.669L283.003 116.884L282.453 114.451L281.241 114.73L281.887 117.591Z" fill="#263238"/>
<path d="M287.278 122.781L281.576 121.438L281.361 120.238L286.249 117.058L286.481 118.378L282.988 120.651L287.063 121.613L287.278 122.781Z" fill="#263238"/>
<path d="M283.586 128.099L282.589 128.234L282.03 124.117L287.366 123.401L287.908 127.376L286.919 127.503L286.537 124.713L285.38 124.872L285.715 127.336L284.758 127.463L284.423 124.999L283.187 125.166L283.586 128.099Z" fill="#263238"/>
<path d="M288.076 128.655L288.195 129.895L283.849 130.301L284.096 132.979L283.091 133.075L282.716 129.164L288.076 128.655Z" fill="#263238"/>
<path d="M285.779 133.146C286.366 133.083 286.959 133.198 287.481 133.474C288.003 133.751 288.429 134.178 288.705 134.698C288.98 135.219 289.093 135.811 289.027 136.396C288.962 136.981 288.721 137.534 288.337 137.981C287.953 138.429 287.443 138.751 286.873 138.907C286.303 139.062 285.7 139.044 285.14 138.853C284.581 138.663 284.092 138.31 283.737 137.839C283.381 137.369 283.176 136.803 283.147 136.214C283.105 135.838 283.141 135.458 283.253 135.096C283.364 134.734 283.549 134.4 283.796 134.112C284.043 133.824 284.346 133.59 284.687 133.424C285.028 133.258 285.4 133.163 285.779 133.146ZM286.01 137.748C286.341 137.724 286.656 137.604 286.918 137.402C287.18 137.2 287.377 136.925 287.483 136.613C287.589 136.3 287.6 135.963 287.515 135.644C287.429 135.325 287.252 135.038 287.004 134.82C286.756 134.601 286.448 134.46 286.12 134.414C285.792 134.369 285.458 134.421 285.16 134.564C284.861 134.707 284.612 134.934 284.442 135.218C284.273 135.502 284.191 135.829 284.208 136.159C284.214 136.383 284.267 136.604 284.363 136.808C284.458 137.011 284.595 137.193 284.764 137.342C284.933 137.491 285.13 137.604 285.345 137.674C285.559 137.744 285.786 137.769 286.01 137.748Z" fill="#263238"/>
<path d="M286.848 144.656C285.643 144.656 284.894 143.765 284.894 142.335V141.254H283.41V140.014H288.786V142.335C288.794 143.749 288.076 144.648 286.848 144.656ZM286.848 143.4C287.438 143.4 287.781 143.01 287.781 142.255V141.246H285.914V142.263C285.907 143.018 286.257 143.408 286.84 143.408L286.848 143.4Z" fill="#263238"/>
<path d="M184.349 253.979H90.1841V224.57H184.349C197.78 224.618 211.039 221.556 223.08 215.624C235.121 209.693 245.615 201.055 253.734 190.391L277.174 208.259C266.31 222.524 252.271 234.078 236.163 242.012C220.054 249.946 202.317 254.043 184.349 253.979Z" fill="#92E3A9"/>
<path d="M238.812 183.015L288.881 216.232L285.292 167.523L238.812 183.015Z" fill="#92E3A9"/>
<path d="M288.873 216.232L285.284 167.523L238.804 183.015L252.362 192.036C244.215 202.225 233.861 210.445 222.074 216.079C210.287 221.713 197.373 224.616 184.301 224.57H90.1841V253.979H184.349C202.286 254.042 219.994 249.957 236.08 242.046C252.166 234.135 266.191 222.613 277.054 208.387L288.873 216.232Z" fill="black"/>
<path d="M238.11 222.463C238.828 223.417 238.557 224.554 237.417 225.412L236.547 226.064L237.44 227.24L236.444 227.987L233.206 223.687L235.064 222.288C236.236 221.446 237.385 221.501 238.11 222.463ZM237.098 223.258C236.747 222.789 236.228 222.741 235.622 223.195L234.825 223.807L235.949 225.293L236.747 224.689C237.353 224.188 237.456 223.687 237.098 223.218V223.258Z" fill="#263238"/>
<path d="M237.64 220.381L238.637 219.634L241.261 223.107L243.414 221.517L244.028 222.312L240.878 224.697L237.64 220.381Z" fill="#263238"/>
<path d="M246.764 218.807L244.77 220.309L245.081 221.509L244.06 222.304L242.736 216.581L243.717 215.842L248.885 218.688L247.84 219.483L246.764 218.807ZM245.878 218.29L243.956 217.162L244.515 219.316L245.878 218.29Z" fill="#263238"/>
<path d="M250.033 211.073L253.271 215.357L252.474 215.977L248.359 214.984L250.329 217.583L249.348 218.322L246.11 214.038L246.907 213.418L251.006 214.411L249.045 211.812L250.033 211.073Z" fill="#263238"/>
<path d="M82.3444 206.407V272.141L124.781 239.274L82.3444 206.407Z" fill="#E0E0E0"/>
<path d="M90.1921 224.57H2.09668V253.979H90.1921V224.57Z" fill="#E0E0E0"/>
<path d="M39.8519 238.281C39.8519 239.473 38.9506 240.22 37.5071 240.22H36.4225V241.699H35.1783V236.333H37.5071C38.9506 236.333 39.8519 237.081 39.8519 238.281ZM38.5838 238.281C38.5838 237.693 38.201 237.343 37.4433 237.343H36.4225V239.211H37.4433C38.201 239.211 38.5838 238.861 38.5838 238.281Z" fill="#263238"/>
<path d="M40.7291 236.333H41.9733V240.689H44.6769V241.699H40.6893L40.7291 236.333Z" fill="#263238"/>
<path d="M48.9677 240.554H46.4634L45.9929 241.699H44.7088L47.1014 236.333H48.3376L50.7302 241.699H49.4462L48.9677 240.554ZM48.5769 239.584L47.7235 237.526L46.8622 239.584H48.5769Z" fill="#263238"/>
<path d="M56.2491 236.333V241.699H55.1964L52.5087 238.44V241.699H51.3124V236.333H52.3412L55.0129 239.592V236.333H56.2491Z" fill="#263238"/>
<path d="M173.829 343.972L171.564 367.96L158.549 366.999L160.774 342.954L173.829 343.972Z" fill="#92E3A9"/>
<path d="M165.256 366.585C165.152 366.585 165.623 361.315 166.325 354.845C167.026 348.375 167.664 343.137 167.776 343.153C167.888 343.169 167.409 348.415 166.715 354.885C166.021 361.355 165.328 366.593 165.256 366.585Z" fill="#263238"/>
<path d="M171.716 366.307L158.708 365.305L158.549 366.999L171.564 367.96L171.716 366.307Z" fill="#263238"/>
<path d="M159.258 359.312C159.366 359.122 159.506 358.953 159.673 358.812C160.065 358.399 160.495 358.024 160.957 357.691C161.641 357.187 162.393 356.783 163.19 356.491C164.178 356.127 165.236 355.991 166.285 356.093C167.235 356.182 168.157 356.467 168.992 356.929C169.827 357.392 170.556 358.022 171.134 358.78C171.47 359.24 171.739 359.746 171.931 360.282C172.017 360.472 172.066 360.677 172.075 360.886C171.738 360.21 171.343 359.564 170.894 358.955C169.729 357.548 168.051 356.659 166.229 356.483C164.405 356.362 162.594 356.87 161.101 357.921C159.912 358.708 159.314 359.368 159.258 359.312Z" fill="#263238"/>
<path d="M160.144 349.798L159.896 352.445L172.944 353.351L173.135 351.364L160.144 349.798Z" fill="black"/>
<path d="M226.155 342.295L227.719 366.339L214.711 367.444L213.1 343.352L226.155 342.295Z" fill="#92E3A9"/>
<path d="M221.235 365.965C221.123 365.965 220.764 360.703 220.437 354.209C220.11 347.715 219.911 342.438 220.014 342.43C220.118 342.422 220.493 347.684 220.812 354.186C221.131 360.687 221.346 365.965 221.235 365.965Z" fill="#263238"/>
<path d="M227.607 364.685L214.599 365.743L214.711 367.444L227.719 366.339L227.607 364.685Z" fill="#263238"/>
<path d="M214.2 359.742C214.2 359.742 214.28 359.527 214.495 359.193C214.817 358.724 215.183 358.288 215.588 357.89C216.182 357.283 216.862 356.766 217.606 356.355C218.901 355.626 220.396 355.33 221.872 355.512C223.348 355.693 224.727 356.343 225.805 357.365C226.214 357.765 226.565 358.22 226.849 358.716C226.962 358.891 227.043 359.085 227.089 359.288C226.645 358.674 226.152 358.097 225.613 357.564C224.234 356.366 222.439 355.755 220.613 355.863C218.793 356.031 217.087 356.817 215.78 358.088C214.743 359.042 214.256 359.781 214.2 359.742Z" fill="#263238"/>
<path d="M213.554 350.211L213.738 352.858L226.762 351.698L226.634 349.703L213.554 350.211Z" fill="black"/>
<path d="M189.325 129.712L171.413 132.375L170.567 117.098C170.567 117.098 169.275 117.043 168.175 110.525C167.074 104.007 164.913 92.9586 164.913 92.9586C168.518 90.736 172.637 89.4795 176.873 89.311C181.108 89.1424 185.315 90.0677 189.086 91.9969L190.211 92.5771L189.325 129.712Z" fill="#FFBE9D"/>
<path d="M189.349 100.955C189.461 100.891 193.8 98.8803 194.374 103.339C194.948 107.798 190.155 107.512 190.131 107.377C190.107 107.242 189.349 100.955 189.349 100.955Z" fill="#FFBE9D"/>
<path d="M167.401 103.546C167.274 103.546 162.967 103.109 163.836 107.52C164.706 111.932 169.172 110.151 169.156 110.016C169.14 109.881 167.401 103.546 167.401 103.546Z" fill="#FFBE9D"/>
<path d="M190.777 100.216C190.689 104.071 191.144 106.018 190.912 108.617C190.538 112.734 188.99 116.097 185.609 118.672C182.227 121.247 177.211 122.018 173.59 119.84C171.078 118.33 169.172 116.478 168.39 113.72C167.609 110.962 166.468 106.042 165.998 103.212C165.12 98.1013 163.98 93.3322 163.98 93.3322L178.686 88.2531L188.105 91.7425L190.777 100.216Z" fill="#263238"/>
<path d="M178.311 122.161C180.128 122.378 181.959 121.882 183.416 120.778C183.352 120.667 182.291 121.192 180.895 121.573C179.5 121.955 178.311 122.042 178.311 122.161Z" fill="#263238"/>
<path d="M191.08 106.694C190.896 102.791 190.474 98.3557 190.442 94.2145C190.442 92.6248 190.633 90.3833 190.243 88.8731C189.945 87.3345 189.361 85.8651 188.52 84.5412C187.915 83.74 187.137 83.0841 186.244 82.6219C185.351 82.1598 184.366 81.903 183.36 81.8705C182.343 81.849 181.334 82.0516 180.405 82.4638C179.475 82.876 178.649 83.4876 177.984 84.2551C177.272 83.5565 176.372 83.0772 175.394 82.8742C174.415 82.6713 173.399 82.7533 172.466 83.1105C171.549 83.4817 170.763 84.1156 170.208 84.932C169.653 85.7484 169.353 86.7106 169.347 87.6967C168.708 87.3035 167.962 87.1155 167.212 87.1581C166.462 87.2008 165.743 87.472 165.152 87.9352C164.588 88.4096 164.195 89.0544 164.033 89.7717C163.87 90.4889 163.947 91.2395 164.251 91.9094C163.735 92.0777 163.267 92.367 162.887 92.7529C162.507 93.1388 162.225 93.6101 162.066 94.1271C161.925 94.6489 161.92 95.1979 162.051 95.7222C162.182 96.2465 162.445 96.7288 162.815 97.1237C163.685 98.0536 165.041 98.4193 166.006 99.2856C166.531 99.7866 166.895 100.432 167.053 101.139C167.21 101.846 167.154 102.584 166.891 103.26" fill="#263238"/>
<path d="M167.8 96.2334C167.851 96.3786 167.933 96.5114 168.039 96.6229C168.323 96.9597 168.677 97.2309 169.076 97.4177C169.716 97.7325 170.44 97.8328 171.142 97.7039C171.597 97.6172 172.03 97.4411 172.416 97.1859C172.802 96.9307 173.133 96.6015 173.391 96.2175H173.056C173.257 96.7134 173.582 97.1494 174.001 97.4835C174.42 97.8176 174.919 98.0386 175.448 98.1252C176.044 98.2415 176.658 98.2142 177.241 98.0455C177.824 97.8768 178.358 97.5716 178.798 97.1554C179.585 96.4323 180.119 95.4768 180.321 94.4291L179.962 94.5245C180.442 95.0087 181.028 95.3745 181.675 95.5925C182.322 95.8106 183.011 95.8749 183.687 95.7804C184.219 95.7065 184.732 95.528 185.195 95.2551C185.657 94.9822 186.061 94.6204 186.382 94.1907C186.813 93.6482 187.088 93.0002 187.18 92.3148C187.236 92.0769 187.236 91.8294 187.18 91.5915C187.18 91.5915 187.18 91.8459 187.068 92.291C186.931 92.9314 186.644 93.5305 186.231 94.0396C185.601 94.8189 184.691 95.3234 183.695 95.4465C183.08 95.5202 182.457 95.4516 181.873 95.2462C181.289 95.0408 180.761 94.7041 180.329 94.2622L180.05 93.9681L179.97 94.3655C179.772 95.326 179.279 96.201 178.559 96.8693C178.17 97.2395 177.697 97.5113 177.181 97.6621C176.665 97.8128 176.12 97.8381 175.592 97.7357C175.132 97.6705 174.697 97.4906 174.326 97.2126C173.955 96.9347 173.661 96.5678 173.47 96.146L173.343 95.7804L173.135 96.1142C172.68 96.8192 171.963 97.3163 171.142 97.4972C170.502 97.6329 169.835 97.5662 169.236 97.3065C168.687 97.052 168.199 96.6865 167.8 96.2334Z" fill="#455A64"/>
<path d="M167.545 94.453C167.537 93.8562 167.668 93.2658 167.928 92.7281C168.232 92.1443 168.735 91.6878 169.347 91.4405C169.728 91.2829 170.137 91.2058 170.548 91.214C170.96 91.2222 171.366 91.3155 171.74 91.4882L172.154 91.6869L172.043 91.2577C171.936 90.8287 171.917 90.3826 171.987 89.9462C172.065 89.4666 172.241 89.0079 172.503 88.5979C172.765 88.188 173.107 87.8354 173.51 87.5616C174.201 87.1179 175.02 86.914 175.839 86.9814C176.601 87.07 177.333 87.3251 177.984 87.7285C177.984 87.7285 177.857 87.5378 177.522 87.2993C177.03 86.9639 176.463 86.7537 175.871 86.6873C174.974 86.5764 174.066 86.7726 173.295 87.2437C172.837 87.5395 172.446 87.928 172.148 88.384C171.85 88.8399 171.651 89.3532 171.564 89.8905C171.484 90.3802 171.508 90.8814 171.636 91.361L171.931 91.1225C171.504 90.9337 171.042 90.8361 170.575 90.8361C170.108 90.8361 169.646 90.9337 169.22 91.1225C168.526 91.4068 167.966 91.9401 167.648 92.6169C167.452 93.042 167.365 93.5089 167.393 93.9761C167.449 94.294 167.521 94.4609 167.545 94.453Z" fill="#455A64"/>
<path d="M177.219 93.0302C177.275 93.0302 177.163 92.7758 177.131 92.4102C177.097 91.9325 177.185 91.454 177.386 91.0192C177.618 90.5105 177.905 89.978 178.072 89.6918C178.125 89.6204 178.198 89.5664 178.282 89.5367C178.366 89.5069 178.457 89.5028 178.543 89.5249C178.543 89.5249 178.543 89.4216 178.407 89.358C178.311 89.3252 178.207 89.3205 178.108 89.3444C178.009 89.3683 177.919 89.4199 177.849 89.4931C177.681 89.6753 177.534 89.8752 177.41 90.0892C177.247 90.3406 177.108 90.6068 176.996 90.8841C176.758 91.379 176.699 91.9405 176.828 92.4738C176.956 92.8871 177.219 93.062 177.219 93.0302Z" fill="#455A64"/>
<path d="M185.282 85.964C185.33 85.964 185.234 85.6143 184.867 85.1691C184.645 84.9197 184.374 84.7193 184.07 84.5809C183.658 84.4405 183.211 84.4433 182.802 84.5889C182.09 84.832 181.497 85.3347 181.143 85.9958C180.872 86.4568 180.76 86.7906 180.808 86.7906C180.856 86.7906 181.071 86.5522 181.398 86.1468C181.773 85.6105 182.305 85.2025 182.921 84.9784C183.226 84.8973 183.546 84.8965 183.851 84.9759C184.155 85.0553 184.434 85.2123 184.66 85.4314C185.035 85.7335 185.194 85.9958 185.282 85.964Z" fill="#455A64"/>
<path d="M185.992 105.255C186.602 104.319 186.989 103.256 187.124 102.147C187.399 101.072 187.413 99.9462 187.164 98.8644C187.036 98.8644 187.028 100.327 186.701 102.044C186.374 103.761 185.888 105.255 185.992 105.255Z" fill="#455A64"/>
<path d="M184.149 106.686C184.573 106.016 184.846 105.262 184.947 104.476C185.182 103.723 185.247 102.928 185.138 102.147C184.832 102.865 184.628 103.622 184.532 104.397C184.293 105.137 184.164 105.908 184.149 106.686Z" fill="#455A64"/>
<path d="M171.445 109.046C171.442 110.412 171.844 111.747 172.601 112.885C173.25 114.105 174.235 115.115 175.44 115.795C174.537 114.823 173.713 113.781 172.976 112.679C172.367 111.512 171.854 110.297 171.445 109.046Z" fill="#455A64"/>
<path d="M168.877 106.113C168.646 107.317 168.746 108.561 169.167 109.713C169.589 110.865 170.315 111.882 171.269 112.655C170.612 111.678 170.046 110.643 169.578 109.563C169.241 108.436 169.006 107.282 168.877 106.113Z" fill="#455A64"/>
<path d="M170.631 129.283L170.791 125.452L189.517 121.51L190.179 124.665L170.631 129.283Z" fill="white"/>
<path d="M112.005 175.631C112.005 175.631 111.079 176.108 111.717 176.783C112.356 177.459 120.881 184.994 122.038 185.733C123.51 186.429 125.049 186.975 126.631 187.363L128.88 186.949L130.164 181.56L131.759 178.953L131.353 178.357L132.844 172.579C132.844 172.579 131.552 172.054 130.954 172.984C130.117 174.295 128.96 176.426 128.96 176.426C128.96 176.426 126.615 176.775 125.77 175.766C124.925 174.757 119.956 166.403 119.39 166.228C118.824 166.053 117.874 166.228 118.361 167.587C118.847 168.946 122.022 173.652 121.902 173.946C121.782 174.24 121.296 174.558 121.104 174.327C120.913 174.097 115.809 167.436 115.003 167.317C114.198 167.197 113.536 167.889 114.317 169.169C115.099 170.448 119.23 175.146 119.039 175.448C118.847 175.75 118.305 175.384 118.305 175.384C118.305 175.384 113.592 170.48 112.93 170.568C112.268 170.655 112.076 171.362 112.451 172.006C112.826 172.65 117.595 177.221 117.683 177.57C117.739 177.809 117.539 178.755 117.149 178.429C116.758 178.103 112.379 175.321 112.005 175.631Z" fill="#FFBE9D"/>
<path d="M160.152 224.482L159.163 288.611L156.977 355.179L175.105 356.427L181.206 288.579L188.169 240.419L189.7 240.324L203.41 290.455L211.951 354.837C213.012 354.543 229.058 353.248 229.058 353.248L217.893 222.996L216.035 212.162L168.31 213.219L160.152 224.482Z" fill="#263238"/>
<path d="M213.81 189.914L212.43 152.827L210.133 127.217H194.485L190.498 123.33L170.424 127.217L168.566 132.781C168.566 132.781 152.447 137.891 151.554 139.449C151.554 139.449 157.209 161.705 159.872 174.152C161.699 182.705 163.621 191.472 163.621 191.472L158.533 232.494C158.325 232.494 189.541 231.127 189.541 231.127L219.687 227.876L213.81 189.914Z" fill="#455A64"/>
<path d="M230.111 115.588C230.111 115.588 225.517 115.946 225.246 115.946C224.975 115.946 220.286 116.383 220.286 116.383C220.37 116.038 220.53 115.717 220.755 115.442C220.98 115.167 221.264 114.945 221.586 114.793C222.678 114.308 224.776 113.553 224.967 113.203C225.158 112.854 225.661 112.281 225.23 111.685C224.8 111.089 216.872 103.069 216.601 102.64C216.33 102.211 215.891 101.392 216.601 101.233C217.311 101.074 218.196 101.829 218.778 102.314C219.36 102.799 222.455 105.398 222.766 105.239C223.077 105.08 222.822 104.802 222.822 104.802C222.822 104.802 217.582 99.4287 217.526 99.2379C217.47 99.0472 216.856 97.4893 218.324 97.7516C219.041 97.8708 224.481 103.419 224.704 103.196C224.927 102.974 220.134 96.8375 220.573 96.3765C221.011 95.9155 221.498 95.3988 222.367 96.3765C223.236 97.3541 226.977 102.33 227.256 102.386C227.333 102.395 227.41 102.385 227.482 102.356C227.553 102.328 227.616 102.281 227.665 102.222C227.714 102.162 227.746 102.091 227.76 102.016C227.773 101.94 227.767 101.862 227.743 101.789C227.639 101.416 225.414 97.5529 225.414 97.1157C225.414 96.6785 225.844 96.5752 226.283 96.5196C226.722 96.4639 231.387 103.196 231.387 103.196C231.387 103.196 234.992 108.975 235.375 109.643C235.788 110.592 236.135 111.57 236.412 112.568L230.111 115.588Z" fill="#FFBE9D"/>
<path d="M228.963 115.85L232.089 127.884L224.911 130.555L209.487 127.217V149.941L211.672 155.847C211.672 155.847 243.972 140.324 246.118 138.639C250.105 135.459 243.765 124.443 243.765 124.443L237.903 111.868L228.963 115.85Z" fill="#455A64"/>
<path d="M151.546 139.473L147.933 146.682L138.81 176.791L128.617 179.502L126.703 188.786C126.703 188.786 142.654 192.513 145.605 191.234C150.621 189.064 159.003 168.334 159.003 168.334L157.871 150.617L151.546 139.473Z" fill="#455A64"/>
<path d="M242.218 132.804C240.736 131.557 239.133 130.46 237.433 129.53C235.68 128.719 233.85 128.088 231.969 127.646C232.546 127.604 233.125 127.658 233.684 127.805C235.051 128.077 236.374 128.534 237.616 129.164C238.862 129.801 240.016 130.603 241.045 131.549C241.506 131.897 241.903 132.321 242.218 132.804Z" fill="#263238"/>
<path d="M239.179 127.821C237.891 127.604 236.586 127.503 235.279 127.519C233.985 127.672 232.707 127.938 231.459 128.313C232.608 127.61 233.913 127.197 235.258 127.113C236.604 127.028 237.951 127.274 239.179 127.829V127.821Z" fill="#263238"/>
<path d="M194.485 127.217C194.215 127.448 193.921 127.651 193.608 127.821C193.321 128.011 192.962 128.226 192.531 128.457C192.101 128.687 191.614 128.957 191.056 129.251C189.76 129.877 188.429 130.426 187.068 130.897C185.406 131.446 183.715 131.907 182.004 132.28C178.875 132.966 175.691 133.373 172.489 133.496C171.261 133.544 170.272 133.544 169.586 133.496C169.228 133.502 168.871 133.476 168.518 133.416C168.87 133.351 169.228 133.322 169.586 133.329C170.264 133.329 171.253 133.257 172.474 133.178C175.647 132.972 178.801 132.528 181.908 131.851C183.727 131.445 185.433 130.96 186.965 130.468C188.496 129.975 189.844 129.426 190.952 128.878C191.511 128.639 192.005 128.393 192.436 128.178C192.866 127.964 193.233 127.781 193.544 127.606C193.845 127.446 194.16 127.316 194.485 127.217Z" fill="#263238"/>
<path d="M199.215 191.528C198.843 191.666 198.459 191.765 198.066 191.822C197.317 191.989 196.232 192.18 194.876 192.362C187.781 193.279 180.572 192.738 173.694 190.773C172.378 190.391 171.301 190.041 170.623 189.763C170.247 189.641 169.881 189.486 169.531 189.302C169.921 189.364 170.303 189.468 170.671 189.612C171.397 189.843 172.458 190.145 173.773 190.494C180.638 192.302 187.777 192.84 194.836 192.084C196.192 191.941 197.285 191.798 198.026 191.679C198.418 191.596 198.815 191.546 199.215 191.528Z" fill="#263238"/>
<path d="M138.243 179.541C138.132 179.541 139.256 175.353 140.748 170.258C142.239 165.163 143.531 161.061 143.643 161.093C143.754 161.125 142.638 165.274 141.146 170.377C139.655 175.48 138.355 179.573 138.243 179.541Z" fill="#263238"/>
<path d="M187.188 203.546C187.308 203.546 187.515 208.172 187.659 213.879C187.802 219.586 187.818 224.212 187.706 224.212C187.595 224.212 187.379 219.594 187.244 213.879C187.108 208.164 187.076 203.554 187.188 203.546Z" fill="#263238"/>
<path d="M198.625 238.71C198.625 238.821 194.589 239.656 189.565 240.578C184.54 241.5 180.457 242.168 180.433 242.032C180.409 241.897 184.468 241.087 189.493 240.165C194.517 239.243 198.601 238.599 198.625 238.71Z" fill="#455A64"/>
<path d="M217.032 287.363C215.277 287.46 213.531 287.683 211.808 288.03C210.123 288.516 208.473 289.116 206.871 289.827C207.251 289.466 207.691 289.173 208.171 288.96C209.293 288.376 210.482 287.93 211.712 287.633C212.941 287.331 214.203 287.182 215.468 287.188C215.996 287.153 216.525 287.212 217.032 287.363Z" fill="#455A64"/>
<path d="M173.367 290.455C173.367 290.574 171.867 290.272 170.033 290.359C168.199 290.447 166.755 290.86 166.723 290.741C168.814 289.78 171.2 289.677 173.367 290.455Z" fill="#455A64"/>
<path d="M163.613 191.496C163.555 191.366 163.512 191.23 163.485 191.091C163.406 190.773 163.302 190.383 163.19 189.906C162.935 188.817 162.584 187.339 162.169 185.543C161.324 181.799 160.184 176.728 158.923 171.124C157.663 165.52 156.531 160.441 155.693 156.698C155.287 154.901 154.952 153.415 154.712 152.326L154.457 151.134C154.416 150.997 154.394 150.855 154.393 150.712C154.459 150.84 154.508 150.977 154.537 151.118C154.625 151.428 154.736 151.817 154.864 152.286C155.143 153.311 155.526 154.798 155.973 156.634C156.882 160.306 158.062 165.377 159.322 171.029C160.582 176.68 161.715 181.775 162.456 185.479C162.823 187.291 163.126 188.778 163.342 189.867C163.429 190.351 163.509 190.749 163.565 191.067C163.602 191.207 163.619 191.351 163.613 191.496Z" fill="#263238"/>
<path d="M211.656 140.061C211.676 140.137 211.689 140.214 211.696 140.292L211.752 140.96C211.808 141.54 211.88 142.406 211.943 143.527C212.103 145.752 212.278 148.988 212.478 152.978C212.876 160.926 213.347 171.99 213.802 184.175C213.873 186.139 213.945 188.078 214.017 189.906C215.612 200.629 217.087 210.119 218.124 216.931C218.619 220.317 219.025 223.051 219.305 224.967C219.432 225.889 219.528 226.612 219.6 227.137C219.6 227.367 219.656 227.55 219.671 227.701C219.684 227.764 219.684 227.829 219.671 227.892C219.646 227.834 219.63 227.772 219.624 227.709C219.624 227.558 219.56 227.375 219.52 227.145C219.432 226.628 219.305 225.905 219.145 224.991C218.834 223.075 218.395 220.349 217.845 216.971C216.768 210.135 215.285 200.653 213.602 189.946C213.538 188.11 213.467 186.178 213.387 184.215C212.446 160.099 211.744 142.319 211.656 140.061Z" fill="#263238"/>
<path d="M192.412 128.616C184.867 131.652 177.418 133.52 169.283 133.528C170.418 134.634 171.917 135.292 173.502 135.38C175.093 135.468 176.688 135.331 178.24 134.974C182.163 134.224 186.015 133.145 189.756 131.747C191.088 131.27 192.587 129.895 192.412 128.616Z" fill="black"/>
<path d="M154.84 152.008C154.968 154.901 154.641 158.367 155.255 161.22C155.781 164.078 157.027 166.755 158.876 169.002C157.48 163.549 156.292 157.572 154.84 152.008Z" fill="black"/>
<path d="M178.24 195.653L177.992 195.613C180.433 198.379 184.484 198.666 188.185 198.689C191.885 198.713 195.889 198.483 198.369 195.748C191.722 197.076 184.874 197.044 178.24 195.653Z" fill="black"/>
<path d="M43.5444 317.273C44.5094 320.261 48.0585 322.336 50.9934 321.247C52.6602 320.619 53.8645 319.172 54.8933 317.726C55.8078 316.205 56.9663 314.843 58.3227 313.696C59.3259 312.944 60.5744 312.593 61.8239 312.71L48.3376 307.655C42.5635 311.121 42.5794 314.3 43.5444 317.273Z" fill="#92E3A9"/>
<path d="M43.5444 317.273C44.5094 320.261 48.0585 322.336 50.9934 321.247C52.6602 320.619 53.8645 319.172 54.8933 317.726C55.8078 316.205 56.9663 314.843 58.3227 313.696C59.3259 312.944 60.5744 312.593 61.8239 312.71L48.3376 307.655C42.5635 311.121 42.5794 314.3 43.5444 317.273Z" fill="#92E3A9"/>
<path d="M43.5444 317.273C44.5094 320.261 48.0585 322.336 50.9934 321.247C52.6602 320.619 53.8645 319.172 54.8933 317.726C55.8078 316.205 56.9663 314.843 58.3227 313.696C59.3259 312.944 60.5744 312.593 61.8239 312.71L48.3376 307.655C42.5635 311.121 42.5794 314.3 43.5444 317.273Z" fill="black"/>
<path d="M110.689 320.826C109.31 319.504 107.62 318.55 105.775 318.05C103.929 317.55 101.987 317.522 100.127 317.966C98.267 318.411 96.5495 319.316 95.1325 320.596C93.7155 321.876 92.6446 323.492 92.0184 325.293L93.3663 330.499C93.5775 329.597 93.9839 328.752 94.557 328.023C95.13 327.294 95.856 326.699 96.684 326.278C98.4466 325.484 100.496 325.953 102.267 326.604C104.037 327.256 105.856 328.138 107.786 328.258C109.716 328.377 111.877 327.463 112.451 325.635C113.025 323.806 111.989 322.074 110.689 320.826Z" fill="#92E3A9"/>
<path d="M110.689 320.826C109.31 319.504 107.62 318.55 105.775 318.05C103.929 317.55 101.987 317.522 100.127 317.966C98.267 318.411 96.5495 319.316 95.1325 320.596C93.7155 321.876 92.6446 323.492 92.0184 325.293L93.3663 330.499C93.5775 329.597 93.9839 328.752 94.557 328.023C95.13 327.294 95.856 326.699 96.684 326.278C98.4466 325.484 100.496 325.953 102.267 326.604C104.037 327.256 105.856 328.138 107.786 328.258C109.716 328.377 111.877 327.463 112.451 325.635C113.025 323.806 111.989 322.074 110.689 320.826Z" fill="black"/>
<path d="M78.1334 338.193C75.3102 335.522 75.4537 330.873 76.8574 327.256C78.261 323.639 81.3395 320.897 84.7689 319.037C88.1178 317.285 91.8213 316.311 95.6017 316.189C99.3821 316.066 103.141 316.798 106.597 318.33C104.906 318.404 103.258 318.889 101.798 319.744C100.339 320.599 99.1112 321.797 98.2232 323.234C96.676 325.794 96.3331 328.901 95.0331 331.604C93.5925 334.651 91.0355 337.031 87.8878 338.257C84.74 339.483 81.2408 339.46 78.1095 338.193" fill="#92E3A9"/>
<path d="M76.7776 322.145C73.6513 318.473 73.2365 312.607 73.6991 307.782C74.1617 302.958 75.2942 298.165 74.4967 293.404C74.05 290.59 72.9494 287.895 72.5826 285.066C72.2157 282.236 72.7341 279.041 74.9752 277.212C77.5034 275.114 81.483 275.623 84.1149 277.586C86.7467 279.549 88.27 282.649 89.3786 285.733C91.827 292.513 92.7282 300.04 90.7185 306.948C88.7087 313.855 83.9873 320.055 77.0727 322.145" fill="#92E3A9"/>
<path d="M75.2782 352.294C75.2642 352.154 75.2642 352.013 75.2782 351.872C75.2782 351.594 75.2782 351.181 75.2782 350.656C75.2782 349.599 75.4218 348.081 75.6611 346.205C75.9393 344.012 76.3387 341.837 76.8574 339.688C77.5055 337.049 78.5117 334.512 79.8481 332.144C81.1818 329.778 82.82 327.594 84.721 325.65C86.2674 324.059 87.9814 322.639 89.8332 321.414C90.6307 320.873 91.3645 320.468 92.0184 320.087C92.6724 319.705 93.2626 319.451 93.7411 319.22L94.8656 318.751C94.9936 318.691 95.1271 318.643 95.2644 318.608L94.8816 318.799L93.781 319.316C93.3184 319.554 92.7442 319.856 92.0902 320.214C91.4362 320.571 90.7025 321.009 89.9369 321.565C85.8616 324.325 82.4845 327.99 80.0714 332.272C77.2003 337.279 76.4107 342.541 75.8445 346.229C75.5813 348.097 75.4537 349.615 75.3819 350.664C75.3819 351.173 75.3261 351.57 75.3101 351.872C75.3115 352.014 75.3008 352.155 75.2782 352.294Z" fill="#263238"/>
<path d="M44.0309 311.462C45.5383 309.38 49.2707 308.776 51.6314 309.817C53.9921 310.858 55.7148 312.917 57.262 314.968C58.8092 317.018 60.3086 319.196 62.4459 320.627C64.5833 322.058 67.5821 322.574 69.7115 321.136C70.3925 320.63 70.9631 319.992 71.3882 319.259C71.8132 318.527 72.084 317.716 72.1838 316.875C72.3684 315.194 72.2523 313.493 71.8409 311.852C71.3305 309.467 70.501 306.916 68.563 305.382C66.4017 303.665 63.395 303.586 60.6435 303.681C57.4684 303.655 54.3097 304.138 51.2885 305.112C48.3216 306.208 45.291 308.569 44.0309 311.47" fill="#92E3A9"/>
<path d="M70.4771 347.684C70.4771 347.684 70.4771 347.636 70.4771 347.556C70.4771 347.477 70.4771 347.334 70.4771 347.183C70.4771 346.833 70.4612 346.356 70.4292 345.752C70.4292 344.488 70.3415 342.7 70.2777 340.498C70.2139 338.297 70.1182 335.634 69.9587 332.709C69.7992 329.784 69.5759 326.557 69.1612 323.171C68.9722 321.539 68.6522 319.926 68.2041 318.346C67.7198 316.896 67.1031 315.494 66.3618 314.157C65.7201 312.929 64.9729 311.759 64.1287 310.66C63.3863 309.707 62.5703 308.814 61.6883 307.989C60.3989 306.804 58.9427 305.813 57.3657 305.048C57.0786 304.921 56.8313 304.794 56.616 304.706L56.0497 304.492L55.6988 304.349L55.5872 304.293C55.5872 304.293 55.627 304.293 55.7068 304.293L56.0657 304.404L56.6399 304.603C56.8632 304.682 57.1184 304.81 57.4374 304.929C59.0437 305.665 60.5282 306.641 61.8398 307.822C62.7399 308.644 63.572 309.537 64.3281 310.493C65.1884 311.597 65.949 312.776 66.6011 314.014C67.3239 315.376 67.9167 316.802 68.3716 318.274C68.8281 319.867 69.1535 321.494 69.3446 323.139C69.7912 326.501 70.0066 329.728 70.1421 332.677C70.2777 335.626 70.3575 338.241 70.4053 340.474C70.4532 342.708 70.4691 344.496 70.4771 345.736V347.167C70.4771 347.318 70.4771 347.437 70.4771 347.541C70.4811 347.588 70.4811 347.636 70.4771 347.684Z" fill="#263238"/>
<path d="M72.5587 350.283C72.2805 349.477 72.0671 348.65 71.9206 347.811C71.5195 345.518 71.431 343.181 71.6574 340.864C72.01 337.43 72.7483 334.047 73.8586 330.777C75.047 327.073 76.658 323.115 78.0297 318.855C78.7097 316.786 79.2636 314.678 79.6886 312.543C80.066 310.554 80.3323 308.545 80.4861 306.526C80.7524 303.089 80.8136 299.638 80.6696 296.193C80.5659 293.26 80.4144 290.892 80.3186 289.254C80.2708 288.46 80.2309 287.808 80.207 287.363V286.87C80.207 286.759 80.207 286.703 80.207 286.703V286.87C80.207 286.997 80.207 287.156 80.2548 287.363C80.2548 287.808 80.3505 288.436 80.4144 289.246C80.542 290.884 80.7254 293.221 80.853 296.185C81.0213 299.629 80.9787 303.08 80.7254 306.518C80.5717 308.548 80.3055 310.567 79.9279 312.567C79.5074 314.719 78.9534 316.843 78.269 318.926C76.8893 323.194 75.2703 327.153 74.074 330.849C72.9604 334.098 72.2089 337.459 71.8329 340.872C71.5917 343.175 71.6534 345.5 72.0163 347.787C72.1519 348.582 72.2875 349.218 72.3992 349.631C72.447 349.832 72.4869 349.991 72.5188 350.108C72.5507 350.227 72.5587 350.283 72.5587 350.283Z" fill="#263238"/>
<path d="M86.8823 352.89H59.7503L59.1282 347.684H86.8823V352.89Z" fill="#455A64"/>
<path d="M62.6613 352.294L66.0508 367.905H80.7972L83.9713 352.294H62.6613Z" fill="#455A64"/>
<path d="M86.8823 352.89C86.8823 352.961 80.9168 353.001 73.5556 352.977C66.1944 352.954 60.2368 352.882 60.2368 352.81C60.2368 352.739 66.2023 352.699 73.5556 352.723C80.9088 352.747 86.8823 352.818 86.8823 352.89Z" fill="#455A64"/>
<path d="M82.2247 360.592C81.4856 360.042 80.6822 359.582 79.8322 359.225C78.905 358.867 77.923 358.671 76.9291 358.645C75.7081 358.649 74.4977 358.872 73.3562 359.304C72.12 359.718 70.9636 360.203 69.8391 360.473C68.8399 360.685 67.8103 360.715 66.8005 360.56C66.1207 360.461 65.4612 360.254 64.8465 359.948C64.6842 359.856 64.5271 359.755 64.376 359.646C64.2723 359.567 64.2244 359.527 64.2324 359.519C64.2404 359.511 64.4637 359.654 64.8944 359.853C65.5073 360.124 66.1581 360.301 66.8244 360.377C67.811 360.506 68.8127 360.461 69.7832 360.242C70.8759 359.964 72.0243 359.447 73.2764 359.058C74.4454 358.617 75.6872 358.398 76.9371 358.414C77.9578 358.442 78.9642 358.66 79.9039 359.058C80.5377 359.322 81.1331 359.67 81.6745 360.091C81.8217 360.203 81.9628 360.322 82.0971 360.449C82.1849 360.536 82.2327 360.584 82.2247 360.592Z" fill="#263238"/>
<path d="M82.0174 361.633C81.3043 361.102 80.5339 360.651 79.7205 360.29C78.8314 359.927 77.8819 359.733 76.9212 359.718C75.7424 359.72 74.5732 359.93 73.4678 360.338C72.2715 360.735 71.147 361.196 70.0783 361.482C69.1309 361.755 68.1438 361.865 67.1594 361.808C66.4932 361.771 65.8418 361.597 65.2453 361.299C65.0845 361.215 64.9299 361.119 64.7827 361.013C64.687 360.934 64.6392 360.894 64.6471 360.886C64.6551 360.878 64.8704 361.013 65.2852 361.204C65.8808 361.46 66.5191 361.603 67.1673 361.625C68.1305 361.656 69.0922 361.53 70.0145 361.252C71.0593 360.958 72.1758 360.457 73.3801 360.091C74.5155 359.672 75.7185 359.465 76.9291 359.479C78.5893 359.531 80.1888 360.113 81.491 361.14C81.6745 361.291 81.8021 361.411 81.8898 361.498C81.937 361.539 81.9797 361.584 82.0174 361.633Z" fill="white"/>
<path d="M82.4959 359.559C81.7324 358.991 80.9087 358.509 80.0395 358.12C79.0955 357.716 78.0897 357.474 77.0647 357.405C75.8037 357.38 74.5499 357.599 73.3721 358.048C72.1842 358.514 70.9699 358.909 69.7354 359.233C68.6957 359.412 67.6328 359.412 66.5931 359.233C65.8923 359.123 65.2121 358.909 64.5754 358.597C64.4049 358.51 64.2421 358.409 64.0889 358.295C63.9852 358.215 63.9294 358.176 63.9373 358.168C63.9453 358.16 64.1766 358.303 64.6232 358.51C65.2635 358.777 65.9367 358.959 66.625 359.05C67.6419 359.201 68.6768 359.182 69.6875 358.994C70.9091 358.659 72.1123 358.262 73.2924 357.802C74.4966 357.338 75.7821 357.119 77.0727 357.158C78.8352 357.305 80.5184 357.953 81.9217 359.026C82.1211 359.185 82.2646 359.312 82.3603 359.4C82.4123 359.447 82.4579 359.5 82.4959 359.559Z" fill="white"/>
<path d="M87.0977 352.906C87.0977 352.977 80.9966 353.041 73.4678 353.041C65.9391 353.041 59.83 352.977 59.83 352.906C59.83 352.834 65.9391 352.779 73.4678 352.779C80.9966 352.779 87.0977 352.834 87.0977 352.906Z" fill="#263238"/>
<path d="M352.062 367.785C352.062 367.905 279.128 368 189.19 368C99.2521 368 26.2938 367.905 26.2938 367.785C26.2938 367.666 99.2122 367.555 189.182 367.555C279.151 367.555 352.062 367.674 352.062 367.785Z" fill="#263238"/>
<path d="M156.666 117.885L147.894 115.93C144.425 119.862 139.606 122.358 134.384 122.928C129.162 123.499 123.915 122.101 119.675 119.011C115.435 115.921 112.507 111.362 111.469 106.229C110.431 101.097 111.356 95.7637 114.064 91.2774C116.772 86.791 121.065 83.4764 126.101 81.9853C131.136 80.4942 136.549 80.9345 141.276 83.2196C146.002 85.5047 149.7 89.4692 151.642 94.3338C153.583 99.1984 153.629 104.611 151.77 109.507L156.666 117.885Z" fill="white"/>
<path d="M156.666 117.885L151.881 109.46C151.866 109.447 151.846 109.44 151.825 109.44C151.805 109.44 151.785 109.447 151.77 109.46L151.913 109.531C153.243 106.086 153.631 102.35 153.038 98.7054C152.87 97.6235 152.603 96.5593 152.24 95.526C152.041 94.9855 151.857 94.4371 151.642 93.8886L150.844 92.2989C148.318 87.5395 144.056 83.9267 138.937 82.2043C136.12 81.2434 133.129 80.8911 130.164 81.171C127.032 81.4923 124.009 82.4992 121.312 84.1199C118.488 85.8038 116.107 88.1333 114.365 90.9159C112.565 93.7461 111.471 96.965 111.175 100.303C110.918 103.494 111.384 106.703 112.539 109.69C113.617 112.521 115.311 115.078 117.5 117.178C121.432 120.951 126.668 123.074 132.126 123.107C134.433 123.081 136.722 122.703 138.913 121.987C142.405 120.813 145.522 118.74 147.949 115.977H147.878L156.65 117.861L147.878 115.826C147.865 115.821 147.852 115.818 147.838 115.818C147.824 115.818 147.81 115.821 147.798 115.826C145.376 118.549 142.275 120.587 138.81 121.732C136.64 122.431 134.375 122.796 132.094 122.813C126.707 122.759 121.545 120.651 117.667 116.923C115.52 114.844 113.857 112.321 112.794 109.531C111.658 106.586 111.203 103.424 111.462 100.279C111.746 96.9963 112.815 93.8291 114.581 91.0431C116.29 88.2982 118.634 86.0007 121.415 84.3425C124.086 82.7604 127.073 81.7834 130.164 81.481C133.09 81.1945 136.042 81.5333 138.826 82.4746C143.855 84.1758 148.052 87.7113 150.573 92.3705C150.828 92.9109 151.084 93.4435 151.371 93.9602C151.658 94.4768 151.77 95.0411 151.969 95.5498C152.327 96.5846 152.594 97.6484 152.766 98.7292C153.363 102.337 152.998 106.038 151.706 109.46C151.702 109.47 151.7 109.48 151.701 109.491C151.701 109.501 151.703 109.512 151.708 109.521C151.712 109.531 151.719 109.54 151.727 109.547C151.734 109.554 151.744 109.559 151.754 109.563C151.766 109.573 151.782 109.578 151.797 109.578C151.813 109.578 151.829 109.573 151.841 109.563H151.698L156.666 117.885Z" fill="#263238"/>
<path d="M120.61 102.529L123.617 99.532L129.423 104.675L140.819 93.7456L143.611 96.7421L128.992 110.453L120.61 102.529Z" fill="#92E3A9"/>
</svg>
