<svg width="48" height="48" viewBox="0 0 48 48" fill="none" xmlns="http://www.w3.org/2000/svg">
<path d="M47.3366 14.97C47.3366 13.7251 46.3235 12.712 45.0785 12.712C44.8196 12.712 44.5742 12.7647 44.3424 12.8452L40.9696 8.62949C41.1849 8.28401 41.3151 7.87983 41.3151 7.44327C41.3151 6.19835 40.302 5.18525 39.057 5.18525C38.424 5.18525 37.8535 5.44868 37.4433 5.86868L31.5098 3.13044C31.5158 3.0627 31.5301 2.99722 31.5301 2.92722C31.5301 1.68229 30.517 0.669189 29.2721 0.669189C28.2921 0.669189 27.4641 1.30068 27.1525 2.17454H18.5959C18.2843 1.30068 17.4564 0.669189 16.4764 0.669189C15.2314 0.669189 14.2183 1.68229 14.2183 2.92722C14.2183 3.02055 14.2349 3.11012 14.2462 3.20119L10.5128 5.06783C10.1064 4.67644 9.55691 4.43257 8.94949 4.43257C7.70455 4.43257 6.69143 5.44567 6.69143 6.6906C6.69143 7.12715 6.82164 7.53134 7.03691 7.87682L3.66412 12.0926C3.43229 12.012 3.18691 11.9593 2.92799 11.9593C1.68304 11.9593 0.669922 12.9724 0.669922 14.2174C0.669922 15.1973 1.30143 16.0253 2.1753 16.3369V21.1307C1.30143 21.4415 0.669922 22.2695 0.669922 23.2495C0.669922 24.4944 1.68304 25.5075 2.92799 25.5075C3.76422 25.5075 4.4868 25.0454 4.87745 24.3687L8.98637 25.1154C9.16024 26.1887 10.0861 27.0129 11.2076 27.0129C11.2377 27.0129 11.2663 27.0053 11.2964 27.0038L12.7325 30.5948C12.2628 31.0088 11.9602 31.6079 11.9602 32.2816C11.9602 33.5265 12.9734 34.5396 14.2183 34.5396C14.9755 34.5396 15.6431 34.1618 16.0526 33.589L22.5122 35.4345C22.5701 36.3513 23.1723 37.1153 24.0033 37.4118V42.9583C23.1294 43.2699 22.4979 44.0978 22.4979 45.0778C22.4979 46.3228 23.511 47.3359 24.7559 47.3359C26.0009 47.3359 27.014 46.3228 27.014 45.0778C27.014 44.0978 26.3825 43.2699 25.5086 42.9583V37.4118C26.3825 37.1002 27.014 36.2723 27.014 35.2923C27.014 34.5712 26.6678 33.9352 26.1401 33.5212L27.0388 30.8244L33.7927 33.0757C33.8108 34.0368 34.4325 34.846 35.2936 35.153V42.9575C34.4197 43.2691 33.7882 44.0971 33.7882 45.0771C33.7882 46.322 34.8013 47.3351 36.0463 47.3351C37.2912 47.3351 38.3043 46.322 38.3043 45.0771C38.3043 44.0971 37.6728 43.2691 36.799 42.9575V35.1538C37.6728 34.8422 38.3043 34.0142 38.3043 33.0343C38.3043 32.7595 38.2479 32.4991 38.1576 32.2552L43.9329 27.4426C44.2694 27.6428 44.6585 27.7655 45.0785 27.7655C46.3235 27.7655 47.3366 26.7524 47.3366 25.5075C47.3366 24.5275 46.7051 23.6996 45.8312 23.388V17.0888C46.7051 16.778 47.3366 15.95 47.3366 14.97ZM39.057 6.6906C39.4717 6.6906 39.8097 7.0278 39.8097 7.44327C39.8097 7.85875 39.4717 8.19595 39.057 8.19595C38.6423 8.19595 38.3043 7.85875 38.3043 7.44327C38.3043 7.0278 38.6423 6.6906 39.057 6.6906ZM37.9867 9.41905C38.3066 9.59367 38.6679 9.7013 39.057 9.7013C39.3159 9.7013 39.5606 9.64861 39.7924 9.56808L43.1652 13.7846C42.9507 14.13 42.8205 14.5335 42.8205 14.97C42.8205 15.0912 42.8378 15.2079 42.8566 15.3245L37.5245 18.2329L33.6414 14.9971C33.7318 14.7525 33.7882 14.4921 33.7882 14.2174C33.7882 13.9118 33.7257 13.6197 33.6151 13.354L37.9867 9.41905ZM28.5194 21.7441C28.1716 21.7441 27.8465 21.8292 27.5522 21.9707L24.363 18.7816L29.9931 15.862C30.3973 16.2398 30.9348 16.4754 31.5301 16.4754C31.9501 16.4754 32.3385 16.3527 32.6757 16.1525L36.1027 19.0081L30.0187 22.3267C29.6191 21.9684 29.0974 21.7441 28.5194 21.7441ZM29.2721 24.0021C29.2721 24.4176 28.9341 24.7548 28.5194 24.7548C28.1047 24.7548 27.7667 24.4176 27.7667 24.0021C27.7667 23.5867 28.1047 23.2495 28.5194 23.2495C28.9341 23.2495 29.2721 23.5867 29.2721 24.0021ZM17.8922 15.7129L19.1559 19.7849L12.7445 23.1095C12.4758 22.8588 12.1469 22.6767 11.7811 22.5796L10.7379 14.5801L15.8953 14.322C16.2227 15.1153 16.9905 15.6768 17.8922 15.7129ZM17.2291 13.4647C17.2291 13.0492 17.567 12.712 17.9818 12.712C18.3965 12.712 18.7344 13.0492 18.7344 13.4647C18.7344 13.8802 18.3965 14.2174 17.9818 14.2174C17.567 14.2174 17.2291 13.8802 17.2291 13.4647ZM19.6083 21.2466L21.5171 27.3982L13.4611 24.7127C13.4596 24.6224 13.4461 24.535 13.434 24.4477L19.6083 21.2466ZM19.603 16.151L21.8445 18.3917L20.513 19.0819L19.603 16.151ZM20.014 14.4319C20.1548 14.1376 20.2398 13.8124 20.2398 13.4647C20.2398 13.144 20.1706 12.84 20.0501 12.5637L23.6239 9.22787L29.385 13.5482C29.318 13.762 29.2721 13.9833 29.2721 14.2174C29.2721 14.3227 29.2894 14.4228 29.3029 14.5245L23.246 17.6646L20.014 14.4319ZM30.7774 14.2174C30.7774 13.8019 31.1154 13.4647 31.5301 13.4647C31.9449 13.4647 32.2828 13.8019 32.2828 14.2174C32.2828 14.6328 31.9449 14.97 31.5301 14.97C31.1154 14.97 30.7774 14.6328 30.7774 14.2174ZM37.3469 20.0446L42.7399 24.5388L31.0544 23.4768L37.3469 20.0446ZM29.2721 2.17454C29.6868 2.17454 30.0248 2.51174 30.0248 2.92722C30.0248 3.34269 29.6868 3.67989 29.2721 3.67989C28.8573 3.67989 28.5194 3.34269 28.5194 2.92722C28.5194 2.51174 28.8573 2.17454 29.2721 2.17454ZM28.2379 4.92256C28.5487 5.08439 28.8972 5.18525 29.2721 5.18525C29.9051 5.18525 30.4756 4.92181 30.8866 4.50106L36.8193 7.2393C36.8133 7.30779 36.799 7.37328 36.799 7.44327C36.799 7.74961 36.8614 8.0409 36.9721 8.30735L32.6005 12.2416C32.2806 12.067 31.9193 11.9593 31.5301 11.9593C31.068 11.9593 30.6382 12.1001 30.2799 12.3394L24.7416 8.18541L28.2379 4.92256ZM27.1525 3.67989C27.1706 3.72882 27.1834 3.78 27.2037 3.82742L23.5178 7.26715L18.7344 3.67989H27.1525ZM16.4764 2.17454C16.8911 2.17454 17.2291 2.51174 17.2291 2.92722C17.2291 3.34269 16.8911 3.67989 16.4764 3.67989C16.0616 3.67989 15.7237 3.34269 15.7237 2.92722C15.7237 2.51174 16.0616 2.17454 16.4764 2.17454ZM11.2076 6.6906C11.2076 6.59727 11.191 6.5077 11.1797 6.41738L14.913 4.55074C15.3195 4.94138 15.869 5.18525 16.4764 5.18525C16.9385 5.18525 17.3683 5.0445 17.7266 4.80514L22.4 8.31036L19.0159 11.4686C18.7051 11.3068 18.3566 11.2067 17.9818 11.2067C16.9626 11.2067 16.1091 11.8893 15.8291 12.8181L10.5422 13.0823L9.97014 8.69347C10.701 8.31939 11.2076 7.56671 11.2076 6.6906ZM8.94949 5.93792C9.36422 5.93792 9.70218 6.27512 9.70218 6.6906C9.70218 7.10608 9.36422 7.44327 8.94949 7.44327C8.53476 7.44327 8.1968 7.10608 8.1968 6.6906C8.1968 6.27512 8.53476 5.93792 8.94949 5.93792ZM8.21336 8.8154C8.30067 8.84551 8.38648 8.87787 8.47756 8.89744L9.03304 13.1583L5.01444 13.3593C4.96702 13.2441 4.90605 13.1365 4.84057 13.0311L8.21336 8.8154ZM2.92799 13.4647C3.34272 13.4647 3.68067 13.8019 3.68067 14.2174C3.68067 14.6328 3.34272 14.97 2.92799 14.97C2.51326 14.97 2.1753 14.6328 2.1753 14.2174C2.1753 13.8019 2.51326 13.4647 2.92799 13.4647ZM2.92799 24.0021C2.51326 24.0021 2.1753 23.6649 2.1753 23.2495C2.1753 22.834 2.51326 22.4968 2.92799 22.4968C3.34272 22.4968 3.68067 22.834 3.68067 23.2495C3.68067 23.6649 3.34272 24.0021 2.92799 24.0021ZM9.25809 23.6356L5.14992 22.8889C5.0167 22.0693 4.44465 21.4024 3.68067 21.1299V16.3361C4.35283 16.096 4.87368 15.5503 5.08067 14.8632L9.22949 14.6554L10.2787 22.7015C9.8467 22.898 9.49368 23.2269 9.25809 23.6356ZM11.2076 25.5075C10.7928 25.5075 10.4549 25.1703 10.4549 24.7548C10.4549 24.3393 10.7928 24.0021 11.2076 24.0021C11.6223 24.0021 11.9602 24.3393 11.9602 24.7548C11.9602 25.1703 11.6223 25.5075 11.2076 25.5075ZM14.2183 33.0343C13.8036 33.0343 13.4656 32.6971 13.4656 32.2816C13.4656 31.8661 13.8036 31.5289 14.2183 31.5289C14.633 31.5289 14.971 31.8661 14.971 32.2816C14.971 32.6971 14.633 33.0343 14.2183 33.0343ZM22.9224 33.9849L16.4628 32.1393C16.3868 30.9614 15.4151 30.0236 14.2183 30.0236C14.1882 30.0236 14.1596 30.0311 14.1295 30.0326L12.6934 26.4416C12.798 26.349 12.8928 26.2481 12.9794 26.1382L22.0673 29.1678L23.4094 33.4911C23.2235 33.6311 23.0579 33.796 22.9224 33.9849ZM24.7559 45.8298C24.3412 45.8298 24.0033 45.4926 24.0033 45.0771C24.0033 44.6616 24.3412 44.3244 24.7559 44.3244C25.1707 44.3244 25.5086 44.6616 25.5086 45.0771C25.5086 45.4926 25.1707 45.8298 24.7559 45.8298ZM24.7559 36.045C24.3412 36.045 24.0033 35.7078 24.0033 35.2923C24.0033 34.8768 24.3412 34.5396 24.7559 34.5396C25.1707 34.5396 25.5086 34.8768 25.5086 35.2923C25.5086 35.7078 25.1707 36.045 24.7559 36.045ZM24.7815 32.8356L23.8249 29.7541L25.6102 30.3495L24.7815 32.8356ZM26.0867 28.9209L23.2762 27.9838L20.9669 20.5428L22.9615 19.5087L26.4879 23.035C26.3464 23.3293 26.2613 23.6544 26.2613 24.0021C26.2613 24.7232 26.6076 25.36 27.1359 25.7732L26.0867 28.9209ZM36.0463 45.8298C35.6315 45.8298 35.2936 45.4926 35.2936 45.0771C35.2936 44.6616 35.6315 44.3244 36.0463 44.3244C36.461 44.3244 36.799 44.6616 36.799 45.0771C36.799 45.4926 36.461 45.8298 36.0463 45.8298ZM36.0463 33.7869C35.6315 33.7869 35.2936 33.4497 35.2936 33.0343C35.2936 32.6188 35.6315 32.2816 36.0463 32.2816C36.461 32.2816 36.799 32.6188 36.799 33.0343C36.799 33.4497 36.461 33.7869 36.0463 33.7869ZM37.1919 31.0984C36.8547 30.8989 36.4663 30.7762 36.0463 30.7762C35.3252 30.7762 34.6884 31.1225 34.2752 31.6508L27.5145 29.3973L28.5615 26.2557C29.4512 26.2391 30.2122 25.7062 30.5644 24.9437L42.898 26.0645C42.9176 26.1397 42.9401 26.2135 42.9672 26.2858L37.1919 31.0984ZM38.7687 19.2686L43.5792 16.6447C43.7952 16.8389 44.0473 16.9895 44.3266 17.0888V23.388C44.1881 23.4376 44.0571 23.4986 43.9329 23.5724L38.7687 19.2686ZM45.0785 26.2602C44.6638 26.2602 44.3258 25.923 44.3258 25.5075C44.3258 25.092 44.6638 24.7548 45.0785 24.7548C45.4933 24.7548 45.8312 25.092 45.8312 25.5075C45.8312 25.923 45.4933 26.2602 45.0785 26.2602ZM45.0785 15.7227C44.6638 15.7227 44.3258 15.3855 44.3258 14.97C44.3258 14.5546 44.6638 14.2174 45.0785 14.2174C45.4933 14.2174 45.8312 14.5546 45.8312 14.97C45.8312 15.3855 45.4933 15.7227 45.0785 15.7227Z" fill="#2ECC71"/>
<path d="M3.6792 0.669189H2.17383V2.17457H3.6792V0.669189Z" fill="#2ECC71"/>
<path d="M3.6792 3.68164H2.17383V5.18702H3.6792V3.68164Z" fill="#2ECC71"/>
<path d="M5.18702 2.1731H3.68164V3.67847H5.18702V2.1731Z" fill="#2ECC71"/>
<path d="M2.1753 2.1731H0.669922V3.67847H2.1753V2.1731Z" fill="#2ECC71"/>
<path d="M41.3179 35.291H39.8125V36.7964H41.3179V35.291Z" fill="#2ECC71"/>
<path d="M41.3179 38.3032H39.8125V39.8086H41.3179V38.3032Z" fill="#2ECC71"/>
<path d="M42.8218 36.7993H41.3164V38.3047H42.8218V36.7993Z" fill="#2ECC71"/>
<path d="M39.8101 36.7993H38.3047V38.3047H39.8101V36.7993Z" fill="#2ECC71"/>
<path d="M45.8296 3.68164H44.3242V5.18702H45.8296V3.68164Z" fill="#2ECC71"/>
<path d="M45.8296 6.68945H44.3242V8.19483H45.8296V6.68945Z" fill="#2ECC71"/>
<path d="M47.3374 5.18555H45.832V6.69092H47.3374V5.18555Z" fill="#2ECC71"/>
<path d="M44.3257 5.18555H42.8203V6.69092H44.3257V5.18555Z" fill="#2ECC71"/>
<path d="M11.2085 36.7993H9.70312V38.3047H11.2085V36.7993Z" fill="#2ECC71"/>
<path d="M11.2085 39.8071H9.70312V41.3125H11.2085V39.8071Z" fill="#2ECC71"/>
<path d="M12.7124 38.3032H11.207V39.8086H12.7124V38.3032Z" fill="#2ECC71"/>
<path d="M9.69874 38.3032H8.19336V39.8086H9.69874V38.3032Z" fill="#2ECC71"/>
<path d="M6.69092 28.5188H5.18555V30.0242H6.69092V28.5188Z" fill="#2ECC71"/>
<path d="M6.69092 31.5266H5.18555V33.032H6.69092V31.5266Z" fill="#2ECC71"/>
<path d="M8.19483 30.0227H6.68945V31.5281H8.19483V30.0227Z" fill="#2ECC71"/>
<path d="M5.18702 30.0227H3.68164V31.5281H5.18702V30.0227Z" fill="#2ECC71"/>
</svg>
