<svg width="24" height="16" viewBox="0 0 24 16" fill="none" xmlns="http://www.w3.org/2000/svg">
<path d="M6.938 0.503906C7.64 0.503906 8.278 0.563906 8.858 0.691906C9.435 0.821906 9.928 1.02191 10.343 1.30191C10.753 1.58191 11.076 1.95191 11.303 2.42191C11.528 2.89191 11.643 3.47191 11.643 4.15191C11.643 4.89191 11.473 5.51191 11.136 6.01191C10.798 6.51191 10.299 6.91191 9.634 7.23191C10.54 7.49191 11.21 7.95191 11.656 8.60191C12.104 9.26191 12.321 10.0519 12.321 10.9619C12.321 11.7119 12.191 12.3519 11.911 12.8919C11.631 13.4419 11.241 13.8919 10.751 14.2419C10.271 14.5899 9.701 14.8419 9.081 15.0089C8.471 15.1739 7.829 15.2629 7.171 15.2629H0V0.510907H6.938V0.503906ZM16.94 12.6659C17.38 13.0939 18.013 13.3089 18.834 13.3089C19.424 13.3089 19.934 13.1609 20.364 12.8619C20.788 12.5719 21.044 12.2519 21.144 11.9219H23.732C23.329 13.2019 22.684 14.1219 21.832 14.6719C20.982 15.2319 19.948 15.5019 18.752 15.5019C17.915 15.5019 17.168 15.3719 16.48 15.1019C15.807 14.8319 15.24 14.4519 14.76 13.9619C14.296 13.4719 13.937 12.8819 13.683 12.1919C13.43 11.5019 13.31 10.7419 13.31 9.92191C13.31 9.11891 13.445 8.38191 13.713 7.69191C13.983 6.99191 14.357 6.41191 14.833 5.90191C15.328 5.39191 15.896 5.00691 16.569 4.70791C17.242 4.40891 17.969 4.27491 18.789 4.27491C19.699 4.27491 20.479 4.43891 21.169 4.79791C21.839 5.13791 22.389 5.61791 22.829 6.19791C23.269 6.78391 23.579 7.45791 23.769 8.21791C23.959 8.96791 24.019 9.75791 23.979 10.5979H16.289C16.289 11.4379 16.569 12.2299 16.999 12.6629L16.919 12.6929L16.94 12.6659ZM6.7 12.7159C7.017 12.7159 7.32 12.6859 7.606 12.6229C7.896 12.5629 8.154 12.4579 8.369 12.3229C8.579 12.1879 8.759 11.9949 8.889 11.7399C9.019 11.4999 9.079 11.1699 9.079 10.7799C9.079 10.0299 8.859 9.48991 8.439 9.15991C8.009 8.83991 7.449 8.67991 6.749 8.67991H3.24V12.7299H6.7V12.6999V12.7159ZM20.307 7.06591C19.955 6.68091 19.367 6.47391 18.65 6.47391C18.182 6.47391 17.795 6.54791 17.484 6.71191C17.182 6.86191 16.934 7.06191 16.744 7.30191C16.554 7.54191 16.427 7.78191 16.352 8.05191C16.277 8.31191 16.232 8.55191 16.217 8.76191H20.979C20.909 8.01191 20.649 7.46191 20.299 7.07191V7.08191L20.307 7.06591ZM6.52 6.45091C7.094 6.45091 7.57 6.31691 7.945 6.03891C8.319 5.76891 8.499 5.31891 8.499 4.70091C8.499 4.35691 8.429 4.07591 8.319 3.85491C8.189 3.63491 8.019 3.46491 7.819 3.34291C7.609 3.21891 7.369 3.13291 7.099 3.08591C6.829 3.03291 6.539 3.01191 6.259 3.01191H3.23V6.45191H6.52V6.45091ZM15.618 1.49291H21.586V2.94691H15.618V1.48091V1.49091V1.49291Z" fill="white"/>
</svg>
