<svg width="24" height="24" viewBox="0 0 24 24" fill="none" xmlns="http://www.w3.org/2000/svg">
<path d="M20.2452 3.29602L19.7775 2.85281L19.7678 2.86908C17.5945 1.01527 14.8607 0 11.9996 0C10.4428 0 8.9243 0.299203 7.48031 0.889453L7.476 0.884953L7.16152 1.02886C3.62756 2.59312 1.04438 5.77533 0.274266 9.54113V9.60506H0.254156C0.253453 9.60506 0.252891 9.58022 0.252141 9.58373L0.171188 9.95616L0.178594 9.95166C0.0605156 10.6339 0 11.3199 0 12.0044C0 15.5408 1.53609 18.8441 4.22803 21.1343L4.22508 21.1399L4.53417 21.3856C6.6825 23.0963 9.26409 24 11.9996 24C13.4438 24 14.8691 23.7331 16.2517 23.2077L16.5749 23.0817V23.0741C20.5538 21.4714 23.318 17.8954 23.8704 13.5713L23.8986 13.5797L23.9521 12.9154C23.9782 12.5815 23.999 12.3017 23.999 12.0004C23.999 8.68177 22.6665 5.59031 20.2452 3.29602ZM11.9996 1.0268C14.672 1.0268 17.223 1.99659 19.2306 3.76317C17.797 6.04205 15.7866 7.85302 13.3743 9.03647C12.0379 6.35353 10.3195 3.88767 8.25558 1.69036C9.45919 1.2503 10.7151 1.0268 11.9996 1.0268ZM7.24505 2.11631C9.34805 4.29928 11.0926 6.76556 12.438 9.45694C10.7153 10.1573 8.89706 10.5118 7.02492 10.5118C5.0558 10.5118 3.14906 10.1207 1.35145 9.34912C2.13478 6.1965 4.30308 3.53419 7.24505 2.11631ZM1.02675 12.0004C1.02675 11.4603 1.06805 10.9163 1.14853 10.3762C3.01547 11.1472 4.98886 11.5386 7.02492 11.5386C9.05044 11.5386 11.017 11.1503 12.879 10.385C13.1626 11.0069 13.4297 11.6524 13.6772 12.3155C9.73772 13.6166 6.5063 16.4333 4.67325 20.1584C2.34806 18.0734 1.02675 15.136 1.02675 12.0004ZM11.9996 22.9729C9.63159 22.9729 7.3897 22.2314 5.49033 20.825C7.18542 17.2342 10.2593 14.5178 14.022 13.2818C15.0061 16.2129 15.5233 19.2657 15.5613 22.3688C14.3996 22.7699 13.2032 22.9729 11.9996 22.9729ZM16.5799 21.9645C16.5037 18.9038 15.9762 15.8932 15.0082 12.9966C17.603 12.344 20.3446 12.4293 22.886 13.2341C22.4575 17.1421 20.0902 20.406 16.5799 21.9645ZM22.9704 12.1834C21.5302 11.7507 20.0396 11.5316 18.5305 11.5316C17.2289 11.5316 15.9326 11.6969 14.6695 12.0228L14.667 12.0154L14.664 12.0163C14.4035 11.3145 14.1215 10.6296 13.8215 9.9713L13.8258 9.96928L13.8222 9.96178C16.345 8.72475 18.4589 6.84848 19.9872 4.4903C21.9175 6.53489 22.9731 9.17766 22.9731 12.0004C22.9732 12.0615 22.9721 12.1227 22.9704 12.1834Z" fill="white"/>
</svg>
