<svg width="24" height="24" viewBox="0 0 24 24" fill="none" xmlns="http://www.w3.org/2000/svg">
<path d="M5.586 7.72266H0.767956C0.554124 7.72266 0.380859 7.896 0.380859 8.10975V23.588C0.380859 23.8019 0.554124 23.9751 0.767956 23.9751H5.586C5.79983 23.9751 5.97309 23.8019 5.97309 23.588V8.10975C5.97309 7.896 5.79983 7.72266 5.586 7.72266Z" fill="white"/>
<path d="M3.1793 0.0273438C1.42622 0.0273438 0 1.45201 0 3.20316C0 4.95509 1.42622 6.3803 3.1793 6.3803C4.93099 6.3803 6.35605 4.95501 6.35605 3.20316C6.35613 1.45201 4.93099 0.0273438 3.1793 0.0273438Z" fill="white"/>
<path d="M17.8422 7.33789C15.9071 7.33789 14.4767 8.16976 13.609 9.11497V8.10968C13.609 7.89593 13.4357 7.72259 13.2219 7.72259H8.6078C8.39397 7.72259 8.2207 7.89593 8.2207 8.10968V23.588C8.2207 23.8018 8.39397 23.9751 8.6078 23.9751H13.4153C13.6291 23.9751 13.8024 23.8018 13.8024 23.588V15.9298C13.8024 13.3492 14.5034 12.3438 16.3023 12.3438C18.2615 12.3438 18.4171 13.9555 18.4171 16.0626V23.5881C18.4171 23.8019 18.5904 23.9752 18.8042 23.9752H23.6135C23.8274 23.9752 24.0006 23.8019 24.0006 23.5881V15.0979C24.0006 11.2607 23.2689 7.33789 17.8422 7.33789Z" fill="white"/>
</svg>
