<svg width="28" height="22" viewBox="0 0 28 22" fill="none" xmlns="http://www.w3.org/2000/svg">
<path d="M24.666 5.66634L13.9993 12.333L3.33268 5.66634V2.99967L13.9993 9.66634L24.666 2.99967V5.66634ZM24.666 0.333008H3.33268C1.85268 0.333008 0.666016 1.51967 0.666016 2.99967V18.9997C0.666016 19.7069 0.946967 20.3852 1.44706 20.8853C1.94716 21.3854 2.62544 21.6663 3.33268 21.6663H24.666C25.3733 21.6663 26.0515 21.3854 26.5516 20.8853C27.0517 20.3852 27.3327 19.7069 27.3327 18.9997V2.99967C27.3327 2.29243 27.0517 1.61415 26.5516 1.11406C26.0515 0.613959 25.3733 0.333008 24.666 0.333008Z" fill="#313131"/>
</svg>
