<svg width="21" height="26" viewBox="0 0 21 26" fill="none" xmlns="http://www.w3.org/2000/svg">
<path d="M6.17989 0.305174C6.88002 0.0940807 7.63133 0.12915 8.30875 0.404545C8.98617 0.679939 9.54884 1.17904 9.90309 1.81877L10.0215 2.05717L11.0807 4.41077C11.4021 5.12515 11.5065 5.91826 11.3807 6.69147C11.255 7.46468 10.9047 8.18386 10.3735 8.75957L10.1607 8.97077L8.49189 10.5276C8.19109 10.8124 8.41668 11.9148 9.50468 13.7996C10.4839 15.4956 11.2807 16.2876 11.6727 16.3308H11.7415L11.8263 16.3148L15.1063 15.3116C15.5471 15.1764 16.0175 15.171 16.4613 15.2962C16.9051 15.4213 17.3034 15.6716 17.6087 16.0172L17.7543 16.2012L19.9255 19.2092C20.351 19.7988 20.563 20.5157 20.5267 21.2419C20.4903 21.9681 20.2078 22.6602 19.7255 23.2044L19.5303 23.406L18.6631 24.2284C17.8844 24.9659 16.9102 25.4642 15.8565 25.6642C14.8028 25.8641 13.7138 25.7573 12.7191 25.3564C9.62309 24.1084 6.81029 21.2572 4.25508 16.8316C1.69508 12.3948 0.631085 8.52757 1.10629 5.21557C1.25008 4.2144 1.66235 3.27086 2.2993 2.48517C2.93625 1.69947 3.77411 1.10095 4.72389 0.753174L5.03269 0.650774L6.17989 0.305174Z" fill="#313131"/>
</svg>
