<svg width="16" height="20" viewBox="0 0 16 20" fill="none" xmlns="http://www.w3.org/2000/svg">
<path d="M4.38394 0.479124C4.90904 0.320805 5.47252 0.347107 5.98059 0.553653C6.48865 0.760198 6.91065 1.13453 7.17634 1.61432L7.26514 1.79312L8.05954 3.55832C8.30063 4.09411 8.37889 4.68894 8.28458 5.26885C8.19028 5.84876 7.92757 6.38814 7.52914 6.81992L7.36954 6.97832L6.11794 8.14592C5.89234 8.35952 6.06154 9.18633 6.87754 10.5999C7.61194 11.8719 8.20954 12.4659 8.50354 12.4983H8.55514L8.61874 12.4863L11.0787 11.7339C11.4094 11.6325 11.7622 11.6285 12.095 11.7224C12.4278 11.8162 12.7266 12.004 12.9555 12.2631L13.0647 12.4011L14.6931 14.6571C15.0123 15.0993 15.1713 15.637 15.144 16.1817C15.1168 16.7263 14.9048 17.2454 14.5431 17.6535L14.3967 17.8047L13.7463 18.4215C13.1623 18.9746 12.4317 19.3484 11.6414 19.4984C10.8511 19.6483 10.0344 19.5682 9.28834 19.2675C6.96634 18.3315 4.85674 16.1931 2.94034 12.8739C1.02034 9.54633 0.222337 6.64592 0.578737 4.16192C0.686586 3.41104 0.995786 2.70339 1.4735 2.11412C1.95121 1.52485 2.5796 1.07596 3.29194 0.815124L3.52354 0.738324L4.38394 0.479124Z" fill="white"/>
</svg>
