<svg width="48" height="48" viewBox="0 0 48 48" fill="none" xmlns="http://www.w3.org/2000/svg">
<path d="M33.9823 22.8894L43.3459 13.526C43.5133 13.3581 43.6112 13.1374 43.6335 12.9036C43.8582 12.8813 44.0778 12.7884 44.2498 12.6159C46.6962 10.1692 46.6962 6.18837 44.2498 3.74164C43.0649 2.55555 41.4894 1.90265 39.813 1.90265C38.1365 1.90265 36.5611 2.55606 35.3762 3.74164C35.2001 3.91767 35.1073 4.14241 35.0875 4.37171C34.8583 4.39302 34.6356 4.48179 34.4697 4.64819L25.1076 14.0136L12.0488 0.952976C11.6684 0.571483 10.9942 0.572497 10.6138 0.952976L0.964107 10.608C0.567954 11.0042 0.567954 11.6465 0.964107 12.0427L14.0204 25.1033L5.55613 33.5692C5.45215 33.6732 5.37201 33.798 5.32179 33.936L2.19467 42.4252C1.56062 44.1414 2.13481 45.0673 2.5335 45.466C2.80386 45.7369 3.31668 46.0885 4.15514 46.0885C4.5518 46.0885 5.0215 46.0098 5.57236 45.8059L14.0407 42.686C14.1812 42.6378 14.3136 42.5576 14.4257 42.4455C14.4262 42.445 14.4267 42.4445 14.4267 42.4445L22.8935 33.9781L35.9503 47.0366C36.1406 47.2269 36.3987 47.3339 36.6676 47.3339C36.9369 47.3339 37.1951 47.2269 37.3853 47.0366L47.0365 37.3816C47.4327 36.9854 47.4327 36.3431 47.0365 35.9469L33.9823 22.8894ZM39.8135 3.93238C40.9471 3.93238 42.0134 4.37425 42.8153 5.1768C44.4704 6.83265 44.4704 9.52593 42.8153 11.1818C42.7494 11.2477 42.6981 11.3223 42.6545 11.3999L36.5935 5.33762C36.6711 5.29348 36.7457 5.24225 36.8116 5.1763C37.6131 4.37425 38.6793 3.93238 39.8135 3.93238ZM13.1835 21.3954L15.7937 18.7843C16.1899 18.3881 16.1899 17.7453 15.7937 17.3491C15.3976 16.9534 14.7554 16.9529 14.3587 17.3491L11.749 19.9602L8.23232 16.4425L10.841 13.8335C11.2372 13.4373 11.2372 12.795 10.841 12.3988C10.4449 12.0026 9.80222 12.0026 9.40658 12.3988L6.79785 15.0079L3.11632 11.3253L11.3321 3.10497L23.6732 15.4482L15.4549 23.6681L13.1835 21.3954ZM13.7095 40.2915L10.3719 36.9529C9.97621 36.5567 9.33303 36.5567 8.93738 36.9529C8.54123 37.3491 8.54123 37.9914 8.93738 38.3876L11.8712 41.3223L4.87035 43.902C4.28956 44.1161 4.00652 44.0547 3.97355 44.0364C3.94515 43.9928 3.88326 43.7097 4.09833 43.1273C4.09833 43.1273 4.09833 43.1268 4.09833 43.1263L7.14835 34.8461L16.1534 25.8394C16.1599 25.8333 16.1676 25.8287 16.1741 25.8226C16.1807 25.8165 16.1848 25.8084 16.1909 25.8018L25.7833 16.2071C25.798 16.194 25.8147 16.1843 25.8289 16.1696C25.8431 16.1554 25.8528 16.1387 25.8665 16.124L35.187 6.8012L41.1932 12.8087L22.2113 31.7906C22.1991 31.8017 22.1849 31.8098 22.1727 31.822C22.1606 31.8342 22.1525 31.8479 22.1413 31.8601L13.7095 40.2915ZM36.6676 44.8836L32.9835 41.1996L35.5938 38.589C35.9899 38.1928 35.9899 37.5505 35.5938 37.1543C35.1981 36.7581 34.5549 36.7581 34.1593 37.1543L31.549 39.7649L28.0334 36.2483L30.6441 33.6372C31.0403 33.241 31.0403 32.5987 30.6441 32.2025C30.2485 31.8063 29.6053 31.8063 29.2097 32.2025L26.5989 34.8136L24.328 32.5429L32.5473 24.324L44.8838 36.6637L36.6676 44.8836Z" fill="#0267C1"/>
</svg>
