<svg width="48" height="44" viewBox="0 0 48 44" fill="none" xmlns="http://www.w3.org/2000/svg">
<path d="M1 12.707H47" stroke="#D9792E" stroke-width="2" stroke-miterlimit="10" stroke-linecap="round" stroke-linejoin="round"/>
<path d="M8.02409 9.25029C7.44909 9.25029 7.06576 9.04373 6.68242 8.63062C6.29909 8.2175 6.10742 7.80439 6.10742 7.18471C6.10742 6.56504 6.29909 6.15193 6.68242 5.73881L6.87409 5.53225C7.06576 5.53225 7.06576 5.3257 7.25742 5.3257C7.44909 5.11914 7.44909 5.11914 7.64076 5.11914C7.83242 5.11914 8.21576 5.11914 8.40742 5.11914C8.59909 5.11914 8.59909 5.11914 8.79076 5.3257C8.98242 5.3257 8.98242 5.53225 9.17409 5.53225L9.36576 5.73881C9.55742 5.94537 9.74909 6.15193 9.74909 6.35848C9.94076 6.56504 9.94076 6.97816 9.94076 7.18471C9.94076 7.39127 9.94076 7.80439 9.74909 8.01094C9.74909 8.2175 9.55742 8.42406 9.36576 8.63062C8.98242 9.04373 8.59909 9.25029 8.02409 9.25029Z" fill="#D9792E"/>
<path d="M13.7799 9.25029C13.2049 9.25029 12.8216 9.04415 12.4383 8.63187C12.0549 8.21959 11.8633 7.80731 11.8633 7.18889C11.8633 6.98275 11.8633 6.57047 12.0549 6.36433C12.2466 6.15819 12.2466 5.95205 12.4383 5.74591C12.6299 5.53977 12.8216 5.33363 13.0133 5.33363C13.7799 4.92135 14.5466 5.12749 15.1216 5.74591C15.3133 5.95205 15.5049 6.15819 15.5049 6.36433C15.6966 6.57047 15.6966 6.98275 15.6966 7.18889C15.6966 7.80731 15.5049 8.21959 15.1216 8.63187C14.7383 9.04415 14.3549 9.25029 13.7799 9.25029Z" fill="#D9792E"/>
<path d="M18.8757 9.25029C18.684 9.25029 18.3007 9.25029 18.109 9.04373C17.9173 8.83717 17.7257 8.83717 17.534 8.63062C17.3423 8.42406 17.1507 8.2175 17.1507 8.01094C16.959 7.80439 16.959 7.39127 16.959 7.18471C16.959 6.97816 16.959 6.56504 17.1507 6.35848C17.3423 6.15193 17.3423 5.94537 17.534 5.73881C18.3007 4.91258 19.4507 4.91258 20.2173 5.73881C20.409 5.94537 20.6007 6.15193 20.6007 6.35848C20.7923 6.56504 20.7923 6.97816 20.7923 7.18471C20.7923 7.39127 20.7923 7.80439 20.6007 8.01094C20.409 8.2175 20.409 8.42406 20.2173 8.63062C19.834 9.04373 19.4507 9.25029 18.8757 9.25029Z" fill="#D9792E"/>
<path d="M43.4615 1H4.53846C2.59231 1 1 2.71818 1 4.81818V39.1818C1 41.2818 2.59231 43 4.53846 43H43.4615C45.4077 43 47 41.2818 47 39.1818V4.81818C47 2.71818 45.4077 1 43.4615 1Z" stroke="#D9792E" stroke-width="2" stroke-miterlimit="10" stroke-linecap="round" stroke-linejoin="round"/>
<path d="M15.0603 22.3418L9.94922 28.1943L15.0603 34.0467" stroke="#D9792E" stroke-width="2" stroke-miterlimit="10" stroke-linecap="round" stroke-linejoin="round"/>
<path d="M32.9492 22.3418L38.0603 28.1943L32.9492 34.0467" stroke="#D9792E" stroke-width="2" stroke-miterlimit="10" stroke-linecap="round" stroke-linejoin="round"/>
<path d="M27.1918 20.2773L20.1641 35.4249" stroke="#D9792E" stroke-width="2" stroke-miterlimit="10" stroke-linecap="round" stroke-linejoin="round"/>
</svg>
