<svg width="56" height="56" viewBox="0 0 56 56" fill="none" xmlns="http://www.w3.org/2000/svg">
<path d="M51.3346 29.7143C51.3346 29.6547 51.3346 29.5952 51.3346 29.5356C51.2201 27.2018 49.3687 25.3446 47.0974 25.3446C45.2651 25.3446 43.7095 26.5463 43.1179 28.2346L40.0449 27.9168C40.0449 27.887 40.0449 27.8572 40.0449 27.8274C40.0449 23.7656 38.1363 20.1705 35.1969 17.9558L37.8404 13.318C38.2126 13.4272 38.6134 13.4968 39.0238 13.4968C41.3619 13.4968 43.261 11.5205 43.261 9.08733C43.261 9.0774 43.261 9.0774 43.261 9.06747C43.261 9.05754 43.261 9.05754 43.261 9.04761C43.261 6.62441 41.381 4.66797 39.0429 4.66797H39.0333H39.0238C36.6857 4.66797 34.7866 6.64427 34.7866 9.0774C34.7866 10.289 35.2637 11.3914 36.0272 12.1958L33.3837 16.8237C31.8568 16.059 30.139 15.632 28.3258 15.632C25.3483 15.632 22.638 16.784 20.5766 18.6808L19.336 17.4692C19.67 16.8336 19.8609 16.1087 19.8609 15.334C19.8609 12.9009 17.9618 10.9246 15.6237 10.9246H15.6141H15.6046C13.276 10.9246 11.3864 12.881 11.3864 15.3042C11.3864 15.3142 11.3864 15.3142 11.3864 15.3241C11.3864 15.334 11.3864 15.334 11.3864 15.344C11.3864 17.7771 13.2856 19.7534 15.6237 19.7534C16.4539 19.7534 17.2269 19.5051 17.8854 19.0781L19.1165 20.2897C17.5419 22.3653 16.6066 24.9871 16.6066 27.8274C16.6066 28.7907 16.7116 29.7342 16.9215 30.6379L12.4744 32.1872C11.7205 30.9657 10.4035 30.1612 8.90519 30.1612C6.56708 30.1612 4.66797 32.1375 4.66797 34.5707V34.5806V34.5905C4.66797 37.0137 6.548 38.9702 8.87656 38.9702C8.8861 38.9702 8.8861 38.9702 8.89564 38.9702C8.90519 38.9702 8.90519 38.9702 8.91473 38.9702C11.2528 38.9702 13.1519 36.9939 13.1519 34.5607C13.1519 34.4614 13.1519 34.3621 13.1424 34.2727L17.5991 32.7235C19.4123 37.0137 23.535 40.0129 28.3258 40.0129C28.8602 40.0129 29.3851 39.9732 29.9004 39.9037L30.5875 43.0121C29.2324 43.7471 28.2971 45.2268 28.2971 46.925C28.2971 49.3582 30.1963 51.3345 32.5344 51.3345C32.8302 51.3345 33.107 51.3047 33.3837 51.2451C35.321 50.8379 36.7716 49.0503 36.7716 46.925C36.7716 44.5316 34.9297 42.5752 32.6393 42.5156L31.9522 39.4071C35.9604 38.0466 39.0238 34.4912 39.8254 30.1016L42.8984 30.4194C43.2133 32.5348 44.9693 34.1536 47.0879 34.1536C49.3592 34.1536 51.2106 32.2964 51.3251 29.9626C51.3251 29.8832 51.3346 29.8136 51.3346 29.7342C51.3346 29.7441 51.3346 29.7342 51.3346 29.7143ZM35.7791 33.945C35.6741 33.1803 35.3305 32.356 34.4048 32.1177C32.5439 31.6211 31.0265 30.5188 31.0265 30.5188L29.8432 34.4118L29.6237 35.1467V35.1367L29.4328 35.7525L28.8125 33.9152C30.349 31.6906 28.5071 31.7105 28.4021 31.7204C28.2971 31.7204 26.4553 31.6906 27.9918 33.9152L27.3714 35.7525L27.1806 35.1367V35.1467L26.9611 34.4118L25.7777 30.5188C25.7777 30.5188 24.2603 31.631 22.3994 32.1177C21.4546 32.366 21.1206 33.22 21.0252 34.0046C19.7177 32.3163 18.9352 30.1712 18.9352 27.8373C18.9352 22.3951 23.1724 17.9956 28.3926 17.9956C33.6223 17.9956 37.85 22.405 37.85 27.8373C37.8213 30.1414 37.0579 32.2666 35.7791 33.945Z" fill="#A663CC"/>
<path d="M31.8454 25.2774C31.9026 25.1086 31.9503 24.9299 31.979 24.761C32.4943 21.5235 30.9674 21.4142 30.9674 21.4142C30.9674 21.4142 30.7097 20.9077 30.0417 20.5204C29.5932 20.2424 28.9728 20.0338 28.1426 20.1033C27.8754 20.1132 27.6272 20.1728 27.3887 20.2523C27.0833 20.3615 26.8065 20.5105 26.5584 20.6992C26.253 20.8978 25.9572 21.1461 25.6995 21.4341C25.2987 21.8611 24.936 22.4272 24.7738 23.1224C24.6402 23.6388 24.6688 24.185 24.7833 24.771C24.812 24.9398 24.8597 25.1086 24.9169 25.2874C24.6116 25.2576 24.2489 25.4463 24.5925 26.6877C24.8406 27.6013 25.0696 27.8595 25.251 27.8695C25.4132 28.952 26.2148 30.3423 27.5413 30.819C28.0853 31.0177 28.677 31.0177 29.221 30.819C30.5284 30.3324 31.3587 28.952 31.5209 27.8695C31.6927 27.8595 31.9313 27.6013 32.1794 26.6877C32.5134 25.4363 32.1508 25.2477 31.8454 25.2774Z" fill="#A663CC"/>
</svg>
