<svg width="48" height="48" viewBox="0 0 48 48" fill="none" xmlns="http://www.w3.org/2000/svg">
<path d="M14.8081 30.2694L14.8081 30.2694C15.17 31.3368 15.1889 32.4908 14.862 33.5694C14.862 33.5694 14.862 33.5694 14.862 33.5694L14.6227 33.4969C14.3392 34.4325 13.7958 35.2659 13.0588 35.9014L14.8081 30.2694ZM14.8081 30.2694C14.4461 29.2021 13.7592 28.275 12.8437 27.6184C11.9283 26.9617 10.8303 26.6086 9.7041 26.6086C8.5778 26.6086 7.47986 26.9617 6.56441 27.6184L6.5644 27.6184C5.64901 28.275 4.9621 29.2021 4.60012 30.2694C4.23814 31.3368 4.21927 32.4908 4.54615 33.5694L4.54616 33.5694C4.83072 34.5084 5.36488 35.3492 6.08787 36.0039C4.77353 36.5413 3.59445 37.3675 2.63894 38.4235L2.63893 38.4235C1.58811 39.5849 0.840288 40.988 0.461926 42.5083C0.407919 42.6896 0.403584 42.882 0.449441 43.0656C0.495234 43.249 0.589404 43.4166 0.722008 43.551C1.8531 44.8195 3.23905 45.8346 4.7892 46.53C6.34138 47.2263 8.02322 47.5864 9.72421 47.5864C11.4252 47.5864 13.107 47.2263 14.6592 46.53C16.2114 45.8337 17.599 44.8168 18.7309 43.546L18.732 43.5447C18.8443 43.4169 18.9241 43.2637 18.9645 43.0984C19.0048 42.9334 19.0046 42.7611 18.9642 42.5962C18.5982 41.0563 17.8533 39.6325 16.7974 38.4543L16.7974 38.4543C15.8374 37.3832 14.6481 36.546 13.3205 36.0038L14.8081 30.2694ZM12.0189 29.7316L12.0189 29.7316C11.5594 29.2737 10.9747 28.9624 10.3387 28.8369C9.7027 28.7114 9.04373 28.7773 8.44506 29.0263L12.0189 29.7316ZM12.0189 29.7316C12.4784 30.1895 12.7921 30.7733 12.9204 31.4095C13.0487 32.0457 12.9858 32.7057 12.7398 33.3061C12.4937 33.9066 12.0755 34.4206 11.5379 34.7832L11.5378 34.7832M12.0189 29.7316L11.5378 34.7832M11.5378 34.7832C11.0003 35.1459 10.3675 35.3409 9.71928 35.344C9.28748 35.3449 8.85964 35.2607 8.46035 35.0963C8.06095 34.9317 7.69778 34.69 7.39165 34.385L7.39163 34.3849M11.5378 34.7832L7.39163 34.3849M7.39163 34.3849C7.08551 34.0799 6.84238 33.7175 6.6761 33.3184C6.50992 32.9193 6.42386 32.4914 6.42285 32.0591C6.42293 31.4102 6.61505 30.7758 6.97491 30.2361M7.39163 34.3849L6.97491 30.2361M6.97491 30.2361C7.33482 29.6963 7.84636 29.2754 8.44504 29.0263L6.97491 30.2361ZM9.67994 37.4221H9.67997H9.72817C9.72819 37.4221 9.72821 37.4221 9.72823 37.4221C11.3188 37.4225 12.8669 37.9364 14.1425 38.8877L14.292 38.6873L14.1425 38.8877C15.3788 39.8097 16.2952 41.0949 16.7652 42.5622C15.8564 43.4739 14.7798 44.2016 13.5943 44.7045L13.5942 44.7045C12.3636 45.2267 11.0407 45.4961 9.70404 45.4968C8.3667 45.4964 7.0431 45.2264 5.81234 44.7028L5.71448 44.9329L5.81233 44.7028C4.62665 44.1985 3.55043 43.4688 2.64304 42.5546C3.11426 41.0887 4.03122 39.8052 5.26747 38.8845C6.54296 37.9348 8.09027 37.4219 9.67994 37.4221Z" fill="#66A8DE" stroke="#66A8DE" stroke-width="0.5"/>
<path d="M47.559 42.6018L47.5589 42.6018C47.5955 42.7695 47.5907 42.9436 47.5447 43.1091L47.559 42.6018ZM47.559 42.6018L47.5578 42.597M47.559 42.6018L47.5578 42.597M47.5578 42.597C47.1896 41.054 46.4409 39.628 45.3802 38.4493C44.4163 37.3781 43.2225 36.5422 41.8909 36.0028M47.5578 42.597L41.8909 36.0028M41.8909 36.0028C42.6132 35.3483 43.147 34.5079 43.4313 33.5694C43.7582 32.4908 43.7393 31.3368 43.3774 30.2694L43.3774 30.2694C43.0154 29.2021 42.3285 28.275 41.413 27.6184C40.4977 26.9617 39.3996 26.6086 38.2734 26.6086C37.1471 26.6086 36.0492 26.9617 35.1338 27.6184C34.2184 28.275 33.5314 29.2021 33.1694 30.2694C32.8074 31.3368 32.7886 32.4908 33.1155 33.5694L33.1155 33.5694C33.4001 34.5084 33.9343 35.3492 34.6572 36.0039C33.3429 36.5413 32.1638 37.3675 31.2083 38.4235L31.2083 38.4235C30.1575 39.5848 29.4096 40.988 29.0313 42.5083C28.9772 42.6896 28.973 42.8821 29.0187 43.0656L29.0188 43.0657C29.0646 43.2491 29.1588 43.4166 29.2914 43.551C30.4225 44.8195 31.8084 45.8346 33.3586 46.53C34.9108 47.2263 36.5925 47.5864 38.2935 47.5864C39.9945 47.5864 41.6763 47.2263 43.2285 46.53C44.7797 45.8342 46.1665 44.8181 47.298 43.5485C47.4145 43.4242 47.4992 43.2734 47.5447 43.1092L41.8909 36.0028ZM40.5882 29.7316L40.5882 29.7316C40.1288 29.2737 39.5441 28.9624 38.908 28.8369L40.5882 29.7316ZM40.5882 29.7316C41.0477 30.1895 41.3614 30.7733 41.4898 31.4095C41.6181 32.0457 41.5552 32.7057 41.3091 33.3061C41.063 33.9066 40.6448 34.4206 40.1072 34.7832L40.1072 34.7832M40.5882 29.7316L40.1072 34.7832M40.1072 34.7832C39.5696 35.1459 38.9368 35.3409 38.2886 35.344C37.8568 35.3449 37.4291 35.2607 37.0297 35.0963C36.6303 34.9317 36.2671 34.69 35.961 34.385L35.961 34.3849M40.1072 34.7832L35.961 34.3849M35.961 34.3849C35.6548 34.0799 35.4117 33.7175 35.2455 33.3184L35.2455 33.3183M35.961 34.3849L35.2455 33.3183M35.2455 33.3183C35.0793 32.9193 34.9932 32.4914 34.9922 32.0591C34.9923 31.4102 35.1844 30.7758 35.5442 30.2361M35.2455 33.3183L35.5442 30.2361M35.5442 30.2361C35.9041 29.6963 36.4157 29.2754 37.0144 29.0263L35.5442 30.2361ZM38.2493 37.4221H38.2493H38.2975C38.2975 37.4221 38.2975 37.4221 38.2976 37.4221C39.8882 37.4225 41.4362 37.9364 42.7118 38.8877L42.8613 38.6873L42.7118 38.8877C43.9482 39.8097 44.8645 41.0949 45.3345 42.5622C44.4257 43.4739 43.3491 44.2016 42.1637 44.7045L42.2613 44.9346L42.1637 44.7045C40.9329 45.2267 39.61 45.4961 38.2733 45.4968C36.9359 45.4973 35.6121 45.2277 34.3812 44.7041C33.1953 44.1997 32.1192 43.4695 31.2124 42.5547C31.6835 41.0887 32.6005 39.8052 33.8368 38.8845C35.1123 37.9348 36.6596 37.4219 38.2493 37.4221ZM37.0144 29.0263C37.613 28.7773 38.272 28.7114 38.908 28.8369L37.0144 29.0263Z" fill="#66A8DE" stroke="#66A8DE" stroke-width="0.5"/>
<path d="M22.7327 2.76769L22.7327 2.7677C22.1331 3.01627 21.6207 3.43722 21.2601 3.97738L21.0521 3.83857L21.2601 3.97738C20.8995 4.51753 20.707 5.15259 20.707 5.80226C20.707 6.67344 21.0528 7.5089 21.6681 8.12488L22.7327 2.76769ZM22.7327 2.76769C23.3322 2.51913 23.9919 2.45409 24.6283 2.58081C25.2648 2.70753 25.8494 3.02031 26.3083 3.47964L26.3083 3.47965M22.7327 2.76769L26.3083 3.47965M26.3083 3.47965C26.7672 3.93899 27.0798 4.52425 27.2064 5.16143M26.3083 3.47965L27.2064 5.16143M27.2064 5.16143C27.3331 5.79861 27.268 6.45907 27.0197 7.05932M27.2064 5.16143L27.0197 7.05932M27.0197 7.05932C26.7713 7.65946 26.3507 8.17247 25.8111 8.53336L27.0197 7.05932ZM19.0876 20.3474L19.0876 20.3474C20.6416 21.041 22.3246 21.3975 24.026 21.3936C25.7274 21.3897 27.4087 21.0255 28.9595 20.3248C30.5102 19.6242 31.8953 18.6031 33.0236 17.3285L33.0241 17.3279C33.1366 17.1999 33.2162 17.0468 33.2567 16.8816L33.2567 16.8815C33.297 16.7166 33.2969 16.5445 33.2564 16.3797C32.8866 14.8424 32.1402 13.4214 31.0846 12.2448L31.0845 12.2448C30.1249 11.1754 28.9372 10.3386 27.6116 9.79517C28.3324 9.14091 28.8648 8.30121 29.1479 7.36373C29.4732 6.28694 29.4535 5.13524 29.0916 4.07021C28.7297 3.00519 28.0438 2.08027 27.1299 1.42524C26.2161 0.770212 25.1203 0.417969 23.9962 0.417969C22.8722 0.417969 21.7765 0.770214 20.8626 1.42524C19.9488 2.08027 19.2629 3.00519 18.901 4.07021C18.5391 5.13524 18.5194 6.28694 18.8447 7.36373C19.1277 8.30087 19.6598 9.14032 20.3802 9.79447C19.066 10.3301 17.8869 11.1548 16.9313 12.2096L16.9313 12.2096C15.8813 13.3685 15.1338 14.7692 14.7552 16.2868C14.6923 16.4741 14.6831 16.6753 14.7288 16.8676C14.7748 17.0608 14.8743 17.237 15.0157 17.376C16.1488 18.6425 17.5364 19.655 19.0876 20.3474ZM23.9873 11.1971L23.9879 11.1971C25.5784 11.1987 27.1259 11.7132 28.4013 12.6643C29.6375 13.5863 30.5543 14.8709 31.0252 16.3377C30.1181 17.2523 29.0419 17.9825 27.8562 18.487C26.6253 19.0107 25.3016 19.2805 23.9641 19.2805C22.6266 19.2805 21.3029 19.0107 20.0721 18.487L19.9742 18.717L20.0721 18.487C18.8863 17.9825 17.8102 17.2525 16.9032 16.3379C17.3787 14.8647 18.3029 13.576 19.548 12.6536C20.8324 11.702 22.3894 11.1912 23.9873 11.1971ZM25.8111 8.53338C25.2715 8.89419 24.6371 9.08682 23.9882 9.08682C23.118 9.08682 22.2835 8.74084 21.6681 8.12489L25.8111 8.53338Z" fill="#66A8DE" stroke="#66A8DE" stroke-width="0.5"/>
<path d="M31.1091 33.1121L31.096 33.1109C30.9341 33.0952 30.7777 33.044 30.6379 32.9607L23.9933 29.6629L17.3429 32.9635C17.2195 33.0292 17.0842 33.0695 16.945 33.0824M31.1091 33.1121L16.9221 32.8334M31.1091 33.1121L31.1221 33.112C31.318 33.1104 31.5096 33.0543 31.6753 32.9499C31.8405 32.8459 31.9734 32.6981 32.0596 32.523C32.1326 32.3797 32.1718 32.2217 32.1745 32.061L32.1745 32.0574C32.1749 31.8597 32.1198 31.6658 32.0154 31.4979C31.9112 31.3303 31.7621 31.1954 31.5852 31.1083C31.5848 31.1082 31.5845 31.108 31.5842 31.1078L25.0477 27.8286V23.1521C25.0477 22.8724 24.9367 22.6039 24.7389 22.406C24.5412 22.2082 24.273 22.0969 23.9933 22.0969C23.7135 22.0969 23.4454 22.2082 23.2477 22.406L23.2477 22.4061C23.05 22.6039 22.9389 22.8723 22.9389 23.1521V27.8279M31.1091 33.1121L23.1889 27.9829M16.945 33.0824L16.9221 32.8334M16.945 33.0824C16.945 33.0824 16.9451 33.0824 16.9451 33.0824L16.9221 32.8334M16.945 33.0824C16.8045 33.0954 16.6626 33.08 16.528 33.037C16.3934 32.994 16.2689 32.9245 16.1618 32.8326L16.1618 32.8326C16.0546 32.7405 15.967 32.6278 15.9042 32.5013C15.8413 32.3748 15.8046 32.2371 15.7959 32.0961C15.7873 31.955 15.8071 31.8137 15.8541 31.6805C15.9011 31.5472 15.9744 31.4249 16.0694 31.3206L16.0695 31.3205C16.1637 31.2171 16.2776 31.1335 16.4045 31.0746M16.9221 32.8334C16.8148 32.8434 16.7067 32.8316 16.604 32.7988C16.5014 32.7661 16.4064 32.713 16.3247 32.6429C16.2428 32.5727 16.176 32.4867 16.1281 32.3901C16.0801 32.2936 16.052 32.1885 16.0455 32.0808C16.0389 31.9732 16.054 31.8653 16.0899 31.7637C16.1257 31.662 16.1816 31.5686 16.2542 31.4889C16.3268 31.4093 16.4147 31.3451 16.5126 31.3001M16.4045 31.0746L16.4013 31.0762L16.5126 31.3001M16.4045 31.0746C16.4057 31.074 16.4069 31.0735 16.4081 31.0729L16.5126 31.3001M16.4045 31.0746L22.9389 27.8279M16.5126 31.3001L23.1889 27.9829M23.1889 27.9829H22.9389V27.8279M23.1889 27.9829L23.0777 27.759L22.9389 27.8279" fill="#66A8DE" stroke="#66A8DE" stroke-width="0.5"/>
</svg>
