<svg width="24" height="20" viewBox="0 0 24 20" fill="none" xmlns="http://www.w3.org/2000/svg">
<path d="M23.785 2.37789C23.6111 2.26023 23.3815 2.26619 23.2143 2.39322C23.045 2.52142 22.7702 2.63167 22.4579 2.72209C23.3131 1.72361 23.3308 1.05611 23.3207 0.898984C23.3093 0.720813 23.2016 0.562984 23.0402 0.486906C22.8781 0.411344 22.6882 0.42925 22.5439 0.534016C21.5177 1.2797 20.496 1.44212 19.8819 1.46027C18.9286 0.553609 17.6926 0.0566406 16.3784 0.0566406C13.5532 0.0566406 11.2547 2.38558 11.2547 5.24809C11.2547 5.47984 11.27 5.71112 11.3001 5.94048C6.47701 5.85841 2.56243 1.24169 2.52203 1.19313C2.41965 1.07045 2.26421 1.0037 2.10348 1.01903C1.9442 1.03291 1.80142 1.1238 1.72154 1.26227C0.361934 3.62111 1.19251 5.7025 2.02646 6.94947C1.94036 6.89828 1.86981 6.85117 1.82153 6.81555C1.6742 6.706 1.47761 6.68781 1.31284 6.76891C1.14779 6.85023 1.04232 7.01669 1.03923 7.20058C1.00239 9.46253 2.05942 10.786 3.08645 11.536C2.97526 11.5514 2.87096 11.6044 2.79273 11.6896C2.67507 11.8173 2.63368 11.9979 2.6844 12.1641C3.39662 14.4954 5.12382 15.3212 6.26439 15.6135C3.9572 17.3543 0.613277 16.7861 0.576199 16.7791C0.35448 16.7402 0.132574 16.8571 0.0414491 17.0642C-0.0494415 17.2711 0.0127616 17.5136 0.192621 17.6506C2.65187 19.5275 5.59309 19.9434 7.71746 19.9434C9.32397 19.9434 10.4631 19.7054 10.5726 19.6818C21.289 17.1421 21.6287 7.35067 21.6067 5.68206C23.6171 3.81039 23.9333 3.09198 23.9825 2.9133C24.038 2.71108 23.9586 2.49583 23.785 2.37789ZM20.7789 5.11342C20.6697 5.21387 20.612 5.35881 20.6221 5.50708C20.6237 5.53337 20.7878 8.18734 19.6052 11.1445C18.025 15.0957 14.91 17.6473 10.3564 18.7264C10.3076 18.7367 6.09521 19.6091 2.39739 17.8503C3.97825 17.7841 6.1675 17.3388 7.70795 15.6094C7.83662 15.4652 7.86723 15.2423 7.78806 15.066C7.70889 14.8902 7.5331 14.7609 7.34035 14.7609C7.33942 14.7609 7.33843 14.7609 7.33703 14.7609C7.20765 14.7609 4.97748 14.7441 3.90892 12.5903C4.34106 12.6089 4.85767 12.5835 5.27401 12.3917C5.46582 12.3032 5.57917 12.1057 5.5555 11.896C5.53182 11.6862 5.37639 11.5173 5.16971 11.4738C5.0499 11.4484 2.46742 10.8721 2.06926 8.06627C2.46601 8.23155 2.96059 8.35956 3.45254 8.28588C3.6415 8.25766 3.79623 8.12181 3.84976 7.93839C3.90311 7.7552 3.84475 7.5573 3.70051 7.43172C3.58881 7.33469 1.15393 5.16892 2.2689 2.37048C3.58881 3.74542 7.35296 7.16898 11.9173 6.90733C12.063 6.89894 12.1974 6.82577 12.2839 6.70811C12.3703 6.59045 12.3997 6.4405 12.364 6.29899C12.2779 5.95605 12.2342 5.60256 12.2342 5.24814C12.2342 2.92567 14.0932 1.03628 16.3784 1.03628C17.496 1.03628 18.5441 1.4823 19.3301 2.29234C19.4202 2.38539 19.5437 2.43869 19.6733 2.44112C20.126 2.44544 20.8715 2.39664 21.7138 2.08333C21.4626 2.37747 21.1114 2.72186 20.6201 3.10764C20.4504 3.24109 20.3879 3.47022 20.4666 3.67136C20.5455 3.87297 20.7504 4.00042 20.9619 3.98106C21.0609 3.97319 21.5409 3.93086 22.1034 3.81677C21.781 4.15942 21.3513 4.58706 20.7789 5.11342Z" fill="white"/>
</svg>
