<svg width="746" height="498" viewBox="0 0 746 498" fill="none" xmlns="http://www.w3.org/2000/svg">
<path d="M495.904 134.169L494.332 131.555C481.062 109.775 457.069 96.557 431.776 98.1622C428.522 98.3666 425.288 98.8073 422.098 99.4809C399.137 104.398 379.081 121.765 370.792 144.002C365.914 157.079 364.547 172.145 355.297 182.534C343.254 196.038 322.796 196.462 304.784 195.901C286.772 195.34 266.337 195.821 254.351 209.393C246.843 217.887 244.454 230.026 245.064 241.336C246.663 271.462 267.679 298.389 294.429 311.778C321.178 325.167 352.63 326.372 381.89 320.483C422.879 312.229 461.851 289.532 485.281 254.58C508.711 219.628 514.709 171.94 495.904 134.169Z" fill="#F5F5F5"/>
<path d="M733.402 177.356C745.247 165.529 745.247 146.353 733.402 134.526C721.557 122.699 702.353 122.699 690.508 134.526C678.663 146.353 678.663 165.529 690.508 177.356C702.353 189.183 721.557 189.183 733.402 177.356Z" fill="#F5F5F5"/>
<path d="M577.493 473.893C603.228 473.893 624.091 453.061 624.091 427.364C624.091 401.667 603.228 380.835 577.493 380.835C551.758 380.835 530.895 401.667 530.895 427.364C530.895 453.061 551.758 473.893 577.493 473.893Z" fill="#F5F5F5"/>
<path d="M192.916 459.265C209.667 459.265 223.247 445.706 223.247 428.98C223.247 412.254 209.667 398.694 192.916 398.694C176.165 398.694 162.586 412.254 162.586 428.98C162.586 445.706 176.165 459.265 192.916 459.265Z" fill="#F5F5F5"/>
<path d="M373.326 32.2696C376.582 18.1863 367.788 4.13381 353.684 0.882432C339.58 -2.36895 325.507 6.41204 322.251 20.4953C318.994 34.5786 327.788 48.6311 341.892 51.8825C355.997 55.1339 370.07 46.3529 373.326 32.2696Z" fill="#F5F5F5"/>
<path d="M80.4008 177.819C90.5165 156.803 81.6549 131.578 60.6079 121.478C39.5609 111.377 14.2985 120.226 4.18283 141.241C-5.93285 162.257 2.92875 187.482 23.9758 197.583C45.0228 207.683 70.2852 198.835 80.4008 177.819Z" fill="#F5F5F5"/>
<path d="M682.503 497.519C682.503 497.68 546.199 497.818 378.104 497.818C210.01 497.818 73.682 497.681 73.682 497.519C73.682 497.357 209.954 497.232 378.093 497.232C546.233 497.232 682.503 497.347 682.503 497.519Z" fill="#263238"/>
<path d="M430.741 99.6755C435.828 104.166 439.752 109.817 442.18 116.149C444.607 122.48 445.466 129.303 444.683 136.037C443.845 142.549 441.674 149.913 445.693 155.113C449.712 160.312 457.943 160.512 461.766 165.794C466.231 172.007 461.766 180.696 463.143 188.239C463.884 191.761 465.856 194.906 468.706 197.109C471.556 199.312 475.098 200.43 478.699 200.264C469.95 206.687 459.6 210.582 448.781 211.522L441.097 200.607C444.024 204.447 442.91 210.259 439.719 213.87C436.528 217.48 431.774 219.303 427.09 220.541C415.889 223.393 404.179 223.624 392.873 221.216C381.567 218.809 370.97 213.827 361.909 206.66" fill="#263238"/>
<path d="M304.895 151.386C306.777 146.457 309.763 141.952 311.117 136.851C314.033 125.892 309.235 113.168 315.116 103.459C319.295 96.581 327.618 93.4765 335.447 91.48C343.276 89.4835 351.669 87.8694 357.696 82.5038C362.116 78.5608 364.802 72.9667 369.176 69.0117C375.455 63.3716 384.411 61.7894 392.848 61.6866C401.528 61.5868 410.424 62.8326 418.024 67.0402C425.624 71.2477 431.72 78.7095 432.684 87.3183C433.155 91.5109 432.431 95.8473 433.545 99.9281C434.773 104.399 438.079 107.952 440.02 112.228C441.969 116.763 442.35 121.816 441.102 126.59C439.855 131.364 437.051 135.588 433.132 138.594L369.991 212.28C357.282 216.372 327.342 209.207 318.157 199.532C308.973 189.857 300.142 163.847 304.895 151.386Z" fill="#263238"/>
<path d="M432.051 128.746C430.452 111.242 418.217 90.0465 400.767 92.3734L346.511 107.688C343.958 108.037 341.628 109.326 339.977 111.302C338.327 113.278 337.476 115.799 337.591 118.369L347.096 249.784L346.717 249.876C346.717 249.876 360.113 286.661 395.944 274.408C403.05 271.978 406.115 264.091 407.333 255.986L407.425 235.192C407.253 224.566 407.125 220.21 407.138 220.289C407.151 220.369 429.479 215.945 433.313 186.588C435.265 172.009 433.865 148.188 432.051 128.746Z" fill="#FFBE9D"/>
<path d="M384.202 155.628C384.234 156.605 383.884 157.557 383.226 158.282C382.569 159.007 381.655 159.449 380.678 159.514C380.201 159.564 379.719 159.519 379.26 159.381C378.801 159.243 378.374 159.014 378.005 158.708C377.636 158.403 377.332 158.027 377.111 157.602C376.889 157.177 376.755 156.713 376.717 156.236C376.679 155.26 377.026 154.308 377.682 153.583C378.339 152.859 379.253 152.421 380.23 152.361C380.706 152.309 381.189 152.353 381.648 152.49C382.108 152.627 382.535 152.854 382.906 153.159C383.276 153.463 383.581 153.839 383.804 154.263C384.026 154.687 384.162 155.151 384.202 155.629V155.628Z" fill="#263238"/>
<path d="M423.074 154.356C423.106 155.334 422.756 156.285 422.098 157.01C421.441 157.735 420.527 158.177 419.55 158.242C419.073 158.291 418.592 158.245 418.133 158.106C417.675 157.967 417.249 157.738 416.88 157.433C416.512 157.127 416.207 156.752 415.986 156.328C415.764 155.904 415.629 155.44 415.589 154.964C415.554 153.987 415.901 153.036 416.557 152.31C417.212 151.585 418.125 151.143 419.102 151.078C419.579 151.029 420.061 151.075 420.52 151.214C420.979 151.353 421.405 151.581 421.775 151.886C422.145 152.192 422.45 152.567 422.673 152.991C422.896 153.415 423.032 153.879 423.074 154.356Z" fill="#263238"/>
<path d="M428.802 141.746C428.366 142.411 424.991 140.038 420.604 140.462C416.217 140.887 413.279 143.73 412.728 143.145C412.465 142.892 412.866 141.735 414.14 140.417C415.809 138.748 418.011 137.718 420.362 137.505C422.709 137.301 425.052 137.934 426.974 139.293C428.445 140.371 429.032 141.448 428.802 141.746Z" fill="#263238"/>
<path d="M388.15 144.427C387.6 145.026 384.294 142.375 379.609 142.352C374.924 142.329 371.458 144.805 370.952 144.186C370.699 143.91 371.252 142.81 372.752 141.652C374.746 140.186 377.164 139.41 379.64 139.44C382.112 139.459 384.507 140.307 386.438 141.848C387.921 143.018 388.426 144.164 388.15 144.427Z" fill="#263238"/>
<path d="M403.062 172.652C403.062 172.422 405.542 171.918 409.594 171.287C410.628 171.149 411.594 170.921 411.741 170.21C411.807 169.146 411.537 168.087 410.971 167.183C409.938 164.721 408.847 162.134 407.699 159.423C403.107 148.372 399.835 139.271 400.283 139.099C400.731 138.927 404.772 147.731 409.329 158.781L412.464 166.587C412.888 167.733 413.611 169.052 413.118 170.611C412.979 170.979 412.757 171.31 412.471 171.58C412.185 171.851 411.841 172.052 411.465 172.17C410.897 172.337 410.311 172.433 409.72 172.457C405.648 172.823 403.085 172.88 403.062 172.652Z" fill="#263238"/>
<path d="M407.184 220.315C393.403 220.903 379.729 217.665 367.68 210.961C367.68 210.961 378.116 231.205 407.333 227.651L407.184 220.315Z" fill="#EB996E"/>
<path d="M401.628 182.413C400.83 181.472 399.807 180.747 398.653 180.308C397.499 179.869 396.252 179.73 395.03 179.903C394.14 180.005 393.28 180.286 392.503 180.729C391.725 181.172 391.046 181.769 390.506 182.482C389.984 183.171 389.686 184.003 389.654 184.867C389.621 185.73 389.854 186.582 390.322 187.309C391.47 188.806 393.766 189.097 395.648 188.455C397.538 187.728 399.266 186.637 400.734 185.245C401.19 184.912 401.579 184.496 401.882 184.019C402.031 183.797 402.11 183.537 402.11 183.27C402.11 183.003 402.031 182.743 401.882 182.521" fill="#92E3A9"/>
<path d="M391.25 175.769C391.904 175.769 392.041 180.09 395.841 183.105C399.641 186.12 404.339 185.49 404.394 186.109C404.463 186.372 403.372 186.98 401.395 187.095C398.826 187.189 396.306 186.376 394.277 184.799C392.319 183.294 391.025 181.085 390.672 178.643C390.492 176.858 390.951 175.758 391.25 175.769Z" fill="#263238"/>
<path d="M388.425 133.546C388.058 134.692 384.006 134.244 379.241 134.943C374.476 135.642 370.722 137.04 370.057 136.089C369.757 135.619 370.4 134.576 371.916 133.464C373.951 132.098 376.273 131.216 378.702 130.884C381.132 130.552 383.605 130.779 385.933 131.549C387.691 132.185 388.586 133.022 388.425 133.546Z" fill="#263238"/>
<path d="M425.438 125.365C424.646 126.305 421.439 125.434 417.62 125.503C413.801 125.572 410.571 126.301 409.802 125.377C409.458 124.919 409.94 123.99 411.329 123.081C413.239 121.954 415.424 121.375 417.643 121.407C419.856 121.366 422.036 121.946 423.934 123.081C425.312 123.979 425.783 124.907 425.438 125.365Z" fill="#263238"/>
<path d="M334.549 111.299C337.442 107.287 342.389 105.395 347.085 103.848C367.373 97.1474 388.389 92.8836 409.687 91.1466C412.099 95.6057 409.377 101.383 405.256 104.34C401.134 107.297 395.958 108.295 391.124 109.843C386.289 111.39 381.273 113.877 379.081 118.463C376.782 123.335 378.231 129.307 376.154 134.282C372.572 142.857 360.242 145.069 356.717 153.667C354.054 160.156 357.544 167.423 358.152 174.382C358.474 177.933 358.035 181.512 356.863 184.88C355.69 188.248 353.812 191.328 351.354 193.915C348.895 196.501 345.913 198.534 342.605 199.878C339.297 201.223 335.741 201.847 332.172 201.71C331.95 176.606 331.728 151.501 331.506 126.396C331.403 121.158 331.483 115.506 334.549 111.299Z" fill="#263238"/>
<path d="M280.936 172.067C285.068 168.72 290.177 165.9 292.015 160.901C294.667 153.633 289.156 144.669 293.314 138.124C297.103 132.163 307.366 132.977 310.909 126.866C313.687 122.098 310.989 117.627 312.161 113.374C313.332 109.122 319.623 105.66 323.986 106.387L355.786 157.604C358.151 174.387 360.917 183.385 356.864 192.934C354.649 198.173 351.836 203.251 350.791 208.845C349.746 214.439 350.871 220.881 355.326 224.435C334.776 225.043 316.109 213.408 298.889 202.196L280.67 190.332C278.663 189.241 276.962 187.664 275.722 185.747C273.198 181.098 276.803 175.414 280.936 172.067Z" fill="#263238"/>
<path d="M298.627 197.148C299.327 197.409 300.055 197.585 300.796 197.675C302.921 197.997 305.085 197.951 307.194 197.538C310.563 196.908 313.709 195.41 316.321 193.193C319.782 190.191 322.064 186.06 322.761 181.535C323.19 178.917 323.093 176.24 322.474 173.66C321.676 170.924 320.518 168.305 319.03 165.874C317.467 163.385 316.276 160.682 315.494 157.85C314.874 154.973 315.035 151.591 317.009 149.229C318.984 146.867 322.486 146.386 325.757 145.251C327.528 144.717 329.102 143.672 330.281 142.247C331.37 140.696 331.956 138.847 331.957 136.952C332.095 133.203 330.658 129.706 330.144 126.188C329.822 124.454 329.9 122.67 330.374 120.972C330.907 119.301 332.029 117.88 333.531 116.971C336.585 114.999 340.419 114.851 344.028 114.675C347.755 114.717 351.433 113.825 354.725 112.08C357.893 110.332 360.52 107.751 362.323 104.617C363.872 101.58 364.933 98.3188 365.468 94.9529C365.974 91.8472 366.798 88.8013 367.925 85.8629C369.125 83.1794 370.891 80.7862 373.103 78.8473C376.766 75.6324 381.357 73.6625 386.214 73.2217C391.072 72.7808 395.943 73.8919 400.127 76.3946C403.015 78.0589 405.585 80.2221 407.716 82.7834C409.497 85.0067 411.019 87.4257 412.251 89.9936C412.21 89.809 412.153 89.6286 412.079 89.4546C411.941 89.1102 411.769 88.5721 411.447 87.9183C410.537 85.9823 409.405 84.1589 408.072 82.4849C405.962 79.8203 403.382 77.5632 400.46 75.8246C396.574 73.4562 392.094 72.2384 387.542 72.3129C381.995 72.4758 376.671 74.522 372.446 78.1136C370.111 80.1377 368.24 82.6397 366.958 85.4497C365.782 88.447 364.92 91.5582 364.387 94.7333C363.86 97.9832 362.83 101.131 361.333 104.065C359.616 107.006 357.132 109.426 354.146 111.068C351.01 112.72 347.507 113.552 343.963 113.487C340.358 113.636 336.305 113.74 332.884 115.929C331.161 116.976 329.866 118.601 329.233 120.514C328.71 122.379 328.62 124.34 328.969 126.246C329.543 129.971 330.921 133.364 330.783 136.803C330.788 138.44 330.291 140.04 329.359 141.388C328.312 142.637 326.922 143.553 325.36 144.024C323.799 144.597 322.134 144.953 320.516 145.549C318.837 146.079 317.333 147.053 316.165 148.369C313.865 151.154 313.799 154.857 314.454 157.906C315.271 160.85 316.517 163.658 318.153 166.24C319.63 168.583 320.789 171.112 321.597 173.76C322.209 176.219 322.33 178.774 321.953 181.279C321.324 185.635 319.182 189.631 315.903 192.57C313.399 194.762 310.376 196.277 307.12 196.973C304.327 197.582 301.442 197.642 298.627 197.148Z" fill="#455A64"/>
<path d="M273.049 160.593C272.683 161.08 272.425 161.638 272.291 162.232C271.875 163.957 272.099 165.773 272.923 167.345C273.501 168.493 274.352 169.481 275.402 170.222C276.685 171.073 278.18 171.549 279.719 171.597C281.594 171.654 283.447 171.193 285.077 170.268C286.708 169.342 288.051 167.985 288.96 166.348C290.034 164.474 290.64 162.371 290.728 160.215C290.764 157.89 290.375 155.579 289.58 153.394C288.169 148.889 285.435 144.429 285.619 139.26C285.588 137.99 285.812 136.726 286.28 135.544C286.747 134.363 287.448 133.287 288.341 132.382C290.258 130.628 293.093 130.318 295.894 130.421C298.696 130.524 301.75 130.971 304.803 129.94C306.341 129.399 307.671 128.388 308.602 127.051C309.489 125.714 310.072 124.2 310.312 122.615C310.852 119.452 310.255 116.39 310.025 113.444C309.713 110.616 310.015 107.754 310.909 105.053C312.626 99.899 316.253 95.5965 321.046 93.0283C325.638 90.5756 330.759 90.5407 335.396 90.4838C340.034 90.4269 344.581 90.3919 348.461 89.0862C351.939 87.9641 355.156 86.1554 357.92 83.7676C360.009 81.987 361.809 79.895 363.258 77.5656C364.552 75.6274 365.485 73.4724 366.014 71.2038C365.152 73.3313 364.1 75.3764 362.869 77.314C361.377 79.5513 359.563 81.5561 357.484 83.2635C354.756 85.5321 351.602 87.235 348.208 88.2727C344.454 89.4995 340.08 89.5225 335.395 89.4995C330.711 89.4765 325.419 89.4995 320.539 92.056C315.474 94.7314 311.628 99.2443 309.794 104.666C308.846 107.521 308.517 110.546 308.829 113.538C309.082 116.507 309.629 119.488 309.139 122.364C308.649 125.241 307.072 127.902 304.397 128.772C301.722 129.643 298.807 129.253 295.924 129.196C293.042 129.139 289.826 129.403 287.567 131.492C286.56 132.509 285.771 133.719 285.246 135.048C284.721 136.378 284.471 137.801 284.513 139.23C284.501 141.871 285.01 144.489 286.012 146.933C286.885 149.295 287.895 151.518 288.63 153.696C289.405 155.767 289.794 157.962 289.777 160.173C289.708 162.18 289.169 164.142 288.205 165.905C287.379 167.432 286.15 168.704 284.653 169.585C283.155 170.466 281.445 170.922 279.707 170.903C278.288 170.898 276.897 170.501 275.689 169.757C274.497 168.949 273.562 167.816 272.994 166.493C272.427 165.171 272.252 163.713 272.49 162.294C272.762 161.153 273.107 160.626 273.049 160.593Z" fill="#263238"/>
<path d="M488.201 183.346C488.706 185.112 488.588 186.997 487.868 188.687C487.478 189.661 486.875 190.535 486.102 191.245C485.329 191.956 484.407 192.484 483.403 192.791C482.065 193.116 480.664 193.061 479.355 192.634C478.047 192.207 476.884 191.423 475.998 190.372C474.98 189.145 474.432 187.598 474.448 186.005C474.465 184.243 474.815 182.501 475.482 180.869C476.733 177.43 479.144 173.808 479.018 169.28C478.979 166.979 478.458 164.711 477.487 162.624C476.516 160.537 475.117 158.677 473.381 157.163C471.562 155.559 469.454 154.315 467.17 153.494C464.827 152.716 462.391 152.246 459.926 152.097C457.552 151.948 455.197 151.583 452.889 151.008C450.728 150.447 448.836 149.138 447.551 147.314C446.421 145.465 445.832 143.337 445.851 141.17C445.839 139.048 446.121 136.934 446.689 134.888C447.734 130.853 449.145 126.932 449.111 123.024C449.088 119.415 447.985 115.895 445.943 112.917C444.202 110.549 442.032 108.527 439.545 106.957C437.731 105.776 436.008 104.461 434.39 103.025C433.05 101.762 431.98 100.241 431.245 98.5535C431.253 98.678 431.276 98.8011 431.314 98.9199C431.406 99.2702 431.528 99.6117 431.681 99.9401C432.242 101.23 433.049 102.398 434.057 103.379C435.64 104.903 437.345 106.295 439.156 107.54C441.53 109.108 443.594 111.1 445.243 113.416C447.127 116.28 448.128 119.631 448.125 123.057C448.125 126.737 446.725 130.531 445.625 134.647C445.016 136.787 444.711 139.002 444.718 141.227C444.685 143.612 445.33 145.957 446.578 147.99C448.006 150.049 450.123 151.532 452.547 152.174C454.928 152.782 457.361 153.166 459.814 153.32C462.181 153.461 464.519 153.908 466.771 154.649C468.915 155.426 470.896 156.592 472.615 158.088C474.235 159.494 475.545 161.222 476.461 163.16C477.376 165.099 477.878 167.207 477.934 169.349C478.083 173.499 475.857 177.007 474.559 180.584C473.872 182.337 473.522 184.203 473.526 186.086C473.544 187.881 474.195 189.613 475.363 190.977C476.364 192.12 477.667 192.958 479.122 193.396C480.578 193.834 482.128 193.853 483.595 193.453C485.344 192.84 486.818 191.626 487.753 190.028C488.689 188.43 489.026 186.552 488.703 184.729C488.614 184.242 488.443 183.773 488.198 183.342L488.201 183.346Z" fill="#263238"/>
<path d="M327.89 100.065C325.927 106.553 320.176 111.069 316.411 116.709C311.095 124.665 309.867 134.638 309.753 144.221C310.028 139.716 308.226 135.371 307.341 130.944C305.768 123.086 307.14 114.924 311.198 108.009C315.255 101.094 321.714 95.9084 329.349 93.4365" fill="#263238"/>
<path d="M340.438 241.717C344.295 240.64 321.403 249.374 320.921 249.523L341.357 282.764L420.57 299.603L450.419 251.229L390.147 233.292L340.438 241.717Z" fill="#FFBE9D"/>
<path d="M454.724 354.113L503.021 333.388C503.021 333.388 484.652 269.732 479.828 262.98C475.003 256.228 425.159 240.776 425.159 240.776C425.159 240.776 407.939 269.435 378.472 271.406C349.005 273.378 337.844 270.26 332.046 244.719C332.046 244.719 282.681 256.091 278.847 260.436C275.013 264.78 248.999 336.277 248.999 336.277C248.999 336.277 300.184 350.743 302.13 351.706C304.075 352.67 307.431 428.384 307.431 428.384C307.431 428.384 284.574 487.386 283.644 498L471.197 497.519L451.842 385.947L454.724 354.113Z" fill="#455A64"/>
<path d="M287.709 296.706C288.017 297.453 288.274 298.22 288.478 299.001C288.936 300.599 289.568 302.704 290.314 305.26C291.841 310.556 293.907 317.87 296.146 325.986C297.294 330.033 298.305 333.896 299.27 337.45C299.728 339.203 300.222 340.888 300.613 342.459C301.004 344.029 301.313 345.519 301.578 346.872C302.106 349.577 302.462 351.778 302.725 353.303C302.894 354.084 302.998 354.877 303.035 355.675C302.951 355.484 302.889 355.283 302.851 355.076C302.751 354.606 302.611 354.033 302.452 353.345C302.119 351.729 301.66 349.574 301.108 346.972C300.808 345.619 300.476 344.152 300.063 342.592C299.65 341.033 299.156 339.371 298.664 337.629C297.688 334.11 296.608 330.242 295.484 326.167C293.245 318.062 291.259 310.714 289.858 305.383L288.228 299.067C287.989 298.296 287.816 297.506 287.711 296.706H287.709Z" fill="#263238"/>
<path d="M402.339 396.104C402.176 396.303 401.991 396.484 401.789 396.643L400.112 398.065C398.665 399.302 396.507 401.033 393.798 403.097C379.637 413.864 364.217 422.872 347.877 429.92C344.743 431.273 342.136 432.293 340.379 432.958L338.323 433.703C338.084 433.803 337.834 433.876 337.578 433.92C337.795 433.782 338.026 433.666 338.267 433.576C338.794 433.335 339.414 433.049 340.287 432.704C342.043 431.971 344.569 430.871 347.685 429.472C363.877 422.193 379.251 413.221 393.549 402.705C396.293 400.688 398.497 399.026 399.989 397.856L401.746 396.526C401.924 396.357 402.126 396.214 402.345 396.102L402.339 396.104Z" fill="#263238"/>
<path d="M440.281 370.794C431.154 359.961 418.399 352.762 405.291 347.374C391.985 341.906 377.382 338.043 363.261 340.806C350.231 343.362 338.98 351.248 328.246 359.043C324.733 361.588 321.163 364.213 318.557 367.687C315.733 371.436 314.194 375.973 312.817 380.446C309.143 392.046 309.488 405.538 306.938 417.437L307.038 419.558C309.496 420.302 310.597 419.158 312.859 417.941C326.314 410.639 331.766 391.576 346.622 387.874C349.353 387.336 352.113 386.953 354.888 386.728C362.06 385.78 368.916 383.19 374.921 379.162C377.343 377.534 379.82 375.631 382.739 375.424C385.658 375.218 388.663 376.922 391.35 378.451C399.166 382.848 407.604 386.036 416.376 387.908C417.564 388.065 418.701 388.484 419.706 389.135C420.805 390.177 421.578 391.515 421.933 392.986C425.216 402.421 429.384 411.671 435.64 419.44C441.896 427.208 450.45 433.448 460.233 435.488C458.276 412.62 455.011 388.332 440.281 370.794Z" fill="black"/>
<path d="M348.956 440.363C359.289 443.962 376.578 439.217 386.164 433.92C395.75 428.624 404.073 417.069 406.458 406.409C390.309 416.851 366.613 432.557 348.956 440.363Z" fill="black"/>
<path d="M295.436 324.378C293.197 317.419 291.537 309.991 289.305 303.033H289.052C287.457 311.546 287.48 320.283 289.121 328.788C290.934 337.341 295.483 345.074 302.083 350.82C300.469 341.866 298.248 333.031 295.436 324.378Z" fill="black"/>
<path d="M286.791 277.861C285.399 275.356 284.327 272.688 283.6 269.917C282.21 265.389 281.648 261.572 281.831 261.538C282.014 261.504 282.899 265.217 284.277 269.711C285.654 274.205 286.986 277.792 286.791 277.861Z" fill="#263238"/>
<path d="M467.708 277.299C467.908 277.299 465.527 293.806 462.405 314.085C459.282 334.364 456.606 350.767 456.412 350.767C456.218 350.767 458.594 334.271 461.716 313.981C464.838 293.691 467.513 277.276 467.708 277.299Z" fill="#263238"/>
<path d="M419.63 246.474C397.013 233.303 355.076 239.963 355.076 239.963C345.96 228.66 333.792 229.268 328.303 230.265C327.502 230.417 326.778 230.843 326.258 231.471C325.738 232.099 325.455 232.889 325.456 233.704L325.743 250.898C308.523 257.96 304.516 280.038 304.516 280.038L296.778 282.204C295.417 282.586 294.22 283.407 293.375 284.539C292.53 285.671 292.083 287.051 292.105 288.463L292.392 305.097C292.415 306.538 292.925 307.93 293.84 309.046C294.755 310.161 296.021 310.935 297.432 311.241L305.066 312.88C314.112 326.955 322.998 334.557 334.914 338.547L335.214 353.357L359.621 352.958L365.281 342.641L392.833 341.92L397.345 353.1L422.705 351.873L422.97 334.455C440.374 320.275 445.103 311.196 445.494 292.224C445.885 273.253 441.51 259.233 419.63 246.474Z" fill="#92E3A9"/>
<path d="M318.856 275.418C317.985 275.806 317.294 276.511 316.925 277.39C316.556 278.268 316.535 279.254 316.867 280.147C317.2 281.04 317.86 281.773 318.714 282.197C319.568 282.621 320.552 282.705 321.466 282.431C322.38 282.157 323.155 281.546 323.633 280.722C324.112 279.898 324.259 278.923 324.043 277.995C323.828 277.067 323.267 276.255 322.474 275.726C321.681 275.196 320.716 274.987 319.775 275.143" fill="#263238"/>
<path d="M332.516 251.999C332.333 250.999 332.214 249.988 332.16 248.973C331.639 244.122 330.345 239.385 328.326 234.942C327.855 234.041 327.445 233.111 327.098 232.157C327.748 232.94 328.296 233.802 328.728 234.724C329.854 236.917 330.747 239.223 331.391 241.602C332.04 243.984 332.444 246.425 332.597 248.889C332.719 249.924 332.691 250.972 332.516 251.999Z" fill="#263238"/>
<path d="M362.618 248.561L364.202 251.472C374.522 249.57 385.086 249.395 395.463 250.956L392.432 247.643C382.533 245.951 372.394 246.263 362.618 248.561Z" fill="black"/>
<path d="M299.018 296.624C299.018 298.355 298.409 299.764 297.605 299.776C296.801 299.788 296.112 298.401 296.078 296.67C296.044 294.939 296.687 293.529 297.491 293.517C298.295 293.505 298.984 294.895 299.018 296.624Z" fill="#263238"/>
<path d="M295.733 308.833C296.187 308.958 296.653 309.035 297.123 309.063C297.748 309.1 298.374 309.002 298.959 308.777C299.543 308.551 300.072 308.203 300.51 307.756C301.114 307.127 301.628 306.417 302.037 305.647C302.457 304.731 302.769 303.769 302.966 302.781C303.541 300.533 303.826 298.222 303.816 295.903C303.821 293.58 303.516 291.267 302.909 289.025C302.403 287.211 301.273 285.632 299.718 284.566C298.652 283.874 297.396 283.534 296.125 283.592C295.226 283.649 294.759 283.878 294.737 283.821C294.715 283.764 294.837 283.741 295.07 283.638C295.399 283.494 295.747 283.398 296.103 283.351C297.441 283.205 298.79 283.507 299.937 284.211C301.632 285.28 302.877 286.931 303.436 288.853C304.091 291.146 304.419 293.519 304.412 295.903C304.427 298.287 304.122 300.662 303.505 302.964C303.279 303.988 302.932 304.981 302.472 305.922C302.029 306.727 301.468 307.462 300.807 308.1C300.267 308.669 299.572 309.068 298.808 309.246C298.248 309.382 297.67 309.42 297.097 309.361C296.737 309.331 296.384 309.242 296.052 309.098C295.825 308.937 295.722 308.856 295.733 308.833Z" fill="#263238"/>
<path d="M415.979 337.056C415.728 337.146 415.471 337.219 415.21 337.274L412.982 337.79C411.042 338.237 408.207 338.788 404.705 339.387C401.203 339.986 396.99 340.533 392.317 341.072C387.645 341.611 382.467 341.898 377.037 342.035C371.606 342.173 366.418 342.035 361.722 341.818C357.026 341.6 352.79 341.187 349.254 340.763C345.718 340.338 342.871 339.926 340.92 339.617L338.62 339.217C338.38 339.176 338.142 339.118 337.909 339.046C338.176 339.037 338.445 339.056 338.708 339.103L341.008 339.402C342.971 339.689 345.829 340.033 349.354 340.4C352.879 340.768 357.103 341.099 361.799 341.329C366.495 341.558 371.649 341.628 377.068 341.5C382.486 341.373 387.641 341.007 392.313 340.583C396.986 340.159 401.176 339.585 404.689 339.036C408.202 338.487 411.037 338.004 412.986 337.625L415.286 337.226C415.51 337.146 415.742 337.089 415.979 337.056Z" fill="#263238"/>
<path d="M354.797 239.837C354.795 240.252 354.738 240.665 354.625 241.064C354.382 242.16 354.048 243.233 353.625 244.273C352.224 247.742 349.962 250.797 347.052 253.152C344.141 255.507 340.679 257.082 336.99 257.731C335.883 257.928 334.762 258.032 333.638 258.041C333.226 258.063 332.813 258.032 332.409 257.949C332.409 257.834 334.166 257.892 336.908 257.318C340.486 256.572 343.834 254.983 346.673 252.684C349.513 250.385 351.761 247.443 353.232 244.101C354.386 241.603 354.685 239.814 354.797 239.837Z" fill="#263238"/>
<path d="M324.526 253.066C324.583 253.157 323.172 254.12 321.082 255.897C315.629 260.56 311.337 266.426 308.546 273.03C307.478 275.552 306.996 277.191 306.892 277.157C306.925 276.767 307.006 276.382 307.133 276.011C307.333 275.254 307.673 274.188 308.155 272.894C310.767 266.119 315.123 260.152 320.783 255.595C321.633 254.906 322.523 254.267 323.447 253.681C323.779 253.43 324.141 253.222 324.525 253.062L324.526 253.066Z" fill="white"/>
<path d="M297.111 282.698C298.084 282.251 299.116 281.946 300.176 281.793C301.186 281.438 302.241 281.225 303.31 281.162C302.422 281.789 301.4 282.201 300.325 282.366C299.293 282.717 298.194 282.831 297.111 282.698Z" fill="white"/>
<path d="M293.449 303.733C293.156 302.894 292.982 302.018 292.932 301.131C292.405 296.888 292.405 292.596 292.932 288.353C292.996 287.468 293.17 286.594 293.449 285.751C293.633 285.751 293.127 289.775 293.127 294.75C293.127 299.725 293.621 303.705 293.449 303.733Z" fill="white"/>
<path d="M326.513 232.809C326.697 232.809 326.295 236.752 326.387 241.594C326.479 246.435 326.987 250.328 326.812 250.363C326.517 249.547 326.336 248.695 326.272 247.83C325.98 245.767 325.819 243.688 325.79 241.605C325.747 239.519 325.839 237.432 326.066 235.358C326.106 234.494 326.256 233.639 326.514 232.813L326.513 232.809Z" fill="white"/>
<path d="M347.751 234.988C341.784 231.94 335.066 230.667 328.395 231.319C329.336 231.004 330.319 230.83 331.311 230.803C336.103 230.411 340.911 231.322 345.226 233.439C346.137 233.833 346.987 234.354 347.751 234.988Z" fill="white"/>
<path d="M395.543 252.606C395.543 252.698 393.787 252.389 390.952 252.033C383.593 251.093 376.143 251.132 368.795 252.148C365.983 252.527 364.203 252.859 364.203 252.767C364.567 252.595 364.953 252.475 365.351 252.412C366.12 252.205 367.256 251.977 368.669 251.724C372.349 251.106 376.073 250.784 379.805 250.761C383.534 250.745 387.258 251.032 390.941 251.62C392.352 251.85 393.489 252.067 394.27 252.262C394.707 252.325 395.135 252.441 395.544 252.606H395.543Z" fill="white"/>
<path d="M402.673 242.336C402.088 242.289 401.507 242.189 400.94 242.036C399.792 241.806 398.219 241.486 396.233 241.138C391.038 240.237 385.786 239.704 380.517 239.54C375.248 239.408 369.977 239.649 364.743 240.263C362.734 240.493 361.104 240.721 359.99 240.894C359.412 241.011 358.824 241.08 358.234 241.101C358.789 240.902 359.362 240.756 359.944 240.665C361.092 240.425 362.677 240.138 364.686 239.84C369.937 239.103 375.24 238.803 380.541 238.942C385.835 239.093 391.108 239.687 396.303 240.718C398.303 241.118 399.896 241.498 401.002 241.807C401.572 241.938 402.131 242.115 402.673 242.336Z" fill="white"/>
<path d="M337.58 333.412C337.192 333.422 336.806 333.375 336.432 333.274C335.412 333.083 334.404 332.835 333.413 332.529C326.809 330.535 320.88 326.768 316.273 321.639C315.582 320.87 314.934 320.062 314.332 319.221C314.085 318.93 313.88 318.605 313.723 318.257C313.803 318.189 314.78 319.484 316.582 321.352C321.29 326.259 327.109 329.966 333.55 332.162C336.018 332.96 337.603 333.308 337.58 333.412Z" fill="white"/>
<path d="M436.93 314.554C436.652 315.12 436.326 315.661 435.954 316.17C435.565 316.801 435.135 317.405 434.668 317.981C434.128 318.658 433.521 319.471 432.809 320.277C432.032 321.18 431.208 322.041 430.341 322.856C429.434 323.774 428.366 324.644 427.263 325.574C422.346 329.505 416.666 332.378 410.582 334.011C409.262 334.37 407.925 334.661 406.575 334.882C405.402 335.101 404.218 335.258 403.028 335.352C401.95 335.49 400.95 335.467 400.089 335.501C399.347 335.549 398.603 335.549 397.862 335.501C397.23 335.501 396.6 335.443 395.979 335.329C396.608 335.257 397.242 335.238 397.874 335.272C398.474 335.272 399.217 335.272 400.073 335.204C400.929 335.135 401.91 335.135 402.977 334.963C404.152 334.848 405.32 334.672 406.476 334.436C407.728 334.229 409.048 333.863 410.425 333.518C413.406 332.656 416.303 331.529 419.082 330.148C421.839 328.733 424.46 327.067 426.911 325.173C427.985 324.351 429.012 323.471 429.989 322.537C430.895 321.638 431.756 320.829 432.488 320.041C433.22 319.254 433.843 318.482 434.393 317.829C434.88 317.28 435.332 316.702 435.748 316.098C436.093 315.554 436.485 315.04 436.919 314.562L436.93 314.554Z" fill="white"/>
<path d="M259.422 339.234C259.422 339.234 250.111 393.039 248.906 402.19C247.7 411.341 250.18 432.178 257.653 438.437C265.126 444.696 271.429 446.278 276.722 445.315C282.014 444.352 298.661 426.973 304.929 420.027C311.197 413.08 342.687 356.497 342.687 356.497L313.619 343.62L296.617 364.253L300.451 351.208L259.422 339.234Z" fill="#FFBE9D"/>
<path d="M297.158 363.526C296.828 364.11 296.444 364.663 296.01 365.177C295.173 366.323 294.07 367.779 292.75 369.544C291.431 371.309 289.673 373.545 287.722 375.883C285.632 378.453 283.373 380.881 280.96 383.151C278.453 385.344 275.721 387.265 272.809 388.883C270.192 390.442 267.849 391.852 266.001 393.204C264.014 394.672 262.179 396.334 260.524 398.167C260.596 398.009 260.685 397.859 260.788 397.72C261.069 397.321 261.371 396.939 261.695 396.574C262.889 395.185 264.233 393.931 265.702 392.837C267.882 391.221 270.142 389.717 272.475 388.332C275.34 386.696 278.032 384.775 280.511 382.6C282.902 380.352 285.153 377.959 287.25 375.435C289.224 373.14 290.935 370.987 292.381 369.199L295.825 364.97C296.222 364.447 296.668 363.964 297.157 363.526H297.158Z" fill="#EB996E"/>
<path d="M320.164 336.117C320.164 336.117 329.221 328.505 332.08 330.717C334.939 332.93 335.111 334.97 333.917 336.507C332.722 338.044 325.881 346.732 325.881 346.732L330.944 351.513L339.956 348.578L343.825 347.65C343.825 347.65 353.101 347.867 351.123 354.092C351.123 354.092 360.709 351.043 362.443 350.898C365.095 350.68 371.765 350.015 370.811 353.465C370.451 354.541 369.85 355.521 369.055 356.332C368.259 357.142 367.29 357.761 366.22 358.142C366.22 358.142 370.478 359.507 367.919 363.255C366.496 365.447 364.346 367.07 361.846 367.84L346.738 373.881C344.901 374.609 342.862 374.65 340.998 373.996L336.13 372.288L326.751 376.381C326.751 376.381 307.808 370.924 305.088 354.406L307.544 349.293L309.163 346.266C309.163 346.266 306.924 332.166 306.863 330.217C306.863 328.876 304.154 322.777 302.524 319.224C302.361 318.869 302.298 318.478 302.34 318.09C302.383 317.703 302.53 317.334 302.766 317.023C303.002 316.713 303.318 316.472 303.68 316.326C304.042 316.181 304.437 316.136 304.823 316.197C307.369 316.714 309.72 317.933 311.608 319.716C318.117 325.218 318.921 330.858 318.921 330.858L320.299 336.395" fill="#FFBE9D"/>
<path d="M313.804 342.479C313.804 342.479 314.436 341.963 315.515 340.988C316.594 340.014 318.052 338.467 319.924 336.596C320.949 335.589 322.026 334.637 323.15 333.742C324.413 332.65 325.809 331.722 327.306 330.979C328.142 330.57 329.051 330.329 329.981 330.268C330.47 330.242 330.961 330.284 331.438 330.394C331.693 330.437 331.94 330.514 332.173 330.624C332.395 330.74 332.61 330.87 332.816 331.013C333.263 331.302 333.652 331.671 333.964 332.102C334.092 332.342 334.181 332.601 334.228 332.87L334.435 333.557C334.635 334.076 334.682 334.641 334.573 335.186C334.434 335.677 334.265 336.159 334.068 336.63C333.225 338.424 332.152 340.102 330.877 341.621C329.729 343.049 328.494 344.405 327.178 345.679C324.99 347.936 322.402 349.767 319.544 351.078C318.568 351.508 317.512 351.722 316.446 351.706C315.38 351.69 314.33 351.445 313.368 350.987C312.85 350.733 312.387 350.383 312.001 349.955C311.853 349.819 311.732 349.656 311.645 349.474C312.647 350.455 313.934 351.094 315.322 351.3C316.709 351.506 318.127 351.268 319.371 350.62C322.097 349.248 324.561 347.409 326.65 345.187C327.929 343.917 329.133 342.573 330.255 341.163C331.491 339.692 332.53 338.066 333.343 336.326C333.538 335.88 333.699 335.42 333.825 334.95C333.898 334.526 333.854 334.09 333.699 333.689L333.492 332.99C333.457 332.781 333.39 332.579 333.292 332.392C333.044 332.032 332.728 331.724 332.362 331.486C332.188 331.357 332.004 331.241 331.811 331.142C331.621 331.051 331.419 330.99 331.211 330.958C330.795 330.857 330.365 330.818 329.937 330.843C329.085 330.896 328.252 331.11 327.481 331.474C326.023 332.182 324.66 333.068 323.423 334.112C322.217 335.076 321.123 335.969 320.174 336.875C318.279 338.685 316.73 340.199 315.582 341.116C315.008 341.586 314.537 341.915 314.215 342.136C314.062 342.229 313.924 342.345 313.804 342.479Z" fill="#EB996E"/>
<path d="M320.348 336.426C317.857 336.87 315.307 336.87 312.817 336.426C315.309 335.998 317.856 335.998 320.348 336.426Z" fill="#EB996E"/>
<path d="M324.951 354.252C325.164 354.117 325.391 354.005 325.628 353.919L327.602 353.083L334.915 350.137C336.592 349.425 338.305 348.801 340.047 348.268C342.08 347.621 344.232 347.437 346.345 347.729C347.498 347.903 348.608 348.291 349.617 348.875C350.187 349.162 350.685 349.574 351.072 350.08C351.46 350.587 351.728 351.174 351.856 351.798C351.888 352.461 351.756 353.122 351.472 353.722C351.187 354.322 350.759 354.842 350.225 355.237C349.172 355.986 348.011 356.569 346.781 356.968L333.449 362.173C331.515 362.989 329.519 363.649 327.48 364.144C325.667 364.562 323.782 364.562 321.969 364.144C321.208 363.973 320.491 363.646 319.863 363.184C319.235 362.723 318.709 362.136 318.318 361.462C317.777 360.441 317.453 359.32 317.365 358.168C317.294 357.456 317.275 356.74 317.308 356.025C317.309 355.775 317.332 355.526 317.377 355.28C317.446 355.28 317.377 356.311 317.618 358.146C317.746 359.247 318.093 360.311 318.64 361.275C319.018 361.892 319.519 362.425 320.111 362.841C320.704 363.257 321.375 363.547 322.084 363.694C323.832 364.045 325.636 364.002 327.365 363.568C329.37 363.056 331.332 362.385 333.231 361.562L346.545 356.316C347.705 355.935 348.804 355.386 349.805 354.688C350.253 354.359 350.614 353.926 350.858 353.427C351.102 352.928 351.221 352.377 351.205 351.822C351.089 351.295 350.855 350.8 350.521 350.376C350.188 349.951 349.762 349.607 349.276 349.37C348.346 348.795 347.313 348.406 346.234 348.224C344.208 347.931 342.143 348.088 340.184 348.682C338.312 349.198 336.625 349.886 335.063 350.47L327.681 353.221L325.661 353.942C325.44 354.079 325.201 354.183 324.951 354.252Z" fill="#EB996E"/>
<path d="M351.333 354.184C351.535 354.058 351.751 353.954 351.976 353.875L353.87 353.118C356.194 352.186 358.59 351.447 361.034 350.906C362.734 350.539 364.472 350.373 366.212 350.413C367.195 350.428 368.175 350.535 369.139 350.734C369.687 350.862 370.181 351.158 370.55 351.583C370.919 352.04 371.118 352.611 371.113 353.199C371.102 353.777 370.964 354.346 370.708 354.865C370.452 355.384 370.085 355.841 369.633 356.202C368.755 356.925 367.814 357.566 366.82 358.117C364.788 359.311 362.67 360.353 360.483 361.235C356.251 362.878 351.931 364.29 347.545 365.464L341.805 367.103C340.155 367.615 338.481 368.043 336.788 368.387C335.358 368.672 333.882 368.629 332.471 368.261C331.409 367.949 330.447 367.364 329.682 366.564C329.204 366.062 328.854 365.453 328.66 364.787C328.589 364.557 328.555 364.317 328.56 364.077C328.792 364.941 329.243 365.732 329.869 366.372C330.625 367.105 331.559 367.63 332.578 367.897C333.939 368.203 335.35 368.203 336.711 367.897C338.238 367.61 339.879 367.071 341.659 366.544L347.341 364.859C351.698 363.673 355.986 362.25 360.187 360.595C362.347 359.725 364.442 358.702 366.456 357.534C367.414 357.003 368.325 356.39 369.177 355.7C369.565 355.401 369.883 355.019 370.107 354.584C370.332 354.148 370.458 353.668 370.476 353.179C370.49 352.728 370.343 352.287 370.061 351.934C369.78 351.581 369.381 351.34 368.938 351.253C368.024 351.061 367.094 350.954 366.16 350.932C364.455 350.872 362.75 351.003 361.074 351.321C358.643 351.825 356.249 352.496 353.91 353.328L351.982 353.969C351.775 354.066 351.557 354.139 351.333 354.184Z" fill="#EB996E"/>
<path d="M419.618 362.493C419.618 362.493 452.761 446.026 471.474 448.216C491.415 450.512 510.763 432.901 507.132 402.432C505.743 390.752 497.581 335.716 497.581 335.716L456.079 353.541L467.1 376.365L450.753 350.871L419.618 362.493Z" fill="#FFBE9D"/>
<path d="M494.709 418.866C494.64 418.866 494.709 417.8 494.583 415.885C494.484 413.168 494.053 410.473 493.298 407.861C492.195 404.008 490.009 400.551 487 397.9C485.346 396.409 483.212 395.218 481.374 393.498C479.446 391.787 477.636 389.949 475.956 387.995C470.182 381.09 464.922 373.772 460.216 366.101C458.38 363.178 456.917 360.805 455.922 359.154L454.775 357.24C454.628 357.026 454.508 356.795 454.419 356.552C454.595 356.743 454.753 356.95 454.89 357.171L456.141 359.004L460.619 365.825C465.427 373.395 470.719 380.647 476.462 387.537C478.131 389.461 479.917 391.279 481.811 392.982C483.602 394.679 485.691 395.848 487.424 397.419C490.495 400.173 492.7 403.756 493.773 407.735C494.493 410.38 494.852 413.11 494.84 415.851C494.84 416.814 494.84 417.571 494.783 418.075C494.789 418.34 494.766 418.605 494.714 418.866H494.709Z" fill="#EB996E"/>
<path d="M438.364 318.956C440.144 321.902 444.163 330.981 444.163 330.981C444.163 330.981 454.943 346.411 454.426 356.59C454.326 358.573 448.101 362.608 448.101 362.608C448.101 362.608 428.423 377.35 423.693 378.335C418.964 379.321 411.892 374.794 411.065 374.598C410.238 374.402 383.708 357.495 383.582 355.11C383.451 354.061 383.659 352.997 384.175 352.074C384.692 351.15 385.489 350.415 386.452 349.974L416.576 348.266L430.903 337.067L430.261 328.756" fill="#FFBE9D"/>
<path d="M436.85 348.508C436.35 348.96 435.808 349.363 435.231 349.712L430.639 352.795C428.688 354.079 426.461 355.591 423.751 357.278C422.979 357.584 422.145 357.705 421.317 357.633C420.501 357.618 419.685 357.649 418.872 357.725C417.207 357.817 415.497 357.954 413.728 358.103C410.407 358.437 407.069 358.586 403.731 358.55C402.233 358.555 400.752 358.234 399.391 357.61C398.774 357.326 398.242 356.883 397.851 356.328C397.46 355.772 397.223 355.123 397.164 354.447C397.131 353.343 397.498 352.264 398.198 351.409C398.725 350.793 399.369 350.287 400.092 349.919C400.537 349.685 401.002 349.493 401.482 349.346C401.647 349.282 401.822 349.248 401.999 349.246C401.999 349.303 401.322 349.498 400.219 350.144C399.555 350.534 398.967 351.041 398.486 351.642C397.88 352.436 397.575 353.418 397.625 354.416C397.697 355.003 397.92 355.561 398.272 356.038C398.624 356.514 399.093 356.891 399.634 357.133C400.931 357.691 402.332 357.968 403.744 357.946C407.06 357.954 410.375 357.789 413.674 357.453C415.442 357.305 417.118 357.167 418.841 357.087C419.679 357.087 420.505 357.018 421.309 357.007C422.047 357.086 422.793 356.996 423.49 356.743L430.379 352.41L435.039 349.498C435.618 349.124 436.224 348.795 436.853 348.512L436.85 348.508Z" fill="#EB996E"/>
<path d="M437.86 362.997C437.671 363.084 437.468 363.139 437.261 363.158L435.539 363.525L429.179 364.671L419.72 366.355L414.129 367.342C413.153 367.491 412.189 367.708 411.144 367.812C410.047 367.947 408.937 367.726 407.976 367.181C407.082 366.643 406.223 366.05 405.405 365.404C404.609 364.813 403.781 364.266 402.925 363.765C401.333 362.776 399.661 361.921 397.927 361.209C396.273 360.521 394.598 360.12 393.093 359.478C391.695 358.878 390.41 358.045 389.294 357.013C388.261 356.085 387.389 355.225 386.642 354.411C385.958 353.723 385.55 352.81 385.494 351.843C385.48 351.537 385.528 351.231 385.634 350.944C385.741 350.656 385.904 350.393 386.114 350.169C386.259 350.014 386.447 349.906 386.654 349.86C386.488 349.969 386.341 350.103 386.218 350.259C385.87 350.71 385.702 351.274 385.747 351.841C385.747 353.388 387.665 354.856 389.639 356.656C390.736 357.624 391.99 358.401 393.347 358.952C394.805 359.56 396.492 359.938 398.192 360.626C399.967 361.333 401.677 362.196 403.3 363.205C404.15 363.721 404.988 364.271 405.825 364.856C406.663 365.441 407.479 366.094 408.34 366.598C410.05 367.653 412.139 366.953 414.08 366.69L419.671 365.75L429.153 364.19L435.551 363.204L437.308 362.964C437.492 362.95 437.677 362.961 437.858 362.997H437.86Z" fill="#EB996E"/>
<path d="M429.64 372.375C428.769 372.756 427.855 373.029 426.919 373.188C424.692 373.699 422.439 374.081 420.168 374.334C417.902 374.606 415.62 374.728 413.337 374.701C412.359 374.787 411.384 374.514 410.593 373.933C411.491 374.154 412.413 374.258 413.337 374.243C415.06 374.163 417.47 373.979 420.099 373.681C422.729 373.382 425.105 373.027 426.827 372.752C427.749 372.532 428.692 372.406 429.64 372.375Z" fill="#EB996E"/>
<path d="M449.753 359.387C449.746 359.542 449.723 359.695 449.684 359.845C449.581 360.271 449.427 360.683 449.225 361.072C448.43 362.496 447.269 363.684 445.861 364.511C444.909 365.096 443.891 365.569 442.83 365.92C442.279 366.12 441.785 366.356 441.682 366.849C441.591 367.489 441.449 368.122 441.257 368.74C440.797 370.144 439.911 371.371 438.72 372.248C437.421 373.093 435.965 373.666 434.438 373.933C432.986 374.182 431.568 374.602 430.214 375.183C429.008 375.848 427.791 376.638 426.655 377.303C426.081 377.647 425.507 377.991 424.932 378.301C424.343 378.575 423.709 378.738 423.061 378.783C421.93 378.862 420.795 378.738 419.709 378.416C418.166 377.967 416.667 377.38 415.231 376.662C414.689 376.438 414.17 376.161 413.681 375.837C414.251 375.969 414.805 376.161 415.335 376.41C416.795 377.021 418.295 377.534 419.824 377.946C420.861 378.211 421.936 378.3 423.004 378.21C423.581 378.155 424.144 377.999 424.668 377.751C425.185 377.488 425.747 377.11 426.31 376.765C427.457 376.066 428.609 375.31 429.915 374.569C431.316 373.96 432.784 373.517 434.288 373.25C435.723 373.005 437.093 372.475 438.318 371.691C439.385 370.901 440.187 369.806 440.618 368.551C440.848 367.943 440.848 367.405 441.077 366.648C441.218 366.327 441.435 366.046 441.709 365.826C441.983 365.607 442.305 365.456 442.649 365.387C443.684 365.062 444.681 364.627 445.622 364.09C446.992 363.33 448.152 362.243 448.997 360.926C449.546 359.983 449.684 359.364 449.753 359.387Z" fill="#EB996E"/>
<path d="M434.484 334.042C434.61 334.19 430.707 337.481 425.771 341.429C420.834 345.377 416.736 348.416 416.586 348.306C419.346 345.674 422.259 343.207 425.311 340.919C428.227 338.444 431.29 336.148 434.483 334.042H434.484Z" fill="#EB996E"/>
<path d="M744.982 315.808C752.028 271.489 721.758 229.858 677.373 222.823C632.989 215.788 591.296 246.012 584.25 290.331C577.204 334.65 607.474 376.281 651.859 383.317C696.243 390.352 737.936 360.127 744.982 315.808Z" fill="#F5F5F5"/>
<path d="M745.967 303.033C745.967 303.033 745.967 302.586 745.898 301.715C745.829 300.843 745.898 299.548 745.714 297.852C745.397 292.908 744.627 288.004 743.414 283.201C738.877 265.393 728.418 249.65 713.75 238.552C697.991 226.594 678.394 220.807 658.656 222.281C655.002 222.533 651.369 223.039 647.784 223.794C644.105 224.591 640.481 225.624 636.935 226.889C617.813 233.846 602.001 247.714 592.626 265.751C590.646 269.51 588.987 273.429 587.666 277.466C582.141 294.056 582.141 311.986 587.666 328.576C588.309 330.617 589.124 332.588 589.966 334.56C590.807 336.531 591.688 338.434 592.687 340.292C594.604 344.004 596.815 347.557 599.299 350.918C608.78 363.829 621.873 373.652 636.931 379.152C640.477 380.416 644.101 381.449 647.78 382.245C658.252 384.434 669.05 384.562 679.571 382.624C691.987 380.308 703.689 375.126 713.742 367.491C722.028 361.19 729.04 353.376 734.406 344.462C736.603 340.802 738.496 336.968 740.065 332.998C741.408 329.679 742.527 326.275 743.417 322.807C744.626 318.004 745.395 313.1 745.717 308.157C745.878 306.46 745.843 305.163 745.901 304.294C745.959 303.426 745.97 302.975 745.97 302.975C745.97 302.975 745.97 304.763 745.844 308.166C745.361 316.721 743.492 325.142 740.31 333.099C738.75 337.069 736.865 340.903 734.674 344.563C725.987 359.204 712.921 370.755 697.314 377.59C681.708 384.426 664.347 386.201 647.676 382.667C643.975 381.869 640.328 380.835 636.758 379.572C617.48 372.593 601.536 358.627 592.096 340.449C591.085 338.581 590.236 336.62 589.352 334.717C588.476 332.755 587.708 330.746 587.052 328.699C581.479 311.98 581.479 293.909 587.052 277.19C588.384 273.129 590.058 269.189 592.058 265.411C593.993 261.673 596.219 258.093 598.716 254.704C608.289 241.694 621.509 231.809 636.705 226.298C640.272 225.024 643.92 223.986 647.623 223.191C651.231 222.437 654.887 221.931 658.564 221.678C665.603 221.146 672.681 221.531 679.619 222.824C686.105 224.056 692.41 226.093 698.389 228.888C703.92 231.398 709.147 234.528 713.968 238.22C722.265 244.573 729.277 252.442 734.632 261.41C736.82 265.071 738.705 268.905 740.268 272.873C743.452 280.834 745.32 289.258 745.802 297.817C746.013 301.211 745.967 303.033 745.967 303.033Z" fill="#263238"/>
<path d="M712.928 270.684H625.677C621.657 270.684 618.398 273.938 618.398 277.952V331.956C618.398 335.97 621.657 339.223 625.677 339.223H712.928C716.947 339.223 720.206 335.97 720.206 331.956V277.952C720.206 273.938 716.947 270.684 712.928 270.684Z" fill="#92E3A9"/>
<path d="M720.206 285.495H618.398V299.859H720.206V285.495Z" fill="white"/>
<path d="M663.309 323.897C663.309 324.069 655.011 324.197 644.768 324.197C634.525 324.197 626.239 324.071 626.239 323.897C626.239 323.724 634.528 323.598 644.768 323.598C655.008 323.598 663.309 323.737 663.309 323.897Z" fill="#263238"/>
<path d="M671.116 320.618C671.116 320.779 661.07 320.918 648.672 320.918C636.273 320.918 626.239 320.78 626.239 320.618C626.239 320.457 636.284 320.319 648.672 320.319C661.059 320.319 671.116 320.458 671.116 320.618Z" fill="#263238"/>
<path d="M698.53 318.143C701.827 318.143 704.499 315.469 704.499 312.17C704.499 308.872 701.827 306.198 698.53 306.198C695.233 306.198 692.561 308.872 692.561 312.17C692.561 315.469 695.233 318.143 698.53 318.143Z" fill="white"/>
<path d="M706.498 318.303C705.303 318.306 704.134 317.954 703.14 317.293C702.146 316.631 701.37 315.691 700.911 314.589C700.452 313.487 700.331 312.275 700.563 311.105C700.795 309.934 701.369 308.859 702.213 308.015C703.057 307.17 704.133 306.595 705.305 306.361C706.476 306.128 707.691 306.247 708.795 306.703C709.899 307.159 710.843 307.931 711.507 308.923C712.171 309.915 712.525 311.081 712.525 312.274C712.525 313.871 711.89 315.403 710.76 316.534C709.63 317.664 708.097 318.301 706.498 318.303ZM706.498 307.391C705.53 307.388 704.583 307.673 703.778 308.208C702.972 308.744 702.343 309.505 701.971 310.398C701.6 311.29 701.501 312.272 701.689 313.22C701.876 314.168 702.341 315.039 703.025 315.723C703.708 316.407 704.58 316.873 705.529 317.063C706.477 317.252 707.461 317.156 708.356 316.787C709.25 316.417 710.014 315.792 710.552 314.988C711.09 314.185 711.377 313.24 711.377 312.274C711.377 310.981 710.864 309.74 709.949 308.825C709.034 307.909 707.793 307.394 706.498 307.391Z" fill="white"/>
<path d="M584.29 305.625C584.29 305.796 566.714 305.924 545.039 305.924C523.364 305.924 505.788 305.798 505.788 305.625C505.788 305.451 523.364 305.325 545.039 305.325C566.714 305.325 584.29 305.464 584.29 305.625Z" fill="#263238"/>
<path d="M584.761 162.712C629.702 162.712 666.133 126.335 666.133 81.4607C666.133 36.5867 629.702 0.209196 584.761 0.209196C539.82 0.209196 503.389 36.5867 503.389 81.4607C503.389 126.335 539.82 162.712 584.761 162.712Z" fill="#F5F5F5"/>
<path d="M666.132 81.4607V80.142C666.145 78.8518 666.083 77.562 665.948 76.2788C665.196 64.6837 661.952 53.3863 656.437 43.1547C650.922 32.923 643.265 23.9971 633.987 16.9836C623.932 9.34834 612.229 4.16664 599.811 1.85229C589.29 -0.0860101 578.491 0.0424996 568.02 2.23062C564.343 3.02338 560.723 4.05713 557.183 5.32516C538.06 12.2811 522.248 26.1481 512.871 44.1845C510.86 47.9405 509.17 51.8596 507.82 55.8998C502.295 72.4898 502.295 90.4196 507.82 107.01C508.463 109.05 509.266 111.021 510.047 112.993C510.842 114.955 511.751 116.869 512.768 118.725C514.69 122.435 516.901 125.988 519.381 129.351C528.881 142.281 542.004 152.112 557.094 157.601C560.636 158.864 564.256 159.898 567.932 160.696C571.52 161.45 575.156 161.956 578.815 162.209C585.807 162.74 592.839 162.355 599.732 161.063C606.173 159.885 612.443 157.914 618.399 155.193C623.9 152.702 629.103 149.599 633.908 145.943C642.194 139.637 649.206 131.818 654.572 122.901C656.768 119.241 658.661 115.407 660.232 111.439C661.573 108.12 662.689 104.716 663.573 101.248C664.78 96.4436 665.55 91.5402 665.872 86.5976C666.021 84.9006 665.998 83.6029 666.056 82.7344C666.094 82.2957 666.094 81.8545 666.056 81.4158C666.056 81.4158 666.056 83.2036 665.941 86.5976C665.653 91.5579 664.907 96.4811 663.714 101.305C662.845 104.788 661.74 108.208 660.408 111.542C658.847 115.511 656.962 119.344 654.771 123.004C649.421 131.978 642.408 139.852 634.107 146.206C629.312 149.925 624.109 153.086 618.597 155.629C612.617 158.384 606.315 160.382 599.839 161.578C592.9 162.871 585.822 163.256 578.784 162.724C575.106 162.471 571.451 161.965 567.843 161.211C564.136 160.416 560.485 159.378 556.914 158.104C541.716 152.59 528.496 142.701 518.925 129.687C516.423 126.3 514.197 122.72 512.266 118.979C511.257 117.111 510.395 115.162 509.522 113.248C508.651 111.279 507.884 109.267 507.223 107.218C501.642 90.5062 501.642 72.4371 507.223 55.7251C508.559 51.6615 510.23 47.7158 512.221 43.929C514.158 40.1935 516.389 36.6173 518.892 33.2339C528.465 20.227 541.678 10.3393 556.868 4.81606C560.441 3.55165 564.091 2.51801 567.797 1.72153C578.334 -0.456371 589.195 -0.568929 599.776 1.39011C612.262 3.73856 624.026 8.97133 634.125 16.6701C642.422 23.0235 649.434 30.8931 654.789 39.8602C657.005 43.5153 658.917 47.3454 660.507 51.3119C661.835 54.6722 662.932 58.1192 663.79 61.6287C664.984 66.4521 665.73 71.3754 666.017 76.3357C666.178 79.6728 666.132 81.4607 666.132 81.4607Z" fill="#263238"/>
<path d="M600.375 43.907L568.529 44.0218V44.2394L563.868 124.356L631.866 124.115L631.694 75.1099L600.375 43.907Z" fill="#92E3A9"/>
<path d="M600.375 43.907L568.529 44.0218V44.2394L563.868 124.356L631.866 124.115L631.694 75.1099L600.375 43.907Z" fill="black"/>
<path d="M568.529 44.0218L536.797 73.8831L536.969 124.448L600.651 124.23L600.479 74.7316L568.529 44.0218Z" fill="#92E3A9"/>
<path d="M591.066 79.2732L577.497 79.3205L577.544 92.8695L591.114 92.8222L591.066 79.2732Z" fill="white"/>
<path d="M557.969 79.378L544.399 79.4253L544.447 92.9743L558.016 92.927L557.969 79.378Z" fill="white"/>
<path d="M551.081 49.4835L544.295 49.5071L544.366 69.6025L551.151 69.5789L551.081 49.4835Z" fill="#92E3A9"/>
<path d="M573.801 99.4179L558.028 99.4729L558.115 124.36L573.888 124.305L573.801 99.4179Z" fill="black"/>
<path d="M600.374 43.907L600.535 44.0448L600.983 44.457L602.693 46.1081L609.145 52.4589L631.888 74.9612L632.347 75.4194H631.692L600.477 75.075H600.351L600.271 74.9951L594.806 69.6535L568.4 44.1815H568.664L544.281 67.0741L537.393 73.5047L535.534 75.1898L535.052 75.614L534.88 75.7518C534.921 75.6875 534.971 75.6296 535.029 75.5801L535.477 75.1219C535.913 74.7096 536.511 74.1236 537.267 73.38C538.886 71.8437 541.193 69.6316 544.156 66.8345L568.437 43.8282L568.621 43.6565L568.805 43.8282L600.777 74.515L600.57 74.4351L631.796 74.8474L631.596 75.3056L608.915 52.6536C606.216 49.9024 604.071 47.7363 602.578 46.2339L600.924 44.5139L600.5 44.0667C600.409 43.9759 600.363 43.918 600.374 43.907Z" fill="#263238"/>
<path d="M573.808 124.322C573.788 124.162 573.788 124.001 573.808 123.841C573.814 123.378 573.795 122.915 573.751 122.454C573.751 121.157 573.751 119.405 573.671 117.263C573.671 112.758 573.602 106.582 573.571 99.4838L573.858 99.7833H558.115L558.414 99.4838C558.414 106.591 558.334 112.781 558.299 117.297C558.299 119.453 558.243 121.206 558.22 122.501V123.899C558.224 124.061 558.205 124.223 558.163 124.38C558.144 124.22 558.144 124.059 558.163 123.899C558.163 123.52 558.163 123.062 558.163 122.501C558.163 121.203 558.106 119.452 558.071 117.297C558.071 112.78 558.071 106.59 557.971 99.4838V99.1974H574.238V99.4609C574.238 106.556 574.169 112.737 574.138 117.241C574.138 119.396 574.138 121.134 574.058 122.431V123.819C574.006 124 573.921 124.171 573.808 124.322Z" fill="#263238"/>
<path d="M541.434 150.251C541.572 150.331 527.715 173.59 510.438 202.191C493.161 230.793 479.099 253.925 478.959 253.833C478.819 253.741 492.678 230.494 509.955 201.882C527.232 173.27 541.296 150.159 541.434 150.251Z" fill="#263238"/>
<path d="M173.343 165.349C218.283 165.349 254.715 128.971 254.715 84.097C254.715 39.2231 218.283 2.84554 173.343 2.84554C128.402 2.84554 91.9709 39.2231 91.9709 84.097C91.9709 128.971 128.402 165.349 173.343 165.349Z" fill="#F5F5F5"/>
<path d="M254.715 84.097V82.7784C254.728 81.4882 254.666 80.1983 254.531 78.9152C253.779 67.3201 250.535 56.0226 245.02 45.791C239.505 35.5593 231.848 26.6334 222.57 19.6199C212.518 11.9873 200.818 6.80579 188.405 4.48864C177.881 2.55033 167.079 2.67884 156.605 4.86697C152.928 5.65971 149.308 6.69346 145.768 7.96151C126.632 14.9089 110.805 28.7757 101.419 46.8179C99.4393 50.5769 97.7802 54.4959 96.4596 58.5332C90.9348 75.1232 90.9348 93.0529 96.4596 109.643C97.1024 111.683 97.9062 113.655 98.687 115.626C99.4857 117.588 100.398 119.502 101.419 121.358C103.332 125.07 105.538 128.623 108.017 131.984C117.508 144.902 130.615 154.725 145.687 160.218C149.232 161.482 152.856 162.516 156.536 163.312C167.007 165.502 177.807 165.626 188.327 163.678C194.783 162.513 201.069 160.549 207.039 157.832C212.541 155.34 217.744 152.237 222.549 148.581C230.835 142.275 237.847 134.457 243.213 125.54C245.409 121.879 247.301 118.045 248.873 114.076C250.213 110.758 251.33 107.353 252.214 103.885C253.427 99.0821 254.196 94.1782 254.513 89.235C254.674 87.538 254.639 86.2402 254.697 85.3718C254.735 84.933 254.735 84.4918 254.697 84.0531C254.697 84.0531 254.697 85.841 254.582 89.235C254.101 97.7937 252.232 106.218 249.049 114.179C247.488 118.148 245.603 121.982 243.412 125.642C238.059 134.614 231.044 142.486 222.742 148.838C206.929 160.928 187.208 166.776 167.35 165.265C163.672 165.012 160.017 164.506 156.409 163.751C152.705 162.956 149.058 161.919 145.491 160.645C130.288 155.133 117.064 145.244 107.492 132.227C104.994 128.838 102.768 125.258 100.833 121.52C99.8227 119.651 98.9619 117.703 98.0891 115.788C97.2182 113.82 96.4507 111.807 95.7898 109.759C90.2178 93.0452 90.2178 74.9791 95.7898 58.2657C97.1235 54.2051 98.7955 50.2632 100.788 46.4815C102.723 42.7407 104.953 39.1603 107.459 35.7744C117.059 22.7808 130.297 12.9162 145.504 7.42446C149.073 6.15988 152.72 5.12623 156.422 4.32992C166.963 2.15101 177.828 2.03812 188.413 3.99751C200.894 6.34975 212.653 11.5822 222.75 19.2775C231.047 25.6309 238.059 33.5005 243.414 42.4676C245.602 46.1289 247.487 49.9626 249.051 53.9303C252.234 61.8914 254.103 70.3155 254.584 78.8743C254.761 82.2633 254.715 84.097 254.715 84.097Z" fill="#263238"/>
<path d="M137.272 35.3212V133.16H204.741C207.793 133.139 210.713 131.913 212.863 129.75C215.014 127.587 216.22 124.663 216.22 121.616V53.0089L192.412 29.211H143.402C141.778 29.211 140.221 29.8544 139.072 30.9999C137.922 32.1455 137.275 33.6996 137.272 35.3212Z" fill="white"/>
<path d="M137.272 35.3212L137.272 35.0586C137.273 34.8013 137.297 34.5445 137.341 34.291C137.494 33.2738 137.909 32.3138 138.547 31.5059C139.059 30.8445 139.701 30.294 140.433 29.888C141.165 29.482 141.972 29.2289 142.806 29.1441C144.78 29.0752 147.018 29.1441 149.556 29.1441L192.412 29.0443H192.504L192.573 29.1131L216.44 52.8882L216.509 52.968V122.075C216.445 123.921 215.95 125.727 215.062 127.348C214.146 128.963 212.879 130.354 211.354 131.417C209.933 132.379 208.319 133.02 206.625 133.297C204.965 133.479 203.294 133.537 201.626 133.469H137.008V133.193C137.008 104.203 137.088 79.7397 137.108 62.5182C137.108 53.9203 137.108 47.1343 137.188 42.4805V35.3581C137.198 35.5147 137.198 35.6717 137.188 35.8283C137.188 36.1497 137.188 36.5959 137.188 37.1809V42.4855C137.188 47.1393 137.188 53.9483 137.257 62.5231C137.257 79.7178 137.326 104.204 137.372 133.198L137.096 132.935H201.638C203.273 132.997 204.91 132.943 206.537 132.774C208.142 132.51 209.67 131.9 211.014 130.986C212.469 129.979 213.674 128.654 214.538 127.112C215.382 125.576 215.854 123.864 215.916 122.114V53.1267L215.996 53.3104L192.252 29.3607L192.413 29.4296L149.557 29.3377H142.83C142.013 29.4164 141.222 29.6606 140.503 30.0554C139.784 30.4502 139.154 30.9872 138.651 31.6337C138.017 32.4234 137.587 33.3565 137.399 34.3509C137.272 34.9658 137.308 35.3212 137.272 35.3212Z" fill="#263238"/>
<path d="M192.412 29.211L216.222 53.0089H196.418C195.891 53.0089 195.369 52.9051 194.883 52.7033C194.396 52.5016 193.953 52.2059 193.581 51.8332C193.209 51.4605 192.914 51.0182 192.713 50.5315C192.513 50.0448 192.41 49.5234 192.412 48.997L192.412 29.211Z" fill="#E0E0E0"/>
<path d="M124.702 118.877C124.702 120.753 125.072 122.612 125.792 124.345C126.511 126.079 127.566 127.654 128.895 128.98C130.225 130.307 131.803 131.359 133.54 132.076C135.277 132.793 137.138 133.161 139.018 133.159H204.999C202.444 131.921 200.278 130.005 198.737 127.622C197.197 125.239 196.341 122.48 196.262 119.644V118.877H124.702Z" fill="#E0E0E0"/>
<path d="M163.826 50.4754C160.993 50.7708 158.143 50.8708 155.296 50.7749C152.453 50.871 149.607 50.771 146.777 50.4754C149.607 50.1799 152.453 50.0798 155.296 50.1759C158.143 50.08 160.993 50.1801 163.826 50.4754Z" fill="#263238"/>
<path d="M199.931 61.2055C199.931 61.3662 188.509 61.5049 174.411 61.5049C160.313 61.5049 148.879 61.3672 148.879 61.2055C148.879 61.0437 160.302 60.906 174.411 60.906C188.52 60.906 199.931 61.0368 199.931 61.2055Z" fill="#263238"/>
<path d="M199.931 70.6508C199.931 70.8115 188.509 70.9503 174.411 70.9503C160.313 70.9503 148.879 70.8125 148.879 70.6508C148.879 70.4891 160.302 70.3513 174.411 70.3513C188.52 70.3513 199.931 70.4781 199.931 70.6508Z" fill="#263238"/>
<path d="M199.931 80.0971C199.931 80.2578 188.509 80.3966 174.411 80.3966C160.313 80.3966 148.879 80.2588 148.879 80.0971C148.879 79.9354 160.302 79.7976 174.411 79.7976C188.52 79.7976 199.931 79.9703 199.931 80.0971Z" fill="#263238"/>
<path d="M199.931 89.5424C199.931 89.7031 188.509 89.8419 174.411 89.8419C160.313 89.8419 148.879 89.7041 148.879 89.5424C148.879 89.3807 160.302 89.2429 174.411 89.2429C188.52 89.2429 199.931 89.3697 199.931 89.5424Z" fill="#263238"/>
<path d="M199.931 98.9887C199.931 99.1494 188.509 99.2882 174.411 99.2882C160.313 99.2882 148.879 99.1504 148.879 98.9887C148.879 98.827 160.302 98.6893 174.411 98.6893C188.52 98.6893 199.931 98.816 199.931 98.9887Z" fill="#263238"/>
<path d="M199.931 108.434C199.931 108.595 188.509 108.734 174.411 108.734C160.313 108.734 148.879 108.596 148.879 108.434C148.879 108.272 160.302 108.135 174.411 108.135C188.52 108.135 199.931 108.265 199.931 108.434Z" fill="#263238"/>
<path d="M230.309 86.4808C230.212 90.651 228.879 94.6988 226.477 98.112C224.075 101.525 220.714 104.15 216.818 105.655C212.921 107.159 208.665 107.476 204.589 106.564C200.512 105.653 196.798 103.554 193.917 100.534C191.035 97.5137 189.116 93.7078 188.401 89.5979C187.687 85.488 188.21 81.2589 189.904 77.4458C191.597 73.6328 194.386 70.4071 197.916 68.1772C201.447 65.9473 205.561 64.8134 209.737 64.9189C215.326 65.0602 220.631 67.4097 224.488 71.452C228.345 75.4943 230.438 80.8992 230.309 86.4808Z" fill="#92E3A9"/>
<path d="M210.768 95.5718V98.3668H208.269V95.6496C206.046 95.5483 203.895 94.8296 202.058 93.5743L203.469 90.5476C204.896 91.5624 206.561 92.1904 208.303 92.3704V88.1968C205.536 87.498 202.448 86.5347 202.483 82.958C202.483 80.3097 204.469 78.0667 208.429 77.6504V74.8803H210.928V77.6085C212.717 77.7231 214.452 78.2613 215.991 79.1787L214.751 82.2623C213.579 81.5742 212.285 81.1187 210.939 80.9206L210.882 85.1731C213.661 85.8499 216.703 86.8122 216.623 90.332C216.635 92.9125 214.706 95.1355 210.768 95.5718ZM208.393 84.5552V81.0015C207.072 81.288 206.534 82.0107 206.522 82.8353C206.51 83.6598 207.293 84.131 208.393 84.5552ZM212.629 90.6195C212.629 89.7481 211.917 89.2669 210.849 88.8776V92.3165C212.066 92.0071 212.617 91.3652 212.629 90.5626V90.6195Z" fill="black"/>
<path d="M225.176 84.5562C224.994 83.9231 224.871 83.2745 224.809 82.6187C224.496 80.8955 223.923 79.2298 223.11 77.6784C222.533 76.6183 221.844 75.623 221.054 74.7096C220.147 73.6676 219.104 72.7503 217.955 71.9814C217.343 71.5499 216.699 71.1667 216.027 70.8355C215.327 70.4929 214.602 70.2055 213.858 69.976C213.106 69.7392 212.337 69.559 211.558 69.4369C210.738 69.3123 209.909 69.2509 209.079 69.2533C208.249 69.2642 207.42 69.3333 206.6 69.4599C205.82 69.5933 205.051 69.7849 204.3 70.0329C203.565 70.2754 202.847 70.5703 202.154 70.9153C201.481 71.2452 200.836 71.6284 200.225 72.0613C199.088 72.8455 198.057 73.7743 197.16 74.8244C195.219 77.1113 193.944 79.887 193.475 82.8482C193.429 83.5053 193.309 84.1551 193.119 84.7858C192.934 84.1371 192.891 83.4561 192.993 82.7893C193.115 80.9473 193.578 79.1438 194.36 77.4707C195.535 74.9622 197.328 72.7927 199.573 71.1659C200.22 70.6942 200.904 70.2727 201.616 69.9051C202.353 69.5123 203.122 69.1824 203.915 68.9188C204.739 68.6428 205.584 68.4319 206.441 68.288C207.32 68.1366 208.211 68.0598 209.104 68.0584C209.999 68.0609 210.893 68.1276 211.779 68.258C212.636 68.3929 213.48 68.5962 214.304 68.8659C215.098 69.1174 215.868 69.4399 216.604 69.8292C217.324 70.1835 218.015 70.5937 218.67 71.0561C219.875 71.9135 220.96 72.9273 221.896 74.0707C222.705 75.0647 223.395 76.1494 223.952 77.303C224.754 78.968 225.237 80.7682 225.375 82.6107C225.457 83.2659 225.389 83.931 225.176 84.5562Z" fill="black"/>
<path d="M225.291 86.0456C225.281 85.9581 225.281 85.8696 225.291 85.7821V85.0144C225.292 84.5998 225.259 84.1858 225.191 83.7766C225.131 83.2122 225.031 82.6528 224.891 82.1026C224.555 80.5796 223.992 79.1154 223.223 77.7582C222.125 75.7629 220.612 74.0249 218.787 72.6607C216.961 71.2965 214.865 70.3376 212.638 69.8482C209.835 69.2481 206.922 69.4224 204.211 70.3523C203.489 70.601 202.783 70.8958 202.099 71.2347C201.412 71.5995 200.752 72.0132 200.124 72.4726C198.805 73.4022 197.642 74.5361 196.68 75.8316C195.693 77.1603 194.917 78.6335 194.381 80.1989C193.822 81.8213 193.505 83.5167 193.439 85.231C193.42 86.9438 193.648 88.6505 194.117 90.2981C194.586 91.8989 195.307 93.4151 196.252 94.7901C197.145 96.132 198.246 97.3238 199.513 98.3209C200.122 98.8054 200.763 99.2495 201.43 99.6506C202.088 100.032 202.776 100.362 203.485 100.637C205.974 101.641 208.68 101.991 211.343 101.654C214.006 101.317 216.538 100.304 218.697 98.7112C220.359 97.4906 221.773 95.9663 222.865 94.2192C223.694 92.9049 224.325 91.4757 224.736 89.9776C224.902 89.4334 225.029 88.878 225.115 88.3156C225.205 87.9077 225.267 87.4941 225.299 87.0778C225.282 86.8199 225.305 86.5608 225.368 86.3101C225.357 86.2226 225.357 86.1341 225.368 86.0466C225.383 86.1338 225.383 86.2229 225.368 86.3101V87.0898C225.354 87.5092 225.308 87.927 225.23 88.3395C225.152 88.9044 225.036 89.4636 224.885 90.0136C224.49 91.5386 223.867 92.9954 223.037 94.335C221.076 97.5962 218.019 100.056 214.411 101.276C210.803 102.496 206.878 102.396 203.336 100.995C202.614 100.703 201.91 100.365 201.229 99.985C200.544 99.575 199.888 99.1191 199.266 98.6204C197.963 97.6069 196.831 96.3916 195.914 95.0207C194.952 93.615 194.216 92.0681 193.732 90.4358C193.245 88.7493 193.009 87.0002 193.032 85.245C193.101 83.4877 193.426 81.7498 193.997 80.0861C194.564 78.4777 195.381 76.9688 196.419 75.615C197.401 74.2868 198.591 73.1256 199.943 72.1761C200.588 71.7048 201.267 71.2833 201.976 70.9153C202.674 70.5659 203.395 70.2634 204.134 70.0099C206.296 69.3041 208.583 69.0622 210.845 69.3003C213.108 69.5383 215.294 70.2508 217.261 71.3911C219.228 72.5314 220.932 74.0739 222.261 75.9174C223.589 77.7609 224.513 79.8638 224.971 82.0886C225.1 82.6471 225.189 83.2143 225.235 83.7856C225.295 84.1994 225.318 84.6176 225.304 85.0354V85.803C225.312 85.8833 225.308 85.9643 225.293 86.0436L225.291 86.0456Z" fill="#263238"/>
<path d="M203.25 105.098C203.031 105.086 202.816 105.047 202.607 104.983C202.036 104.834 201.475 104.647 200.93 104.421C197.281 102.929 194.21 100.304 192.171 96.9344C191.857 96.432 191.58 95.9071 191.344 95.3641C191.242 95.1731 191.169 94.9684 191.126 94.7562C191.195 94.7562 191.597 95.5468 192.412 96.7856C193.479 98.379 194.757 99.8211 196.211 101.073C197.673 102.316 199.3 103.354 201.044 104.157C202.446 104.766 203.273 105.04 203.25 105.098Z" fill="white"/>
<path d="M206.694 106.061C206.694 106.161 206.246 106.176 205.741 106.061C205.236 105.946 204.857 105.775 204.88 105.672C204.903 105.569 205.328 105.557 205.833 105.672C206.338 105.787 206.717 105.946 206.694 106.061Z" fill="white"/>
<path d="M204.999 133.159C204.897 133.139 204.8 133.101 204.712 133.046L203.874 132.621L203.266 132.3L202.577 131.83L201.777 131.28L200.95 130.569C199.543 129.3 198.396 127.77 197.575 126.064C196.494 123.816 195.959 121.346 196.014 118.854L196.243 119.106L169.368 119.175L137.786 119.083L128.223 118.991H125.616C125.313 118.99 125.011 118.971 124.71 118.934C125.009 118.882 125.313 118.859 125.616 118.866H128.223L137.786 118.766L169.368 118.686H196.495V118.949C196.424 121.369 196.92 123.771 197.942 125.965C198.714 127.642 199.8 129.155 201.141 130.424C202.335 131.46 203.627 132.375 204.999 133.159Z" fill="#263238"/>
<path d="M192.415 29.211C192.5 29.8059 192.539 30.4068 192.53 31.0078C192.53 32.2806 192.53 33.9306 192.622 35.9251C192.713 37.9196 192.622 40.51 192.69 43.2122V47.5226C192.665 48.261 192.691 49.0002 192.77 49.7347C192.919 50.4478 193.274 51.1014 193.792 51.6144C194.309 52.1277 194.962 52.4819 195.675 52.6346C196.41 52.7138 197.151 52.7404 197.89 52.7145H202.207L209.505 52.7833L214.429 52.8752C215.031 52.8658 215.633 52.9042 216.229 52.99C215.634 53.0831 215.031 53.1215 214.429 53.1048L209.505 53.2046H197.888C197.121 53.2322 196.352 53.2055 195.589 53.1247C194.759 52.9544 193.998 52.5455 193.398 51.9485C192.799 51.3514 192.387 50.5923 192.215 49.7647C192.134 49.0022 192.107 48.235 192.135 47.4687V35.8712C192.135 33.7619 192.204 32.2256 192.235 30.9539C192.243 30.3687 192.303 29.7854 192.415 29.211Z" fill="#263238"/>
<path d="M278.387 245.042C278.249 245.134 264.232 224.637 247.081 199.269C229.93 173.9 216.085 153.244 216.257 153.15C216.429 153.056 230.412 173.543 247.575 198.923C264.738 224.303 278.525 244.95 278.387 245.042Z" fill="#263238"/>
<path d="M87.5171 386.211C132.458 386.211 168.889 349.834 168.889 304.96C168.889 260.086 132.458 223.708 87.5171 223.708C42.5766 223.708 6.14506 260.086 6.14506 304.96C6.14506 349.834 42.5766 386.211 87.5171 386.211Z" fill="#F5F5F5"/>
<path d="M168.9 304.959C168.9 304.959 168.9 304.512 168.831 303.64C168.762 302.769 168.831 301.474 168.647 299.777C168.106 291.241 166.191 282.849 162.976 274.921C161.405 270.952 159.512 267.118 157.316 263.457C151.95 254.544 144.938 246.729 136.652 240.428C126.597 232.793 114.894 227.611 102.476 225.297C91.955 223.358 81.1565 223.487 70.6849 225.675C67.0043 226.462 63.38 227.492 59.8359 228.759C44.7738 234.281 31.6821 244.126 22.2055 257.055C19.7259 260.418 17.515 263.971 15.5934 267.681C13.5978 271.45 11.9237 275.381 10.5888 279.431C5.06289 296.026 5.06289 313.961 10.5888 330.557C11.2316 332.597 12.0464 334.569 12.8272 336.54C13.6217 338.504 14.53 340.419 15.5474 342.277C24.917 360.325 40.7319 374.202 59.8609 381.16C63.407 382.423 67.0308 383.457 70.7099 384.255C81.1835 386.428 91.9798 386.552 102.501 384.621C114.919 382.307 126.622 377.125 136.677 369.49C144.966 363.192 151.978 355.376 157.341 346.461C159.541 342.802 161.434 338.968 163.001 334.998C166.217 327.076 168.133 318.688 168.672 310.157C168.833 308.472 168.798 307.162 168.856 306.306C168.914 305.449 168.925 304.987 168.925 304.987C168.925 304.987 168.925 306.775 168.799 310.169C168.518 315.126 167.772 320.046 166.572 324.865C165.701 328.35 164.598 331.773 163.273 335.113C161.699 339.078 159.81 342.911 157.624 346.575C152.274 355.549 145.261 363.423 136.96 369.777C132.137 373.492 126.902 376.64 121.359 379.161C115.359 381.885 109.047 383.863 102.564 385.051C95.6284 386.337 88.5553 386.723 81.5208 386.196C77.8408 385.933 74.1823 385.427 70.5689 384.683C66.8656 383.887 63.2185 382.849 59.651 381.577C44.4535 376.061 31.2338 366.172 21.6617 353.159C19.1703 349.777 16.9478 346.206 15.0146 342.478C14.0038 340.609 13.1551 338.66 12.2703 336.746C11.3963 334.779 10.6287 332.766 9.97098 330.716C4.39895 314.003 4.39895 295.937 9.97098 279.223C11.3057 275.157 12.984 271.212 14.9876 267.429C16.9204 263.694 19.1467 260.118 21.6457 256.734C31.2178 243.721 44.4375 233.832 59.635 228.316C63.2044 227.053 66.8512 226.02 70.5529 225.222C74.1615 224.469 77.8167 223.96 81.4938 223.697C101.351 222.188 121.069 228.031 136.886 240.112C151.59 251.31 162.033 267.175 166.494 285.094C167.694 289.913 168.44 294.833 168.721 299.79C168.944 303.171 168.9 304.959 168.9 304.959Z" fill="#263238"/>
<path d="M148.695 303.194H19.6343V322.109H148.695V303.194Z" fill="#92E3A9"/>
<path d="M148.695 303.194H19.6343V322.109H148.695V303.194Z" fill="black"/>
<path d="M24.5019 321.845C24.466 324.302 25.1606 326.715 26.4978 328.778C27.8351 330.841 29.7549 332.462 32.0147 333.436C34.2744 334.409 36.7725 334.692 39.1931 334.248C41.6138 333.804 43.8482 332.653 45.614 330.942C47.3797 329.23 48.5975 327.033 49.1132 324.63C49.629 322.228 49.4196 319.726 48.5116 317.442C47.6035 315.158 46.0376 313.194 44.0117 311.798C41.9859 310.403 39.5912 309.638 37.1303 309.602C35.496 309.577 33.8728 309.875 32.3536 310.477C30.8344 311.079 29.4488 311.974 28.2761 313.111C27.1034 314.248 26.1665 315.605 25.5189 317.103C24.8713 318.602 24.5257 320.213 24.5019 321.845Z" fill="#263238"/>
<path d="M24.5019 321.764C24.4547 325.06 25.7207 328.24 28.0215 330.604C30.3223 332.968 33.4694 334.323 36.7704 334.37C40.0714 334.417 43.256 333.153 45.6235 330.856C47.9911 328.558 49.3477 325.416 49.3949 322.12L24.5019 321.764Z" fill="#263238"/>
<path d="M28.2438 321.845C28.2191 323.57 28.7072 325.264 29.6465 326.712C30.5857 328.16 31.9339 329.298 33.5205 329.981C35.1072 330.664 36.8611 330.862 38.5604 330.55C40.2597 330.237 41.8282 329.429 43.0674 328.227C44.3067 327.025 45.1611 325.482 45.5226 323.795C45.8842 322.108 45.7366 320.352 45.0985 318.749C44.4605 317.145 43.3606 315.767 41.938 314.788C40.5154 313.808 38.834 313.272 37.1063 313.247C35.959 313.231 34.8196 313.44 33.7533 313.863C32.6869 314.286 31.7145 314.915 30.8915 315.713C30.0685 316.512 29.4111 317.464 28.9568 318.516C28.5025 319.568 28.2603 320.7 28.2438 321.845Z" fill="#FAFAFA"/>
<path d="M37.1293 313.259C35.982 313.243 34.8426 313.452 33.7763 313.875C32.7099 314.298 31.7375 314.927 30.9145 315.725C30.0915 316.524 29.4341 317.476 28.9798 318.528C28.5255 319.58 28.2832 320.711 28.2668 321.857L45.7399 322.11C45.7566 320.964 45.547 319.826 45.1233 318.762C44.6996 317.697 44.07 316.726 43.2704 315.904C42.4708 315.082 41.5169 314.426 40.4632 313.972C39.4095 313.519 38.2767 313.276 37.1293 313.259Z" fill="#E0E0E0"/>
<path d="M31.6539 321.902C31.6382 322.954 31.9351 323.986 32.5072 324.87C33.0793 325.753 33.9008 326.447 34.8678 326.864C35.8349 327.281 36.904 327.402 37.9402 327.213C38.9763 327.023 39.9328 326.531 40.6889 325.798C41.4449 325.066 41.9664 324.126 42.1876 323.098C42.4087 322.069 42.3195 320.999 41.9313 320.021C41.543 319.043 40.8731 318.202 40.0063 317.605C39.1394 317.007 38.1146 316.679 37.0613 316.663C36.3618 316.653 35.6669 316.78 35.0165 317.037C34.3661 317.295 33.7729 317.678 33.2707 318.164C32.7685 318.651 32.3673 319.231 32.0899 319.872C31.8124 320.514 31.6643 321.203 31.6539 321.902Z" fill="#263238"/>
<path d="M133.035 334.356C139.887 333.868 145.046 327.927 144.558 321.085C144.07 314.242 138.12 309.091 131.267 309.578C124.415 310.065 119.256 316.007 119.744 322.849C120.232 329.691 126.182 334.843 133.035 334.356Z" fill="#263238"/>
<path d="M119.707 321.764C119.66 325.06 120.926 328.24 123.227 330.604C125.528 332.968 128.675 334.323 131.976 334.37C135.277 334.417 138.461 333.153 140.829 330.856C143.196 328.558 144.553 325.416 144.6 322.12L119.707 321.764Z" fill="#263238"/>
<path d="M123.404 321.845C123.379 323.57 123.867 325.264 124.807 326.712C125.746 328.16 127.094 329.298 128.681 329.981C130.267 330.664 132.021 330.862 133.721 330.55C135.42 330.237 136.988 329.429 138.228 328.227C139.467 327.025 140.321 325.482 140.683 323.795C141.044 322.108 140.897 320.352 140.259 318.749C139.621 317.145 138.521 315.767 137.098 314.788C135.676 313.808 133.994 313.272 132.267 313.247C131.119 313.231 129.98 313.44 128.913 313.863C127.847 314.286 126.875 314.915 126.052 315.713C125.229 316.512 124.571 317.464 124.117 318.516C123.663 319.568 123.42 320.7 123.404 321.845Z" fill="#FAFAFA"/>
<path d="M132.267 313.259C129.95 313.229 127.716 314.117 126.055 315.728C124.393 317.34 123.44 319.544 123.404 321.857L140.877 322.11C140.894 320.964 140.684 319.826 140.261 318.762C139.837 317.697 139.207 316.726 138.408 315.904C137.608 315.082 136.654 314.426 135.6 313.972C134.547 313.519 133.414 313.276 132.267 313.259Z" fill="#E0E0E0"/>
<path d="M126.825 321.902C126.809 323.13 127.22 324.325 127.988 325.284C128.755 326.243 129.832 326.906 131.035 327.162C132.237 327.417 133.492 327.248 134.583 326.684C135.675 326.119 136.538 325.195 137.023 324.067C137.509 322.939 137.588 321.678 137.247 320.498C136.906 319.319 136.166 318.294 135.154 317.598C134.141 316.902 132.918 316.578 131.693 316.681C130.467 316.785 129.316 317.309 128.435 318.165C127.423 319.148 126.844 320.492 126.825 321.902Z" fill="#263238"/>
<path d="M53.2938 292.556C53.2938 292.556 34.9219 293.908 28.1748 295.434C23.3872 296.5 14.1578 298.357 14.2718 304.145L14.9946 308.307C13.9649 308.826 13.0985 309.618 12.4908 310.597C11.8832 311.576 11.5578 312.704 11.5505 313.855C11.5505 317.833 10.7128 324.023 18.7025 324.264H22.5254C22.5254 324.264 21.0579 307.273 36.6595 306.774C52.555 306.27 51.5033 324.143 51.5033 324.143H117.906C117.906 324.143 115.196 306.731 132.302 306.708C149.407 306.685 146.824 324.235 146.824 324.235C146.824 324.235 153.123 324.774 156.009 319.489C158.895 314.205 158.178 310.433 158.178 310.433L158.078 307.097C158.064 306.55 157.841 306.028 157.455 305.639C157.069 305.249 156.549 305.021 156.001 305.001C156.001 305.001 157.149 296.587 155.392 295.131C153.635 293.676 144.015 284.883 144.015 284.883L144.463 284.597C144.638 284.492 144.779 284.338 144.869 284.155C144.96 283.972 144.995 283.767 144.972 283.564C144.95 283.362 144.869 283.17 144.74 283.011C144.611 282.853 144.439 282.735 144.245 282.671L131.617 278.338C131.365 278.247 131.103 278.189 130.836 278.166C129.814 278.097 126.944 277.914 121.652 277.857C115.222 277.788 89.7475 277.857 89.7475 277.857C89.7475 277.857 80.977 278.579 76.0863 280.723C71.0768 282.973 53.2938 292.556 53.2938 292.556Z" fill="#92E3A9"/>
<path d="M16.2242 313.396C15.8574 313.296 15.4742 313.271 15.0974 313.322C14.7207 313.374 14.3583 313.501 14.0318 313.696C13.689 314.072 13.4969 314.562 13.492 315.071C13.3772 315.754 13.3772 316.451 13.492 317.134C13.5637 317.47 13.7023 317.789 13.8994 318.07C14.0966 318.352 14.3483 318.591 14.6397 318.774C14.9398 318.945 15.2872 319.015 15.6305 318.974C15.9737 318.932 16.2945 318.782 16.5451 318.544C16.9263 318.031 17.0949 317.39 17.016 316.756C17.0575 315.91 17.024 315.063 16.916 314.223C16.8754 314.037 16.7971 313.861 16.6861 313.707C16.6279 313.618 16.55 313.544 16.4585 313.49C16.3669 313.436 16.2642 313.405 16.1582 313.397" fill="black"/>
<path d="M14.9966 308.31C16.948 308.31 18.8305 308.21 20.7369 308.069C20.9502 308.078 21.1607 308.018 21.3368 307.898C21.4159 307.799 21.4743 307.685 21.5086 307.563C21.5429 307.44 21.5525 307.313 21.5367 307.187C21.6148 306.673 21.5814 306.148 21.4388 305.647C21.2962 305.147 21.0476 304.683 20.7099 304.287C20.1904 303.913 19.5709 303.701 18.9305 303.679C17.3534 303.518 15.7602 303.678 14.2468 304.149L14.9966 308.31Z" fill="#FAFAFA"/>
<path d="M56.099 323.863V323.312L56.042 321.707C56.042 320.298 55.95 318.268 55.87 315.618C55.7901 312.968 55.7091 309.817 55.6061 306.161C55.6061 305.251 55.5831 304.311 55.5371 303.341C55.4973 302.849 55.4973 302.354 55.5371 301.862C55.5595 301.612 55.5979 301.363 55.6521 301.118C55.6861 300.865 55.7521 300.625 55.8011 300.373C56.0386 299.346 56.3851 298.346 56.8348 297.392C57.2945 296.39 57.8684 295.444 58.5453 294.572L73.1362 285.379C74.1847 284.689 75.282 284.076 76.4193 283.545C77.581 283.003 78.773 282.529 79.9893 282.123C80.5981 281.917 81.2289 281.734 81.8487 281.55C82.4686 281.367 83.1114 281.218 83.7542 281.08C86.1949 280.559 88.676 280.248 91.1701 280.152C93.5601 280.025 95.9551 280.025 98.3451 280.152H98.4141V280.221L95.3149 293.976C94.7435 294.912 94.2778 295.907 93.9263 296.945C93.5738 297.929 93.414 298.972 93.4555 300.017C93.5354 301.037 93.5704 302.034 93.5934 302.997C93.6164 303.961 93.5934 304.912 93.5934 305.817C93.5934 309.463 93.6624 312.695 93.6624 315.263V323.505C93.6649 323.459 93.6649 323.413 93.6624 323.367V315.298C93.6624 312.649 93.6624 309.497 93.5624 305.852V303.032C93.5624 302.058 93.5054 301.072 93.4245 300.052C93.377 298.995 93.5369 297.94 93.8953 296.945C94.249 295.9 94.7149 294.896 95.2849 293.95L98.3731 280.195V280.264C95.9906 280.143 93.6036 280.143 91.2211 280.264C88.7326 280.363 86.2574 280.678 83.8232 281.204C83.1804 281.33 82.5485 281.503 81.9177 281.662C81.2869 281.821 80.6661 282.028 80.0582 282.235C78.8495 282.64 77.6652 283.115 76.5112 283.657C75.3754 284.18 74.2815 284.789 73.2392 285.479L70.128 287.428L58.6483 294.65C57.3503 296.352 56.42 298.303 55.916 300.382C55.5808 302.273 55.4958 304.2 55.6631 306.114C55.7551 309.759 55.8351 312.992 55.893 315.571C55.951 318.151 56.008 320.248 56.042 321.66V323.266C56.0348 323.403 56.0348 323.541 56.042 323.678C56.0704 323.736 56.0896 323.798 56.099 323.863Z" fill="#263238"/>
<path d="M90.5363 301.062H90.7202C90.8983 301.035 91.0674 300.966 91.2141 300.862C91.4467 300.71 91.6208 300.484 91.7079 300.22C91.7621 300.054 91.7854 299.879 91.7769 299.704C91.7637 299.513 91.7131 299.326 91.628 299.154C91.5261 298.959 91.3729 298.795 91.1849 298.68C90.9968 298.564 90.7809 298.502 90.5603 298.5H85.3467C85.0452 298.506 84.7559 298.62 84.532 298.822C84.3149 299.019 84.1764 299.288 84.1421 299.578C84.102 299.862 84.1542 300.152 84.291 300.404C84.4258 300.642 84.6372 300.828 84.8909 300.931C85.1382 301.014 85.3998 301.045 85.6596 301.023H85.3497C85.2081 301.014 85.0688 300.983 84.9369 300.931C84.6623 300.816 84.4325 300.615 84.282 300.358C84.1356 300.083 84.0793 299.769 84.1211 299.46C84.152 299.137 84.3037 298.839 84.546 298.623C84.7917 298.399 85.1131 298.276 85.4457 298.279H90.6123C90.8502 298.282 91.0828 298.35 91.285 298.475C91.4872 298.6 91.6514 298.778 91.7599 298.99C91.9236 299.35 91.9482 299.758 91.8289 300.135C91.7265 300.41 91.5369 300.643 91.2891 300.8C91.1306 300.895 90.9549 300.957 90.7722 300.984L90.5363 301.062Z" fill="#263238"/>
<path d="M124.954 301.063H125.138C125.361 301.022 125.57 300.923 125.743 300.776C125.916 300.629 126.048 300.44 126.125 300.226C126.156 300.056 126.156 299.881 126.125 299.71C126.122 299.39 125.993 299.084 125.765 298.858C125.537 298.633 125.229 298.506 124.909 298.506H119.788C119.483 298.51 119.189 298.624 118.961 298.828C118.744 299.025 118.606 299.294 118.571 299.584C118.537 299.868 118.589 300.156 118.72 300.41C118.858 300.646 119.068 300.831 119.32 300.937C119.571 301.02 119.837 301.051 120.101 301.029H119.701C119.555 301.022 119.412 300.991 119.276 300.937C119.003 300.824 118.777 300.622 118.633 300.364C118.478 300.092 118.418 299.776 118.461 299.466C118.504 299.145 118.663 298.851 118.909 298.639C119.154 298.428 119.469 298.314 119.793 298.32H124.948C125.186 298.322 125.419 298.389 125.621 298.515C125.824 298.64 125.988 298.818 126.095 299.03C126.193 299.21 126.244 299.411 126.244 299.615C126.248 299.798 126.221 299.981 126.164 300.154C126.083 300.377 125.944 300.574 125.76 300.723C125.576 300.873 125.354 300.969 125.12 301.003L124.954 301.063Z" fill="#263238"/>
<path d="M155.126 295.48H148.238C147.777 295.478 147.324 295.604 146.929 295.842C146.534 296.081 146.212 296.423 146 296.832C145.82 297.168 145.72 297.541 145.706 297.921C145.692 298.302 145.765 298.68 145.92 299.028L148.619 305.15L155.507 305.093C155.507 305.093 156.973 297.302 155.126 295.48Z" fill="#FAFAFA"/>
<path d="M59.493 294.585L118.204 293.507L125.827 289.115C125.978 289.036 126.11 288.925 126.213 288.789C126.315 288.652 126.386 288.495 126.42 288.328C126.454 288.162 126.451 287.989 126.41 287.824C126.369 287.659 126.291 287.505 126.183 287.373L121.431 281.148C121.187 280.827 120.873 280.567 120.513 280.386C120.153 280.205 119.756 280.109 119.353 280.105L93.3845 279.898C93.3845 279.898 83.6492 279.325 75.9804 283.624C70.2669 286.938 64.7615 290.598 59.495 294.582L59.493 294.585Z" fill="#263238"/>
<path d="M75.7824 280.577C75.7824 280.577 77.5619 281.391 76.4023 282.136C75.2426 282.882 57.2417 294.215 57.2417 294.215L53.0968 292.346C60.4348 288.234 67.8397 284.279 75.7824 280.577Z" fill="#455A64"/>
<path d="M143.896 284.635C143.896 284.635 142.312 286.412 142.932 287.707C143.551 289.003 150.004 293.565 150.004 293.565L154.676 294.448L143.896 284.635Z" fill="#455A64"/>
<path d="M99.3878 281.459L98.3321 292.808L117.16 292.269L124.749 287.867L119.835 281.459H99.3878Z" fill="#455A64"/>
<path d="M63.9598 293.381C63.9598 293.381 75.3136 285.196 79.7913 283.569C83.1748 282.208 86.7858 281.5 90.4333 281.482C94.3132 281.383 96.6786 281.482 96.6786 281.482L93.6794 293.014L63.9598 293.381Z" fill="#455A64"/>
<path d="M62.2942 293.427C62.2952 293.074 62.3891 292.727 62.5664 292.421C62.7438 292.116 62.9985 291.862 63.3049 291.685L65.9112 290.23C66.6565 289.807 67.4994 289.586 68.3565 289.588C68.8795 289.591 69.3988 289.676 69.8951 289.841C70.4399 290.028 70.9144 290.376 71.255 290.84C71.5956 291.304 71.7859 291.861 71.8006 292.436C71.816 292.822 71.7533 293.207 71.616 293.568C71.4787 293.929 71.2697 294.259 71.0016 294.537C70.7336 294.816 70.4119 295.037 70.056 295.188C69.7 295.339 69.3172 295.417 68.9304 295.417H64.3387C64.073 295.424 63.8086 295.379 63.561 295.282C63.3133 295.186 63.0876 295.041 62.897 294.856C62.7065 294.671 62.5551 294.45 62.4517 294.206C62.3483 293.961 62.2951 293.699 62.2952 293.433L62.2942 293.427Z" fill="#92E3A9"/>
<path d="M62.2942 293.427C62.2893 293.511 62.2893 293.596 62.2942 293.68C62.3389 293.987 62.456 294.279 62.6357 294.532C62.8154 294.785 63.0526 294.992 63.3279 295.135C63.5359 295.245 63.761 295.319 63.9938 295.353H68.7814C69.1722 295.366 69.5619 295.304 69.9291 295.169C70.2994 295.037 70.6364 294.826 70.9168 294.55C71.2136 294.263 71.4427 293.913 71.5876 293.527C71.7325 293.14 71.7895 292.727 71.7546 292.315C71.7272 291.905 71.6102 291.506 71.412 291.145C71.2137 290.785 70.939 290.472 70.6069 290.229C70.2782 290.014 69.9124 289.863 69.5282 289.782C69.1526 289.69 68.7673 289.643 68.3805 289.644C67.6765 289.646 66.9806 289.794 66.3371 290.079C66.0372 290.217 65.7633 290.389 65.4873 290.537L64.7066 290.962L63.3749 291.706C63.0402 291.886 62.763 292.156 62.5752 292.486C62.4189 292.776 62.3323 293.098 62.3222 293.426C62.3147 293.339 62.3147 293.25 62.3222 293.163C62.3538 292.919 62.4275 292.683 62.5402 292.464C62.7223 292.121 63.0001 291.839 63.3399 291.65L64.6836 290.894L65.4524 290.447C65.7283 290.298 65.9922 290.125 66.3021 289.988C66.9603 289.696 67.6712 289.54 68.3915 289.53C68.7782 289.531 69.1634 289.577 69.5392 289.668C69.9487 289.749 70.3385 289.908 70.6869 290.138C71.0387 290.387 71.3313 290.71 71.5437 291.084C71.7561 291.458 71.8831 291.875 71.9155 292.304C71.9417 292.74 71.8791 293.177 71.7316 293.588C71.5795 293.984 71.3403 294.34 71.0318 294.631C70.7404 294.918 70.3925 295.14 70.0101 295.285C69.6412 295.413 69.2528 295.475 68.8624 295.469H64.0737C63.8304 295.427 63.5947 295.35 63.3739 295.239C63.0356 295.044 62.7586 294.758 62.5742 294.414C62.4561 294.197 62.382 293.96 62.3562 293.715C62.327 293.622 62.3079 293.526 62.2992 293.428L62.2942 293.427Z" fill="#263238"/>
<path d="M90.1004 298.082C89.4209 298.141 88.7386 298.16 88.057 298.139C87.379 298.16 86.7003 298.141 86.0245 298.082C86.7014 298.042 87.3801 298.042 88.057 298.082C88.7375 298.042 89.4198 298.042 90.1004 298.082Z" fill="white"/>
<path d="M124.299 297.883C124.299 297.883 122.887 297.952 121.142 297.975C119.396 297.998 117.997 297.975 117.997 297.975C117.997 297.975 119.396 297.906 121.142 297.883C122.887 297.861 124.299 297.852 124.299 297.883Z" fill="white"/>
<path d="M69.4932 290.686C69.4281 290.606 69.3551 290.534 69.2753 290.469C69.0505 290.3 68.7854 290.193 68.5065 290.159C68.0882 290.125 67.6673 290.172 67.2668 290.297C66.7639 290.42 66.2723 290.585 65.7972 290.79C64.9353 291.161 64.1342 291.659 63.4209 292.268C62.8581 292.739 62.5712 293.067 62.5482 293.059L62.7551 292.818C62.9401 292.599 63.1438 292.395 63.3639 292.21C64.073 291.575 64.8793 291.056 65.7523 290.674C66.2318 290.471 66.7269 290.306 67.2328 290.181C67.6501 290.061 68.0876 290.027 68.5185 290.081C68.8079 290.121 69.0792 290.245 69.2993 290.437C69.3602 290.491 69.4143 290.553 69.4602 290.62L69.4932 290.686Z" fill="white"/>
<path d="M243.257 296.855C243.257 297.027 226.645 297.155 206.153 297.155C185.66 297.155 169.048 297.029 169.048 296.855C169.048 296.682 185.648 296.556 206.153 296.556C226.657 296.556 243.257 296.695 243.257 296.855Z" fill="#263238"/>
</svg>
