<svg width="594" height="430" viewBox="0 0 594 430" fill="none" xmlns="http://www.w3.org/2000/svg">
<path d="M297 430C461.029 430 594 422.233 594 412.652C594 403.071 461.029 395.304 297 395.304C132.971 395.304 0 403.071 0 412.652C0 422.233 132.971 430 297 430Z" fill="#F5F5F5"/>
<path d="M13.02 378.094H580.979C581.747 378.094 582.483 378.399 583.026 378.943C583.569 379.486 583.874 380.223 583.874 380.991V407.222H10.1248V380.991C10.1248 380.223 10.4298 379.486 10.9728 378.943C11.5157 378.399 12.2521 378.094 13.02 378.094Z" fill="#92E3A9"/>
<path d="M13.02 378.094H580.979C581.747 378.094 582.483 378.399 583.026 378.943C583.569 379.486 583.874 380.223 583.874 380.991V407.222H10.1248V380.991C10.1248 380.223 10.4298 379.486 10.9728 378.943C11.5157 378.399 12.2521 378.094 13.02 378.094Z" fill="white"/>
<path d="M581.055 383.918H543.48V403.656H581.055V383.918Z" fill="white"/>
<path d="M541.474 382.048H503.899V401.786H541.474V382.048Z" fill="white"/>
<path d="M502.291 389.236H477.828V401.787H502.291V389.236Z" fill="white"/>
<path d="M43.8246 390.86H19.3619V403.411H43.8246V390.86Z" fill="white"/>
<path d="M475.882 382.952H450.164V400.131H475.882V382.952Z" fill="white"/>
<path d="M448.264 380.638H430.771V397.817H448.264V380.638Z" fill="white"/>
<path d="M64.1512 383.918H46.6578V401.097H64.1512V383.918Z" fill="white"/>
<path d="M374.54 383.918H357.046V401.097H374.54V383.918Z" fill="white"/>
<path d="M392.921 380.638H375.427V392.515H392.921V380.638Z" fill="white"/>
<path d="M428.979 385.205H400.166V402.384H428.979V385.205Z" fill="white"/>
<path d="M355.07 382.952H326.256V400.131H355.07V382.952Z" fill="white"/>
<path d="M500.59 382.048H482.04V387.581H500.59V382.048Z" fill="white"/>
<path d="M37.9121 382.431H19.3619V387.964H37.9121V382.431Z" fill="white"/>
<path d="M396.796 395.059H378.245V400.591H396.796V395.059Z" fill="white"/>
<path d="M323.714 383.918H286.139V403.656H323.714V383.918Z" fill="white"/>
<path d="M284.132 382.048H246.557V401.786H284.132V382.048Z" fill="white"/>
<path d="M244.949 389.236H220.486V401.787H244.949V389.236Z" fill="white"/>
<path d="M218.541 382.952H192.822V400.131H218.541V382.952Z" fill="white"/>
<path d="M190.923 380.638H173.429V397.817H190.923V380.638Z" fill="white"/>
<path d="M117.198 383.918H99.7045V401.097H117.198V383.918Z" fill="white"/>
<path d="M135.579 380.638H118.086V392.515H135.579V380.638Z" fill="white"/>
<path d="M171.638 385.205H142.825V402.384H171.638V385.205Z" fill="white"/>
<path d="M97.728 382.952H68.9149V400.131H97.728V382.952Z" fill="white"/>
<path d="M243.249 382.048H224.699V387.581H243.249V382.048Z" fill="white"/>
<path d="M139.454 395.059H120.904V400.591H139.454V395.059Z" fill="white"/>
<path d="M423.693 409.021C423.693 409.021 411.516 385.237 414.579 382.969C417.643 380.701 423.693 402.893 423.693 401.114C423.693 399.335 423.356 369.146 428.978 370.342C434.601 371.537 428.978 399.459 428.978 399.459C428.978 399.459 436.545 385.242 439.517 386.31C442.49 387.378 430.771 404.301 430.771 404.301C430.771 404.301 437.756 400.072 439.517 400.396C441.279 400.721 430.771 409.162 430.771 409.162L423.693 409.021Z" fill="#92E3A9"/>
<path d="M85.0603 409.02C85.0603 409.02 71.2737 396.76 75.3528 394.752C79.432 392.745 84.5439 403.947 85.0603 402.276C85.5767 400.605 82.3492 385.098 90.0391 386.17C97.729 387.242 90.0391 402.276 90.0391 402.276C90.0391 402.276 95.7225 396.147 97.698 397.081C99.6735 398.015 91.5703 409.02 91.5703 409.02H85.0603Z" fill="#92E3A9"/>
<path d="M266.241 71.5994L260.604 65.3158C260.604 65.3158 258.797 61.4391 257.019 60.534C255.242 59.6289 243.109 60.534 243.109 60.534L244.641 69.8362L254.675 70.1576L257.018 68.9161L260.802 74.8463L266.241 71.5994Z" fill="#E4897B"/>
<path d="M308.397 67.7687C305.333 67.5084 285.42 88.5188 283.659 88.9173C281.897 89.3158 262.781 66.2218 262.781 66.2218L257.02 72.3483C257.02 72.3483 277.378 102.093 281.939 102.093C286.501 102.093 309.849 86.0178 309.849 86.0178L308.397 67.7687Z" fill="#92E3A9"/>
<path d="M309.837 86.0048L307.235 87.7669C304.31 89.7283 299.3 93.0383 294.46 95.9658C289.056 99.2458 283.86 102.095 281.945 102.095C277.35 102.095 257.026 72.3503 257.026 72.3503L262.786 66.2208C262.786 66.2208 281.979 89.3308 283.664 88.9163C285.348 88.5018 305.323 67.4614 308.403 67.7677L309.837 86.0048Z" fill="white"/>
<path d="M307.232 87.7679C304.307 89.7293 299.297 93.0393 294.457 95.9668C296.069 89.4169 299.474 83.4465 304.292 78.727C307.477 78.8792 308.06 83.0172 307.232 87.7679Z" fill="black"/>
<path d="M325.186 63.3243C328.111 60.5049 345.101 60.7342 350.322 63.6768L346.569 78.0822L322.167 79.6151C322.167 79.6151 320.238 68.0751 325.186 63.3243Z" fill="#92E3A9"/>
<path d="M306.927 145.894L353.187 149.481C353.187 149.481 353.831 121.896 357.507 107.43C358.716 102.832 360.218 97.5458 362.102 91.4614C362.914 88.8873 363.803 86.174 364.767 83.2625C365.731 80.3509 366.62 77.6847 367.677 74.6651C361.351 72.6359 354.885 71.0738 348.33 69.9914C341.411 68.7604 334.414 68.018 327.391 67.7697C318.323 67.7697 307.906 68.7349 307.906 68.7349C307.906 68.7349 307.141 74.8643 306.191 84.3968C305.365 93.4378 305.057 113.054 306.927 145.894Z" fill="#263238"/>
<path d="M331.251 78.0822C342.755 76.5494 346.202 71.6915 346.202 71.6915C341.498 67.2631 342.357 60.7342 343.552 56.6583C343.918 55.3634 344.395 54.1023 344.976 52.8887L331.189 55.4789C331.505 57.4048 331.684 59.3506 331.726 61.3019C331.771 62.7434 331.637 64.1849 331.325 65.5931C330.391 69.7311 328.032 69.7922 328.032 69.7922C325.556 74.3277 331.251 78.0822 331.251 78.0822Z" fill="#E4897B"/>
<path d="M331.68 61.3479C331.725 62.7894 331.591 64.231 331.279 65.6392C336.779 64.9193 340.945 60.5209 343.534 56.7043C343.9 55.4095 344.377 54.1484 344.958 52.9348L331.174 55.5279C331.48 57.4546 331.649 59.4004 331.68 61.351V61.3479Z" fill="black"/>
<path d="M333.992 18.7604C333.992 18.7604 338.622 1.77986 319.996 5.39724C301.369 9.01462 305.609 31.1013 309.408 39.101C313.206 47.1007 309.958 55.8152 305.454 59.4326C305.454 59.4326 311.582 61.1948 314.845 56.9656C314.845 56.9656 314.661 60.8704 312.501 62.5134C312.501 62.5134 331.204 55.8162 326.456 33.9478C321.707 12.0793 333.992 18.7604 333.992 18.7604Z" fill="#263238"/>
<path d="M353.876 17.3047C353.876 17.3047 363.266 17.6721 365.793 25.6257C368.32 33.5794 366.329 42.4831 352.314 51.9576C338.298 61.4321 326.58 52.1258 321.157 45.659C315.733 39.1922 318.445 17.2626 333.993 14.6725C349.541 12.0823 353.876 17.3047 353.876 17.3047Z" fill="#263238"/>
<path d="M344.915 19.8788C356.817 21.6109 359.742 28.5373 358.839 40.9503C357.705 56.459 352.712 66.8817 338.313 61.4391C318.719 54.0681 325.124 17.0283 344.915 19.8788Z" fill="#E4897B"/>
<path d="M351.224 39.1731C351.923 41.0901 352.848 42.9165 353.981 44.6137C353.561 45.0575 353.027 45.3766 352.438 45.5356C351.849 45.6946 351.227 45.6874 350.641 45.5148L351.224 39.1731Z" fill="#DE5753"/>
<path d="M344.072 37.1497C343.965 38.1309 343.337 38.8657 342.678 38.7736C342.02 38.6815 341.59 37.8385 341.713 36.8583C341.836 35.8781 342.449 35.1422 343.107 35.2183C343.766 35.2944 344.195 36.1545 344.072 37.1497Z" fill="#263238"/>
<path d="M342.831 35.2934L345.068 34.7107C345.068 34.7107 343.781 36.3217 342.831 35.2934Z" fill="#263238"/>
<path d="M356.311 38.3601C356.188 39.3563 355.56 40.0762 354.916 40.0001C354.273 39.924 353.816 39.065 353.936 38.0848C354.056 37.1046 354.686 36.3687 355.345 36.4448C356.003 36.5209 356.434 37.425 356.311 38.3601Z" fill="#263238"/>
<path d="M355.056 36.5069L357.292 35.9242C357.292 35.9242 356.02 37.5942 355.056 36.5069Z" fill="#263238"/>
<path d="M339.722 30.4986C339.61 30.502 339.5 30.4716 339.407 30.4113C339.313 30.351 339.239 30.2637 339.196 30.1609C339.153 30.0581 339.142 29.9445 339.164 29.8352C339.186 29.7259 339.241 29.626 339.322 29.5485C340.155 28.9076 341.124 28.4676 342.155 28.2629C343.186 28.0582 344.25 28.0941 345.265 28.3681C345.4 28.4138 345.512 28.5086 345.581 28.6337C345.649 28.7587 345.667 28.9048 345.632 29.0429C345.593 29.1785 345.502 29.2931 345.379 29.3619C345.255 29.4307 345.11 29.4481 344.974 29.4103C344.136 29.1917 343.261 29.1621 342.41 29.3239C341.56 29.4856 340.756 29.8346 340.057 30.3454C339.968 30.4357 339.849 30.4902 339.722 30.4986Z" fill="#263238"/>
<path d="M358.482 31.8473C358.347 31.8452 358.218 31.7963 358.115 31.7091C357.583 31.1611 356.936 30.739 356.22 30.4738C355.505 30.2086 354.739 30.1069 353.979 30.1762C353.846 30.1847 353.714 30.1446 353.608 30.0632C353.502 29.9818 353.429 29.8648 353.403 29.7338C353.377 29.6028 353.399 29.4668 353.466 29.3509C353.532 29.2351 353.638 29.1473 353.765 29.1039C354.693 28.9949 355.634 29.0998 356.515 29.4106C357.397 29.7214 358.196 30.2299 358.85 30.8971C358.95 30.9999 359.005 31.1372 359.005 31.2801C359.005 31.4229 358.95 31.5602 358.85 31.663C358.805 31.7172 358.749 31.7615 358.685 31.7931C358.622 31.8248 358.553 31.8432 358.482 31.8473Z" fill="#263238"/>
<path d="M328.985 38.0998C328.985 38.0998 335.97 29.166 336.215 21.5027C336.215 21.5027 361.229 15.2502 358.933 39.4024C358.933 39.4024 364.309 18.453 343.89 15.0059C323.471 11.5587 319.243 41.579 328.572 52.0307C328.528 51.9536 324.649 43.7246 328.985 38.0998Z" fill="#263238"/>
<path d="M330.562 40.8892C330.605 40.1979 330.513 39.5047 330.288 38.8493C330.064 38.1939 329.713 37.5892 329.255 37.0697C328.797 36.5502 328.241 36.1261 327.619 35.8216C326.997 35.5172 326.321 35.3384 325.63 35.2954C321.877 35.1733 319.025 42.4981 327.943 45.655C329.168 46.0995 330.148 44.9201 330.562 40.8892Z" fill="#E4897B"/>
<path d="M352.314 12.5529C352.314 12.5529 359.972 9.4882 359.619 16.3996C359.266 23.3109 330.377 40.2444 315.733 39.1721C315.733 39.1721 319.716 38.1299 320.972 36.3988C319.109 32.7397 318.622 28.5323 319.6 24.544C320.579 20.5557 322.958 17.0522 326.303 14.6725C341.53 2.66895 352.314 12.5529 352.314 12.5529Z" fill="#263238"/>
<path d="M336.107 39.5406C336.019 39.5418 335.933 39.5115 335.866 39.4551C335.798 39.3987 335.752 39.3199 335.738 39.233C335.723 39.146 335.74 39.0567 335.785 38.9811C335.83 38.9055 335.901 38.8486 335.985 38.8207C355.515 32.1126 356.909 18.0406 356.925 17.9024C356.943 17.8161 356.99 17.7386 357.058 17.6829C357.127 17.6273 357.212 17.5969 357.3 17.5969C357.388 17.5969 357.474 17.6273 357.542 17.6829C357.611 17.7386 357.658 17.8161 357.676 17.9024C357.676 18.0556 356.252 32.5831 336.23 39.4645L336.107 39.5406Z" fill="#263238"/>
<path d="M348.684 49.8851C347.594 50.8354 346.57 51.8593 345.62 52.9498C345.406 52.8116 345.176 52.6895 344.962 52.5363C342.006 50.6821 341.24 48.8428 341.301 47.357C341.339 46.6361 341.555 45.9359 341.93 45.3186C342.118 44.9568 342.361 44.626 342.649 44.3374C343.976 46.2975 345.704 47.9533 347.719 49.1952C348.024 49.4479 348.346 49.6784 348.684 49.8851Z" fill="#263238"/>
<path d="M347.692 49.2413L346.757 50.1304C343.969 48.3682 342.162 46.7593 341.901 45.3646C342.09 45.0029 342.333 44.672 342.621 44.3834C343.948 46.3435 345.676 47.9994 347.691 49.2413H347.692Z" fill="white"/>
<path d="M344.93 52.5823C341.974 50.7281 341.208 48.8889 341.269 47.4021C342.383 48.1328 343.359 49.0563 344.149 50.1294C344.661 50.8446 344.934 51.7029 344.93 52.5823Z" fill="#DE5753"/>
<path d="M350.322 63.6768L340.181 69.0102L343.03 76.0137C340.625 95.9452 340.625 116.094 343.03 136.025L363.446 134.339C363.446 134.339 372.774 86.8328 367.689 74.6951L352.141 69.2245L350.322 63.6768Z" fill="#92E3A9"/>
<path d="M368.565 99.0926C368.106 104.288 367.431 109.636 366.727 114.555C365.194 125.528 363.448 134.309 363.448 134.309L343.032 135.995C340.618 116.064 340.618 95.9146 343.032 75.9837L340.183 69.0112L350.324 63.7048L352.131 69.2525L367.694 74.6931C369.607 79.2626 369.485 88.9323 368.565 99.0926Z" fill="white"/>
<path d="M368.566 99.0916C368.107 104.287 367.432 109.635 366.728 114.554C364.904 109.417 363.872 104.032 363.664 98.584C365.313 98.5413 366.961 98.7119 368.566 99.0916Z" fill="black"/>
<path d="M325.185 63.3243L324.284 68.7489L321.772 72.7798C321.772 72.7798 306.853 99.8275 309.012 128.747L299.668 127.061C299.668 127.061 299.76 81.5013 308.4 67.7697L321.849 67.1109L325.185 63.3243Z" fill="#92E3A9"/>
<path d="M325.185 63.3243L324.284 68.7489L321.772 72.7798C321.772 72.7798 306.853 99.8275 309.012 128.747L299.668 127.061C299.668 127.061 299.76 81.5013 308.4 67.7697L321.849 67.1109L325.185 63.3243Z" fill="white"/>
<path d="M364.813 379.535L357.721 383.703C354.413 379.226 350.833 374.957 346.998 370.923C344.946 368.747 342.786 366.325 340.534 363.751C336.046 358.602 331.19 352.701 326.089 346.373C324.555 344.504 323.023 342.599 321.494 340.657C303.74 318.314 284.531 292.031 277.36 274.271C275.123 268.754 274.036 264.064 274.511 260.554C275.966 249.934 280.102 233.966 284.819 218.549C291.987 194.965 300.044 172.575 300.044 172.575L319.82 206.166C319.82 206.166 313.693 220.679 308.211 236.11C302.757 251.282 297.841 267.373 299.663 271.553C299.831 271.967 300.063 272.442 300.307 272.963C303.6 279.782 312.699 295.215 323.038 312.287L326.195 317.47C331.756 326.588 337.531 335.936 342.876 344.534C344.96 347.921 346.979 351.185 348.912 354.264C358.012 368.915 364.813 379.535 364.813 379.535Z" fill="#E4897B"/>
<path d="M321.049 340.641C330.424 352.425 339.431 363.122 346.125 370.907C347.074 366.126 348.055 360.456 348.821 354.264C341.07 341.79 331.608 326.466 323.041 312.29C323.214 321.78 322.548 331.268 321.049 340.641Z" fill="black"/>
<path d="M356.419 243.497C353.968 260.232 350.46 275.388 348.193 284.43C346.83 289.854 345.892 293.057 345.892 293.057C345.851 310.26 344.828 327.447 342.828 344.533C342.078 351.26 341.296 357.728 340.426 363.735C337.363 385.987 334.101 401.955 334.101 401.955L325.66 400.854L326.104 346.388L326.518 278.193L327.623 197.386L356.987 184.161C360.845 200.879 359.376 223.33 356.419 243.497Z" fill="#E4897B"/>
<path d="M300.064 172.59L319.825 206.166C319.825 206.166 313.698 220.679 308.216 236.11C302.762 251.282 297.846 267.373 299.668 271.553C299.836 271.967 300.068 272.442 300.312 272.963C292.974 275.461 284.319 275.201 277.335 274.251C275.098 268.734 274.011 264.044 274.486 260.534C275.941 249.914 280.077 233.946 284.794 218.529C291.958 194.949 300.064 172.59 300.064 172.59Z" fill="black"/>
<path d="M356.418 243.497C353.967 260.232 350.459 275.388 348.192 284.43C338.542 281.365 332.017 275.603 326.533 271.314L327.545 197.356L356.91 184.132C360.845 200.88 359.378 223.33 356.418 243.497Z" fill="black"/>
<path d="M364.169 374.907C363.296 374.279 355.989 385.236 355.989 385.236C355.989 385.236 357.613 396.65 354.32 404.024C351.028 411.397 357.383 410.767 362.761 403.778L375.934 386.522C379.717 381.634 373.13 381.435 364.169 374.907Z" fill="#263238"/>
<path d="M353.262 393.527C353.048 393.516 352.84 393.453 352.656 393.343C352.472 393.234 352.317 393.081 352.205 392.898C352.085 392.746 351.996 392.572 351.946 392.384C351.896 392.197 351.885 392.001 351.914 391.81C352.184 390.838 352.714 389.959 353.446 389.266C352.345 389.771 351.226 390.094 350.658 389.71C350.091 389.327 350.168 389.009 350.306 388.347C350.359 388.057 350.476 387.783 350.648 387.544C350.82 387.305 351.043 387.108 351.302 386.967C352.971 386.002 356.05 386.967 356.205 386.967H356.328V387.289C356.127 388.239 355.041 392.975 353.386 393.419L353.262 393.527ZM355.545 388.255C354.381 389.221 352.743 390.815 352.604 391.903C352.585 392.002 352.587 392.104 352.611 392.201C352.635 392.299 352.679 392.391 352.742 392.47C353.079 392.899 353.278 392.853 353.354 392.837C354.121 392.653 355.009 390.293 355.545 388.254V388.255ZM353.232 387.228C352.702 387.216 352.176 387.331 351.7 387.566C351.53 387.666 351.384 387.801 351.271 387.963C351.157 388.124 351.079 388.307 351.042 388.501C351.042 388.685 350.949 389.037 351.042 389.13C351.532 389.467 353.492 388.593 355.254 387.49C354.591 387.33 353.913 387.243 353.232 387.229V387.228Z" fill="#92E3A9"/>
<path d="M337.136 396.562C337.136 395.489 323.963 396.331 323.963 396.331C323.963 396.331 315.874 404.56 308.032 406.414C300.19 408.269 304.555 412.973 313.348 412.973H335.053C341.3 412.974 337.394 407.687 337.136 396.562Z" fill="#263238"/>
<path d="M317.051 399.702C316.638 399.732 316.227 399.618 315.888 399.381C315.702 399.206 315.573 398.981 315.515 398.732C315.458 398.484 315.476 398.224 315.566 397.986C315.617 397.798 315.705 397.623 315.826 397.47C315.946 397.317 316.096 397.19 316.267 397.097C317.203 396.718 318.227 396.607 319.223 396.776C318.151 396.193 317.217 395.504 317.171 394.814C317.188 394.564 317.281 394.325 317.436 394.129C317.592 393.932 317.804 393.787 318.043 393.713C318.309 393.588 318.6 393.524 318.894 393.524C319.188 393.524 319.478 393.588 319.745 393.713C321.506 394.449 322.609 397.499 322.67 397.652C322.685 397.697 322.685 397.745 322.67 397.79C322.678 397.825 322.678 397.862 322.67 397.897C322.673 397.933 322.673 397.969 322.67 398.004L322.563 398.081C320.835 398.941 318.969 399.49 317.051 399.702ZM318.169 397.4C317.642 397.369 317.116 397.469 316.637 397.691C316.543 397.734 316.46 397.798 316.394 397.878C316.328 397.957 316.28 398.05 316.254 398.15C316.132 398.671 316.254 398.794 316.346 398.84C316.958 399.361 319.409 398.626 321.309 397.813C320.279 397.57 319.226 397.431 318.168 397.4H318.169ZM318.951 394.182C318.738 394.19 318.53 394.242 318.338 394.335C318.227 394.354 318.123 394.405 318.039 394.481C317.955 394.557 317.895 394.655 317.864 394.764C317.864 395.365 319.779 396.388 321.724 397.124C321.301 395.964 320.511 394.973 319.472 394.305C319.309 394.228 319.131 394.186 318.951 394.182Z" fill="#92E3A9"/>
<path d="M305.823 141.664L300.676 165.877C300.676 165.877 276.811 204.19 266.9 250.256C266.9 250.256 266.533 262.377 278.649 260.538C290.765 258.699 296.172 271.556 308.152 271.556C320.131 271.556 332.17 262.746 342.495 271.556C352.82 280.367 372.273 271.556 372.273 271.556C372.273 271.556 371.537 180.646 352.819 145.296L305.823 141.664Z" fill="#92E3A9"/>
<path d="M324.353 147.671C324.349 148.217 324.157 148.744 323.809 149.163C323.461 149.583 322.978 149.869 322.443 149.973C321.908 150.076 321.353 149.991 320.874 149.732C320.394 149.473 320.019 149.056 319.812 148.551C319.605 148.047 319.579 147.486 319.739 146.965C319.898 146.443 320.234 145.993 320.687 145.691C321.141 145.389 321.685 145.253 322.228 145.307C322.77 145.361 323.277 145.602 323.663 145.987C323.883 146.209 324.057 146.472 324.175 146.761C324.294 147.05 324.354 147.359 324.353 147.671Z" fill="white"/>
<path d="M411.272 124.042L427.34 127.246C427.34 127.246 430.403 123.936 432.227 123.568C435.541 123.478 438.857 123.616 442.152 123.982C442.152 123.982 443.685 136.318 442.152 137.345C440.62 138.372 430.082 137.946 428.474 137.345C426.866 136.744 426.054 133.851 426.054 133.851L411.272 130.784V124.042Z" fill="#9F5B53"/>
<path d="M367.677 74.8943C372.518 76.6725 384.649 112.945 386.058 114.371C387.467 115.797 421.78 124.283 421.78 124.283L419.543 133.263C419.543 133.263 384.067 127.302 380.972 125.601C377.878 123.9 362.238 95.9478 362.238 95.9478L367.677 74.8943Z" fill="#92E3A9"/>
<path d="M367.677 74.8943C372.518 76.6725 384.649 112.945 386.058 114.371C387.467 115.797 421.78 124.283 421.78 124.283L419.543 133.263C419.543 133.263 384.067 127.302 380.972 125.601C377.878 123.9 362.238 95.9478 362.238 95.9478L367.677 74.8943Z" fill="white"/>
<path d="M395.034 46.1766C396.104 45.856 397.194 45.6052 398.297 45.4257C399.446 45.1286 400.542 44.6529 401.544 44.016C405.312 40.8441 400.334 37.5331 400.549 32.6142C400.763 27.6952 403.964 27.8324 404.593 24.9519C405.221 22.0714 401.529 19.9709 404.593 14.2249C406.859 9.99481 410.551 10.2101 412.699 9.15279C414.846 8.09552 411.933 5.6896 418.198 1.49052C423.268 -1.86554 431.862 0.969892 433.195 4.81555C433.195 4.81555 438.127 0.983904 444.147 5.67358C450.167 10.3633 451.453 15.129 449.751 19.3431C448.05 23.5572 454.837 24.0278 455.055 28.0276C455.274 32.0275 453.554 35.4646 455.055 38.1779C461.29 41.2426 459.238 46.0474 456.787 49.6918C454.336 53.3363 463.68 55.2315 467.28 58.4184C470.88 61.6053 474.173 63.6748 470.682 65.8964C467.192 68.1181 467.389 70.6162 470.33 75.3519C473.271 80.0876 470.33 88.5468 465.426 90.8606C460.523 93.1744 466.805 100.347 460.141 104.791C453.477 109.234 414.187 118.429 404.093 103.61C394 88.7912 391.839 72.5004 393.248 69.0222C394.581 65.8654 388.79 62.0798 388.224 58.893C387.575 55.0984 391.327 47.6324 395.034 46.1766Z" fill="#263238"/>
<path d="M338.358 97.9582C341.314 98.5409 350.061 95.261 350.489 93.3607C350.489 93.3607 373.941 104.379 379.011 102.295C381.232 101.376 385.383 96.889 389.381 92.1352C394.451 86.0058 399.23 79.5199 399.23 79.5199L398.097 73.1452L396.856 66.2188C393.394 67.169 378.383 89.8955 375.825 92.1332C373.267 94.3709 349.905 85.5743 349.905 85.5743C349.905 85.5743 347.913 82.3103 345.018 82.2182C342.123 82.1261 335.521 84.548 333.147 85.6223C330.773 86.6966 335.294 97.3785 338.358 97.9582Z" fill="#EEC1BB"/>
<path d="M389.351 92.1512C394.421 86.0218 399.2 79.536 399.2 79.536L398.1 73.1452L396.999 73.804C393.135 76.3821 390.024 81.9589 389.351 92.1512Z" fill="black"/>
<path d="M457.991 69.2706C457.991 69.2706 447.375 80.0896 446.073 125.972L398.511 122.126C398.511 122.126 390.944 89.3458 396.81 66.1748C417.13 61.9263 438.202 62.9925 457.99 69.2706H457.991Z" fill="#92E3A9"/>
<path d="M457.991 69.2706C457.991 69.2706 455.494 71.8306 452.768 79.6771C451.469 83.5286 450.42 87.4599 449.627 91.4464C447.445 102.846 446.255 114.414 446.073 126.019L398.511 122.173C398.511 122.173 390.944 89.3929 396.81 66.2218C417.126 61.9585 438.198 63.0079 457.99 69.2706H457.991Z" fill="white"/>
<path d="M356.831 386.753L366.328 388.439L370.231 375.459L373.784 363.552L362.836 359.72L356.831 386.753Z" fill="#EEC1BB"/>
<path d="M359.589 374.326L370.189 375.72L373.774 363.691L362.822 359.786L359.589 374.326Z" fill="black"/>
<path d="M420.325 391.136H429.975L431.568 377.527L433.008 365.099L421.536 363.197L420.325 391.136Z" fill="#EEC1BB"/>
<path d="M420.891 378.109L431.567 377.635L433.007 365.161L421.535 363.229L420.891 378.109Z" fill="black"/>
<path d="M358.7 366.769L374.34 369.528C390.118 330.204 401.331 297.379 409.267 270.132C413.526 255.435 417.094 242.363 419.653 230.762L419.179 273.58V370.018H434.591C473.207 185.969 445.466 132.087 445.466 132.087L398.481 129.098C396.735 135.994 396.535 154.522 395.754 162.307L393.67 177.632L375.611 270.96L358.7 366.769Z" fill="#263238"/>
<path d="M409.264 270.132C413.523 255.435 416.923 242.363 419.42 230.762C419.216 217.032 418.235 203.326 416.48 189.707C416.48 189.707 409.663 242.669 409.264 270.132Z" fill="black"/>
<path d="M446.078 126.018L398.512 122.172V130.247L446.764 134.507L446.078 126.018Z" fill="black"/>
<path d="M411.654 125.712V129.451C411.648 130.184 411.919 130.891 412.414 131.432C412.909 131.972 413.589 132.305 414.319 132.363L420.202 132.883H420.462C420.846 132.884 421.227 132.808 421.582 132.661C421.937 132.514 422.259 132.298 422.531 132.027C422.803 131.755 423.018 131.432 423.165 131.077C423.312 130.722 423.388 130.341 423.388 129.957V126.202C423.394 125.47 423.123 124.762 422.628 124.222C422.134 123.682 421.453 123.349 420.723 123.291L414.826 122.77C414.422 122.739 414.016 122.791 413.633 122.924C413.251 123.056 412.899 123.266 412.602 123.541C412.304 123.816 412.066 124.149 411.904 124.52C411.741 124.891 411.656 125.292 411.655 125.697L411.654 125.712ZM413.186 129.451V128.225H413.263L414.918 128.347C415.172 128.35 415.418 128.256 415.605 128.085C415.793 127.913 415.908 127.676 415.928 127.423C415.947 127.169 415.87 126.917 415.71 126.719C415.551 126.521 415.322 126.39 415.071 126.355L413.416 126.232H413.186V125.712C413.186 125.513 413.226 125.317 413.306 125.135C413.385 124.953 413.5 124.79 413.646 124.655C413.915 124.424 414.256 124.294 414.61 124.287H414.732L420.615 124.808C420.97 124.835 421.301 124.996 421.542 125.257C421.783 125.518 421.917 125.862 421.916 126.217V129.972C421.916 130.168 421.875 130.362 421.796 130.542C421.717 130.721 421.601 130.882 421.457 131.014C421.312 131.15 421.14 131.253 420.953 131.317C420.765 131.38 420.566 131.402 420.369 131.382L414.486 130.861C414.131 130.842 413.796 130.689 413.549 130.433C413.302 130.177 413.16 129.837 413.153 129.481L413.186 129.451Z" fill="white"/>
<path d="M433.422 64.5198C434.284 64.8095 435.002 65.4186 435.428 66.2218C430.833 69.6073 425.249 71.3798 419.543 71.2639C417.92 71.2639 414.565 66.6664 417.077 65.2877C417.541 65.0432 418.023 64.833 418.517 64.659C419.589 63.8009 420.907 61.7164 420.819 56.6903C420.768 54.7171 420.573 52.7502 420.237 50.8052L434.206 48.1079C434.206 48.1079 429.408 57.5474 433.422 64.5198Z" fill="#EEC1BB"/>
<path d="M420.156 50.8042C420.492 52.7492 420.687 54.7161 420.738 56.6893C430.174 56.6893 434.126 48.1079 434.126 48.1079L420.156 50.8042Z" fill="black"/>
<path d="M371.536 381.543L353.155 378.11V391.136C353.155 391.136 343.781 406.691 339.737 407.748C338.633 408.038 337.683 408.743 337.086 409.717C336.489 410.691 336.292 411.857 336.534 412.973H356.769L361.673 407.104L362.745 412.973H366.62C366.62 412.973 370.723 401.143 366.62 392.837L371.536 381.543Z" fill="#263238"/>
<path d="M436.133 379.918L417.751 381.34L419.374 391.133C419.374 391.133 410 406.688 405.956 407.745C404.851 408.035 403.902 408.74 403.305 409.714C402.708 410.688 402.51 411.854 402.753 412.97H422.989L427.893 407.101L428.949 412.97H432.84C432.84 412.97 436.943 401.14 432.84 392.834L436.133 379.918Z" fill="#263238"/>
<path d="M426.62 11.3585C414.488 10.2571 410 16.4006 407.977 28.8136C405.465 44.3374 407.977 55.7392 423.372 53.7778C444.373 51.1106 446.748 13.1817 426.62 11.3585Z" fill="#EEC1BB"/>
<path d="M415.882 28.8436C414.747 30.5653 413.41 32.145 411.899 33.5493C412.208 34.082 412.657 34.5195 413.197 34.814C413.737 35.1086 414.348 35.2488 414.963 35.2193L415.882 28.8436Z" fill="#D4827D"/>
<path d="M423.388 28.5222C423.281 29.5184 423.725 30.3915 424.384 30.4686C425.042 30.5457 425.671 29.7948 425.793 28.7986C425.915 27.8024 425.456 26.9443 424.797 26.8672C424.139 26.7901 423.495 27.526 423.388 28.5222Z" fill="#263238"/>
<path d="M425.057 26.9433L423.005 25.842C423.005 25.842 423.862 27.7863 425.057 26.9433Z" fill="#263238"/>
<path d="M411.058 26.9133C410.951 27.8945 411.395 28.7675 412.053 28.8446C412.712 28.9217 413.34 28.1708 413.462 27.1746C413.585 26.1784 413.125 25.3204 412.467 25.2433C411.808 25.1662 411.18 25.9171 411.058 26.9133Z" fill="#263238"/>
<path d="M412.742 25.3194L410.674 24.231C410.674 24.231 411.532 26.1774 412.742 25.3194Z" fill="#263238"/>
<path d="M429.362 23.0366C429.274 23.0372 429.188 23.0166 429.111 22.9765C429.034 22.9363 428.967 22.878 428.917 22.8063C428.355 22.1391 427.65 21.6068 426.855 21.2487C426.059 20.8907 425.194 20.7161 424.322 20.7378C424.252 20.742 424.182 20.7321 424.117 20.7088C424.051 20.6854 423.99 20.6491 423.939 20.6019C423.888 20.5548 423.846 20.4977 423.817 20.4342C423.788 20.3707 423.772 20.302 423.77 20.2322C423.766 20.0925 423.817 19.9567 423.911 19.8537C424.005 19.7507 424.136 19.6886 424.276 19.6805C425.334 19.6422 426.387 19.8523 427.35 20.294C428.313 20.7358 429.159 21.397 429.821 22.2246C429.861 22.2816 429.89 22.3462 429.905 22.4144C429.92 22.4827 429.921 22.5532 429.908 22.6219C429.895 22.6905 429.869 22.7559 429.83 22.8141C429.791 22.8723 429.741 22.9221 429.683 22.9605C429.588 23.0226 429.474 23.0489 429.362 23.0366Z" fill="#263238"/>
<path d="M410.582 19.9719C410.465 19.9707 410.351 19.9305 410.259 19.8575C410.167 19.7846 410.102 19.683 410.074 19.5689C410.045 19.4548 410.056 19.3346 410.104 19.2272C410.151 19.1198 410.234 19.0313 410.337 18.9757C411.132 18.4737 412.032 18.1615 412.967 18.0632C413.902 17.965 414.847 18.0833 415.729 18.409C415.852 18.4717 415.947 18.5795 415.993 18.7101C416.038 18.8407 416.032 18.9839 415.974 19.1098C415.915 19.2333 415.809 19.3283 415.68 19.3742C415.551 19.4201 415.409 19.4133 415.285 19.3551C414.549 19.103 413.765 19.0216 412.993 19.1172C412.22 19.2128 411.48 19.4828 410.827 19.9068C410.751 19.9445 410.667 19.9667 410.582 19.9719Z" fill="#263238"/>
<path d="M438.016 32.9967C438.016 32.9967 433.253 22.515 434.8 14.8977C434.8 14.8977 411.67 2.91425 408.269 27.1576C408.269 27.1576 407.886 5.28912 428.765 6.69883C449.644 8.10853 446.81 38.5894 435.214 46.6962C435.213 46.7273 440.988 39.5406 438.016 32.9967Z" fill="#263238"/>
<path d="M435.796 35.3725C436.039 33.9874 436.819 32.7545 437.966 31.9422C439.114 31.1298 440.536 30.8039 441.922 31.0353C445.644 31.7862 446.732 39.6627 437.219 40.6749C435.903 40.8131 435.259 39.4334 435.796 35.3725Z" fill="#EEC1BB"/>
<path d="M415.637 38.6825C416.55 39.8268 417.38 41.0354 418.119 42.2989L418.839 42.0226C422.101 40.721 423.174 39.05 423.434 37.5782C423.534 36.8639 423.45 36.136 423.189 35.4636C423.06 35.0742 422.88 34.7038 422.652 34.3623C420.996 36.0547 418.995 37.3716 416.786 38.224C416.081 38.5293 415.637 38.6825 415.637 38.6825Z" fill="#263238"/>
<path d="M416.74 38.223L417.506 39.2652C420.569 38.0397 422.56 36.7672 423.143 35.4606C423.014 35.0712 422.834 34.7008 422.606 34.3593C420.95 36.0517 418.949 37.3686 416.74 38.221V38.223Z" fill="white"/>
<path d="M418.839 42.0226C422.101 40.721 423.174 39.051 423.434 37.5792C422.21 38.1024 421.086 38.8334 420.111 39.7398C419.453 40.3449 419.007 41.1446 418.839 42.0226Z" fill="#DE5753"/>
<path d="M452.768 79.7372C451.469 83.5887 450.42 87.5199 449.627 91.5064C448.871 87.0919 448.954 82.574 449.872 78.1903L452.768 79.7372Z" fill="black"/>
<path d="M457.991 69.2706C467.886 72.4884 488.627 105.774 487.096 110.08C485.565 114.386 453.243 126.017 453.243 126.017L463.124 140.561C463.124 140.561 455.649 146.461 452.015 144.944C448.381 143.427 444.631 130.37 444.264 125.865C443.897 121.36 472.266 109.085 473.368 107.015C474.471 104.946 459.858 89.6522 450.958 82.909C449.879 80.4984 449.694 77.7814 450.438 75.2468C450.926 73.5921 451.914 72.1292 453.267 71.0591C454.619 69.989 456.269 69.3642 457.991 69.2706Z" fill="#EEC1BB"/>
<path d="M253.574 64.4897C254.237 66.175 255.063 67.7915 256.04 69.3166C257.05 70.5581 267.248 75.1707 267.248 75.1707C267.248 75.1707 271.844 66.8956 271.966 66.374C272.088 65.8524 263.127 57.0107 257.154 59.1863L253.574 64.4897Z" fill="#EBB376"/>
<path d="M202.688 71.2629C209.106 70.3899 229.555 67.0489 232.589 66.2208C235.622 65.3928 258.185 58.7878 258.185 58.7878L259.334 63.6768C259.334 63.6768 234.397 74.2506 229.556 75.9366C224.715 77.6226 193.713 84.4569 193.713 84.4569L202.688 71.2629Z" fill="#EBB376"/>
<path d="M305.9 118.556L322.121 120.977C322.121 120.977 324.939 117.529 326.825 117.054C330.127 116.798 333.444 116.767 336.751 116.962C336.751 116.962 338.91 129.222 337.44 130.294C335.97 131.367 325.431 131.536 323.777 130.995C322.122 130.455 321.175 127.654 321.175 127.654L306.19 125.283L305.9 118.556Z" fill="#9F5B53"/>
<path d="M258.49 65.1636C265.506 65.5931 277.025 111.567 277.025 111.567L318.598 119.352V129.099C318.598 129.099 274.819 124.501 271.878 124.317C268.936 124.133 254.677 88.9323 254.677 88.9323L257.02 69.654L258.49 65.1636Z" fill="#263238"/>
<path d="M318.599 119.352V129.099C318.599 129.099 274.805 124.501 271.879 124.317C271.634 124.317 271.296 124.041 270.914 123.581C268.05 120.177 261.723 105.805 257.894 96.6707C255.993 92.0731 254.678 88.9163 254.678 88.9163L257.021 69.638L258.553 65.1636C265.569 65.5931 277.089 111.567 277.089 111.567L318.599 119.352Z" fill="white"/>
<path d="M270.959 123.58C268.095 120.176 261.768 105.804 257.939 96.6697L263.837 85.4821C263.837 85.4821 273.012 107.475 270.959 123.58Z" fill="black"/>
<path d="M212.935 23.1748C213.043 22.3317 213.028 21.4276 213.12 20.4314C213.162 19.25 213.526 18.1027 214.174 17.1142C214.822 16.1257 215.729 15.3338 216.795 14.8247C217.834 14.6069 218.858 14.3203 219.859 13.9666C221.391 13.1657 222.018 11.3925 223.152 10.1049C223.752 9.43576 224.486 8.90131 225.308 8.53683C226.129 8.17235 227.018 7.9861 227.916 7.99038C230.137 7.99038 232.327 9.20085 234.472 8.63416C235.239 8.39108 235.975 8.05661 236.663 7.63795C237.969 6.86744 239.427 6.39147 240.936 6.24327C241.694 6.17421 242.457 6.27607 243.17 6.54136C243.883 6.80665 244.528 7.22859 245.056 7.77611C245.822 8.60412 246.236 9.78355 247.186 10.3793C248.993 11.5437 251.597 10.0268 253.467 11.0801C255.075 11.9812 255.335 14.3601 256.882 15.3553C257.572 15.7998 258.414 15.907 259.134 16.3365C259.624 16.6944 260.032 17.153 260.331 17.6816C260.629 18.2101 260.812 18.7964 260.865 19.4012C261.049 20.6117 260.987 21.8682 261.233 23.0636C261.799 25.837 263.484 26.6039 265.506 28.0897C267.145 29.3002 269.734 31.5839 268.187 33.8056C265.885 37.1306 262.673 39.6907 265.675 42.1727C268.677 44.6547 273.594 46.2947 271.403 49.2813C269.213 52.2679 265.72 53.4804 268.064 56.3459C270.408 59.2113 270.775 62.3992 268.171 63.886C268.171 63.886 269.856 61.6944 266.639 59.6559C263.421 57.6174 263.299 55.5179 263.299 55.5179C262.703 56.0544 262.262 56.7415 262.022 57.5072C261.782 58.2729 261.752 59.0891 261.936 59.8702C262.155 60.599 262.206 61.3681 262.085 62.1194C261.963 62.8707 261.673 63.5847 261.236 64.2074C261.236 64.2074 261.772 64.3916 259.397 61.7865C258.723 61.1695 258.238 60.3743 257.997 59.4929C257.755 58.6115 257.768 57.6798 258.034 56.8054C258.034 56.8054 255.859 62.4292 255.154 64.4677C254.448 66.5062 242.593 69.1574 240.188 67.992C237.784 66.8266 229.221 67.8388 229.28 63.3944C228.778 64.0201 228.504 64.7986 228.504 65.6011C228.504 66.4036 228.778 67.182 229.28 67.8078C228.57 67.6598 227.917 67.3134 227.397 66.8088C226.876 66.3042 226.509 65.6622 226.339 64.9573C225.665 62.4443 222.436 59.5938 222.436 59.5938C222.436 59.5938 225.606 63.5166 223.646 65.8154C223.089 66.3703 222.734 67.0955 222.637 67.8756C222.54 68.6557 222.706 69.4459 223.109 70.1206C223.109 70.1206 219.907 67.7907 219.831 65.9825C219.755 64.1744 222.144 62.1509 217.457 59.8531C212.77 57.5554 214.394 55.8993 214.394 55.8993C213.812 56.8156 213.503 57.8786 213.503 58.9641C213.503 60.0495 213.812 61.1125 214.394 62.0288C216.431 64.8642 213.031 68.2503 213.031 68.2503C213.031 68.2503 215.313 64.695 212.8 63.1011C210.287 61.5071 208.588 58.2582 210.272 56.1436C209.488 56.4945 208.842 57.0952 208.434 57.8521C208.027 58.6089 207.882 59.4794 208.021 60.3277C208.159 63.7318 206.243 64.5268 206.243 64.5268C206.243 64.5268 207.484 61.4621 206.059 60.4218C204.634 59.3816 204.328 55.4108 205.768 53.6486C207.208 51.8865 208.464 48.162 206.319 45.7391C204.175 43.3161 203.608 41.3407 206.028 39.2722C208.448 37.2037 208.739 32.7443 207.959 30.0771C207.422 28.2539 210.271 27.1506 211.374 26.2725C211.839 25.8959 212.218 25.4251 212.487 24.8912C212.756 24.3572 212.909 23.7722 212.935 23.1748Z" fill="#263238"/>
<path d="M300.064 400.776L308.014 398.615C305.104 358.541 297.292 310.191 290.567 273.933C289.51 268.263 288.499 262.884 287.504 257.873C287.029 255.498 286.603 253.275 286.156 251.007C284.042 240.142 282.253 231.56 281.147 226.258C280.319 222.382 279.86 220.266 279.86 220.266L251.307 228.541L261.539 259.513L262.427 262.225L276.443 304.629C277.657 345.499 300.064 400.776 300.064 400.776Z" fill="#9F5B53"/>
<path d="M230.765 398.844L238.96 398.043C243.25 354.598 243.418 300.486 242.835 262.895C242.743 257.072 242.635 251.631 242.514 246.696V245.976C242.269 236.183 242.024 228.399 241.841 223.48C241.673 219.618 241.595 217.504 241.595 217.504L212.047 220.814L213.885 233.074L216.566 251.157L217.103 254.697L223.889 299.982C218.128 340.549 230.765 398.844 230.765 398.844Z" fill="#9F5B53"/>
<path d="M216.55 251.192L242.591 246.701V245.981C242.346 236.188 242.101 228.404 241.918 223.485L213.962 233.109L216.55 251.192Z" fill="black"/>
<path d="M283.995 240.153L256.663 244.759L253.676 235.717L281.11 226.23C281.835 229.641 282.815 234.346 283.995 240.153Z" fill="black"/>
<path d="M213.196 142.768C213.196 142.768 195.473 184.146 212.032 244.249L244.307 240.556V209.584L251.292 239.42L283.659 232.984C273.702 184.251 264.744 162.138 264.744 162.138L262.342 137.618L213.196 142.768Z" fill="#92E3A9"/>
<path d="M213.196 142.768C213.196 142.768 195.473 184.146 212.032 244.249L244.307 240.556V209.584L251.292 239.42L283.659 232.984C273.702 184.251 264.744 162.138 264.744 162.138L262.342 137.618L213.196 142.768Z" fill="white"/>
<path d="M228.192 151.748L253.681 149.496V141.236L228.192 143.427V151.748Z" fill="#263238"/>
<path d="M225.955 143.626L213.165 144.728L212.031 153.187L225.955 151.947V143.626Z" fill="#263238"/>
<path d="M255.626 141.072V149.332L261.34 148.827V140.567L255.626 141.072Z" fill="#263238"/>
<path d="M246.942 142.004C246.633 141.728 246.271 141.518 245.879 141.387C245.486 141.255 245.071 141.204 244.659 141.238L238.639 141.758C237.894 141.82 237.2 142.16 236.694 142.711C236.189 143.262 235.91 143.983 235.912 144.731V148.577C235.9 148.977 235.968 149.375 236.113 149.747C236.257 150.12 236.476 150.459 236.755 150.745C237.034 151.031 237.367 151.258 237.736 151.412C238.104 151.566 238.5 151.645 238.899 151.642H239.16L245.179 151.122C245.94 151.059 246.648 150.706 247.155 150.135C247.663 149.564 247.932 148.82 247.905 148.057V144.225C247.904 143.809 247.818 143.397 247.652 143.015C247.486 142.633 247.245 142.289 246.942 142.004ZM245.04 149.482L239.036 150.018C238.834 150.04 238.63 150.019 238.437 149.955C238.244 149.892 238.067 149.788 237.918 149.651C237.629 149.368 237.464 148.983 237.458 148.578V144.732C237.457 144.37 237.592 144.021 237.836 143.754C238.08 143.487 238.415 143.322 238.775 143.291L244.795 142.77H244.917C245.294 142.789 245.652 142.946 245.92 143.212C246.189 143.478 246.35 143.834 246.372 144.211V144.794H246.127L244.442 144.932C244.191 144.976 243.966 145.112 243.81 145.314C243.653 145.515 243.577 145.767 243.597 146.021C243.616 146.275 243.728 146.512 243.913 146.688C244.097 146.863 244.34 146.964 244.595 146.971L246.28 146.848H246.372V148.105C246.358 148.459 246.214 148.795 245.969 149.049C245.723 149.304 245.392 149.459 245.039 149.485L245.04 149.482Z" fill="white"/>
<path d="M226.871 397.174C226.871 396.132 239.554 396.944 239.554 396.944C239.554 396.944 247.351 404.867 254.872 406.656C262.392 408.445 258.211 412.969 249.74 412.969H228.867C222.861 412.969 226.614 407.855 226.871 397.174Z" fill="#263238"/>
<path d="M246.221 400.193C244.389 399.967 242.611 399.423 240.967 398.584C240.921 398.567 240.883 398.535 240.86 398.492C240.83 398.408 240.83 398.316 240.86 398.232C240.86 398.109 241.961 395.167 243.694 394.427C243.95 394.306 244.23 394.243 244.514 394.243C244.797 394.243 245.077 394.306 245.333 394.427C245.9 394.702 246.191 395.056 246.161 395.499C246.131 395.943 245.211 396.833 244.185 397.368C245.147 397.215 246.132 397.327 247.035 397.691C247.2 397.779 247.346 397.901 247.462 398.049C247.578 398.196 247.662 398.367 247.708 398.549C247.799 398.778 247.818 399.03 247.763 399.271C247.709 399.511 247.583 399.73 247.402 399.898C247.056 400.132 246.637 400.235 246.222 400.189L246.221 400.193ZM242.131 398.37C243.999 399.171 246.313 399.903 246.911 399.366C246.911 399.366 247.125 399.198 247.003 398.691C246.976 398.597 246.93 398.51 246.866 398.436C246.803 398.362 246.724 398.302 246.635 398.262C245.154 397.871 243.593 397.908 242.132 398.369L242.131 398.37ZM244.398 394.875C244.22 394.883 244.044 394.919 243.877 394.983C242.886 395.643 242.126 396.597 241.703 397.711C243.587 397.01 245.394 396.009 245.424 395.443C245.424 395.275 245.149 395.106 244.98 395.03C244.802 394.931 244.602 394.878 244.398 394.876V394.875Z" fill="#263238"/>
<path d="M297.767 397.174C297.767 396.132 310.449 396.944 310.449 396.944C310.449 396.944 318.246 404.867 325.767 406.656C333.288 408.445 329.107 412.969 320.635 412.969H299.758C293.753 412.969 297.505 407.855 297.767 397.174Z" fill="#263238"/>
<path d="M317.117 400.193C315.286 399.967 313.507 399.423 311.863 398.584C311.818 398.567 311.78 398.535 311.756 398.492C311.726 398.408 311.726 398.316 311.756 398.232C311.756 398.109 312.857 395.167 314.591 394.427C314.847 394.306 315.127 394.243 315.41 394.243C315.694 394.243 315.974 394.306 316.23 394.427C316.796 394.702 317.087 395.056 317.057 395.499C317.027 395.943 316.108 396.833 315.082 397.368C316.043 397.215 317.028 397.327 317.931 397.691C318.097 397.779 318.242 397.901 318.358 398.049C318.474 398.196 318.558 398.367 318.605 398.549C318.695 398.778 318.714 399.03 318.66 399.271C318.605 399.511 318.479 399.73 318.298 399.898C317.952 400.133 317.534 400.238 317.117 400.193ZM313.027 398.37C314.896 399.171 317.21 399.903 317.807 399.366C317.807 399.366 318.021 399.198 317.899 398.691C317.873 398.597 317.826 398.51 317.763 398.436C317.699 398.362 317.62 398.302 317.532 398.262C316.051 397.871 314.489 397.908 313.028 398.369L313.027 398.37ZM315.294 394.875C315.116 394.883 314.94 394.919 314.774 394.983C313.782 395.643 313.021 396.597 312.598 397.711C314.482 397.01 316.29 396.009 316.32 395.443C316.32 395.275 316.044 395.106 315.875 395.03C315.697 394.931 315.497 394.878 315.293 394.876L315.294 394.875Z" fill="#263238"/>
<path d="M244.307 209.584C249.821 198.183 253.681 188.804 253.681 188.804C253.681 188.804 254.891 217.676 251.291 239.375L244.307 209.584Z" fill="black"/>
<path d="M235.514 78.727C224.914 74.6811 222.754 69.2255 222.754 69.2255C231.271 64.3526 228.238 51.6172 228.238 51.6172L240.814 57.241C240.07 59.0035 239.451 60.8162 238.96 62.6655C236.939 70.6342 240.493 71.5843 240.493 71.5843C241.856 76.4582 235.514 78.727 235.514 78.727Z" fill="#9F5B53"/>
<path d="M240.814 57.241C240.07 59.0035 239.451 60.8162 238.96 62.6655C230.076 60.5199 228.238 51.6172 228.238 51.6172L240.814 57.241Z" fill="black"/>
<path d="M225.281 15.8178C225.281 15.8178 218.465 16.4186 216.09 27.4029C213.715 38.3872 221.16 57.0257 230.443 54.9873C239.726 52.9488 225.281 15.8178 225.281 15.8178Z" fill="#263238"/>
<path d="M252.839 50.2986C252.716 50.6991 252.594 51.0822 252.472 51.448C250.771 56.1837 247.34 59.1102 241.412 59.0031C240.552 59.0105 239.693 58.9593 238.839 58.8499L237.124 58.5736C216.997 54.742 216.966 17.9635 236.524 17.3958C248.303 17.0433 252.271 23.2649 253.481 35.3715C254.169 40.3452 253.951 45.4024 252.839 50.2986Z" fill="#9F5B53"/>
<path d="M245.854 34.928C246.845 36.6653 248.043 38.276 249.422 39.7248C249.091 40.219 248.63 40.6122 248.089 40.8609C247.549 41.1096 246.95 41.2043 246.359 41.1345L245.854 34.928Z" fill="#892B29"/>
<path d="M238.62 34.1771C238.62 35.1422 238.176 35.9542 237.532 35.9853C236.889 36.0163 236.322 35.2654 236.276 34.2992C236.23 33.333 236.706 32.5221 237.348 32.491C237.991 32.46 238.562 33.2119 238.62 34.1771Z" fill="#263238"/>
<path d="M237.092 32.5531L239.145 31.618C239.145 31.618 238.195 33.4412 237.092 32.5531Z" fill="#263238"/>
<path d="M250.617 33.3501C250.617 34.3152 250.188 35.1282 249.546 35.1582C248.903 35.1883 248.336 34.4384 248.29 33.4722C248.244 32.506 248.719 31.6941 249.361 31.664C250.004 31.634 250.571 32.3849 250.617 33.3501Z" fill="#263238"/>
<path d="M249.101 31.7261L251.154 30.791C251.154 30.791 250.204 32.6142 249.101 31.7261Z" fill="#263238"/>
<path d="M233.201 28.5222C233.08 28.5224 232.962 28.4849 232.864 28.4151C232.806 28.3702 232.757 28.3142 232.721 28.2504C232.685 28.1866 232.662 28.1162 232.654 28.0434C232.645 27.9706 232.651 27.8969 232.671 27.8264C232.692 27.756 232.726 27.6903 232.772 27.6332C233.465 26.8685 234.328 26.2764 235.291 25.904C236.253 25.5315 237.29 25.3889 238.317 25.4876C238.463 25.5068 238.596 25.5807 238.69 25.6944C238.784 25.8081 238.831 25.9531 238.822 26.1003C238.817 26.1737 238.796 26.2452 238.762 26.3103C238.728 26.3754 238.68 26.4328 238.623 26.4788C238.565 26.5248 238.499 26.5585 238.428 26.5778C238.357 26.5971 238.283 26.6015 238.21 26.5909C237.364 26.5143 236.512 26.6287 235.717 26.9258C234.922 27.2228 234.203 27.6948 233.614 28.307C233.565 28.3699 233.502 28.4216 233.431 28.4585C233.359 28.4955 233.281 28.5168 233.201 28.5212V28.5222Z" fill="#263238"/>
<path d="M251.537 26.684C251.437 26.7138 251.331 26.7138 251.231 26.684C250.633 26.245 249.944 25.9452 249.215 25.8067C248.487 25.6681 247.736 25.6942 247.019 25.883C246.952 25.9125 246.879 25.928 246.806 25.9284C246.733 25.9289 246.66 25.9143 246.593 25.8856C246.525 25.8569 246.464 25.8147 246.414 25.7615C246.363 25.7084 246.324 25.6455 246.299 25.5767C246.272 25.5093 246.258 25.4372 246.259 25.3645C246.259 25.2918 246.274 25.2199 246.303 25.153C246.331 25.0861 246.372 25.0255 246.424 24.9747C246.476 24.9238 246.538 24.8838 246.605 24.8568C247.486 24.6022 248.412 24.5485 249.316 24.6996C250.22 24.8507 251.078 25.2028 251.828 25.7299C251.89 25.7688 251.943 25.8197 251.985 25.8794C252.027 25.9391 252.056 26.0065 252.072 26.0777C252.088 26.149 252.089 26.2226 252.076 26.2943C252.063 26.3661 252.036 26.4346 251.996 26.4958C251.94 26.5611 251.869 26.612 251.789 26.6441C251.709 26.6761 251.623 26.6885 251.537 26.68V26.684Z" fill="#263238"/>
<path d="M224.224 37.6252C224.224 37.6252 229.447 27.7863 228.406 20.3393C228.406 20.3393 251.46 10.118 253.298 33.7946C253.298 33.7946 254.968 12.6771 234.718 12.8002C214.469 12.9234 215.403 42.5452 226.112 51.1116C226.109 51.0655 220.992 43.7707 224.224 37.6252Z" fill="#263238"/>
<path d="M226.217 40.0622C226.146 39.3852 225.942 38.7289 225.617 38.131C225.293 37.5331 224.853 37.0053 224.323 36.578C223.793 36.1508 223.185 35.8324 222.532 35.6414C221.879 35.4503 221.195 35.3902 220.518 35.4646C216.888 35.9702 215.356 43.5104 224.485 45.0582C225.802 45.3025 226.538 44.016 226.217 40.0622Z" fill="#9F5B53"/>
<path d="M246.313 45.4717C245.315 46.5444 244.393 47.6862 243.556 48.8889L242.855 48.5515C239.715 47.0186 238.765 45.2565 238.673 43.7697C238.642 42.6327 239.011 41.5208 239.715 40.6279C241.23 42.4415 243.116 43.9095 245.245 44.9331C245.885 45.2875 246.313 45.4717 246.313 45.4717Z" fill="#263238"/>
<path d="M245.24 44.9351L244.413 45.9163C241.456 44.3834 239.557 43.0348 239.082 41.6711C239.24 41.2952 239.451 40.9441 239.71 40.6289C241.225 42.4429 243.111 43.9113 245.24 44.9351Z" fill="white"/>
<path d="M242.852 48.5525C239.712 47.0196 238.762 45.2575 238.67 43.7707C239.865 44.3788 240.943 45.1921 241.857 46.1736C242.425 46.8451 242.773 47.6759 242.852 48.5525Z" fill="#DE5753"/>
<path d="M266.181 127.734L206.318 136.796L208.157 86.7607L260.544 85.4892C260.544 85.4892 266.916 106.648 266.181 127.734Z" fill="#263238"/>
<path d="M213.196 142.768L261.34 138.492C261.34 138.492 266.027 87.2152 258.49 65.1636L255.014 65.3168C247.108 65.7303 227.058 67.2321 209.719 72.1821C208.555 72.5034 207.436 72.8559 206.316 73.1933C206.318 73.1933 214.973 106.634 213.196 142.768Z" fill="#92E3A9"/>
<path d="M213.196 142.768L261.34 138.492C261.34 138.492 266.027 87.2152 258.49 65.1636L255.014 65.3168C247.108 65.7303 227.058 67.2321 209.719 72.1821C208.555 72.5034 207.436 72.8559 206.316 73.1933C206.318 73.1933 214.973 106.634 213.196 142.768Z" fill="white"/>
<path d="M209.688 72.1821C210.147 72.6266 226.844 88.9023 240.952 84.8404C254.416 80.9356 254.968 66.9717 254.983 65.3167C247.11 65.7272 227.058 67.2291 209.688 72.1821Z" fill="#9F5B53"/>
<path d="M202.442 142.768L204.128 144.301L204.955 145.002C219.354 116.145 212.032 71.1368 212.032 71.1368L206.318 73.2514C206.686 80.3159 206.702 87.5797 206.519 94.6142C206.043 110.727 204.683 126.801 202.444 142.764L202.442 142.768Z" fill="#263238"/>
<path d="M252.303 65.1636C252.303 65.1636 267.62 98.6481 263.991 133.313L266.901 130.968C266.901 130.968 266.549 80.1667 258.494 65.1636H252.303Z" fill="#263238"/>
<path d="M204.954 144.944L204.127 144.243L202.441 142.71C202.441 142.71 204.724 127.6 205.919 108.138C206.164 104.215 206.348 100.108 206.486 95.8777V94.453C206.67 87.4185 206.654 80.1547 206.285 73.0901L211.999 70.9756C211.999 70.9756 219.338 116.087 204.954 144.944Z" fill="white"/>
<path d="M252.303 65.1636C252.303 65.1636 267.62 98.6481 263.991 133.313L266.901 130.968C266.901 130.968 266.549 80.1667 258.494 65.1636H252.303Z" fill="white"/>
<path d="M238.088 39.894C237.014 39.8976 235.963 39.582 235.069 38.9873C234.174 38.3926 233.476 37.5456 233.064 36.5536C232.651 35.5617 232.542 34.4695 232.751 33.4156C232.96 32.3616 233.476 31.3934 234.236 30.6337C234.995 29.874 235.963 29.357 237.016 29.1482C238.07 28.9395 239.162 29.0485 240.153 29.4613C241.145 29.8741 241.991 30.5721 242.586 31.467C243.18 32.3618 243.495 33.413 243.492 34.4874C243.487 35.9199 242.916 37.2923 241.904 38.3052C240.891 39.3181 239.52 39.8892 238.088 39.894ZM238.088 29.8258C238.096 30.3295 238.303 30.8096 238.663 31.1615C239.023 31.5133 239.508 31.7085 240.011 31.7045C240.515 31.7005 240.996 31.4976 241.351 31.1399C241.705 30.7823 241.904 30.299 241.904 29.7953C241.904 29.2915 241.705 28.8082 241.351 28.4506C240.996 28.093 240.515 27.89 240.011 27.886C239.508 27.882 239.023 28.0772 238.663 28.4291C238.303 28.781 238.096 29.2611 238.088 29.7647V29.8258Z" fill="#263238"/>
<path d="M251.276 37.8245C250.203 37.8245 249.155 37.5063 248.264 36.9103C247.372 36.3142 246.677 35.467 246.266 34.4758C245.856 33.4846 245.749 32.3939 245.958 31.3416C246.167 30.2894 246.684 29.3228 247.442 28.5642C248.2 27.8055 249.166 27.2889 250.218 27.0796C251.27 26.8703 252.36 26.9777 253.351 27.3883C254.342 27.7988 255.188 28.4941 255.784 29.3862C256.38 30.2783 256.698 31.327 256.698 32.3999C256.698 33.8386 256.127 35.2184 255.11 36.2357C254.093 37.253 252.714 37.8245 251.276 37.8245ZM251.276 27.7413C250.367 27.7413 249.479 28.0109 248.723 28.5161C247.967 29.0213 247.378 29.7393 247.03 30.5794C246.682 31.4195 246.591 32.3439 246.769 33.2358C246.946 34.1276 247.384 34.9468 248.026 35.5898C248.669 36.2328 249.488 36.6707 250.379 36.8481C251.271 37.0255 252.195 36.9344 253.035 36.5864C253.874 36.2385 254.592 35.6492 255.097 34.8931C255.602 34.137 255.871 33.2481 255.871 32.3388C255.871 31.1195 255.387 29.9501 254.525 29.0879C253.664 28.2257 252.495 27.7413 251.276 27.7413Z" fill="#263238"/>
<path d="M243.005 33.7636C242.91 33.7636 242.818 33.7311 242.744 33.6715C242.674 33.597 242.634 33.4983 242.634 33.3956C242.634 33.293 242.674 33.1942 242.744 33.1198C243.369 32.4254 244.234 31.993 245.164 31.9093C245.449 31.925 245.727 32.0053 245.976 32.144C246.226 32.2828 246.441 32.4764 246.604 32.7103C246.66 32.7905 246.683 32.889 246.669 32.9857C246.655 33.0824 246.604 33.17 246.528 33.2306C246.451 33.2911 246.354 33.3202 246.257 33.3117C246.159 33.3032 246.069 33.2578 246.004 33.1849C245.906 33.0405 245.776 32.9201 245.625 32.8326C245.474 32.7451 245.305 32.6927 245.131 32.6793C244.431 32.7807 243.787 33.1217 243.309 33.6444C243.272 33.6884 243.225 33.7225 243.172 33.7433C243.119 33.7641 243.061 33.7711 243.005 33.7636Z" fill="#263238"/>
<path d="M221.942 35.5718C221.843 35.5727 221.747 35.5348 221.675 35.4661C221.602 35.3975 221.56 35.3034 221.556 35.2038C221.552 35.1043 221.587 35.0071 221.653 34.9328C221.719 34.8585 221.812 34.813 221.911 34.8058L232.971 34.0399C233.022 34.0338 233.074 34.0381 233.124 34.0527C233.174 34.0672 233.22 34.0915 233.26 34.1243C233.3 34.1571 233.333 34.1977 233.357 34.2435C233.381 34.2894 233.395 34.3396 233.399 34.3911C233.403 34.4427 233.397 34.4946 233.381 34.5436C233.364 34.5927 233.338 34.638 233.304 34.6767C233.269 34.7154 233.228 34.7468 233.181 34.769C233.134 34.7912 233.084 34.8037 233.032 34.8058L221.972 35.5718H221.942Z" fill="#263238"/>
<path d="M205.92 108.197C206.165 104.274 206.349 100.167 206.487 95.9368C207.051 95.8793 207.621 95.9207 208.172 96.0589C208.243 100.215 207.477 104.343 205.92 108.197Z" fill="black"/>
<path d="M162.723 122.356L146.655 125.605C146.655 125.605 143.667 122.31 141.768 121.942C138.454 121.852 135.137 121.99 131.842 122.356C131.842 122.356 130.31 134.692 131.842 135.719C133.374 136.746 143.912 136.32 145.521 135.719C147.129 135.118 147.941 132.225 147.941 132.225L162.722 129.083L162.723 122.356Z" fill="#9F5B53"/>
<path d="M206.317 73.1943C201.477 74.9874 189.345 111.261 187.936 112.671C186.527 114.081 152.215 122.647 152.215 122.647L154.417 131.627C154.417 131.627 189.893 125.651 192.987 123.965C196.082 122.279 208.167 96.074 208.167 96.074L206.317 73.1943Z" fill="#263238"/>
<path d="M206.317 73.1943C201.477 74.9874 189.345 111.261 187.936 112.671C186.527 114.081 152.215 122.647 152.215 122.647L154.417 131.627C154.417 131.627 189.893 125.651 192.987 123.965C196.082 122.279 208.167 96.074 208.167 96.074L206.317 73.1943Z" fill="white"/>
<path d="M257.327 91.0319L256.316 91.2461L256.025 89.8975C256.794 89.5222 257.398 88.8767 257.722 88.0842C258.046 87.2916 258.067 86.4075 257.78 85.6005C257.494 84.7936 256.921 84.1204 256.17 83.7093C255.419 83.2982 254.544 83.1781 253.71 83.3719C252.876 83.5657 252.143 84.0598 251.651 84.7599C251.158 85.46 250.94 86.3171 251.039 87.1676C251.137 88.0181 251.546 88.8025 252.186 89.371C252.826 89.9396 253.653 90.2524 254.508 90.2499L254.815 91.5835L253.804 91.8138L254.141 93.3467L255.152 93.1164L255.352 94.0355L256.884 93.6981L256.67 92.779L257.681 92.5487L257.327 91.0319ZM253.452 88.3957C253.227 88.2556 253.033 88.0726 252.88 87.857C252.727 87.6415 252.618 87.3978 252.56 87.14C252.501 86.8821 252.495 86.6153 252.54 86.3548C252.585 86.0943 252.681 85.8454 252.823 85.6223C252.965 85.4012 253.148 85.2102 253.364 85.0604C253.579 84.9105 253.823 84.8048 254.079 84.7493C254.226 84.7257 254.376 84.7257 254.523 84.7493C254.9 84.7494 255.267 84.8613 255.58 85.0706C255.804 85.207 255.999 85.3872 256.151 85.6006C256.304 85.8139 256.412 86.056 256.469 86.3121C256.53 86.57 256.538 86.8375 256.493 87.0987C256.449 87.3598 256.352 87.6093 256.209 87.8324C256.066 88.0554 255.88 88.2474 255.661 88.397C255.443 88.5466 255.196 88.6507 254.937 88.703C254.681 88.7557 254.418 88.7556 254.162 88.7028C253.907 88.6499 253.665 88.5454 253.452 88.3957Z" fill="white"/>
<path d="M176.218 27.1586C172.245 28.6846 168.787 31.3081 166.246 34.7236C163.705 38.1391 162.186 42.2063 161.865 46.4519C160.67 61.3479 148.755 72.6837 153.196 83.7831C157.636 94.8825 196.867 86.6946 205.277 71.6003C213.686 56.5061 215.999 41.9465 209.107 33.3651C202.214 24.7837 180.585 17.8253 176.218 27.1586Z" fill="#263238"/>
<path d="M202.688 71.2629C202.688 71.2629 183.984 104.426 179.711 142.201L133.297 144.714C133.297 144.714 132.697 117.666 138.736 95.0307C138.904 94.4019 139.073 93.7742 139.256 93.1454C140.401 89.0491 141.887 85.056 143.698 81.208C143.924 80.7275 144.212 80.279 144.556 79.8744C145.726 78.4429 147.407 77.5247 149.244 77.3153L202.688 71.2629Z" fill="#92E3A9"/>
<path d="M101.635 385.65L95.8906 378.126L105.633 368.715L114.502 360.18L122.819 367.966L111.622 377.329L101.635 385.65Z" fill="#EBB376"/>
<path d="M95.5544 375.827C96.397 375.215 103.535 385.911 103.535 385.911C103.535 385.911 102.003 397.052 105.175 404.3C108.346 411.548 102.111 410.874 96.9334 404.07L84.0665 387.212C80.3737 382.325 86.8096 382.202 95.5544 375.827Z" fill="#263238"/>
<path d="M105.954 393.971C104.331 393.604 103.289 388.975 103.09 388.056C103.075 388.011 103.075 387.963 103.09 387.918C103.084 387.883 103.084 387.846 103.09 387.811H103.212C103.365 387.811 106.368 386.815 108.007 387.811C108.257 387.951 108.473 388.144 108.64 388.377C108.807 388.61 108.92 388.878 108.972 389.16C109.06 389.39 109.074 389.641 109.014 389.88C108.954 390.118 108.821 390.333 108.634 390.493C108.068 390.861 106.98 390.493 105.907 390.064C106.641 390.725 107.172 391.58 107.439 392.531C107.483 392.928 107.37 393.327 107.124 393.642C106.878 393.957 106.518 394.163 106.122 394.217L105.954 393.971ZM106.107 393.313C106.185 393.313 106.384 393.389 106.708 392.975C106.768 392.895 106.809 392.803 106.83 392.705C106.851 392.607 106.851 392.506 106.83 392.408C106.692 391.351 105.099 389.805 103.981 388.853C104.484 390.832 105.357 393.144 106.107 393.313ZM104.254 388.117C105.969 389.19 107.869 390.049 108.357 389.65C108.51 389.558 108.464 389.221 108.357 389.021C108.319 388.836 108.242 388.661 108.131 388.508C108.02 388.354 107.878 388.226 107.714 388.132C107.24 387.893 106.712 387.777 106.182 387.795C105.529 387.832 104.883 387.94 104.254 388.117Z" fill="#92E3A9"/>
<path d="M111.622 377.329L105.633 368.719L114.502 360.18L122.819 367.966L111.622 377.329Z" fill="black"/>
<path d="M159.215 397.573H149.749L146.793 372.271L158.036 370.448L159.215 397.573Z" fill="#EBB376"/>
<path d="M147.726 396.96C147.726 395.918 160.578 396.746 160.578 396.746C160.578 396.746 168.467 404.775 176.126 406.569C183.785 408.362 179.512 412.976 170.948 412.976H149.749C143.667 412.974 147.466 407.791 147.726 396.96Z" fill="#263238"/>
<path d="M162.003 398.4C161.962 398.383 161.925 398.357 161.896 398.324C161.893 398.288 161.893 398.252 161.896 398.217C161.888 398.181 161.888 398.145 161.896 398.109C161.881 398.065 161.881 398.016 161.896 397.971C161.896 397.818 163.03 394.907 164.76 394.125C165.02 394.007 165.302 393.946 165.588 393.946C165.873 393.946 166.155 394.007 166.415 394.125C166.997 394.416 167.287 394.768 167.257 395.213C167.257 395.887 166.308 396.562 165.266 397.115C166.237 396.955 167.234 397.066 168.146 397.437C168.313 397.527 168.459 397.652 168.575 397.802C168.691 397.952 168.774 398.125 168.82 398.31C168.913 398.541 168.934 398.796 168.88 399.039C168.825 399.283 168.697 399.504 168.513 399.673C168.181 399.901 167.781 400.009 167.38 399.98C165.509 399.772 163.689 399.238 162.003 398.401V398.4ZM163.183 398.185C165.068 398.986 167.427 399.718 168.024 399.197C168.024 399.197 168.238 399.012 168.116 398.507C168.055 398.317 167.923 398.158 167.749 398.062C167.267 397.85 166.742 397.756 166.217 397.787C165.194 397.816 164.178 397.95 163.183 398.187V398.185ZM164.961 394.752C163.948 395.409 163.175 396.377 162.759 397.511C164.66 396.791 166.497 395.795 166.527 395.208C166.527 395.04 166.252 394.87 166.067 394.778C165.885 394.691 165.687 394.644 165.485 394.64C165.305 394.646 165.128 394.684 164.961 394.752Z" fill="#92E3A9"/>
<path d="M158.662 385.099L148.2 384.639L146.791 372.41L158.034 370.508L158.662 385.099Z" fill="black"/>
<path d="M182.866 169.648C182.866 169.648 210.837 235.82 215.233 264.845C219.63 293.87 120.26 371.736 120.26 371.736L110.122 360.916C110.122 360.916 184.061 284.875 184.061 271.788C184.061 258.7 155.217 198.949 155.217 198.949C155.217 198.949 152.399 174.858 182.866 169.648Z" fill="#263238"/>
<path d="M162.601 335.523C152.445 344.886 142.686 353.33 135.029 359.705C126.16 367.122 120.262 371.734 120.262 371.734L110.122 360.916C110.122 360.916 120.277 350.481 133.098 336.673C143.147 325.808 154.834 312.844 164.484 301.257C175.651 287.817 184.106 276.201 184.106 271.788C184.106 264.891 176.08 245.015 168.512 227.775C161.707 212.313 155.262 198.949 155.262 198.949C155.075 196.201 155.346 193.441 156.063 190.782C158.023 183.288 164.151 172.882 182.961 169.649C182.961 169.649 210.932 235.821 215.328 264.846C217.638 280.721 189.039 311.141 162.601 335.523Z" fill="white"/>
<path d="M164.393 301.257L162.601 335.523C152.445 344.886 142.686 353.33 135.029 359.705C133.268 352.178 132.596 344.437 133.032 336.719C143.055 325.808 154.743 312.842 164.393 301.257Z" fill="black"/>
<path d="M168.421 227.775C161.616 212.313 155.171 198.949 155.171 198.949C154.984 196.201 155.255 193.441 155.972 190.782C156.948 190.154 158.026 189.703 159.158 189.448C159.158 189.448 167.426 202.444 168.421 227.775Z" fill="black"/>
<path d="M180.169 141.573L133.464 144.485V144.685H133.372C133.372 144.685 107.452 197.264 145.336 377.927H161.465V282.622L159.643 189.447L184.304 182.244C184.304 182.244 182.575 153.437 180.169 141.573Z" fill="#263238"/>
<path d="M180.169 141.573L133.464 144.485V144.685H133.372C133.372 144.685 107.452 197.264 145.336 377.927H161.465V282.622L159.643 189.447L184.304 182.244C184.304 182.244 182.575 153.437 180.169 141.573Z" fill="white"/>
<path d="M143.208 375.674L163.029 372.778L161.375 380.7L145.015 382.903L143.208 375.674Z" fill="#92E3A9"/>
<path d="M110.075 357.269L123.371 371.735L116.723 375.54L106.46 364.64L110.075 357.269Z" fill="#92E3A9"/>
<path d="M148.952 150.523L174.962 149.466L174.748 142.523L148.753 144.193L148.952 150.523Z" fill="#263238"/>
<path d="M146.455 144.346L133.864 145.158L131.842 151.227L146.654 150.614L146.455 144.346Z" fill="#263238"/>
<path d="M177.045 142.37L177.259 149.373L180.828 149.22L179.71 142.202L177.045 142.37Z" fill="#263238"/>
<path d="M168.16 142.653L159.317 143.206C158.964 143.228 158.696 143.532 158.718 143.886L159.093 149.887C159.115 150.24 159.419 150.509 159.772 150.487L168.615 149.933C168.968 149.911 169.236 149.607 169.214 149.254L168.839 143.252C168.817 142.899 168.513 142.63 168.16 142.653Z" fill="white"/>
<path d="M193.251 72.3362C178.5 96.136 139.225 93.1474 139.225 93.1474C140.37 89.0508 141.856 85.0573 143.667 81.209C144.189 80.1454 144.971 79.231 145.94 78.5505C146.91 77.87 148.035 77.4454 149.213 77.3163L193.251 72.3362Z" fill="#EBB376"/>
<path d="M185.762 76.305C183.572 79.6833 180.577 82.464 177.046 84.3968C165.726 82.083 161.07 77.3934 161.07 77.3934C164.324 76.6815 167.266 74.9498 169.469 72.4501C171.672 69.9503 173.02 66.8127 173.318 63.4935C173.318 63.4935 173.318 63.4164 173.318 63.3864C173.362 63.0714 173.388 62.7542 173.395 62.4363L174.33 62.9879L185.251 69.4548C183.967 70.1644 182.942 71.2649 182.325 72.5966C182.207 72.9682 182.206 73.367 182.321 73.7394C182.436 74.1119 182.662 74.4404 182.968 74.6811C183.79 75.3901 184.735 75.9407 185.757 76.305H185.762Z" fill="#EBB376"/>
<path d="M182.284 72.5966C182.166 72.9682 182.165 73.367 182.28 73.7394C182.395 74.1119 182.621 74.4404 182.927 74.6811C175.269 76.3972 173.736 64.3686 173.262 63.4935V63.4014C173.583 63.2482 173.936 63.1261 174.273 63.0009L185.194 69.4678C183.918 70.1759 182.9 71.2702 182.284 72.5936V72.5966Z" fill="black"/>
<path d="M189.974 69.8382C189.974 69.8382 181.948 77.117 189.131 86.0058C189.448 83.5159 190.414 81.1533 191.933 79.1555C194.307 76.3971 198.338 76.0908 200.267 73.4235C198.909 75.3903 197.194 77.085 195.212 78.4196C195.212 78.4196 203.744 74.7572 205.766 70.7573C207.788 66.7575 195.901 65.1335 189.974 69.8382Z" fill="#263238"/>
<path d="M200.498 69.4848C200.268 69.8522 200.054 70.2207 199.824 70.5571C196.899 74.9094 192.686 76.9168 186.714 75.3539C185.84 75.1375 184.981 74.8663 184.141 74.5419L182.487 73.822C163.11 64.7801 172.53 27.5721 192.459 32.0315C204.453 34.6977 206.87 42.0075 204.988 54.5587C204.4 59.7633 202.88 64.8193 200.5 69.4848H200.498Z" fill="#EBB376"/>
<path d="M197.326 52.1528C197.887 54.1608 198.684 56.095 199.7 57.9148C199.241 58.335 198.674 58.6192 198.063 58.7355C197.452 58.8519 196.82 58.7958 196.239 58.5736L197.326 52.1528Z" fill="#D58745"/>
<path d="M186.328 42.422C186.246 42.4249 186.164 42.4083 186.089 42.3735C186.015 42.3387 185.949 42.2867 185.899 42.2218C185.853 42.1647 185.819 42.099 185.798 42.0285C185.778 41.9581 185.772 41.8843 185.781 41.8115C185.789 41.7387 185.812 41.6684 185.848 41.6045C185.884 41.5407 185.933 41.4847 185.991 41.4399C186.883 40.845 187.902 40.4683 188.966 40.3405C190.031 40.2127 191.11 40.3372 192.117 40.704C192.25 40.7586 192.357 40.8627 192.415 40.9943C192.473 41.1259 192.477 41.2749 192.428 41.4098C192.378 41.5447 192.278 41.6551 192.149 41.7179C192.019 41.7806 191.871 41.7908 191.734 41.7462C190.901 41.4516 190.012 41.3496 189.134 41.4477C188.256 41.5459 187.412 41.8417 186.664 42.3129C186.565 42.3817 186.448 42.419 186.327 42.42L186.328 42.422Z" fill="#263238"/>
<path d="M205.322 45.2675C205.172 45.2651 205.028 45.2049 204.921 45.0993C204.427 44.4955 203.802 44.012 203.093 43.6854C202.385 43.3588 201.611 43.1976 200.831 43.214C200.686 43.2271 200.54 43.1834 200.426 43.092C200.312 43.0005 200.238 42.8685 200.219 42.7234C200.201 42.5794 200.241 42.4343 200.33 42.3197C200.419 42.205 200.549 42.1299 200.693 42.1107C201.647 42.0713 202.597 42.251 203.471 42.6362C204.344 43.0213 205.118 43.6015 205.733 44.3324C205.809 44.4113 205.86 44.5111 205.88 44.6192C205.899 44.7274 205.885 44.8388 205.841 44.9392C205.797 45.0396 205.723 45.1245 205.63 45.183C205.538 45.2415 205.429 45.2709 205.32 45.2675H205.322Z" fill="#263238"/>
<path d="M174.763 49.3184C174.763 49.3184 182.575 40.721 183.433 32.9205C183.433 32.9205 209.366 28.5222 205.15 52.9197C205.15 52.9197 212.255 32.0014 191.746 26.8672C171.237 21.733 164.572 51.9846 173.212 63.3554C173.216 63.4014 169.861 54.7129 174.763 49.3184Z" fill="#263238"/>
<path d="M176.157 52.291C176.263 51.5864 176.227 50.868 176.053 50.1773C175.879 49.4865 175.569 48.8373 175.142 48.2674C174.715 47.6974 174.179 47.218 173.565 46.857C172.951 46.496 172.271 46.2607 171.566 46.1646C167.752 45.7351 164.274 52.9728 173.098 56.8915C174.457 57.4863 175.422 56.3669 176.157 52.291Z" fill="#EBB376"/>
<path d="M194.722 61.1337C193.625 62.0756 192.601 63.1002 191.659 64.1984L191.001 63.7849C188.029 61.9307 187.263 60.0804 187.325 58.6056C187.366 57.8805 187.581 57.176 187.953 56.5521C188.149 56.1909 188.397 55.8604 188.689 55.5709C190.007 57.5338 191.73 59.1905 193.744 60.4288C194.37 60.9044 194.722 61.1337 194.722 61.1337Z" fill="#263238"/>
<path d="M192.839 61.3479C190.051 59.5858 188.243 57.9608 187.983 56.5662C188.179 56.205 188.427 55.8744 188.719 55.585C190.016 57.5526 191.718 59.2196 193.713 60.4739L192.839 61.3479Z" fill="white"/>
<path d="M190.97 63.8299C187.998 61.9757 187.232 60.1255 187.294 58.6497C188.404 59.3791 189.379 60.297 190.174 61.362C190.689 62.0819 190.967 62.9446 190.97 63.8299Z" fill="#DE5753"/>
<path d="M189.943 48.4754C189.775 49.4566 189.115 50.1774 188.411 50.0082C187.706 49.839 187.354 49.012 187.51 48.0318C187.666 47.0516 188.338 46.3298 189.042 46.499C189.408 46.6606 189.702 46.9512 189.869 47.3156C190.035 47.68 190.061 48.0928 189.943 48.4754Z" fill="#263238"/>
<path d="M188.764 46.499L191.047 46.0084C191.047 46.0084 189.683 47.6323 188.764 46.499Z" fill="#263238"/>
<path d="M202.243 50.2675C202.09 51.2487 201.416 51.9696 200.711 51.8004C200.007 51.6312 199.654 50.8042 199.822 49.808C199.991 48.8118 200.634 48.1059 201.355 48.2751C202.075 48.4443 202.411 49.2723 202.243 50.2675Z" fill="#263238"/>
<path d="M201.064 48.2761L203.347 47.7855C203.347 47.7855 202.029 49.4255 201.064 48.2761Z" fill="#263238"/>
<path d="M193.251 95.9668C193.59 94.1792 194.104 92.4291 194.784 90.7415C195.534 89.3318 204.618 82.8029 204.618 82.8029C204.618 82.8029 210.745 90.0056 210.975 90.4652C211.205 90.9247 204.143 101.391 197.865 100.426L193.251 95.9668Z" fill="#EBB376"/>
<path d="M155.615 108.62C148.31 106.137 142.38 99.8395 138.766 95.0267C138.934 94.3979 139.103 93.7702 139.286 93.1414C140.431 89.0448 141.917 85.0513 143.728 81.203C143.954 80.7225 144.242 80.274 144.586 79.8693C150.943 89.3158 165.572 112.011 155.615 108.62Z" fill="black"/>
<path d="M170.214 118.05C169.887 118.072 169.559 118.072 169.233 118.05C167.306 117.794 165.559 116.784 164.376 115.241C163.193 113.698 162.67 111.749 162.922 109.821C163.045 108.864 163.358 107.942 163.842 107.107C164.326 106.273 164.971 105.544 165.74 104.963C166.665 104.252 167.746 103.773 168.893 103.564C170.04 103.355 171.22 103.422 172.336 103.76C173.452 104.099 174.471 104.698 175.309 105.509C176.147 106.32 176.78 107.319 177.156 108.423C177.531 109.528 177.637 110.706 177.467 111.86C177.296 113.014 176.853 114.11 176.175 115.059C175.496 116.007 174.601 116.78 173.564 117.314C172.528 117.847 171.379 118.126 170.213 118.127L170.214 118.05ZM170.214 105.668C169.268 105.687 168.348 105.976 167.561 106.501C166.774 107.026 166.154 107.765 165.772 108.631C165.391 109.497 165.266 110.454 165.41 111.389C165.554 112.324 165.963 113.199 166.587 113.909C167.212 114.62 168.026 115.138 168.934 115.401C169.843 115.664 170.808 115.662 171.715 115.395C172.622 115.128 173.435 114.607 174.056 113.894C174.677 113.18 175.082 112.304 175.223 111.368C175.316 110.656 175.257 109.931 175.048 109.244C174.839 108.556 174.485 107.921 174.011 107.381C173.537 106.841 172.952 106.409 172.297 106.114C171.643 105.818 170.932 105.666 170.214 105.668Z" fill="white"/>
<path d="M168.254 116.76L166.925 126.814L169.202 127.115L170.531 117.061L168.254 116.76Z" fill="white"/>
<path d="M164.878 120.931L164.577 123.209L172.531 124.261L172.832 121.983L164.878 120.931Z" fill="white"/>
<path d="M144.158 80.2738C134.262 86.7867 157.745 118.585 165.924 121.524C174.104 124.462 199.624 98.5369 199.624 98.5369L194.645 94.5221C194.645 94.5221 172.159 109.847 169.463 109.601C166.767 109.356 158.741 92.1622 154.344 84.3458C150.698 77.7448 146.47 78.756 144.158 80.2738Z" fill="#EBB376"/>
</svg>
