<svg width="379" height="334" viewBox="0 0 379 334" fill="none" xmlns="http://www.w3.org/2000/svg">
<path d="M369.216 118.355C368.842 114.507 368.415 110.659 367.937 106.811C365.098 84.0697 360.509 57.3377 344.087 40.154C327.664 22.9703 304.004 14.4774 280.344 14.0486C246.847 13.4467 228.353 36.4105 216.634 55.5154C201.978 79.5016 207.094 113.473 187.511 133.642C176.114 145.375 159.015 149.308 142.799 151.403C126.582 153.497 109.689 154.388 95.1485 161.875C67.915 175.892 56.2459 211.645 65.2164 240.875C74.187 270.105 100.356 291.997 129.504 301.29C158.652 310.583 212.855 321.904 242.688 315.011C257.658 311.523 271.811 310.179 286.146 303.788C299.484 297.9 311.754 289.845 322.457 279.951C344.169 259.65 358.133 232.027 364.991 203.35C371.593 175.628 371.964 146.777 369.216 118.355Z" fill="#EBEBEB"/>
<path d="M150.044 46.3793C142.997 24.7266 127.556 8.03761 101.759 2.01012C75.7962 -5.64998 46.153 9.5218 33.3781 31.6033C20.5123 53.8663 24.49 83.9872 41.383 103.339C60.1659 124.885 94.0013 131.984 119.444 118.957C144.887 105.929 158.908 73.5484 150.044 46.3793Z" fill="#EBEBEB"/>
<path d="M183.104 222.784C183.104 222.784 181.173 214.407 173.391 214.827C165.609 215.248 163.719 215.248 160.36 214.827C157.001 214.407 151.786 210.366 150.317 211.62C148.848 212.873 149.665 215.619 152.396 218.043C155.128 220.467 159.824 222.166 159.824 222.166L149.879 223.873C149.879 223.873 140.917 219.09 138.813 219.931C138.206 220.199 137.696 220.646 137.351 221.212C137.006 221.778 136.842 222.436 136.882 223.098C136.882 223.098 133.16 221.448 132.112 222.9C131.064 224.351 130.8 225.373 131.856 226.198C131.856 226.198 131.163 225.514 129.232 226.082C127.581 226.569 127.721 229.612 129.232 230.428L129.743 230.725C129.743 230.725 143.839 238.83 144.268 238.888C146.743 239.218 161.945 238.574 169.768 238.212C171.18 238.146 172.585 238.457 173.838 239.111C175.091 239.766 176.147 240.742 176.898 241.939L189.492 261.893L203.719 245.484L183.104 222.784Z" fill="#B78876"/>
<path d="M157.554 227.369C156.801 227.596 156.031 227.767 155.252 227.88C153.791 228.152 151.744 228.515 149.351 228.919H149.236L146.05 227.459L138.45 223.963L136.155 222.875C135.862 222.756 135.585 222.601 135.33 222.413C135.636 222.479 135.932 222.581 136.213 222.718L138.565 223.683L142.023 225.175L146.224 227.088L149.401 228.564H149.277C151.67 228.185 153.733 227.88 155.202 227.674C155.977 227.51 156.763 227.408 157.554 227.369Z" fill="#AA6550"/>
<path d="M154.063 231.104C151.753 231.987 149.771 233.559 148.386 235.606C148.844 234.418 149.613 233.374 150.611 232.582C151.609 231.791 152.801 231.28 154.063 231.104Z" fill="#AA6550"/>
<path d="M170.197 219.362C170.247 219.362 170.288 219.874 170.56 220.698C170.937 221.829 171.596 222.844 172.475 223.65L172.764 223.906L172.384 223.98C171.062 224.232 169.768 224.616 168.522 225.126C166.553 225.936 164.724 227.048 163.1 228.424C161.854 229.488 161.194 230.271 161.136 230.222C161.078 230.172 161.26 229.991 161.549 229.628C161.966 229.125 162.416 228.648 162.894 228.202C164.491 226.719 166.341 225.535 168.357 224.705C169.631 224.184 170.96 223.805 172.318 223.576L172.219 223.906C171.307 223.047 170.655 221.95 170.337 220.739C170.194 220.295 170.146 219.826 170.197 219.362Z" fill="#AA6550"/>
<path d="M160.88 221.737C159.138 222.438 157.317 222.928 155.458 223.197C153.931 223.477 152.537 223.675 151.53 223.774C150.985 223.869 150.43 223.891 149.879 223.84C149.879 223.708 152.355 223.345 155.376 222.776L159.254 222.009C159.784 221.857 160.33 221.766 160.88 221.737Z" fill="#AA6550"/>
<path d="M147.643 232.737C146.84 232.469 146.055 232.152 145.291 231.788C143.847 231.195 141.825 230.428 139.572 229.628C137.319 228.828 135.289 228.061 133.845 227.443C133.046 227.152 132.28 226.779 131.559 226.33C132.374 226.551 133.173 226.827 133.952 227.154L139.729 229.216C141.982 230.04 143.995 230.865 145.415 231.508C146.202 231.831 146.95 232.244 147.643 232.737Z" fill="#AA6550"/>
<path d="M151.225 232.399C149.324 233.27 147.186 233.482 145.151 233C145.151 232.877 146.537 232.951 148.196 232.778C149.855 232.605 151.192 232.275 151.225 232.399Z" fill="#AA6550"/>
<path d="M229.649 184.228C229.649 184.228 217.063 191.459 214.431 213.558C213.061 225.101 208.035 246.498 208.035 246.498L197.695 234.905L182.073 252.765C182.073 252.765 198.949 288.757 208.481 298.569C218.013 308.381 236.919 311.407 236.919 311.407L240.724 251.256L229.649 184.228Z" fill="#92E3A9"/>
<path d="M325.073 174.292L295.999 169.205L258.937 171.044C258.937 171.044 228.072 183.775 229.649 184.236L223.633 243.753L238.537 272.513L234.831 333.786H337.163L331.824 291.189L325.131 239.861L337.831 279.596L339.754 333.786H368.226C371.238 310.187 372.179 277.403 372.179 277.403L348.939 201.544C345.755 190.981 338.735 181.988 329.257 176.329C327.932 175.515 326.531 174.833 325.073 174.292Z" fill="#92E3A9"/>
<path d="M229.319 214.258L229.385 214.563C229.426 214.786 229.484 215.083 229.55 215.462C229.69 216.287 229.896 217.425 230.152 218.909C230.655 221.902 231.382 226.239 232.207 231.607C233.032 236.975 234.006 243.382 234.831 250.506C235.657 257.63 236.556 265.496 237.035 273.775C237.076 274.55 237.117 275.317 237.158 276.026C236.729 292.096 236.234 306.534 235.78 316.956C235.549 322.159 235.343 326.365 235.161 329.267C235.068 330.702 234.994 331.801 234.939 332.565C234.939 332.928 234.889 333.217 234.873 333.431C234.88 333.53 234.88 333.629 234.873 333.728C234.864 333.629 234.864 333.53 234.873 333.431C234.873 333.208 234.873 332.928 234.873 332.557C234.873 331.774 234.955 330.652 235.021 329.259C235.128 326.332 235.293 322.135 235.5 316.94C235.871 306.518 236.325 292.08 236.746 276.017C236.746 275.308 236.663 274.541 236.622 273.766C236.143 265.521 235.31 257.646 234.452 250.522C233.593 243.398 232.686 236.991 231.893 231.623C231.101 226.256 230.424 221.927 229.97 218.901L229.451 215.437C229.401 215.058 229.36 214.761 229.327 214.539C229.315 214.446 229.312 214.352 229.319 214.258Z" fill="#263238"/>
<path d="M318.52 217.491C318.469 217.37 318.439 217.242 318.43 217.111C318.38 216.806 318.314 216.443 318.24 216.006C318.24 215.759 318.166 215.495 318.124 215.182C318.083 214.869 318.075 214.572 318.05 214.225C317.981 213.447 317.956 212.665 317.976 211.884C317.976 211.447 317.976 210.993 317.976 210.523C317.976 210.053 318.058 209.558 318.108 209.047C318.212 207.964 318.377 206.888 318.603 205.823C319.137 203.383 319.928 201.006 320.963 198.732C322.046 196.481 323.36 194.347 324.883 192.366C325.56 191.504 326.281 190.679 327.045 189.893C327.4 189.53 327.73 189.167 328.085 188.846L329.117 187.947C329.703 187.432 330.317 186.95 330.957 186.504C331.238 186.298 331.493 186.1 331.782 185.943L332.467 185.523L333.433 184.954C333.543 184.885 333.659 184.827 333.779 184.781C333.779 184.781 333.689 184.88 333.474 185.028L332.566 185.663L331.898 186.108C331.658 186.281 331.411 186.487 331.147 186.694C330.524 187.157 329.927 187.652 329.356 188.178L328.357 189.085C328.011 189.406 327.689 189.777 327.342 190.14C326.596 190.925 325.893 191.751 325.238 192.614C322.193 196.533 320.064 201.083 319.007 205.93C318.775 206.981 318.599 208.044 318.479 209.113C318.421 209.616 318.347 210.094 318.322 210.564C318.298 211.034 318.281 211.48 318.265 211.917C318.199 212.741 318.265 213.566 318.265 214.234C318.265 214.58 318.265 214.893 318.265 215.19C318.265 215.487 318.322 215.743 318.355 216.015C318.397 216.452 318.43 216.839 318.454 217.12C318.492 217.24 318.514 217.365 318.52 217.491Z" fill="#263238"/>
<path d="M337.798 279.596C337.715 279.439 337.651 279.273 337.609 279.101C337.485 278.73 337.328 278.277 337.138 277.667C336.734 276.372 336.173 274.583 335.488 272.389C334.093 267.929 332.187 261.761 329.967 254.983C327.747 248.205 325.708 242.071 324.058 237.709C323.233 235.54 322.366 233.842 321.854 232.638C321.599 232.036 321.401 231.566 321.277 231.244C321.21 231.081 321.154 230.913 321.112 230.741C321.211 230.889 321.294 231.046 321.359 231.211L322.003 232.572C322.564 233.751 323.439 235.425 324.338 237.593C326.071 241.955 328.159 248.065 330.371 254.851C332.583 261.637 334.456 267.813 335.785 272.299C336.445 274.541 336.965 276.364 337.311 277.625C337.468 278.219 337.6 278.697 337.699 279.076C337.752 279.245 337.785 279.42 337.798 279.596Z" fill="#263238"/>
<path d="M359.247 277.7C359.247 277.774 358.141 277.46 356.35 277.18C354.02 276.827 351.655 276.772 349.311 277.015C346.969 277.27 344.67 277.824 342.469 278.664C340.819 279.324 339.796 279.868 339.754 279.802C339.953 279.625 340.175 279.475 340.414 279.357C341.041 278.994 341.688 278.669 342.354 278.384C344.554 277.442 346.882 276.83 349.261 276.57C351.642 276.309 354.048 276.406 356.4 276.858C357.112 276.988 357.815 277.165 358.504 277.386C358.765 277.456 359.015 277.561 359.247 277.7Z" fill="#263238"/>
<path d="M230.523 273.503C230.243 273.138 229.986 272.755 229.756 272.356C229.253 271.623 228.51 270.575 227.511 269.347C225.539 266.873 222.642 263.575 219.424 259.922C216.205 256.269 213.292 252.996 211.237 250.563C210.214 249.351 209.389 248.362 208.836 247.661C208.531 247.316 208.255 246.946 208.01 246.556C208.357 246.859 208.674 247.193 208.959 247.554L211.435 250.366L219.688 259.634C222.906 263.27 225.77 266.609 227.693 269.157C228.463 270.154 229.18 271.192 229.838 272.266C230.07 272.645 230.218 272.958 230.325 273.173C230.433 273.387 230.54 273.494 230.523 273.503Z" fill="#263238"/>
<path d="M236.209 311.407C236.672 294.751 237.538 279.398 236.028 262.956C235.351 277.551 230.037 294.628 224.681 308.224L236.209 311.407Z" fill="black"/>
<path d="M325.098 239.861C325.098 239.861 320.352 229.257 320.674 229.257C320.204 249.096 324.248 271.87 331.675 290.274L325.098 239.861Z" fill="black"/>
<path d="M312.05 296.095C311.868 296.228 311.678 296.349 311.481 296.458L309.83 297.423C308.386 298.247 306.298 299.501 303.748 301.076C301.198 302.65 298.153 304.506 294.671 306.46C290.936 308.607 287.033 310.449 283.001 311.968C278.956 313.518 274.681 314.388 270.35 314.541C268.452 314.546 266.563 314.268 264.747 313.716C263.161 313.231 261.68 312.453 260.381 311.424C258.465 309.955 257.085 307.898 256.453 305.569C256.297 304.94 256.212 304.296 256.197 303.648C256.193 303.425 256.207 303.201 256.238 302.98C256.276 303.84 256.403 304.694 256.618 305.528C257.3 307.786 258.681 309.769 260.563 311.193C261.847 312.178 263.302 312.919 264.854 313.378C266.64 313.892 268.492 314.139 270.35 314.112C274.63 313.932 278.852 313.06 282.853 311.531C286.864 310.016 290.751 308.194 294.481 306.081C297.93 304.151 300.984 302.304 303.559 300.779C306.133 299.253 308.246 298.049 309.715 297.241L311.423 296.343C311.624 296.24 311.834 296.157 312.05 296.095Z" fill="#263238"/>
<path d="M311.927 271.944C311.857 272.43 311.749 272.91 311.605 273.379C311.476 273.937 311.316 274.487 311.126 275.028C310.912 275.663 310.697 276.405 310.367 277.188C310.037 277.972 309.715 278.837 309.278 279.736C308.84 280.635 308.353 281.583 307.825 282.573C305.419 286.819 302.298 290.618 298.599 293.803C297.773 294.52 296.948 295.213 296.123 295.782C295.298 296.351 294.547 296.895 293.829 297.349C293.111 297.802 292.451 298.173 291.865 298.519C291.279 298.866 290.759 299.113 290.33 299.344C289.895 299.571 289.445 299.769 288.985 299.938C289.388 299.658 289.813 299.41 290.255 299.196C290.668 298.973 291.18 298.701 291.741 298.371C292.302 298.041 292.979 297.654 293.664 297.159C294.349 296.664 295.133 296.178 295.908 295.568C296.684 294.957 297.509 294.29 298.384 293.572C301.995 290.359 305.058 286.58 307.454 282.383C307.99 281.41 308.518 280.495 308.931 279.588C309.344 278.681 309.756 277.856 310.062 277.114C310.367 276.372 310.639 275.622 310.887 274.995C311.134 274.368 311.308 273.816 311.44 273.346C311.562 272.866 311.725 272.397 311.927 271.944Z" fill="#263238"/>
<path d="M230.779 233.916C230.779 234.031 226.455 233.182 221.181 232.019C215.908 230.857 211.642 229.826 211.675 229.711C211.708 229.595 215.991 230.436 221.272 231.599C226.554 232.761 230.804 233.8 230.779 233.916Z" fill="#FAFAFA"/>
<path d="M230.779 229.084C229.867 229.062 228.958 228.96 228.064 228.779C226.414 228.523 224.103 228.111 221.569 227.633L215.108 226.371C214.206 226.228 213.316 226.024 212.442 225.761C213.354 225.783 214.263 225.885 215.157 226.066C216.808 226.322 219.127 226.734 221.652 227.212L228.114 228.482C229.015 228.62 229.906 228.822 230.779 229.084Z" fill="#FAFAFA"/>
<path d="M318.677 229.735C318.677 229.851 300.101 229.809 277.183 229.636C254.266 229.463 235.698 229.224 235.698 229.109C235.698 228.993 254.274 229.034 277.192 229.208C300.109 229.381 318.677 229.587 318.677 229.735Z" fill="#FAFAFA"/>
<path d="M320.047 233.916C320.047 234.031 300.934 234.13 277.357 234.13C253.779 234.13 234.666 234.031 234.666 233.916C234.666 233.8 253.779 233.701 277.357 233.701C300.934 233.701 320.047 233.792 320.047 233.916Z" fill="#FAFAFA"/>
<path d="M354.84 224.12C354.84 224.12 354.84 224.12 354.939 224.12C355.038 224.12 354.865 224.12 354.815 224.17H354.741V224.087H355.104L354.848 224.178C353.33 224.738 346.942 226.899 339.408 229.768L328.3 234.031L324.933 235.317C324.527 235.495 324.107 235.638 323.678 235.746C324.055 235.517 324.453 235.323 324.867 235.169C325.651 234.823 326.781 234.344 328.168 233.751C330.982 232.58 334.885 231.005 339.234 229.364C346.785 226.495 353.264 224.466 354.807 224.087V224.178H354.708V224.095H354.782C354.832 224.095 354.873 224.095 354.906 224.161L354.84 224.12Z" fill="#FAFAFA"/>
<path d="M354.163 218.793C354.163 218.909 346.959 221.44 337.98 224.45C329.001 227.459 321.698 229.818 321.665 229.711C321.632 229.603 328.869 227.064 337.848 224.046C346.827 221.028 354.122 218.678 354.163 218.793Z" fill="#FAFAFA"/>
<path d="M298.962 169.823C299.008 170.043 299.033 170.267 299.036 170.491C299.092 171.127 299.108 171.766 299.086 172.404C298.997 174.771 298.503 177.105 297.625 179.306C296.316 182.586 294.212 185.49 291.502 187.757C288.114 190.471 283.968 192.07 279.634 192.334C275.299 192.599 270.99 191.515 267.297 189.233C264.329 187.316 261.886 184.689 260.191 181.59C259.05 179.513 258.274 177.257 257.897 174.919C257.796 174.286 257.736 173.647 257.716 173.006C257.692 172.784 257.692 172.56 257.716 172.338C257.768 172.557 257.798 172.781 257.806 173.006C257.806 173.443 257.93 174.078 258.07 174.894C258.509 177.191 259.317 179.402 260.464 181.441C262.174 184.451 264.593 186.998 267.511 188.862C271.142 191.08 275.367 192.131 279.615 191.871C283.863 191.612 287.929 190.055 291.262 187.411C293.499 185.557 295.333 183.266 296.652 180.678C297.97 178.091 298.745 175.261 298.929 172.363C298.929 171.538 298.978 170.895 298.929 170.458C298.922 170.246 298.933 170.034 298.962 169.823Z" fill="#FAFAFA"/>
<path d="M198.421 236.612C198.312 236.905 198.165 237.182 197.984 237.437C197.686 237.931 197.224 238.64 196.638 239.506C195.458 241.221 193.742 243.538 191.687 245.971C189.93 248.043 188.068 250.025 186.108 251.907C185.357 252.633 184.738 253.202 184.293 253.557C184.08 253.773 183.838 253.959 183.575 254.109C183.753 253.865 183.955 253.638 184.177 253.433L185.894 251.668C187.346 250.176 189.31 248.082 191.357 245.666C193.403 243.25 195.153 240.974 196.391 239.3L197.843 237.321C198.006 237.062 198.2 236.824 198.421 236.612Z" fill="#FAFAFA"/>
<path d="M291.65 298.421C287.483 300.787 281.863 301.166 276.845 301.298C275.899 301.384 274.946 301.257 274.056 300.927C273.614 300.755 273.234 300.453 272.966 300.062C272.698 299.671 272.554 299.208 272.554 298.734C272.661 297.596 273.792 296.87 274.84 296.433C278.892 294.784 283.439 294.85 287.697 293.787C294.943 291.964 302.345 286.794 307.99 281.896C304.114 288.752 298.472 294.446 291.65 298.388" fill="black"/>
<path d="M276.045 189.332C271.349 188.959 266.97 186.82 263.791 183.348C260.612 179.876 258.868 175.329 258.912 170.623C258.912 165.989 258.995 162.279 258.995 162.279C258.995 162.279 244.058 159.962 243.876 145.037C243.694 130.113 246.278 95.836 246.278 95.836C254.77 92.188 264.084 90.8722 273.256 92.0246C282.428 93.177 291.126 96.7558 298.45 102.391L300.662 104.09L296.106 172.017C295.944 174.476 295.294 176.878 294.194 179.084C293.094 181.29 291.566 183.255 289.7 184.866C287.833 186.477 285.665 187.702 283.321 188.468C280.977 189.235 278.503 189.529 276.045 189.332Z" fill="#B78876"/>
<path d="M258.97 162.048C265.867 162.177 272.646 160.254 278.446 156.523C278.446 156.523 273.849 167.242 258.937 165.915L258.97 162.048Z" fill="#AA6550"/>
<path d="M298.822 119.534C299.077 119.427 309.088 116.499 308.725 126.707C308.362 136.915 298.211 134.475 298.203 134.186C298.194 133.897 298.822 119.534 298.822 119.534Z" fill="#B78876"/>
<path d="M301.479 130.418C301.528 130.418 301.652 130.55 301.949 130.698C302.367 130.889 302.843 130.913 303.278 130.764C304.367 130.401 305.333 128.719 305.44 126.88C305.496 126.008 305.355 125.135 305.027 124.324C304.941 124.002 304.778 123.706 304.553 123.461C304.327 123.215 304.045 123.028 303.732 122.914C303.529 122.854 303.312 122.867 303.118 122.95C302.924 123.032 302.764 123.18 302.667 123.368C302.519 123.648 302.576 123.854 302.527 123.871C302.477 123.887 302.312 123.698 302.403 123.277C302.47 123.027 302.618 122.807 302.824 122.651C303.115 122.449 303.472 122.366 303.823 122.42C304.241 122.514 304.628 122.716 304.944 123.005C305.261 123.295 305.498 123.661 305.63 124.069C306.035 124.965 306.214 125.948 306.15 126.93C306.026 128.991 304.904 130.88 303.418 131.259C303.137 131.335 302.842 131.345 302.556 131.29C302.269 131.234 302 131.113 301.768 130.937C301.487 130.665 301.446 130.434 301.479 130.418Z" fill="#AA6550"/>
<path d="M251.699 119.748C251.693 120.304 251.904 120.84 252.288 121.243C252.672 121.645 253.198 121.881 253.754 121.9C254.026 121.923 254.3 121.89 254.559 121.805C254.818 121.72 255.057 121.584 255.263 121.405C255.468 121.226 255.635 121.007 255.755 120.762C255.874 120.517 255.943 120.251 255.958 119.979C255.963 119.424 255.751 118.888 255.367 118.487C254.983 118.085 254.458 117.848 253.903 117.827C253.631 117.804 253.358 117.837 253.099 117.922C252.84 118.007 252.6 118.143 252.395 118.322C252.189 118.501 252.022 118.72 251.902 118.965C251.783 119.21 251.714 119.476 251.699 119.748Z" fill="#263238"/>
<path d="M249.108 116.813C249.372 117.093 250.981 115.897 253.284 115.906C255.586 115.914 257.262 117.06 257.509 116.78C257.633 116.656 257.361 116.153 256.626 115.617C255.633 114.931 254.451 114.568 253.243 114.578C252.057 114.577 250.901 114.953 249.942 115.65C249.215 116.186 248.976 116.689 249.108 116.813Z" fill="#263238"/>
<path d="M273.742 120.251C273.737 120.806 273.949 121.342 274.333 121.743C274.716 122.145 275.242 122.382 275.797 122.403C276.068 122.424 276.342 122.391 276.6 122.306C276.859 122.22 277.098 122.084 277.303 121.905C277.508 121.726 277.675 121.508 277.795 121.264C277.915 121.019 277.985 120.754 278 120.482C278.007 119.926 277.796 119.39 277.412 118.987C277.028 118.585 276.502 118.349 275.945 118.33C275.674 118.307 275.4 118.34 275.141 118.425C274.882 118.51 274.643 118.646 274.437 118.825C274.232 119.004 274.064 119.223 273.945 119.468C273.826 119.713 273.757 119.979 273.742 120.251Z" fill="#263238"/>
<path d="M271.671 117.241C271.935 117.522 273.552 116.326 275.846 116.334C278.141 116.343 279.824 117.489 280.072 117.208C280.196 117.085 279.931 116.582 279.197 116.046C278.203 115.36 277.021 114.997 275.813 115.007C274.627 115.004 273.471 115.38 272.512 116.079C271.778 116.615 271.539 117.118 271.671 117.241Z" fill="#263238"/>
<path d="M263.336 134.252C263.336 134.12 261.924 133.881 259.614 133.584C259.028 133.518 258.467 133.403 258.368 133.007C258.322 132.4 258.46 131.794 258.764 131.267C259.317 129.849 259.886 128.365 260.497 126.806C262.906 120.457 264.623 115.263 264.392 115.147C264.161 115.032 261.974 120.094 259.564 126.468L257.914 130.954C257.545 131.661 257.437 132.475 257.608 133.254C257.697 133.455 257.829 133.634 257.997 133.777C258.164 133.92 258.361 134.023 258.574 134.079C258.896 134.168 259.229 134.215 259.564 134.219C261.883 134.376 263.327 134.384 263.336 134.252Z" fill="#263238"/>
<path d="M271.076 108.254C271.308 108.88 273.593 108.584 276.292 108.905C278.991 109.227 281.161 109.969 281.516 109.408C281.681 109.136 281.301 108.584 280.418 107.949C279.245 107.21 277.92 106.747 276.541 106.596C275.163 106.444 273.768 106.608 272.463 107.075C271.481 107.47 270.977 107.957 271.076 108.254Z" fill="#263238"/>
<path d="M249.95 110.175C250.354 110.703 251.931 110.175 253.837 110.134C255.743 110.093 257.344 110.48 257.716 109.936C257.881 109.672 257.625 109.111 256.89 108.658C255.949 108.059 254.844 107.771 253.73 107.833C252.612 107.852 251.527 108.218 250.627 108.88C249.991 109.35 249.768 109.928 249.95 110.175Z" fill="#263238"/>
<path d="M238.999 86.3949C238.891 85.4652 239.021 84.5233 239.378 83.6578C239.734 82.7923 240.305 82.0317 241.037 81.4476C241.789 80.8977 242.712 80.6337 243.641 80.7033C244.57 80.7728 245.443 81.1712 246.104 81.8269C245.963 81.2034 245.955 80.5572 246.081 79.9304C246.206 79.3035 246.461 78.71 246.831 78.1883C247.201 77.6666 247.676 77.2284 248.226 76.902C248.776 76.5757 249.389 76.3686 250.024 76.2941C252.5 76.1457 254.538 77.9845 256.899 78.6276C259.259 79.2708 261.66 78.7101 263.872 77.8031C266.084 76.8961 268.147 75.684 270.383 74.8676C275.113 73.1442 280.333 73.3552 284.909 75.4549C289.484 77.5546 293.045 81.3734 294.819 86.0816C298.12 85.0591 301.801 86.7165 303.814 89.4787C305.828 92.241 306.348 95.8773 305.944 99.2744C305.631 101.591 305.058 103.864 304.235 106.052C304.235 106.242 304.235 106.432 304.235 106.629C304.078 114.834 303.154 124.473 299.647 124.522C293.54 124.621 294.992 113.119 294.992 113.119C287.499 110.225 290.288 99.0023 288.39 97.3037C286.492 95.6052 282.614 91.6473 266.934 99.662C260.843 102.771 252.739 102.672 248.316 101.674L247.92 101.591H247.829C247.789 101.571 247.748 101.555 247.705 101.542C246.283 101.183 244.925 100.607 243.678 99.8351C242.214 98.9872 241.058 97.6965 240.377 96.1494C240.046 95.3741 239.948 94.5193 240.094 93.6892C240.241 92.8591 240.626 92.0895 241.202 91.4742C239.982 90.0356 239.215 88.2682 238.999 86.3949Z" fill="#263238"/>
<path d="M261.388 141.31C261.708 142.237 262.158 143.115 262.725 143.916C263.012 144.317 263.381 144.652 263.808 144.9C264.235 145.147 264.71 145.301 265.201 145.35C265.725 145.352 266.241 145.222 266.701 144.971C267.162 144.72 267.551 144.357 267.833 143.916C268.391 143.022 268.648 141.973 268.568 140.923C268.526 139.983 268.089 138.861 267.157 138.746C266.761 138.732 266.369 138.82 266.018 139.001L261.066 140.997" fill="#AA6550"/>
<path d="M263.36 145.359C264.248 145.422 265.139 145.313 265.985 145.037C266.847 144.7 267.555 144.057 267.974 143.231C268.209 142.73 268.337 142.184 268.348 141.63C268.36 141.077 268.254 140.526 268.04 140.016C267.926 139.752 267.782 139.503 267.61 139.274C267.412 139.076 267.445 139.084 267.239 139.109C267.033 139.133 266.711 139.323 266.414 139.422L265.589 139.752C264.532 140.181 263.575 140.576 262.774 140.848C261.124 141.45 260.134 141.772 260.092 141.673C260.051 141.574 260.975 141.046 262.527 140.296C263.303 139.925 264.235 139.471 265.267 139.026L266.092 138.663C266.385 138.524 266.685 138.4 266.991 138.292C267.23 138.215 267.487 138.215 267.726 138.292C267.94 138.388 268.127 138.535 268.271 138.721C268.8 139.408 269.12 140.234 269.19 141.099C269.26 141.964 269.079 142.83 268.667 143.594C268.142 144.568 267.251 145.295 266.191 145.614C265.502 145.835 264.766 145.864 264.062 145.697C263.567 145.573 263.336 145.408 263.36 145.359Z" fill="#263238"/>
<path d="M288.927 95.869C288.989 95.2687 288.989 94.6636 288.927 94.0633C288.666 92.4359 287.839 90.9525 286.591 89.8745C284.722 88.2926 282.31 87.4975 279.865 87.6565C277.101 87.6565 274.163 88.58 271.126 89.6024C269.641 90.1146 268.132 90.5522 266.604 90.9135C265.168 91.2284 263.707 91.4079 262.238 91.4494C259.748 91.5122 257.264 91.1838 254.877 90.4764C253.275 89.9996 251.73 89.347 250.272 88.5305C249.874 88.3125 249.488 88.0731 249.116 87.8131C248.981 87.7328 248.853 87.6388 248.737 87.5328C248.737 87.5328 249.306 87.8461 250.387 88.3573C251.862 89.1063 253.407 89.7083 255 90.1549C258.766 91.2137 262.736 91.3214 266.554 90.4682C268.015 90.1384 269.508 89.6436 271.035 89.1654C274.064 88.143 277.06 87.2277 279.907 87.2195C282.44 87.0969 284.921 87.9666 286.822 89.6437C288.093 90.7872 288.908 92.3508 289.117 94.0468C289.189 94.6607 289.125 95.2832 288.927 95.869Z" fill="#455A64"/>
<path d="M300.546 121.092C300.546 121.092 300.464 120.993 300.348 120.779C300.175 120.472 300.021 120.156 299.886 119.831C299.361 118.638 298.96 117.395 298.69 116.12C298.289 114.224 298.161 112.28 298.31 110.348C298.59 108.009 299.034 105.691 299.639 103.414C300.229 101.165 300.229 98.8021 299.639 96.5534C299.354 95.594 298.864 94.7079 298.203 93.9561C297.617 93.3142 296.879 92.8294 296.057 92.5461C294.863 92.1051 293.545 92.1406 292.376 92.645C291.965 92.877 291.58 93.1535 291.229 93.4696C291.495 93.0639 291.862 92.7343 292.294 92.5131C292.889 92.2176 293.538 92.0448 294.201 92.0051C294.865 91.9655 295.53 92.0597 296.156 92.2822C297.04 92.5599 297.839 93.0596 298.475 93.7334C299.183 94.5176 299.712 95.446 300.026 96.4545C300.647 98.772 300.647 101.212 300.026 103.529C299.426 105.79 298.974 108.087 298.673 110.406C298.509 112.304 298.603 114.215 298.954 116.087C299.195 117.349 299.546 118.588 300.002 119.789C300.365 120.622 300.579 121.076 300.546 121.092Z" fill="#455A64"/>
<path d="M290.363 94.6652C290.344 94.465 290.344 94.2635 290.363 94.0633C290.363 93.6262 290.363 93.0655 290.42 92.3564C290.522 90.2664 290.29 88.1735 289.735 86.1558C289.322 84.7816 288.644 83.5015 287.738 82.3876C286.718 81.1065 285.316 80.1826 283.736 79.749C281.966 79.34 280.119 79.414 278.388 79.9634C276.515 80.5559 274.72 81.3697 273.041 82.3876C271.338 83.4128 269.568 84.3219 267.742 85.1086C265.999 85.7893 264.15 86.1604 262.279 86.2053C260.589 86.246 258.901 86.0404 257.27 85.5951C255.861 85.1997 254.502 84.6465 253.218 83.946C251.364 82.8935 249.73 81.4937 248.407 79.8232C248.047 79.3756 247.721 78.9015 247.433 78.405C247.324 78.2363 247.227 78.06 247.144 77.8773C247.283 78.0223 247.405 78.1828 247.507 78.3555C247.824 78.829 248.168 79.2833 248.539 79.716C249.895 81.3099 251.531 82.6428 253.366 83.6491C254.639 84.3239 255.981 84.8575 257.369 85.2405C258.964 85.6635 260.613 85.8523 262.263 85.8012C264.084 85.7482 265.882 85.3799 267.577 84.7128C269.385 83.925 271.138 83.0188 272.826 82C274.534 80.9577 276.363 80.127 278.273 79.5264C280.075 78.9612 281.997 78.8928 283.835 79.3285C285.494 79.7919 286.96 80.7745 288.019 82.132C288.942 83.289 289.626 84.6174 290.033 86.0403C290.568 88.0917 290.758 90.218 290.594 92.3317C290.553 93.082 290.495 93.6592 290.445 94.0468C290.442 94.2554 290.414 94.4629 290.363 94.6652Z" fill="#455A64"/>
<path d="M378.5 333.786C378.5 333.901 294.629 334 191.167 334C87.7046 334 3.8339 333.901 3.8339 333.786C3.8339 333.67 87.6881 333.571 191.167 333.571C294.646 333.571 378.5 333.629 378.5 333.786Z" fill="#263238"/>
<path d="M147.156 299.929C148.749 302.18 151.819 301.414 153.23 300.028C154.641 298.643 155.244 296.648 155.78 294.743C157.001 290.381 158.256 285.813 157.282 281.393C157.053 280.051 156.456 278.798 155.557 277.774C155.104 277.27 154.526 276.894 153.881 276.684C153.237 276.474 152.548 276.438 151.885 276.578C150.333 276.999 149.409 278.516 148.691 279.959C146.665 284.229 145.619 288.896 145.629 293.622C145.629 295.823 145.902 298.124 147.156 299.929Z" fill="#92E3A9"/>
<path d="M147.156 299.929C148.749 302.18 151.819 301.414 153.23 300.028C154.641 298.643 155.244 296.648 155.78 294.743C157.001 290.381 158.256 285.813 157.282 281.393C157.053 280.051 156.456 278.798 155.557 277.774C155.104 277.27 154.526 276.894 153.881 276.684C153.237 276.474 152.548 276.438 151.885 276.578C150.333 276.999 149.409 278.516 148.691 279.959C146.665 284.229 145.619 288.896 145.629 293.622C145.629 295.823 145.902 298.124 147.156 299.929Z" fill="black"/>
<path d="M153.131 311.366C155.772 310.104 158.75 309.726 161.623 310.286C163.193 310.414 164.675 311.064 165.832 312.133C166.888 313.287 167.094 315.316 165.898 316.322C165.124 316.85 164.19 317.092 163.257 317.006C161.004 317.006 158.512 316.61 156.721 317.971C155.706 318.746 155.029 320.032 153.808 320.444C153.196 320.59 152.554 320.533 151.978 320.281C151.401 320.03 150.923 319.598 150.614 319.051C150.023 317.927 149.887 316.619 150.234 315.398C150.371 314.548 150.704 313.741 151.207 313.041C151.71 312.341 152.368 311.768 153.131 311.366Z" fill="#92E3A9"/>
<path d="M142.832 303.195C143.635 302.129 144.167 300.883 144.383 299.566C144.599 298.249 144.491 296.9 144.07 295.634C143.187 293.106 141.625 290.869 139.555 289.169C137.202 287.102 134.469 285.511 131.509 284.486C130.36 284.034 129.127 283.835 127.895 283.9C127.28 283.938 126.683 284.126 126.158 284.448C125.633 284.77 125.195 285.216 124.882 285.747C124.057 287.355 124.882 289.301 125.708 290.892C127.271 293.686 129.048 296.354 131.022 298.874C132.615 300.894 134.431 302.89 136.84 303.821C139.25 304.753 141.751 304.605 143.022 302.931" fill="#92E3A9"/>
<path d="M147.247 333.959C147.325 333.623 147.369 333.281 147.379 332.936C147.445 332.194 147.536 331.287 147.635 330.141C147.766 328.757 147.969 327.381 148.245 326.018C148.6 324.363 149.089 322.739 149.706 321.162C150.32 319.587 151.153 318.108 152.182 316.767C153.013 315.677 154.076 314.784 155.293 314.153C156.122 313.742 157.01 313.463 157.926 313.328C158.271 313.313 158.614 313.263 158.949 313.18C158.603 313.141 158.255 313.141 157.909 313.18C156.957 313.258 156.026 313.507 155.161 313.914C153.872 314.528 152.743 315.431 151.86 316.552C150.799 317.915 149.946 319.426 149.326 321.038C148.696 322.642 148.208 324.297 147.866 325.985C147.615 327.349 147.441 328.725 147.346 330.108C147.263 331.304 147.239 332.26 147.222 332.928C147.189 333.271 147.198 333.617 147.247 333.959Z" fill="#263238"/>
<path d="M147.42 331.807C147.441 331.651 147.441 331.493 147.42 331.337C147.42 330.974 147.42 330.512 147.42 329.976C147.42 328.789 147.42 327.082 147.42 324.971C147.503 320.758 147.833 314.928 148.493 308.521C149.153 302.115 150.069 296.351 150.903 292.22C151.101 291.181 151.299 290.249 151.48 289.425C151.662 288.6 151.811 287.907 151.959 287.33C152.108 286.753 152.19 286.357 152.273 286.011C152.319 285.859 152.344 285.7 152.347 285.541C152.28 285.684 152.227 285.833 152.19 285.986C152.083 286.324 151.959 286.761 151.802 287.289C151.645 287.817 151.456 288.559 151.249 289.375C151.043 290.191 150.82 291.123 150.606 292.154C149.472 297.547 148.627 302.997 148.072 308.48C147.404 314.895 147.123 320.741 147.123 324.971C147.123 327.082 147.164 328.797 147.222 329.976C147.222 330.529 147.288 330.982 147.313 331.337C147.334 331.496 147.37 331.654 147.42 331.807Z" fill="#263238"/>
<path d="M147.354 320.543C147.396 320.071 147.396 319.597 147.354 319.125C147.266 317.834 147.112 316.549 146.892 315.274C146.169 311.068 144.939 306.965 143.228 303.055C141.58 299.089 139.222 295.457 136.271 292.335C135.754 291.8 135.202 291.299 134.62 290.835C134.373 290.628 134.15 290.422 133.927 290.257L133.292 289.829C132.915 289.542 132.515 289.288 132.095 289.07C133.483 290.142 134.8 291.302 136.04 292.541C138.886 295.682 141.18 299.281 142.823 303.186C143.767 305.33 144.567 307.533 145.217 309.783C145.844 311.844 146.265 313.732 146.587 315.332C146.908 316.932 147.065 318.235 147.173 319.142C147.201 319.612 147.262 320.081 147.354 320.543Z" fill="#263238"/>
<path d="M163.141 205.386L128.126 203.894V168.916H163.141V205.386Z" fill="#92E3A9"/>
<path d="M177.022 158.906H142.006V193.892H177.022V158.906Z" fill="#92E3A9"/>
<path d="M163.141 203.894L177.022 193.892V158.906L163.141 168.916V203.894Z" fill="#92E3A9"/>
<path d="M128.126 168.916L142.006 158.906H177.022L163.141 168.916H128.126Z" fill="#92E3A9"/>
<path d="M163.141 205.386L177.022 193.892V158.906L163.141 168.916V205.386Z" fill="#92E3A9"/>
<path d="M128.126 168.916L142.006 158.906H177.022L163.141 168.916H128.126Z" fill="white"/>
<path d="M163.141 205.386L177.022 193.892V158.906L163.141 168.916V205.386Z" fill="black"/>
<path d="M181.916 195.228C182.125 195.893 182.198 196.595 182.13 197.289C181.957 197.635 182.081 197.388 182.048 197.462H181.998L181.916 197.52L181.751 197.644L181.437 197.866C181.231 198.006 181.049 198.13 180.884 198.221C180.562 198.419 180.348 198.518 180.315 198.468C180.282 198.419 180.43 198.237 180.703 197.982L181.198 197.553L181.495 197.306L181.66 197.182L181.743 197.116C181.743 197.198 181.833 196.951 181.66 197.289C181.606 196.592 181.693 195.891 181.916 195.228Z" fill="#92E3A9"/>
<path d="M181.916 186.388C182.202 187.848 182.202 189.349 181.916 190.808C181.63 189.349 181.63 187.848 181.916 186.388Z" fill="#92E3A9"/>
<path d="M181.916 177.549C182.202 179.009 182.202 180.51 181.916 181.969C181.63 180.51 181.63 179.009 181.916 177.549Z" fill="#92E3A9"/>
<path d="M181.916 168.718C182.202 170.178 182.202 171.679 181.916 173.138C181.63 171.679 181.63 170.178 181.916 168.718Z" fill="#92E3A9"/>
<path d="M181.916 159.871C182.202 161.33 182.202 162.831 181.916 164.29C181.63 162.831 181.63 161.33 181.916 159.871Z" fill="#92E3A9"/>
<path d="M179.853 153.39C180.518 153.176 181.221 153.103 181.916 153.175L182.13 153.39V154.181C182.13 154.429 182.13 154.651 182.081 154.841C182.081 155.212 181.99 155.443 181.932 155.443C181.875 155.443 181.817 155.212 181.784 154.841C181.784 154.651 181.784 154.429 181.734 154.181V153.357L181.949 153.571C181.245 153.654 180.532 153.592 179.853 153.39Z" fill="#92E3A9"/>
<path d="M171.938 153.39C173.243 153.104 174.595 153.104 175.9 153.39C174.595 153.676 173.243 153.676 171.938 153.39Z" fill="#92E3A9"/>
<path d="M164.024 153.39C165.326 153.104 166.675 153.104 167.977 153.39C166.675 153.676 165.326 153.676 164.024 153.39Z" fill="#92E3A9"/>
<path d="M156.11 153.39C157.412 153.104 158.761 153.104 160.063 153.39C158.761 153.676 157.412 153.676 156.11 153.39Z" fill="#92E3A9"/>
<path d="M148.179 153.39C149.482 153.104 150.83 153.104 152.132 153.39C150.83 153.676 149.482 153.676 148.179 153.39Z" fill="#92E3A9"/>
<path d="M140.447 153.876C140.447 153.819 140.579 153.596 140.892 153.283H140.967C141.305 153.283 141.742 153.233 142.229 153.233C142.895 153.161 143.567 153.234 144.202 153.448C143.566 153.656 142.895 153.729 142.229 153.662C141.742 153.662 141.305 153.662 140.967 153.612L141.074 153.571C140.752 153.769 140.488 153.876 140.447 153.876Z" fill="#92E3A9"/>
<path d="M134.356 158.898C134.282 158.807 134.901 158.164 135.743 157.471C136.585 156.779 137.327 156.284 137.393 156.375C137.459 156.465 136.849 157.1 136.007 157.801C135.165 158.502 134.431 158.989 134.356 158.898Z" fill="#92E3A9"/>
<path d="M128.266 163.944C128.192 163.853 128.811 163.219 129.652 162.518C130.494 161.817 131.237 161.33 131.303 161.421C131.369 161.512 130.758 162.155 129.916 162.847C129.075 163.54 128.373 164.043 128.266 163.944Z" fill="#92E3A9"/>
<path d="M123.612 169.848C123.408 169.181 123.341 168.48 123.413 167.787L123.496 167.622H123.537L123.62 167.556L123.777 167.432L124.082 167.193L124.618 166.805C124.932 166.599 125.138 166.492 125.18 166.541C125.221 166.591 125.072 166.772 124.808 167.044C124.676 167.176 124.519 167.333 124.338 167.498L124.049 167.754L123.892 167.886L123.81 167.951H123.768C123.768 167.886 123.694 168.116 123.851 167.795C123.908 168.488 123.827 169.186 123.612 169.848Z" fill="#92E3A9"/>
<path d="M123.529 178.028C123.326 177.366 123.261 176.67 123.339 175.983C123.277 175.292 123.356 174.597 123.57 173.938C123.853 175.299 123.839 176.705 123.529 178.06V178.028Z" fill="#92E3A9"/>
<path d="M123.422 186.207C123.213 185.547 123.146 184.85 123.224 184.162C123.161 183.472 123.24 182.776 123.455 182.117C123.663 182.778 123.731 183.474 123.653 184.162C123.715 184.852 123.636 185.548 123.422 186.207Z" fill="#92E3A9"/>
<path d="M123.372 194.387C123.169 193.725 123.101 193.03 123.174 192.342C123.112 191.651 123.194 190.955 123.413 190.297C123.617 190.958 123.681 191.654 123.603 192.342C123.666 193.032 123.587 193.728 123.372 194.387Z" fill="#92E3A9"/>
<path d="M123.29 202.566C123.087 201.905 123.022 201.209 123.1 200.521C123.038 199.831 123.116 199.135 123.331 198.476C123.534 199.138 123.602 199.833 123.529 200.521C123.591 201.212 123.509 201.908 123.29 202.566Z" fill="#92E3A9"/>
<path d="M125.295 208.75C124.624 208.948 123.919 209.01 123.224 208.932C122.803 208.495 123.108 208.808 123.017 208.709V207.909C123.017 207.662 123.017 207.439 123.067 207.258C123.108 206.887 123.166 206.656 123.224 206.656C123.281 206.656 123.339 206.887 123.372 207.258C123.372 207.448 123.372 207.67 123.413 207.918C123.455 208.165 123.413 208.181 123.413 208.305V208.693L123.199 208.478C123.909 208.425 124.622 208.517 125.295 208.75Z" fill="#92E3A9"/>
<path d="M133.11 208.874C132.48 209.081 131.812 209.146 131.154 209.064C130.495 209.117 129.832 209.033 129.207 208.816C129.837 208.609 130.505 208.547 131.163 208.635C131.821 208.577 132.485 208.659 133.11 208.874Z" fill="#92E3A9"/>
<path d="M140.925 209.006C140.293 209.203 139.627 209.265 138.97 209.187C138.31 209.249 137.645 209.165 137.022 208.94C137.654 208.743 138.32 208.681 138.978 208.759C139.637 208.7 140.302 208.785 140.925 209.006Z" fill="#92E3A9"/>
<path d="M148.749 209.121C147.456 209.385 146.12 209.363 144.837 209.055C146.13 208.792 147.465 208.814 148.749 209.121Z" fill="#92E3A9"/>
<path d="M156.564 209.262C155.271 209.526 153.936 209.503 152.652 209.196C153.287 209 153.956 208.938 154.616 209.014C155.276 208.958 155.94 209.042 156.564 209.262Z" fill="#92E3A9"/>
<path d="M164.379 209.393C163.747 209.591 163.081 209.653 162.423 209.575C161.764 209.633 161.1 209.549 160.476 209.328C161.108 209.13 161.774 209.068 162.432 209.146C163.091 209.083 163.756 209.167 164.379 209.393Z" fill="#92E3A9"/>
<path d="M170.923 205.609C170.989 205.7 170.354 206.301 169.487 206.953C169.013 207.401 168.451 207.746 167.837 207.967C167.763 207.868 168.406 207.266 169.265 206.615C170.123 205.963 170.849 205.51 170.923 205.609Z" fill="#92E3A9"/>
<path d="M177.154 200.876C177.228 200.967 176.585 201.577 175.726 202.228C175.251 202.672 174.689 203.015 174.076 203.234C174.01 203.135 174.645 202.533 175.504 201.882C176.362 201.23 177.063 200.793 177.154 200.876Z" fill="#92E3A9"/>
<path d="M172.409 150.578C172.524 150.578 172.524 151.081 172.409 151.634C172.293 152.186 172.087 152.615 171.972 152.59C171.856 152.565 171.864 152.095 171.972 151.543C172.079 150.99 172.293 150.512 172.409 150.578Z" fill="#92E3A9"/>
<path d="M174.307 142.159C174.361 142.884 174.271 143.613 174.043 144.303C173.949 145.023 173.717 145.717 173.358 146.348C173.39 144.902 173.713 143.478 174.307 142.159Z" fill="#92E3A9"/>
<path d="M176.238 133.774C176.204 135.218 175.884 136.642 175.297 137.962C175.332 136.518 175.652 135.094 176.238 133.774Z" fill="#92E3A9"/>
<path d="M178.095 125.388C178.062 126.836 177.739 128.263 177.146 129.585C177.091 128.86 177.181 128.131 177.41 127.441C177.503 126.719 177.736 126.022 178.095 125.388Z" fill="#92E3A9"/>
<path d="M179.985 117.002C180.039 117.727 179.949 118.456 179.721 119.146C179.632 119.869 179.399 120.568 179.036 121.199C179.069 119.751 179.392 118.324 179.985 117.002Z" fill="#92E3A9"/>
<path d="M181.883 108.625C181.932 109.35 181.842 110.077 181.619 110.769C181.525 111.488 181.292 112.183 180.934 112.814C180.88 112.089 180.969 111.36 181.198 110.67C181.287 109.949 181.52 109.254 181.883 108.625Z" fill="#92E3A9"/>
<path d="M183.278 102.424C183.393 102.424 183.385 102.919 183.278 103.471C183.17 104.024 182.956 104.461 182.84 104.428C182.725 104.395 182.733 103.933 182.84 103.381C182.947 102.828 183.162 102.391 183.278 102.424Z" fill="#92E3A9"/>
<path d="M140.075 151.543C140.183 151.493 140.471 151.864 140.727 152.367C140.983 152.87 141.107 153.332 141 153.39C140.892 153.448 140.604 153.068 140.348 152.565C140.092 152.062 139.968 151.601 140.075 151.543Z" fill="#92E3A9"/>
<path d="M136.452 144.369C136.56 144.312 137.055 145.078 137.55 146.068C137.915 146.642 138.159 147.285 138.268 147.956C138.161 148.014 137.666 147.247 137.17 146.257C136.806 145.683 136.561 145.041 136.452 144.369Z" fill="#92E3A9"/>
<path d="M132.838 137.187C133.316 137.673 133.689 138.251 133.935 138.886C134.3 139.462 134.542 140.108 134.645 140.782C134.167 140.297 133.794 139.719 133.548 139.084C133.181 138.508 132.939 137.862 132.838 137.187Z" fill="#92E3A9"/>
<path d="M129.198 130.014C129.306 129.956 129.793 130.723 130.296 131.712C130.66 132.286 130.902 132.929 131.006 133.601C130.899 133.658 130.412 132.891 129.908 131.902C129.544 131.328 129.303 130.685 129.198 130.014Z" fill="#92E3A9"/>
<path d="M125.6 122.832C126.081 123.315 126.455 123.894 126.698 124.53C127.066 125.106 127.31 125.752 127.416 126.427C126.935 125.944 126.561 125.365 126.318 124.728C125.953 124.151 125.709 123.506 125.6 122.832Z" fill="#92E3A9"/>
<path d="M121.986 115.658C122.093 115.601 122.58 116.367 123.083 117.357C123.447 117.931 123.689 118.574 123.793 119.245C123.315 118.76 122.942 118.182 122.695 117.547C122.332 116.972 122.09 116.33 121.986 115.658Z" fill="#92E3A9"/>
<path d="M118.371 108.476C118.849 108.962 119.223 109.54 119.469 110.175C119.833 110.749 120.074 111.392 120.178 112.063C120.071 112.121 119.584 111.362 119.081 110.414C118.711 109.825 118.469 109.165 118.371 108.476Z" fill="#92E3A9"/>
<path d="M114.748 101.303C114.856 101.245 115.351 102.004 115.846 103.001C116.213 103.575 116.457 104.218 116.564 104.89C116.083 104.406 115.709 103.828 115.466 103.191C115.101 102.617 114.857 101.974 114.748 101.303Z" fill="#92E3A9"/>
<path d="M112.017 95.869C112.124 95.8195 112.413 96.1823 112.669 96.6936C112.924 97.2048 113.048 97.6583 112.941 97.7078C112.834 97.7572 112.545 97.3944 112.289 96.8832C112.033 96.372 111.909 95.9267 112.017 95.869Z" fill="#92E3A9"/>
<path d="M75.4496 164.018C75.4496 164.134 74.9709 164.2 74.4015 164.15C73.8321 164.101 73.3782 163.977 73.3865 163.862C73.3947 163.746 73.8651 163.68 74.4345 163.722C75.004 163.763 75.4578 163.903 75.4496 164.018Z" fill="#92E3A9"/>
<path d="M83.8094 164.678C83.1154 164.833 82.3974 164.85 81.6968 164.727C80.9852 164.74 80.2782 164.611 79.6171 164.348C80.3111 164.192 81.0292 164.176 81.7298 164.299C82.4416 164.282 83.1493 164.411 83.8094 164.678Z" fill="#92E3A9"/>
<path d="M92.2188 165.329C90.8135 165.506 89.3868 165.394 88.0265 165C89.4318 164.823 90.8585 164.935 92.2188 165.329Z" fill="#92E3A9"/>
<path d="M100.603 165.989C99.1981 166.166 97.7714 166.054 96.4111 165.659C97.1052 165.504 97.8231 165.487 98.5237 165.61C99.2358 165.591 99.944 165.72 100.603 165.989Z" fill="#92E3A9"/>
<path d="M108.996 166.64C108.303 166.801 107.584 166.818 106.884 166.69C106.173 166.704 105.466 166.578 104.804 166.319C105.496 166.15 106.215 166.125 106.917 166.245C107.629 166.24 108.335 166.375 108.996 166.64Z" fill="#92E3A9"/>
<path d="M117.381 167.3C116.687 167.456 115.969 167.472 115.268 167.35C114.556 167.366 113.849 167.237 113.189 166.97C114.594 166.793 116.021 166.906 117.381 167.3Z" fill="#92E3A9"/>
<path d="M123.628 167.787C123.628 167.91 123.158 167.968 122.588 167.927C122.019 167.886 121.565 167.745 121.573 167.63C121.581 167.514 122.052 167.448 122.621 167.498C123.191 167.547 123.645 167.671 123.628 167.787Z" fill="#92E3A9"/>
<path d="M130.333 73.3402C134.858 53.8057 122.676 34.3051 103.125 29.7845C83.5738 25.2638 64.0566 37.4349 59.5321 56.9694C55.0076 76.5039 67.1891 96.0044 86.7402 100.525C106.291 105.046 125.808 92.8746 130.333 73.3402Z" fill="white"/>
<path d="M131.27 65.1627C131.27 65.1627 131.27 64.9648 131.22 64.569C131.171 64.1732 131.154 63.596 131.105 62.8457C131.105 62.4664 131.08 62.0459 131.031 61.5841C130.989 61.1141 130.89 60.6111 130.808 60.0669C130.725 59.5227 130.626 58.929 130.527 58.2941C130.403 57.6264 130.243 56.9658 130.049 56.3152C129.206 52.9197 127.851 49.6722 126.03 46.6844C123.649 42.7045 120.522 39.2215 116.82 36.427L115.252 35.2561C114.699 34.9016 114.121 34.5717 113.552 34.2172C112.982 33.8626 112.413 33.4833 111.786 33.1947L109.912 32.296L108.963 31.8425L107.956 31.4797L105.926 30.7376C105.233 30.5067 104.507 30.3665 103.797 30.1686C103.077 29.9572 102.343 29.7919 101.602 29.6739C100.095 29.3927 98.5699 29.2164 97.0383 29.1462C96.2543 29.1462 95.4703 29.039 94.6781 29.0555L92.2848 29.1792C91.8887 29.1792 91.4596 29.1792 91.0799 29.2534L89.8751 29.443C89.0498 29.5749 88.2246 29.6656 87.4406 29.8388C85.8041 30.1996 84.1939 30.6707 82.6211 31.2488C81.0055 31.832 79.4312 32.5235 77.9089 33.3184C77.1496 33.7307 76.4152 34.2089 75.6559 34.6624C75.2928 34.8933 74.8967 35.0994 74.5418 35.3633L73.4772 36.1879C72.0261 37.255 70.6476 38.4174 69.351 39.6675L67.5106 41.6876L67.0485 42.1989L66.6359 42.7431L65.8106 43.848L64.9854 44.9611L64.2591 46.1485L63.5329 47.3441L63.1698 47.946L62.8562 48.5727L61.6348 51.1205L60.7023 53.7673C58.2213 61.1592 58.2213 69.1579 60.7023 76.5497C61.0324 77.4403 61.3625 78.3308 61.6843 79.2213C62.0062 80.1118 62.5096 80.9199 62.914 81.7692L63.2193 82.3958L63.5824 82.9977L64.3169 84.1934L65.0431 85.3807L65.8684 86.4939L67.1063 88.1512L67.5684 88.6542L69.4005 90.6743C70.6972 91.9268 72.0757 93.092 73.5268 94.1622L74.5913 94.9868C74.9462 95.2589 75.3423 95.4567 75.7054 95.6959C76.4647 96.1411 77.1991 96.6194 77.9584 97.0399C79.4808 97.8348 81.0551 98.5263 82.6706 99.1095C84.2459 99.68 85.8556 100.151 87.4901 100.519C88.3153 100.684 89.1406 100.783 89.9246 100.915L91.1295 101.097C91.5338 101.154 91.9547 101.146 92.3343 101.179L94.7276 101.303C95.5528 101.303 96.3038 101.237 97.0878 101.212C98.6223 101.139 100.15 100.96 101.66 100.676C102.398 100.557 103.129 100.392 103.847 100.181C104.565 99.9918 105.283 99.8434 105.976 99.6125L109.013 98.5076L109.97 98.0541L111.843 97.1553C112.449 96.8453 113.039 96.504 113.609 96.1329C114.187 95.7866 114.765 95.4568 115.309 95.0939L116.877 93.9313C120.573 91.1319 123.697 87.6497 126.079 83.6739C127.876 80.6677 129.206 77.4066 130.024 74.0019C130.219 73.3512 130.378 72.6907 130.502 72.0229C130.601 71.3963 130.692 70.8026 130.783 70.2584C130.874 69.7142 130.965 69.203 131.006 68.7412C131.047 68.2795 131.064 67.8507 131.08 67.4714C131.13 66.7211 131.171 66.1521 131.196 65.7481C131.22 65.3441 131.245 65.1627 131.245 65.1627C131.245 65.1627 131.245 65.3605 131.245 65.7481C131.245 66.1356 131.204 66.7293 131.179 67.4797C131.179 67.8589 131.179 68.3042 131.121 68.7495C131.064 69.1947 130.989 69.7224 130.915 70.2749C130.841 70.8273 130.75 71.421 130.651 72.0477C130.537 72.7207 130.385 73.3869 130.197 74.0431C129.384 77.4752 128.048 80.7623 126.236 83.7893C123.862 87.8139 120.729 91.3396 117.009 94.1704L115.441 95.3496C114.889 95.7124 114.303 96.0504 113.725 96.405C113.147 96.7595 112.578 97.1553 111.951 97.4439L110.061 98.3592L109.095 98.8209L106.034 99.9423C105.332 100.173 104.606 100.33 103.88 100.528C103.156 100.738 102.42 100.906 101.676 101.031C100.149 101.314 98.6056 101.496 97.0548 101.575C96.2295 101.575 95.4786 101.682 94.6781 101.674L92.2601 101.55C91.8557 101.55 91.4348 101.55 91.0387 101.476L89.8173 101.295C88.992 101.163 88.1668 101.064 87.3415 100.899C83.991 100.15 80.7512 98.9721 77.7025 97.3944C76.9268 96.9739 76.1923 96.4874 75.4248 96.0339C75.0535 95.7948 74.6491 95.5969 74.2942 95.3248L73.2132 94.5003C71.7625 93.4177 70.3841 92.2415 69.0869 90.9794L67.2218 88.9345L66.7597 88.4233L66.3388 87.8709L64.6883 85.6281L63.9538 84.4242L63.178 83.2039L62.8067 82.602L62.4931 81.9588C62.0805 81.1123 61.6678 80.2547 61.2552 79.3862C60.9251 78.4874 60.595 77.5887 60.2566 76.6817C57.7425 69.2049 57.7425 61.1121 60.2566 53.6354L61.247 50.9309C61.6596 50.0651 62.0722 49.2076 62.4931 48.35L62.7984 47.7151L63.1698 47.1132L63.9043 45.9011L64.647 44.6972L66.2975 42.4545L66.7184 41.902L67.1888 41.3908L69.0456 39.3459C70.341 38.0843 71.7195 36.9108 73.1719 35.8333L74.2447 35.0087C74.5996 34.7449 75.004 34.5388 75.3753 34.2996C76.1428 33.8461 76.8773 33.3596 77.653 32.9474C80.7017 31.3697 83.9415 30.1918 87.292 29.443C88.1173 29.2699 88.9425 29.1792 89.7678 29.0472L90.9892 28.8658C91.3935 28.8081 91.8144 28.8164 92.2105 28.7834L94.6285 28.6679C95.4538 28.6679 96.2213 28.7339 97.0053 28.7586C98.5539 28.8361 100.095 29.0207 101.618 29.3111C102.366 29.431 103.105 29.599 103.83 29.8141C104.556 30.012 105.283 30.1604 105.976 30.3912L108.031 31.1498L109.046 31.5209L111.901 32.8979C112.528 33.1865 113.09 33.5905 113.675 33.9286C114.261 34.2667 114.831 34.6212 115.384 34.984L116.96 36.1631C120.677 38.996 123.81 42.5212 126.186 46.5443C128 49.5607 129.341 52.8362 130.164 56.2575C130.351 56.9139 130.503 57.5801 130.618 58.2529C130.717 58.8878 130.799 59.4815 130.882 60.0257C130.965 60.5699 131.047 61.0894 131.088 61.5511C131.13 62.0129 131.13 62.4499 131.146 62.8292C131.146 63.5795 131.196 64.1567 131.212 64.5525C131.229 64.9483 131.27 65.1627 131.27 65.1627Z" fill="#92E3A9"/>
<path d="M96.6504 51.8461C96.6504 51.8461 96.7577 51.8049 96.9805 51.7719C97.3067 51.7323 97.6364 51.7323 97.9626 51.7719C99.2044 51.8656 100.373 52.3941 101.264 53.2644C101.787 53.7745 102.204 54.3842 102.488 55.0575C102.772 55.7309 102.919 56.4543 102.919 57.1851C102.919 57.9159 102.772 58.6393 102.488 59.3127C102.204 59.9861 101.787 60.5958 101.264 61.1059C100.42 61.9283 99.3333 62.4574 98.165 62.6148C96.9968 62.7722 95.8088 62.5496 94.7771 61.9799C94.1354 61.6303 93.5703 61.1558 93.1151 60.5844C92.66 60.013 92.324 59.3563 92.1271 58.6531C91.9301 57.9498 91.8762 57.2142 91.9685 56.4898C92.0608 55.7654 92.2974 55.0668 92.6644 54.4352C93.2799 53.3696 94.2492 52.5528 95.4043 52.1265C95.7128 52.0074 96.034 51.9244 96.3616 51.8791C96.4763 51.8594 96.5935 51.8594 96.7082 51.8791C96.7082 51.8791 96.2378 51.9698 95.4703 52.2914C94.3916 52.7602 93.4981 53.5718 92.9285 54.6001C92.5154 55.3593 92.2989 56.2097 92.2989 57.0738C92.2989 57.9379 92.5154 58.7883 92.9285 59.5475C93.4025 60.4431 94.132 61.1778 95.0247 61.6583C95.9816 62.1712 97.0759 62.3702 98.1524 62.2273C99.1909 62.0817 100.16 61.6234 100.931 60.9133C101.703 60.2032 102.239 59.2752 102.468 58.2529C102.652 57.4137 102.625 56.5421 102.388 55.7161C102.152 54.8901 101.715 54.1356 101.115 53.52C100.291 52.68 99.2112 52.1376 98.0451 51.9781C97.1208 51.8049 96.6504 51.8874 96.6504 51.8461Z" fill="#263238"/>
<path d="M98.664 45.0353L98.5898 44.8622L98.3752 44.3427L97.5499 42.2483H97.6242L92.6727 42.9574L92.7635 42.8585C92.6892 43.7655 92.6067 44.7715 92.5241 45.8434V45.9176H92.4499C91.4609 46.3407 90.5338 46.8954 89.6935 47.5667L89.6275 47.6162H89.5532L86.8134 46.3876L87.0032 46.3381L84.0075 50.2877V50.0816L85.9386 52.3738L86.0046 52.4563V52.5552C85.5952 53.5397 85.3177 54.5738 85.1794 55.6308V55.7545H85.0721L82.2662 56.8099L82.39 56.6038C82.6046 58.1457 82.8274 59.8113 83.0667 61.5511L82.8851 61.3862L85.8726 61.6418H85.9964V61.7573C86.4251 62.7401 86.9799 63.6631 87.6469 64.503L87.7212 64.602L87.6716 64.7174L86.4255 67.4384L86.3677 67.1911L90.3125 70.1842H90.0484L92.3508 68.263L92.4499 68.1805L92.5654 68.23C93.5482 68.6378 94.5803 68.9151 95.6354 69.0546L95.8169 69.1947V69.3267L95.8829 69.4998L96.015 69.8544L96.2708 70.5552C96.4524 71.0252 96.6257 71.4952 96.799 71.957L96.5679 71.8168L101.519 71.1572L101.338 71.3468C101.42 70.3409 101.511 69.3431 101.602 68.3619V68.2382L101.717 68.1888C102.702 67.7818 103.626 67.2437 104.466 66.5891L104.565 66.5149L104.68 66.5644L107.412 67.8095L107.164 67.8754C108.187 66.5232 109.192 65.2094 110.176 63.9341V64.1814C109.524 63.3569 108.889 62.6313 108.254 61.8809L108.179 61.7902L108.229 61.683C108.637 60.6982 108.914 59.6642 109.054 58.6075V58.492L109.153 58.4508L111.967 57.4119L111.852 57.6015C111.621 55.8782 111.406 54.2456 111.2 52.6542L111.348 52.7944L108.361 52.5223H108.27V52.4398C107.861 51.4523 107.323 50.5235 106.669 49.6775L106.62 49.6033V49.5291L107.874 46.8081L107.915 46.9648L103.987 43.9304H104.102L101.792 45.8351H101.751C101.002 45.521 100.226 45.278 99.4315 45.1095L98.8456 44.9941L98.664 45.0353C98.7322 45.0229 98.8021 45.0229 98.8704 45.0353C99.0699 45.0512 99.2683 45.0787 99.4645 45.1178C100.271 45.2534 101.059 45.4774 101.817 45.7857H101.751L104.028 43.8397L104.086 43.7902L104.152 43.8397L108.113 46.8164L108.196 46.8741L108.154 46.973L106.917 49.7105V49.5704C107.589 50.4301 108.144 51.3757 108.567 52.3821L108.443 52.2914L111.431 52.547H111.555V52.6789L112.231 57.585V57.7334L112.099 57.7829L109.293 58.8383L109.417 58.6817C109.283 59.7716 109.006 60.839 108.592 61.8562V61.6666C109.227 62.4169 109.871 63.1755 110.523 63.9588L110.622 64.0742L110.531 64.2062L107.527 68.1558L107.428 68.2795L107.28 68.2135L104.548 66.9767H104.763C103.894 67.6506 102.94 68.2052 101.924 68.6258L102.056 68.4526C101.965 69.4338 101.883 70.4315 101.792 71.4293V71.6024H101.627L96.6752 72.2703H96.5019L96.4441 72.1054L95.9242 70.7037L95.6601 70.0028L95.5281 69.6482L95.462 69.4751V69.3431L95.6354 69.4833C94.5421 69.3483 93.4712 69.0711 92.4499 68.6588H92.6727L90.3702 70.58L90.2382 70.6872L90.1061 70.5882L86.1614 67.5786L86.0294 67.4797L86.0954 67.323L87.3415 64.602V64.8164C86.6657 63.9467 86.1105 62.9898 85.691 61.9716L85.8561 62.0953L82.8769 61.8315H82.7118V61.6748C82.4808 59.968 82.258 58.3024 82.0516 56.7275V56.5791L82.2002 56.5213L85.0061 55.4824L84.8905 55.6308C85.0253 54.5411 85.3028 53.4738 85.7158 52.4563V52.6377C85.0391 51.8131 84.3871 51.0546 83.7929 50.3372L83.7104 50.2382L83.7847 50.1311L86.8051 46.1897L86.8794 46.099L86.9949 46.1485L89.7183 47.4018H89.5697C90.4341 46.7265 91.3864 46.1717 92.4004 45.7527L92.3261 45.8599C92.4251 44.7797 92.5241 43.782 92.6067 42.875V42.7843H92.6892L97.6407 42.1576H97.6985V42.2071C98.0121 43.1059 98.2597 43.8067 98.4412 44.3015C98.5155 44.5241 98.5815 44.7055 98.6228 44.8457C98.6448 44.9068 98.6586 44.9706 98.664 45.0353Z" fill="#263238"/>
<path fill-rule="evenodd" clip-rule="evenodd" d="M89.9576 74.1915C90.5501 74.2655 91.1301 74.418 91.6824 74.645L92.9533 73.5896L95.1319 75.2387L94.447 76.7394C94.8145 77.2108 95.117 77.7294 95.3465 78.2813L96.997 78.4297L97.3601 81.1425L95.8169 81.7197C95.739 82.3119 95.5836 82.8912 95.3548 83.443L96.4193 84.7128L94.7688 86.8896L93.2669 86.2053C92.7916 86.5652 92.2732 86.8644 91.7236 87.0958L91.5751 88.7449L88.86 89.1159L88.2823 87.5658C87.6898 87.4918 87.1098 87.3393 86.5575 87.1123L85.2866 88.1759L83.108 86.5268L83.7929 85.0179C83.4237 84.5476 83.121 84.0288 82.8934 83.476L81.2429 83.3358L80.8715 80.623L82.423 80.0459C82.4981 79.4514 82.6507 78.8692 82.8769 78.3143L81.8123 77.0527L83.4628 74.8759L84.973 75.5603C85.4437 75.1914 85.963 74.8889 86.5163 74.6615L86.6566 73.0124L89.3717 72.6414L89.9493 74.1915H89.9576ZM88.8435 77.9597C88.266 78.0381 87.7249 78.2864 87.289 78.6728C86.8531 79.0593 86.5421 79.5666 86.3956 80.1302C86.249 80.6937 86.2735 81.2881 86.4659 81.8377C86.6584 82.3874 87.0101 82.8674 87.4763 83.2167C87.9425 83.5661 88.5022 83.769 89.0842 83.7997C89.6661 83.8304 90.2441 83.6875 90.7445 83.3891C91.245 83.0907 91.6453 82.6504 91.8946 82.1241C92.1439 81.5977 92.2309 81.0092 92.1445 80.4334C92.0301 79.6703 91.6196 78.983 91.0018 78.5201C90.384 78.0571 89.6087 77.8558 88.8435 77.9597Z" fill="#92E3A9"/>
<path d="M219.947 94.4319C234.137 80.2539 234.137 57.2668 219.947 43.0888C205.757 28.9108 182.75 28.9108 168.56 43.0888C154.37 57.2668 154.37 80.2539 168.56 94.4319C182.75 108.61 205.757 108.61 219.947 94.4319Z" fill="white"/>
<path d="M230.589 68.7577C230.589 68.7577 230.589 68.5598 230.54 68.1723C230.49 67.7847 230.474 67.1911 230.433 66.449C230.433 66.0697 230.383 65.6244 230.358 65.1791C230.334 64.7339 230.21 64.2062 230.127 63.662C230.045 63.1178 229.946 62.5241 229.847 61.8892C229.748 61.2543 229.533 60.6111 229.376 59.9102C228.527 56.5158 227.169 53.2689 225.349 50.2795C222.969 46.302 219.845 42.8195 216.147 40.022L214.579 38.8512C214.035 38.4966 213.457 38.1668 212.879 37.8122C212.302 37.4577 211.741 37.0784 211.122 36.7898L209.248 35.891L208.291 35.4375L205.254 34.3326C204.561 34.11 203.843 33.9616 203.125 33.7637C202.406 33.557 201.676 33.3918 200.938 33.2689C199.428 32.9873 197.9 32.811 196.366 32.7412C195.582 32.7412 194.798 32.6423 194.006 32.6505L191.613 32.7742C191.216 32.7742 190.787 32.7742 190.408 32.8484L189.203 33.0381C188.378 33.17 187.552 33.2689 186.768 33.4339C183.455 34.1814 180.252 35.3508 177.237 36.9135C176.477 37.3257 175.743 37.8122 174.992 38.2575C174.621 38.4966 174.224 38.6945 173.87 38.9584L172.813 39.7829C171.362 40.8502 169.984 42.0127 168.687 43.2625L166.847 45.2827L166.385 45.7939L165.972 46.3381L165.147 47.443L164.321 48.5562L163.595 49.7435L162.869 50.9391L162.506 51.541L162.2 52.1677L160.971 54.7156L159.997 57.4036C157.51 64.7945 157.51 72.7952 159.997 80.186L160.979 82.8576L162.2 85.4054L162.514 86.0321L162.877 86.634L163.603 87.8296L164.33 89.017L165.155 90.1301L166.393 91.7875L166.855 92.2905L168.695 94.3189C169.992 95.5689 171.37 96.7314 172.822 97.7985L173.886 98.623C174.241 98.8951 174.637 99.093 175.008 99.3322C175.759 99.7774 176.494 100.264 177.253 100.676C178.778 101.473 180.355 102.164 181.974 102.746C183.548 103.318 185.158 103.789 186.793 104.156C187.618 104.321 188.444 104.42 189.219 104.552L190.424 104.733C190.829 104.791 191.249 104.782 191.637 104.815L194.031 104.939C194.856 104.939 195.607 104.873 196.383 104.848C197.917 104.775 199.444 104.598 200.954 104.321C201.692 104.195 202.422 104.03 203.141 103.826C203.859 103.628 204.586 103.48 205.271 103.249L207.309 102.515L208.316 102.144L211.146 100.792C211.774 100.511 212.327 100.107 212.912 99.7774C213.498 99.4476 214.06 99.093 214.612 98.7302L216.172 97.5676C219.872 94.7727 222.997 91.2897 225.374 87.3102C227.193 84.3172 228.55 81.0678 229.401 77.6711C229.558 76.9703 229.797 76.3271 229.871 75.6922C229.946 75.0573 230.061 74.4719 230.152 73.9277C230.243 73.3834 230.334 72.8722 230.383 72.4105C230.433 71.9487 230.433 71.52 230.457 71.1407C230.499 70.3903 230.54 69.8214 230.565 69.4174C230.589 69.0133 230.614 68.8319 230.614 68.8319C230.614 68.8319 230.614 69.0298 230.614 69.4174C230.614 69.8049 230.614 70.3986 230.548 71.1489C230.548 71.5282 230.548 71.9735 230.499 72.4187C230.449 72.864 230.358 73.3917 230.284 73.9441C230.21 74.4966 230.119 75.0903 230.028 75.7252C229.937 76.3601 229.723 77.0115 229.566 77.7124C228.751 81.1386 227.409 84.418 225.588 87.4338C223.215 91.454 220.085 94.9766 216.37 97.8067L214.794 98.9858C214.241 99.3569 213.655 99.6867 213.086 100.05C212.516 100.412 211.939 100.792 211.303 101.08L209.38 101.929L208.415 102.391L207.408 102.762L205.353 103.513C204.66 103.744 203.925 103.9 203.207 104.098C202.48 104.307 201.742 104.475 200.996 104.601C199.473 104.892 197.931 105.074 196.383 105.145C195.557 105.145 194.798 105.252 193.998 105.244L191.58 105.121C191.175 105.121 190.754 105.121 190.358 105.046L189.145 104.865C188.32 104.733 187.495 104.634 186.669 104.469C185.014 104.103 183.385 103.629 181.792 103.051C180.157 102.464 178.563 101.767 177.022 100.965C176.255 100.544 175.512 100.058 174.744 99.6042C174.373 99.3734 173.977 99.1672 173.614 98.8951L172.541 98.0706C171.09 96.9878 169.712 95.8117 168.415 94.5497L166.558 92.5049L166.087 91.9936L165.667 91.4412L164.016 89.1984L163.273 87.9945L162.539 86.7907L162.167 86.1805L161.862 85.5456C161.449 84.7211 161.037 83.8305 160.616 82.9648L159.626 80.2602C157.106 72.7844 157.106 64.6898 159.626 57.214L160.616 54.5094L161.862 51.9368L162.176 51.2937L162.539 50.6918L163.282 49.4797L164.016 48.2758L164.841 47.1544L165.667 46.0413L166.087 45.4806L166.558 44.9693C167.177 44.285 167.804 43.6088 168.415 42.9245C169.712 41.6652 171.091 40.4918 172.541 39.4119L173.614 38.5873C173.977 38.3152 174.373 38.1091 174.744 37.8699C175.512 37.4164 176.255 36.9382 177.022 36.5177C178.562 35.7122 180.155 35.0151 181.792 34.4316C183.385 33.8534 185.014 33.3796 186.669 33.0133C187.495 32.8484 188.32 32.7495 189.145 32.6175L190.358 32.4361C190.763 32.3784 191.183 32.3867 191.58 32.3537L193.998 32.2383C194.823 32.2383 195.59 32.3042 196.374 32.3372C197.926 32.4083 199.47 32.5902 200.996 32.8814C201.74 33.0022 202.476 33.1702 203.199 33.3844C203.925 33.5823 204.652 33.7307 205.353 33.9698L207.4 34.7202L208.423 35.1407L209.389 35.6024L211.278 36.5177C211.906 36.8063 212.467 37.2103 213.053 37.5484C213.639 37.8864 214.216 38.241 214.769 38.6038L216.337 39.7829C220.055 42.6158 223.188 46.141 225.564 50.164C227.381 53.1775 228.72 56.4541 229.533 59.8773C229.69 60.5864 229.921 61.2378 229.995 61.8727C230.07 62.5076 230.169 63.1013 230.251 63.6537C230.334 64.2062 230.424 64.7092 230.466 65.1709C230.507 65.6327 230.466 66.0697 230.515 66.449C230.515 67.1993 230.565 67.7765 230.581 68.1805C230.598 68.5846 230.589 68.7577 230.589 68.7577Z" fill="#92E3A9"/>
<path d="M209.861 76.4928C214.023 67.2984 209.938 56.4732 200.736 52.314C191.533 48.1548 180.699 52.2367 176.536 61.4311C172.373 70.6256 176.459 81.4508 185.661 85.61C194.863 89.7692 205.698 85.6873 209.861 76.4928Z" fill="#F5F5F5"/>
<path d="M174.942 67.7518C174.95 67.8506 174.95 67.9498 174.942 68.0486C174.942 68.263 174.942 68.5516 174.942 68.9144V69.5575C174.942 69.7884 174.942 70.044 175.008 70.3244C175.054 70.9617 175.142 71.5953 175.273 72.2208C175.597 73.9456 176.176 75.6127 176.989 77.1682C178.921 80.9113 182.097 83.866 185.971 85.5254C189.846 87.1849 194.177 87.4456 198.223 86.263C199.048 86.0228 199.855 85.7281 200.641 85.3807C201.438 85.0113 202.208 84.5841 202.943 84.1027C203.699 83.6185 204.422 83.084 205.106 82.503C205.782 81.8844 206.419 81.2234 207.012 80.5241C208.23 79.0921 209.21 77.4748 209.917 75.7334C210.627 73.9337 211.067 72.0386 211.221 70.11C211.325 68.1688 211.136 66.223 210.659 64.3381C210.194 62.5159 209.436 60.781 208.415 59.2011C207.912 58.4305 207.36 57.6925 206.764 56.9913C206.164 56.3241 205.519 55.6988 204.833 55.1196C204.164 54.5476 203.456 54.0241 202.712 53.553C198.756 51.0979 194.006 50.256 189.446 51.2014C184.885 52.1468 180.863 54.8071 178.21 58.6322C177.198 60.0665 176.407 61.6455 175.867 63.3157C175.652 63.9182 175.481 64.5355 175.355 65.1627C175.297 65.4348 175.231 65.6821 175.19 65.913C175.149 66.1439 175.124 66.3583 175.099 66.5479C175.05 66.9107 175.008 67.1911 174.984 67.3725C174.973 67.4729 174.954 67.5722 174.926 67.6693C174.913 67.5708 174.913 67.471 174.926 67.3725C174.926 67.1498 174.975 66.8695 175.008 66.5067C175.008 66.3088 175.05 66.0944 175.074 65.8635C175.099 65.6326 175.165 65.377 175.223 65.1049C175.337 64.4676 175.497 63.8392 175.702 63.225C176.221 61.5283 176.998 59.921 178.004 58.459C179.454 56.3223 181.339 54.516 183.536 53.1587C185.734 51.8014 188.194 50.9238 190.755 50.5835C193.316 50.2433 195.92 50.448 198.396 51.1843C200.872 51.9206 203.164 53.1718 205.122 54.8557C205.826 55.4464 206.488 56.0856 207.103 56.7687C207.701 57.4826 208.252 58.2345 208.753 59.0197C209.8 60.6374 210.578 62.414 211.056 64.2804C211.543 66.1999 211.738 68.1819 211.633 70.1595C211.476 72.1389 211.025 74.084 210.296 75.9313C209.574 77.7288 208.568 79.399 207.317 80.8786C206.71 81.5938 206.057 82.2687 205.361 82.8988C204.661 83.4965 203.922 84.0474 203.15 84.5479C202.394 85.0363 201.605 85.4717 200.789 85.8507C196.951 87.5108 192.668 87.8473 188.617 86.8072C186.086 86.1475 183.725 84.957 181.69 83.3149C179.655 81.6729 177.994 79.6169 176.816 77.2836C176.014 75.7002 175.457 74.0042 175.165 72.2538C175.047 71.6193 174.972 70.9774 174.942 70.3326C174.942 70.0523 174.893 69.7967 174.893 69.5575C174.893 69.3184 174.893 69.1123 174.893 68.9144C174.893 68.5516 174.893 68.263 174.934 68.0486C174.926 67.9496 174.929 67.8501 174.942 67.7518Z" fill="#263238"/>
<path d="M201.491 69.508C201.274 69.5306 201.056 69.5306 200.839 69.508L199.065 69.5493C197.554 69.5493 195.458 69.5493 193.082 69.5493H192.966V68.2465C192.966 65.5997 192.966 63.2085 192.966 61.4769C192.966 60.6524 192.966 59.9432 193.007 59.4238C192.999 59.1702 193.012 58.9163 193.049 58.6652C193.086 58.9163 193.102 59.17 193.098 59.4238C193.098 59.9432 193.098 60.6359 193.098 61.4769C193.098 63.2085 193.139 65.5997 193.139 68.2465V69.4338L193.016 69.3184C195.392 69.3184 197.488 69.3184 198.999 69.3596H200.773C201.017 69.381 201.258 69.4308 201.491 69.508Z" fill="#263238"/>
<path d="M193.139 53.6766C193.293 54.6933 193.293 55.7273 193.139 56.744C192.985 55.7273 192.985 54.6933 193.139 53.6766Z" fill="#263238"/>
<path d="M201.474 56.142C200.874 56.9626 200.15 57.6857 199.329 58.2859C199.596 57.8517 199.931 57.4622 200.319 57.1315C200.649 56.7426 201.039 56.4087 201.474 56.142Z" fill="#263238"/>
<path d="M206.343 61.4604C205.955 61.7821 205.532 62.0587 205.081 62.285C204.671 62.5789 204.228 62.8225 203.76 63.0106C204.096 62.6265 204.502 62.3102 204.957 62.0788C205.377 61.7888 205.847 61.5791 206.343 61.4604Z" fill="#263238"/>
<path d="M209.199 69.3514C207.806 69.5053 206.4 69.5053 205.006 69.3514C206.4 69.1975 207.806 69.1975 209.199 69.3514Z" fill="#263238"/>
<path d="M180.158 69.071C178.842 69.225 177.513 69.225 176.197 69.071C177.513 68.9171 178.842 68.9171 180.158 69.071Z" fill="#263238"/>
<path d="M182.205 74.9419C181.766 75.4564 181.264 75.9135 180.711 76.3024C180.209 76.7564 179.655 77.1494 179.06 77.4732C179.507 76.966 180.008 76.5097 180.554 76.1127C181.059 75.6622 181.613 75.2695 182.205 74.9419Z" fill="#263238"/>
<path d="M187.28 79.4851C186.983 80.0976 186.641 80.6873 186.257 81.2497C185.944 81.8526 185.582 82.429 185.176 82.973C185.375 82.3162 185.672 81.6935 186.059 81.126C186.378 80.519 186.79 79.9653 187.28 79.4851Z" fill="#263238"/>
<path d="M193.139 85.3477C192.985 83.9557 192.985 82.551 193.139 81.159C193.293 82.551 193.293 83.9557 193.139 85.3477Z" fill="#263238"/>
<path d="M202.168 82.5607C201.531 82.2658 200.948 81.8673 200.443 81.3816C199.891 80.9448 199.415 80.4212 199.032 79.8315C199.582 80.2553 200.105 80.7124 200.6 81.2002C201.148 81.6233 201.672 82.0775 202.168 82.5607Z" fill="#263238"/>
<path d="M206.409 78.0174C205.898 77.6699 205.432 77.26 205.023 76.7971C204.554 76.3933 204.144 75.9272 203.802 75.4119C204.313 75.7594 204.779 76.1693 205.188 76.6322C205.651 77.0414 206.062 77.5067 206.409 78.0174Z" fill="#263238"/>
<path d="M182.015 63.4476C181.562 63.1529 181.151 62.7978 180.793 62.3922C180.383 62.0362 180.028 61.6223 179.737 61.1636C180.19 61.4583 180.601 61.8134 180.959 62.219C181.369 62.575 181.724 62.9889 182.015 63.4476Z" fill="#263238"/>
<path d="M187.247 57.9396C186.794 57.6608 186.388 57.313 186.042 56.9089C185.639 56.5636 185.288 56.1607 185.002 55.7133C185.455 55.9921 185.862 56.3398 186.207 56.744C186.611 57.0893 186.961 57.4921 187.247 57.9396Z" fill="#263238"/>
<path d="M210.749 62.5515C215.648 60.541 217.988 54.9432 215.976 50.0484C213.963 45.1536 208.361 42.8154 203.462 44.8259C198.563 46.8364 196.223 52.4342 198.235 57.329C200.247 62.2238 205.85 64.562 210.749 62.5515Z" fill="#92E3A9"/>
<path d="M211.724 50.6918C211.384 51.2415 210.988 51.7554 210.544 52.2254C209.785 53.1324 208.704 54.3775 207.491 55.7298C207.152 56.1008 206.822 56.4554 206.508 56.8099L206.368 56.9584L206.22 56.8264C205.122 55.8452 204.181 54.9712 203.521 54.3528C203.143 54.043 202.808 53.6854 202.522 53.2891C202.951 53.5259 203.348 53.8169 203.703 54.1549C204.412 54.7321 205.353 55.5649 206.492 56.5296H206.203C206.511 56.1778 206.833 55.815 207.169 55.4412C208.382 54.0889 209.496 52.8851 210.321 52.0193C210.735 51.5234 211.206 51.0778 211.724 50.6918Z" fill="#FAFAFA"/>
<path d="M120.162 211.471C120.088 211.389 120.707 210.696 121.557 209.938C122.407 209.179 123.149 208.627 123.207 208.717C123.265 208.808 122.662 209.492 121.812 210.251C120.962 211.01 120.244 211.595 120.162 211.471Z" fill="#92E3A9"/>
<path d="M114.03 216.988C113.948 216.897 114.567 216.213 115.417 215.446C116.267 214.679 117.018 214.143 117.067 214.234C117.117 214.324 116.531 215.009 115.681 215.767C114.831 216.526 114.105 217.078 114.03 216.988Z" fill="#92E3A9"/>
<path d="M107.89 222.504C107.808 222.413 108.435 221.679 109.285 220.962C109.749 220.45 110.31 220.035 110.936 219.742C111.01 219.832 110.391 220.517 109.541 221.284C109.077 221.795 108.516 222.21 107.89 222.504Z" fill="#92E3A9"/>
<path d="M101.759 228.012C101.676 227.929 102.295 227.237 103.145 226.478C103.995 225.72 104.746 225.167 104.796 225.258C104.845 225.349 104.259 226.033 103.409 226.8C102.559 227.567 101.833 228.086 101.759 228.012Z" fill="#92E3A9"/>
<path d="M95.6188 233.528C95.5363 233.437 96.1635 232.753 97.0135 231.995C97.8635 231.236 98.6063 230.683 98.664 230.774C98.7218 230.865 98.1194 231.549 97.2694 232.308C96.4193 233.066 95.7014 233.619 95.6188 233.528Z" fill="#92E3A9"/>
<path d="M108.744 271.312C113.367 251.801 101.285 232.239 81.7569 227.62C62.2289 223 42.6504 235.072 38.027 254.584C33.4035 274.095 45.4861 293.657 65.014 298.276C84.542 302.896 104.121 290.824 108.744 271.312Z" fill="white"/>
<path d="M109.722 262.956C109.722 262.956 109.722 262.759 109.673 262.371C109.623 261.984 109.615 261.398 109.566 260.648C109.566 260.268 109.516 259.823 109.491 259.378C109.467 258.933 109.343 258.405 109.26 257.861C109.178 257.317 109.079 256.723 108.98 256.096C108.86 255.428 108.702 254.768 108.509 254.117C107.661 250.72 106.304 247.47 104.482 244.478C102.102 240.501 98.9781 237.018 95.2805 234.221L93.7125 233.033C93.1596 232.671 92.5819 232.341 92.0042 231.986C91.4265 231.632 90.8736 231.252 90.2464 230.972L88.3648 230.073L87.4075 229.62L86.409 229.249L84.3706 228.515C83.6774 228.284 82.9594 228.136 82.2414 227.938C81.5216 227.735 80.7916 227.57 80.0545 227.443C78.544 227.165 77.0166 226.989 75.4826 226.915C74.7069 226.915 73.9146 226.816 73.1224 226.825L70.7374 226.948C70.333 226.948 69.9121 226.948 69.5243 227.031L68.3194 227.212C67.4941 227.344 66.6689 227.443 65.8931 227.608C64.2581 227.974 62.6482 228.445 61.0736 229.018C59.4569 229.598 57.8824 230.29 56.3614 231.088C55.5939 231.5 54.8595 231.986 54.1085 232.432C53.7371 232.671 53.341 232.869 52.9944 233.141L51.9298 233.965C50.4788 235.033 49.1003 236.195 47.8035 237.445L45.9715 239.465L45.5093 239.976L45.0884 240.529L43.4379 242.738L42.7117 243.926L41.9855 245.121L41.6224 245.723L41.317 246.358C40.9044 247.183 40.4918 248.049 40.0874 248.898C39.683 249.747 39.4354 250.679 39.1053 251.578C36.6183 258.966 36.6183 266.964 39.1053 274.352C39.4354 275.242 39.7573 276.141 40.0874 277.023C40.4175 277.906 40.9126 278.73 41.3088 279.571L41.6224 280.206L41.9855 280.8L43.4379 283.191L45.5011 285.953L45.9632 286.464L47.8035 288.485C49.1003 289.735 50.4788 290.897 51.9298 291.964L52.9861 292.789C53.341 293.053 53.7371 293.251 54.1085 293.49C54.8595 293.935 55.5939 294.421 56.3532 294.834C57.8776 295.63 59.4548 296.322 61.0736 296.903C62.6458 297.484 64.2561 297.955 65.8931 298.313C66.7184 298.486 67.5436 298.577 68.3194 298.709L69.5243 298.899C69.9286 298.948 70.3495 298.948 70.7374 298.973L73.1306 299.097C73.9559 299.097 74.7069 299.031 75.4826 299.006C77.017 298.936 78.5446 298.76 80.0545 298.478C80.7935 298.361 81.524 298.196 82.2414 297.983C82.9594 297.786 83.6856 297.637 84.3706 297.415L86.409 296.672L87.4158 296.31L88.3648 295.856L90.2464 294.949C90.8736 294.669 91.4265 294.265 92.0125 293.935C92.5984 293.605 93.1596 293.251 93.7125 292.888L95.2722 291.725C98.9743 288.93 102.102 285.447 104.482 281.468C106.304 278.462 107.661 275.198 108.509 271.787C108.702 271.137 108.859 270.476 108.98 269.809C109.079 269.174 109.178 268.588 109.26 268.036C109.343 267.483 109.442 266.989 109.491 266.519C109.541 266.049 109.541 265.628 109.566 265.249C109.615 264.507 109.648 263.929 109.673 263.525C109.698 263.121 109.722 262.94 109.722 262.94C109.722 262.94 109.722 263.138 109.722 263.534C109.722 263.929 109.722 264.507 109.656 265.257C109.656 265.636 109.656 266.082 109.607 266.535C109.557 266.989 109.475 267.508 109.392 268.052C109.31 268.596 109.227 269.198 109.137 269.833C109.018 270.506 108.863 271.172 108.674 271.829C107.857 275.25 106.518 278.526 104.705 281.542C102.326 285.56 99.1934 289.083 95.4785 291.915L93.9023 293.102C93.3494 293.465 92.7635 293.795 92.194 294.158C91.6246 294.52 91.0469 294.9 90.4115 295.188L88.5216 296.104L87.5561 296.565L86.5493 296.936L84.4944 297.687C83.8012 297.926 83.0667 298.074 82.3487 298.272C81.6226 298.485 80.884 298.653 80.137 298.775C78.6142 299.066 77.0726 299.248 75.5239 299.319C74.6986 299.319 73.9394 299.426 73.1389 299.418L70.7209 299.303C70.3165 299.303 69.8956 299.303 69.5077 299.22L68.2864 299.039C67.4611 298.907 66.6359 298.816 65.8106 298.643C64.1547 298.281 62.5253 297.807 60.9333 297.225C59.2979 296.638 57.7042 295.941 56.1634 295.139C55.3959 294.727 54.6531 294.24 53.8857 293.787C53.5143 293.547 53.1182 293.341 52.7551 293.069L51.6822 292.245C50.2298 291.164 48.8513 289.988 47.5559 288.724L45.6991 286.687L45.2287 286.168L44.8078 285.615L43.1573 283.372L42.4146 282.177L41.6801 280.965L41.317 280.355L41.0034 279.72L39.7573 277.139L38.767 274.434C36.2474 266.958 36.2474 258.864 38.767 251.388L39.7573 248.683C40.1782 247.859 40.5825 246.968 41.0034 246.111L41.317 245.468L41.6884 244.866L42.4229 243.654L43.1573 242.458L43.9826 241.328L44.8078 240.215L45.2287 239.663L45.6991 239.143L47.5394 237.156C48.8369 235.894 50.2152 234.718 51.6657 233.635L52.7468 232.811C53.1017 232.539 53.4978 232.333 53.8774 232.093C54.6366 231.648 55.3794 231.162 56.1469 230.741C57.6893 229.942 59.2828 229.245 60.9168 228.655C62.5187 228.084 64.1562 227.619 65.8188 227.262C66.6441 227.097 67.4694 226.998 68.2946 226.866L69.5077 226.684C69.9204 226.635 70.333 226.635 70.7291 226.61L73.1471 226.486C73.9724 226.486 74.7399 226.552 75.5321 226.585C77.0808 226.657 78.6225 226.839 80.1453 227.13C80.8889 227.254 81.6247 227.422 82.3487 227.633C83.075 227.831 83.8012 227.987 84.5026 228.218L86.5575 228.968L87.5643 229.339L88.5299 229.801L90.4197 230.716C91.0552 231.005 91.6081 231.409 92.194 231.747C92.78 232.085 93.3576 232.44 93.9106 232.811L95.4785 233.99C99.1955 236.82 102.329 240.342 104.705 244.363C106.525 247.379 107.867 250.658 108.683 254.084C108.872 254.738 109.027 255.401 109.145 256.071C109.236 256.706 109.326 257.3 109.401 257.853C109.475 258.405 109.574 258.908 109.615 259.378C109.656 259.848 109.615 260.268 109.665 260.648C109.665 261.398 109.722 261.975 109.731 262.379C109.739 262.783 109.722 262.956 109.722 262.956Z" fill="#92E3A9"/>
<path d="M91.6164 279.208C91.3839 279.24 91.1494 279.254 90.9149 279.25L88.9095 279.291L81.4822 279.365L57.0959 279.439H55.1565V279.208C55.1565 270.138 55.2061 261.942 55.2226 255.997C55.2226 253.087 55.2803 250.72 55.2968 249.03C55.2968 248.205 55.2968 247.612 55.3381 247.142C55.3255 246.922 55.3255 246.702 55.3381 246.482C55.3762 246.7 55.3927 246.921 55.3876 247.142C55.3876 247.612 55.3876 248.238 55.3876 249.03C55.3876 250.72 55.3876 253.087 55.4619 255.997C55.4619 261.942 55.4619 270.105 55.5279 279.208L55.2968 278.978H57.0381L81.4244 279.044L88.8517 279.118L90.8571 279.159C91.1112 279.15 91.3655 279.167 91.6164 279.208Z" fill="#263238"/>
<path d="M87.5891 254.422C87.2586 254.796 86.897 255.141 86.508 255.453L83.4546 258.133C80.855 260.384 77.2486 263.468 73.2544 266.848L72.6437 267.368L72.4869 267.5L72.3384 267.36L67.7995 263.146H68.1296L61.4615 268.638L59.5304 270.18C59.3069 270.377 59.0635 270.551 58.8042 270.699C58.993 270.468 59.206 270.258 59.4396 270.072L61.2965 268.423L67.849 262.808L67.9975 262.684L68.1378 262.816L72.6932 267.005H72.3879L72.9903 266.494C76.9928 263.105 80.6322 260.062 83.2813 257.877L86.4337 255.305C86.7967 254.983 87.1829 254.688 87.5891 254.422Z" fill="#263238"/>
<path d="M87.5891 262C87.4652 261.256 87.4127 260.503 87.4323 259.749C87.4323 258.347 87.3663 256.401 87.3663 254.241L87.5891 254.472H87.2012C84.9483 254.472 82.9099 254.472 81.4245 254.406C80.6232 254.431 79.8214 254.376 79.0312 254.241C79.8226 254.117 80.6234 254.061 81.4245 254.076C82.9017 254.076 84.94 254.01 87.2012 254.01H87.8202V254.241C87.8202 256.401 87.8202 258.364 87.7542 259.749C87.7795 260.503 87.7241 261.258 87.5891 262Z" fill="#263238"/>
<path d="M72.3329 169.99C77.1436 150.524 65.2495 130.847 45.7669 126.041C26.2842 121.234 6.59051 133.118 1.77986 152.584C-3.03079 172.05 8.86324 191.727 28.3459 196.534C47.8286 201.34 67.5223 189.456 72.3329 169.99Z" fill="white"/>
<path d="M73.3865 161.297C73.3865 161.297 73.3865 161.091 73.3369 160.704C73.2874 160.316 73.2792 159.731 73.2297 158.98C73.2297 158.601 73.1801 158.156 73.1554 157.711C73.1306 157.265 73.0068 156.746 72.9243 156.193C72.8418 155.641 72.7428 155.055 72.6437 154.429C72.5447 153.802 72.3301 153.151 72.1733 152.45C71.3201 149.049 69.9567 145.796 68.1296 142.803C65.7501 138.822 62.6261 135.337 58.928 132.537L57.4012 131.374C56.8483 131.02 56.2706 130.69 55.693 130.335C55.1153 129.981 54.5624 129.601 53.9352 129.313L52.0536 128.414L51.0963 127.961L48.0594 126.856C47.3661 126.625 46.6482 126.476 45.9302 126.287C45.2123 126.076 44.4819 125.911 43.7433 125.792C42.2334 125.51 40.7057 125.334 39.1714 125.264C38.3956 125.264 37.6034 125.157 36.8111 125.174L34.4261 125.297C34.0218 125.297 33.6009 125.297 33.213 125.372L32.0081 125.561C31.1829 125.693 30.3576 125.784 29.5819 125.949C27.9457 126.314 26.3356 126.788 24.7624 127.367C23.1456 127.947 21.5711 128.639 20.0502 129.437C19.2827 129.849 18.5482 130.327 17.7972 130.781C17.4259 131.011 17.0297 131.218 16.6831 131.481L15.6185 132.306C14.1675 133.373 12.7891 134.536 11.4923 135.786L9.66021 137.806L9.19806 138.309L8.77718 138.861L7.95193 139.966L7.12667 141.079L6.40045 142.267L5.67422 143.462L5.31111 144.056L5.00576 144.691L3.75963 147.214L2.77757 149.886C0.290569 157.274 0.290569 165.272 2.77757 172.66C3.10767 173.558 3.42952 174.449 3.75963 175.339C4.08973 176.23 4.58488 177.038 4.981 177.879L5.2946 178.514L5.65771 179.116L6.38394 180.312L7.11016 181.499L7.93542 182.612L8.76068 183.717L9.17331 184.261L9.63545 184.772L11.4758 186.793C12.7726 188.042 14.151 189.205 15.602 190.272L16.6584 191.097C17.0132 191.361 17.4094 191.567 17.7807 191.798C18.5317 192.251 19.2662 192.729 20.0254 193.142C23.0444 194.704 26.2502 195.876 29.5654 196.629C30.3906 196.794 31.2159 196.885 31.9916 197.025L33.1965 197.207C33.6009 197.256 34.0218 197.256 34.4096 197.281L36.8029 197.405C37.6281 197.405 38.3791 197.347 39.1548 197.314C40.6892 197.244 42.2169 197.068 43.7268 196.786C44.4657 196.669 45.1963 196.504 45.9137 196.291C46.6317 196.102 47.3579 195.953 48.0429 195.722L50.0812 194.98L51.088 194.618L53.9187 193.265C54.5459 192.977 55.0988 192.573 55.6847 192.243C56.2706 191.913 56.8318 191.567 57.3847 191.204L58.9445 190.041C62.6405 187.234 65.7592 183.74 68.1296 179.751C69.9439 176.76 71.2986 173.513 72.1486 170.12C72.3408 169.469 72.4979 168.809 72.619 168.141C72.718 167.514 72.817 166.921 72.8996 166.377C72.9821 165.832 73.0811 165.321 73.1306 164.859C73.1801 164.398 73.1801 163.969 73.2049 163.59C73.2544 162.839 73.2874 162.27 73.3122 161.866C73.3369 161.462 73.3617 161.281 73.3617 161.281C73.3617 161.281 73.3617 161.479 73.3617 161.866C73.3617 162.254 73.3617 162.847 73.2957 163.59C73.2957 163.977 73.2957 164.414 73.2462 164.868C73.1966 165.321 73.1141 165.841 73.0316 166.393C72.9491 166.946 72.8665 167.531 72.7758 168.166C72.6577 168.839 72.5034 169.505 72.3136 170.161C71.4974 173.583 70.1586 176.86 68.3441 179.875C65.9711 183.895 62.844 187.419 59.1343 190.256L57.558 191.435C57.0051 191.798 56.4192 192.136 55.8498 192.49C55.2803 192.845 54.7027 193.241 54.0672 193.529L52.1774 194.444L51.2118 194.898L48.1501 196.027C47.4569 196.258 46.7224 196.407 46.0045 196.605C45.2785 196.821 44.5399 196.991 43.7928 197.116C42.2687 197.399 40.7276 197.58 39.1796 197.66C38.3543 197.66 37.5951 197.767 36.7946 197.759L34.3766 197.635C33.9722 197.635 33.5514 197.635 33.1635 197.561L31.9421 197.372C31.1169 197.24 30.2916 197.149 29.4663 196.984C27.8113 196.615 26.1821 196.138 24.5891 195.557C22.9588 194.965 21.3707 194.262 19.8356 193.455C19.0681 193.043 18.3254 192.556 17.5579 192.103C17.1865 191.863 16.7904 191.666 16.4273 191.394L15.3545 190.569C13.9021 189.491 12.5236 188.318 11.2282 187.056L9.37136 185.011L8.90097 184.5L8.48009 183.948L6.82958 181.705L6.08685 180.501L5.35237 179.289L4.98926 178.687L4.67566 178.044C4.26303 177.219 3.8504 176.329 3.42952 175.471L2.3897 172.841C-0.129901 165.365 -0.129901 157.271 2.3897 149.795L3.38001 147.09L4.62614 144.509L4.93974 143.875L5.31111 143.264L6.78006 140.857L8.43057 138.614L8.85145 138.061L9.32185 137.55L11.1869 135.464C12.4823 134.202 13.8608 133.029 15.3132 131.951L16.3943 131.127C16.7492 130.863 17.1453 130.657 17.5249 130.418C18.2841 129.964 19.0269 129.478 19.7943 129.066C21.3352 128.263 22.9289 127.566 24.5643 126.979C26.1563 126.397 27.7857 125.924 29.4416 125.561C30.2668 125.388 31.0921 125.297 31.9174 125.165L33.1305 124.976C33.5431 124.926 33.9557 124.926 34.3519 124.902L36.7699 124.786C37.5951 124.786 38.3626 124.852 39.1548 124.877C40.7029 124.957 42.244 125.138 43.768 125.421C44.5126 125.545 45.2486 125.715 45.9715 125.932C46.6977 126.13 47.4239 126.279 48.1254 126.509L51.1871 127.639L52.1526 128.093L54.1002 129.024C54.7357 129.313 55.2886 129.725 55.8745 130.063C56.4605 130.401 57.0381 130.756 57.5911 131.119L59.159 132.298C62.8764 135.131 66.0095 138.656 68.3854 142.679C70.2056 145.692 71.5474 148.969 72.3631 152.392C72.5199 153.101 72.751 153.744 72.8253 154.388C72.8996 155.031 73.0068 155.608 73.0811 156.16C73.1554 156.713 73.2544 157.216 73.2957 157.686C73.3369 158.156 73.2957 158.576 73.3452 158.964C73.3452 159.714 73.3947 160.283 73.4112 160.687C73.4277 161.091 73.3865 161.297 73.3865 161.297Z" fill="#92E3A9"/>
<path d="M37.9912 145.491L41.9277 153.464C42.0036 153.611 42.1136 153.738 42.2485 153.834C42.3835 153.93 42.5394 153.993 42.7034 154.017L51.5089 155.295C51.6982 155.322 51.876 155.403 52.0219 155.526C52.1679 155.65 52.2762 155.812 52.3347 155.994C52.3931 156.176 52.3993 156.371 52.3525 156.556C52.3058 156.741 52.2079 156.91 52.0701 157.043L45.6991 163.243C45.5816 163.36 45.4939 163.504 45.4436 163.661C45.3934 163.819 45.3819 163.987 45.4103 164.15L46.9122 172.907C46.9451 173.095 46.9245 173.289 46.8528 173.466C46.781 173.643 46.661 173.797 46.5063 173.909C46.3516 174.022 46.1685 174.089 45.9777 174.103C45.7869 174.116 45.596 174.076 45.4268 173.987L37.5538 169.864C37.4076 169.787 37.2447 169.747 37.0793 169.747C36.9139 169.747 36.751 169.787 36.6048 169.864L28.7236 173.987C28.5549 174.078 28.3642 174.118 28.1733 174.105C27.9824 174.092 27.7992 174.025 27.6447 173.912C27.4903 173.799 27.371 173.645 27.3005 173.467C27.23 173.289 27.2113 173.095 27.2464 172.907L28.7484 164.15C28.775 163.986 28.7619 163.818 28.7102 163.661C28.6585 163.503 28.5697 163.36 28.4513 163.243L22.0803 157.043C21.9454 156.908 21.8504 156.739 21.8059 156.554C21.7613 156.369 21.769 156.175 21.8279 155.994C21.8869 155.813 21.9949 155.652 22.14 155.528C22.285 155.405 22.4615 155.324 22.6497 155.295L31.4552 154.017C31.618 153.992 31.7726 153.929 31.9061 153.833C32.0396 153.737 32.1481 153.611 32.2227 153.464L36.1592 145.491C36.244 145.32 36.3747 145.177 36.5365 145.077C36.6983 144.977 36.8849 144.924 37.0752 144.924C37.2655 144.924 37.4521 144.977 37.6139 145.077C37.7757 145.177 37.9064 145.32 37.9912 145.491Z" fill="#FAFAFA"/>
<path d="M37.9912 145.491C37.9912 145.491 37.9912 145.408 37.8262 145.276C37.7105 145.155 37.5663 145.065 37.4067 145.015C37.2471 144.964 37.0773 144.954 36.9129 144.986C36.7485 145.018 36.5949 145.091 36.466 145.198C36.3372 145.305 36.2374 145.442 36.1757 145.598L35.4082 147.197C34.8305 148.401 34.1208 149.861 33.2955 151.559L32.6518 152.879C32.5445 153.109 32.429 153.34 32.3135 153.571C32.1657 153.837 31.92 154.035 31.6285 154.124C30.5309 154.305 29.4333 154.454 28.2532 154.635L24.5561 155.187L22.6002 155.484C22.4579 155.512 22.3255 155.577 22.2163 155.672C22.1071 155.767 22.0249 155.89 21.978 156.027C21.9312 156.164 21.9213 156.311 21.9494 156.453C21.9775 156.595 22.0426 156.727 22.1381 156.836L28.5173 163.054C28.6908 163.205 28.8189 163.402 28.8874 163.621C28.9559 163.841 28.962 164.076 28.9052 164.299L28.7071 165.486C28.5668 166.311 28.4348 167.086 28.2945 167.894C28.0221 169.543 27.7333 171.192 27.4692 172.841C27.4251 173.011 27.4366 173.191 27.5019 173.354C27.5672 173.517 27.683 173.655 27.8323 173.748C27.9755 173.844 28.1483 173.885 28.3192 173.863C28.5059 173.84 28.6843 173.772 28.8391 173.666L31.1746 172.445L35.9363 169.972L36.547 169.65C36.8044 169.529 37.0948 169.497 37.3723 169.559C37.6064 169.631 37.8309 169.73 38.0408 169.856L38.6349 170.17L45.6166 173.839C45.7338 173.887 45.8604 173.907 45.9866 173.898C46.1129 173.889 46.2354 173.851 46.3446 173.787C46.4539 173.724 46.5471 173.636 46.6169 173.53C46.6867 173.425 46.7313 173.305 46.7472 173.179C46.7465 172.988 46.7244 172.797 46.6812 172.61C46.5409 171.786 46.4006 170.961 46.2603 170.137C45.988 168.487 45.7156 166.929 45.435 165.371L45.237 164.216C45.1967 163.994 45.2167 163.765 45.2951 163.553C45.3735 163.342 45.5073 163.155 45.6826 163.012C46.2273 162.476 46.772 161.957 47.3331 161.437C48.406 160.399 49.443 159.39 50.4443 158.411L51.9298 156.977C52.0461 156.894 52.1391 156.783 52.1997 156.654C52.2603 156.526 52.2864 156.383 52.2756 156.241C52.2648 156.099 52.2174 155.963 52.138 155.844C52.0586 155.726 51.9499 155.63 51.8225 155.567C51.5396 155.459 51.2418 155.395 50.9395 155.377L49.9739 155.237L43.2564 154.231C43.0005 154.181 42.7777 154.173 42.5054 154.099C42.2457 154.015 42.0257 153.839 41.8864 153.604L39.7573 149.234L38.4204 146.455L38.0903 145.738C38.016 145.573 37.983 145.482 37.983 145.482C38.0395 145.553 38.0866 145.631 38.1233 145.713C38.2223 145.895 38.3461 146.126 38.4946 146.422C38.833 147.074 39.3199 147.989 39.8893 149.152L42.0763 153.472C42.1801 153.658 42.3469 153.802 42.5466 153.876C42.7447 153.934 43.0253 153.951 43.2646 153.992L44.8078 154.206L49.9822 154.94L50.923 155.072C51.2626 155.089 51.5971 155.161 51.9133 155.286C52.0802 155.382 52.2218 155.516 52.3262 155.678C52.4306 155.839 52.4947 156.023 52.5133 156.214C52.5319 156.406 52.5043 156.599 52.433 156.777C52.3616 156.956 52.2485 157.115 52.1031 157.241L50.6342 158.683L47.5312 161.718L45.8807 163.309C45.7541 163.402 45.6567 163.529 45.5996 163.675C45.5426 163.821 45.5285 163.98 45.5588 164.134L45.7569 165.288C46.0265 166.838 46.3016 168.427 46.5821 170.054C46.7224 170.879 46.8627 171.703 47.0113 172.528C47.061 172.752 47.0831 172.982 47.0773 173.212C47.0563 173.471 46.9487 173.715 46.772 173.905C46.6011 174.098 46.3728 174.232 46.1205 174.287C45.8682 174.342 45.6049 174.315 45.369 174.21L40.7228 171.786L38.4204 170.541L37.8262 170.227C37.6496 170.121 37.4613 170.035 37.265 169.972C37.09 169.934 36.9076 169.954 36.7451 170.029L31.3809 172.816L29.0455 174.045C28.8368 174.174 28.6035 174.258 28.3605 174.292C28.0961 174.313 27.8321 174.247 27.6095 174.103C27.3912 173.964 27.2215 173.761 27.1239 173.522C27.0263 173.282 27.0056 173.018 27.0648 172.767C27.3564 171.085 27.6315 169.436 27.8901 167.82C28.0304 166.995 28.1707 166.17 28.311 165.412L28.509 164.224C28.5615 164.066 28.5643 163.895 28.5171 163.734C28.47 163.573 28.375 163.431 28.245 163.326L21.841 157.051C21.7151 156.891 21.6317 156.703 21.5986 156.502C21.5654 156.302 21.5835 156.096 21.6512 155.905C21.7145 155.719 21.823 155.551 21.967 155.417C22.1111 155.284 22.2861 155.187 22.4764 155.138L24.457 154.849L28.1542 154.33L31.5047 153.852C31.7266 153.786 31.9153 153.638 32.0329 153.439L32.3712 152.755L35.2101 147.115C35.5155 146.521 35.7795 145.994 36.0354 145.532C36.1257 145.322 36.2792 145.146 36.4745 145.028C36.6697 144.91 36.897 144.855 37.1247 144.872C37.2622 144.882 37.3963 144.92 37.5184 144.984C37.6406 145.047 37.7482 145.136 37.8344 145.243C37.9071 145.311 37.9611 145.396 37.9912 145.491Z" fill="#263238"/>
<path d="M72.3329 169.99C77.1436 150.524 65.2495 130.847 45.7669 126.041C26.2842 121.234 6.59051 133.118 1.77986 152.584C-3.03079 172.05 8.86324 191.727 28.3459 196.534C47.8286 201.34 67.5223 189.456 72.3329 169.99Z" fill="white"/>
<path d="M73.3865 161.297C73.3865 161.297 73.3865 161.091 73.3369 160.704C73.2874 160.316 73.2792 159.731 73.2297 158.98C73.2297 158.601 73.1801 158.156 73.1554 157.711C73.1306 157.265 73.0068 156.746 72.9243 156.193C72.8418 155.641 72.7428 155.055 72.6437 154.429C72.5447 153.802 72.3301 153.151 72.1733 152.45C71.3201 149.049 69.9567 145.796 68.1296 142.803C65.7501 138.822 62.6261 135.337 58.928 132.537L57.4012 131.374C56.8483 131.02 56.2706 130.69 55.693 130.335C55.1153 129.981 54.5624 129.601 53.9352 129.313L52.0536 128.414L51.0963 127.961L48.0594 126.856C47.3661 126.625 46.6482 126.476 45.9302 126.287C45.2123 126.076 44.4819 125.911 43.7433 125.792C42.2334 125.51 40.7057 125.334 39.1714 125.264C38.3956 125.264 37.6034 125.157 36.8111 125.174L34.4261 125.297C34.0218 125.297 33.6009 125.297 33.213 125.372L32.0081 125.561C31.1829 125.693 30.3576 125.784 29.5819 125.949C27.9457 126.314 26.3356 126.788 24.7624 127.367C23.1456 127.947 21.5711 128.639 20.0502 129.437C19.2827 129.849 18.5482 130.327 17.7972 130.781C17.4259 131.011 17.0297 131.218 16.6831 131.481L15.6185 132.306C14.1675 133.373 12.7891 134.536 11.4923 135.786L9.66021 137.806L9.19806 138.309L8.77718 138.861L7.95193 139.966L7.12667 141.079L6.40045 142.267L5.67422 143.462L5.31111 144.056L5.00576 144.691L3.75963 147.214L2.77757 149.886C0.290569 157.274 0.290569 165.272 2.77757 172.66C3.10767 173.558 3.42952 174.449 3.75963 175.339C4.08973 176.23 4.58488 177.038 4.981 177.879L5.2946 178.514L5.65771 179.116L6.38394 180.312L7.11016 181.499L7.93542 182.612L8.76068 183.717L9.17331 184.261L9.63545 184.772L11.4758 186.793C12.7726 188.042 14.151 189.205 15.602 190.272L16.6584 191.097C17.0132 191.361 17.4094 191.567 17.7807 191.798C18.5317 192.251 19.2662 192.729 20.0254 193.142C23.0444 194.704 26.2502 195.876 29.5654 196.629C30.3906 196.794 31.2159 196.885 31.9916 197.025L33.1965 197.207C33.6009 197.256 34.0218 197.256 34.4096 197.281L36.8029 197.405C37.6281 197.405 38.3791 197.347 39.1548 197.314C40.6892 197.244 42.2169 197.068 43.7268 196.786C44.4657 196.669 45.1963 196.504 45.9137 196.291C46.6317 196.102 47.3579 195.953 48.0429 195.722L50.0812 194.98L51.088 194.618L53.9187 193.265C54.5459 192.977 55.0988 192.573 55.6847 192.243C56.2706 191.913 56.8318 191.567 57.3847 191.204L58.9445 190.041C62.6405 187.234 65.7592 183.74 68.1296 179.751C69.9439 176.76 71.2986 173.513 72.1486 170.12C72.3408 169.469 72.4979 168.809 72.619 168.141C72.718 167.514 72.817 166.921 72.8996 166.377C72.9821 165.832 73.0811 165.321 73.1306 164.859C73.1801 164.398 73.1801 163.969 73.2049 163.59C73.2544 162.839 73.2874 162.27 73.3122 161.866C73.3369 161.462 73.3617 161.281 73.3617 161.281C73.3617 161.281 73.3617 161.479 73.3617 161.866C73.3617 162.254 73.3617 162.847 73.2957 163.59C73.2957 163.977 73.2957 164.414 73.2462 164.868C73.1966 165.321 73.1141 165.841 73.0316 166.393C72.9491 166.946 72.8665 167.531 72.7758 168.166C72.6577 168.839 72.5034 169.505 72.3136 170.161C71.4974 173.583 70.1586 176.86 68.3441 179.875C65.9711 183.895 62.844 187.419 59.1343 190.256L57.558 191.435C57.0051 191.798 56.4192 192.136 55.8498 192.49C55.2803 192.845 54.7027 193.241 54.0672 193.529L52.1774 194.444L51.2118 194.898L48.1501 196.027C47.4569 196.258 46.7224 196.407 46.0045 196.605C45.2785 196.821 44.5399 196.991 43.7928 197.116C42.2687 197.399 40.7276 197.58 39.1796 197.66C38.3543 197.66 37.5951 197.767 36.7946 197.759L34.3766 197.635C33.9722 197.635 33.5514 197.635 33.1635 197.561L31.9421 197.372C31.1169 197.24 30.2916 197.149 29.4663 196.984C27.8113 196.615 26.1821 196.138 24.5891 195.557C22.9588 194.965 21.3707 194.262 19.8356 193.455C19.0681 193.043 18.3254 192.556 17.5579 192.103C17.1865 191.863 16.7904 191.666 16.4273 191.394L15.3545 190.569C13.9021 189.491 12.5236 188.318 11.2282 187.056L9.37136 185.011L8.90097 184.5L8.48009 183.948L6.82958 181.705L6.08685 180.501L5.35237 179.289L4.98926 178.687L4.67566 178.044C4.26303 177.219 3.8504 176.329 3.42952 175.471L2.3897 172.841C-0.129901 165.365 -0.129901 157.271 2.3897 149.795L3.38001 147.09L4.62614 144.509L4.93974 143.875L5.31111 143.264L6.78006 140.857L8.43057 138.614L8.85145 138.061L9.32185 137.55L11.1869 135.464C12.4823 134.202 13.8608 133.029 15.3132 131.951L16.3943 131.127C16.7492 130.863 17.1453 130.657 17.5249 130.418C18.2841 129.964 19.0269 129.478 19.7943 129.066C21.3352 128.263 22.9289 127.566 24.5643 126.979C26.1563 126.397 27.7857 125.924 29.4416 125.561C30.2668 125.388 31.0921 125.297 31.9174 125.165L33.1305 124.976C33.5431 124.926 33.9557 124.926 34.3519 124.902L36.7699 124.786C37.5951 124.786 38.3626 124.852 39.1548 124.877C40.7029 124.957 42.244 125.138 43.768 125.421C44.5126 125.545 45.2486 125.715 45.9715 125.932C46.6977 126.13 47.4239 126.279 48.1254 126.509L51.1871 127.639L52.1526 128.093L54.1002 129.024C54.7357 129.313 55.2886 129.725 55.8745 130.063C56.4605 130.401 57.0381 130.756 57.5911 131.119L59.159 132.298C62.8764 135.131 66.0095 138.656 68.3854 142.679C70.2056 145.692 71.5474 148.969 72.3631 152.392C72.5199 153.101 72.751 153.744 72.8253 154.388C72.8996 155.031 73.0068 155.608 73.0811 156.16C73.1554 156.713 73.2544 157.216 73.2957 157.686C73.3369 158.156 73.2957 158.576 73.3452 158.964C73.3452 159.714 73.3947 160.283 73.4112 160.687C73.4277 161.091 73.3865 161.297 73.3865 161.297Z" fill="#92E3A9"/>
<path d="M37.9912 145.491L41.9277 153.464C42.0036 153.611 42.1136 153.738 42.2485 153.834C42.3835 153.93 42.5394 153.993 42.7034 154.017L51.5089 155.295C51.6982 155.322 51.876 155.403 52.0219 155.526C52.1679 155.65 52.2762 155.812 52.3347 155.994C52.3931 156.176 52.3993 156.371 52.3525 156.556C52.3058 156.741 52.2079 156.91 52.0701 157.043L45.6991 163.243C45.5816 163.36 45.4939 163.504 45.4436 163.661C45.3934 163.819 45.3819 163.987 45.4103 164.15L46.9122 172.907C46.9451 173.095 46.9245 173.289 46.8528 173.466C46.781 173.643 46.661 173.797 46.5063 173.909C46.3516 174.022 46.1685 174.089 45.9777 174.103C45.7869 174.116 45.596 174.076 45.4268 173.987L37.5538 169.864C37.4076 169.787 37.2447 169.747 37.0793 169.747C36.9139 169.747 36.751 169.787 36.6048 169.864L28.7236 173.987C28.5549 174.078 28.3642 174.118 28.1733 174.105C27.9824 174.092 27.7992 174.025 27.6447 173.912C27.4903 173.799 27.371 173.645 27.3005 173.467C27.23 173.289 27.2113 173.095 27.2464 172.907L28.7484 164.15C28.775 163.986 28.7619 163.818 28.7102 163.661C28.6585 163.503 28.5697 163.36 28.4513 163.243L22.0803 157.043C21.9454 156.908 21.8504 156.739 21.8059 156.554C21.7613 156.369 21.769 156.175 21.8279 155.994C21.8869 155.813 21.9949 155.652 22.14 155.528C22.285 155.405 22.4615 155.324 22.6497 155.295L31.4552 154.017C31.618 153.992 31.7726 153.929 31.9061 153.833C32.0396 153.737 32.1481 153.611 32.2227 153.464L36.1592 145.491C36.244 145.32 36.3747 145.177 36.5365 145.077C36.6983 144.977 36.8849 144.924 37.0752 144.924C37.2655 144.924 37.4521 144.977 37.6139 145.077C37.7757 145.177 37.9064 145.32 37.9912 145.491Z" fill="#FAFAFA"/>
<path d="M37.9912 145.491C37.9912 145.491 37.9912 145.408 37.8262 145.276C37.7105 145.155 37.5663 145.065 37.4067 145.015C37.2471 144.964 37.0773 144.954 36.9129 144.986C36.7485 145.018 36.5949 145.091 36.466 145.198C36.3372 145.305 36.2374 145.442 36.1757 145.598L35.4082 147.197C34.8305 148.401 34.1208 149.861 33.2955 151.559L32.6518 152.879C32.5445 153.109 32.429 153.34 32.3135 153.571C32.1657 153.837 31.92 154.035 31.6285 154.124C30.5309 154.305 29.4333 154.454 28.2532 154.635L24.5561 155.187L22.6002 155.484C22.4579 155.512 22.3255 155.577 22.2163 155.672C22.1071 155.767 22.0249 155.89 21.978 156.027C21.9312 156.164 21.9213 156.311 21.9494 156.453C21.9775 156.595 22.0426 156.727 22.1381 156.836L28.5173 163.054C28.6908 163.205 28.8189 163.402 28.8874 163.621C28.9559 163.841 28.962 164.076 28.9052 164.299L28.7071 165.486C28.5668 166.311 28.4348 167.086 28.2945 167.894C28.0221 169.543 27.7333 171.192 27.4692 172.841C27.4251 173.011 27.4366 173.191 27.5019 173.354C27.5672 173.517 27.683 173.655 27.8323 173.748C27.9755 173.844 28.1483 173.885 28.3192 173.863C28.5059 173.84 28.6843 173.772 28.8391 173.666L31.1746 172.445L35.9363 169.972L36.547 169.65C36.8044 169.529 37.0948 169.497 37.3723 169.559C37.6064 169.631 37.8309 169.73 38.0408 169.856L38.6349 170.17L45.6166 173.839C45.7338 173.887 45.8604 173.907 45.9866 173.898C46.1129 173.889 46.2354 173.851 46.3446 173.787C46.4539 173.724 46.5471 173.636 46.6169 173.53C46.6867 173.425 46.7313 173.305 46.7472 173.179C46.7465 172.988 46.7244 172.797 46.6812 172.61C46.5409 171.786 46.4006 170.961 46.2603 170.137C45.988 168.487 45.7156 166.929 45.435 165.371L45.237 164.216C45.1967 163.994 45.2167 163.765 45.2951 163.553C45.3735 163.342 45.5073 163.155 45.6826 163.012C46.2273 162.476 46.772 161.957 47.3331 161.437C48.406 160.399 49.443 159.39 50.4443 158.411L51.9298 156.977C52.0461 156.894 52.1391 156.783 52.1997 156.654C52.2603 156.526 52.2864 156.383 52.2756 156.241C52.2648 156.099 52.2174 155.963 52.138 155.844C52.0586 155.726 51.9499 155.63 51.8225 155.567C51.5396 155.459 51.2418 155.395 50.9395 155.377L49.9739 155.237L43.2564 154.231C43.0005 154.181 42.7777 154.173 42.5054 154.099C42.2457 154.015 42.0257 153.839 41.8864 153.604L39.7573 149.234L38.4204 146.455L38.0903 145.738C38.016 145.573 37.983 145.482 37.983 145.482C38.0395 145.553 38.0866 145.631 38.1233 145.713C38.2223 145.895 38.3461 146.126 38.4946 146.422C38.833 147.074 39.3199 147.989 39.8893 149.152L42.0763 153.472C42.1801 153.658 42.3469 153.802 42.5466 153.876C42.7447 153.934 43.0253 153.951 43.2646 153.992L44.8078 154.206L49.9822 154.94L50.923 155.072C51.2626 155.089 51.5971 155.161 51.9133 155.286C52.0802 155.382 52.2218 155.516 52.3262 155.678C52.4306 155.839 52.4947 156.023 52.5133 156.214C52.5319 156.406 52.5043 156.599 52.433 156.777C52.3616 156.956 52.2485 157.115 52.1031 157.241L50.6342 158.683L47.5312 161.718L45.8807 163.309C45.7541 163.402 45.6567 163.529 45.5996 163.675C45.5426 163.821 45.5285 163.98 45.5588 164.134L45.7569 165.288C46.0265 166.838 46.3016 168.427 46.5821 170.054C46.7224 170.879 46.8627 171.703 47.0113 172.528C47.061 172.752 47.0831 172.982 47.0773 173.212C47.0563 173.471 46.9487 173.715 46.772 173.905C46.6011 174.098 46.3728 174.232 46.1205 174.287C45.8682 174.342 45.6049 174.315 45.369 174.21L40.7228 171.786L38.4204 170.541L37.8262 170.227C37.6496 170.121 37.4613 170.035 37.265 169.972C37.09 169.934 36.9076 169.954 36.7451 170.029L31.3809 172.816L29.0455 174.045C28.8368 174.174 28.6035 174.258 28.3605 174.292C28.0961 174.313 27.8321 174.247 27.6095 174.103C27.3912 173.964 27.2215 173.761 27.1239 173.522C27.0263 173.282 27.0056 173.018 27.0648 172.767C27.3564 171.085 27.6315 169.436 27.8901 167.82C28.0304 166.995 28.1707 166.17 28.311 165.412L28.509 164.224C28.5615 164.066 28.5643 163.895 28.5171 163.734C28.47 163.573 28.375 163.431 28.245 163.326L21.841 157.051C21.7151 156.891 21.6317 156.703 21.5986 156.502C21.5654 156.302 21.5835 156.096 21.6512 155.905C21.7145 155.719 21.823 155.551 21.967 155.417C22.1111 155.284 22.2861 155.187 22.4764 155.138L24.457 154.849L28.1542 154.33L31.5047 153.852C31.7266 153.786 31.9153 153.638 32.0329 153.439L32.3712 152.755L35.2101 147.115C35.5155 146.521 35.7795 145.994 36.0354 145.532C36.1257 145.322 36.2792 145.146 36.4745 145.028C36.6697 144.91 36.897 144.855 37.1247 144.872C37.2622 144.882 37.3963 144.92 37.5184 144.984C37.6406 145.047 37.7482 145.136 37.8344 145.243C37.9071 145.311 37.9611 145.396 37.9912 145.491Z" fill="#263238"/>
</svg>
