<svg width="820" height="500" viewBox="0 0 820 500" fill="none" xmlns="http://www.w3.org/2000/svg">
<path d="M124.738 314.35C88.1 281.221 56.014 236.494 49.63 183.216C43.303 130.404 64.609 75.4336 100.557 42.1212C136.505 8.80875 185.357 -3.45287 230.833 4.94283C276.309 13.3385 318.2 41.2471 350.611 79.1734C371.438 103.568 389.811 133.072 417.32 145.784C441.346 156.874 468.571 153.15 493.597 145.584C518.623 138.018 542.917 126.776 568.62 123.093C610.641 117.086 655.903 133.817 683.057 171.433C710.211 209.049 715.552 267.717 691.357 307.957C672.052 340.084 638.711 356.325 606.498 368.219C524.908 398.342 438.245 411.013 352.963 401.291C265.594 391.407 182.579 357.824 112.873 304.167" fill="#F5F5F5"/>
<path d="M820 481.284C820 481.484 636.444 481.65 410.049 481.65C183.654 481.65 0 481.482 0 481.284C0 481.085 183.528 480.917 410.063 480.917C636.598 480.917 820 481.086 820 481.284Z" fill="#263238"/>
<path d="M610.389 273.113H461.202V302.065H610.389V273.113Z" fill="#455A64"/>
<path d="M368.24 255.278H456.58V250.974H368.24V255.278Z" fill="#263238"/>
<path d="M470.263 255.264L486.834 193.098H417.856L402.849 255.264H470.263Z" fill="#263238"/>
<path d="M406.978 250.566H468.6L482.945 195.962H421.013L406.978 250.566Z" fill="#E0E0E0"/>
<path d="M337.76 268.005H333.293V481.285H337.76V268.005Z" fill="#455A64"/>
<path d="M342.227 268.612H337.76V481.285H342.227V268.612Z" fill="#263238"/>
<path d="M612.629 268.005H608.162V481.285H612.629V268.005Z" fill="#455A64"/>
<path d="M617.082 268.612H612.615V481.285H617.082V268.612Z" fill="#263238"/>
<path d="M652.917 255.617H314.03V273.113H652.917V255.617Z" fill="#455A64"/>
<path d="M542.439 285.585C542.439 286.244 542.244 286.888 541.878 287.436C541.513 287.983 540.994 288.41 540.386 288.662C539.778 288.914 539.109 288.98 538.464 288.852C537.819 288.723 537.226 288.406 536.761 287.94C536.296 287.475 535.979 286.881 535.851 286.235C535.723 285.589 535.788 284.919 536.04 284.311C536.292 283.702 536.718 283.182 537.265 282.816C537.812 282.451 538.455 282.255 539.113 282.255C539.55 282.255 539.982 282.341 540.386 282.509C540.789 282.676 541.156 282.921 541.465 283.231C541.774 283.54 542.019 283.907 542.186 284.311C542.353 284.715 542.439 285.148 542.439 285.585Z" fill="#263238"/>
<path d="M279.872 349.249L249.505 225.522C249.002 223.448 248.976 221.287 249.427 219.202C249.879 217.116 250.798 215.16 252.113 213.481C253.429 211.803 255.108 210.445 257.024 209.509C258.94 208.574 261.043 208.086 263.174 208.083H334.942C338.055 208.087 341.079 209.124 343.541 211.03C346.004 212.937 347.766 215.607 348.554 218.622L380.471 341.643C381.003 343.713 381.058 345.877 380.632 347.971C380.206 350.065 379.311 352.036 378.014 353.733C376.716 355.43 375.051 356.81 373.143 357.768C371.235 358.727 369.134 359.239 367 359.265L293.724 359.966C290.546 360.005 287.449 358.968 284.934 357.022C282.42 355.077 280.636 352.337 279.872 349.249Z" fill="#92E3A9"/>
<path d="M263.611 208.026C261.345 208.026 259.109 208.541 257.07 209.532C255.032 210.524 253.246 211.966 251.845 213.75C250.445 215.534 249.467 217.612 248.986 219.83C248.505 222.047 248.534 224.344 249.069 226.549L281.409 360.025H305.52L263.611 208.026Z" fill="#92E3A9"/>
<path d="M403.362 321.41H324.24C318.944 321.41 314.65 325.709 314.65 331.012V350.482C314.65 355.785 318.944 360.084 324.24 360.084H403.362C408.658 360.084 412.952 355.785 412.952 350.482V331.012C412.952 325.709 408.658 321.41 403.362 321.41Z" fill="#92E3A9"/>
<path d="M328.164 360.055L319.484 321.381H294.884L263.611 207.998C261.345 207.997 259.109 208.513 257.07 209.504C255.032 210.496 253.246 211.938 251.845 213.722C250.445 215.505 249.467 217.584 248.986 219.802C248.505 222.019 248.534 224.316 249.069 226.521L281.409 359.997H282.509L328.164 360.055Z" fill="black"/>
<path d="M386.461 321.409C386.461 321.609 366.169 321.776 341.143 321.776C316.117 321.776 295.811 321.606 295.811 321.409C295.811 321.212 316.103 321.043 341.143 321.043C366.183 321.043 386.461 321.198 386.461 321.409Z" fill="#E0E0E0"/>
<path d="M301.56 257.508C301.347 258.226 301.347 258.992 301.56 259.71C301.7 260.065 301.912 260.387 302.184 260.654C302.456 260.922 302.781 261.129 303.138 261.262C303.577 261.379 304.04 261.363 304.47 261.215C304.899 261.066 305.275 260.793 305.548 260.43C305.854 260.095 306.055 259.676 306.125 259.227C306.196 258.778 306.132 258.318 305.943 257.905C305.749 257.575 305.486 257.291 305.172 257.072C304.858 256.853 304.501 256.704 304.125 256.636C303.39 256.529 302.64 256.642 301.969 256.96C302.067 256.758 302.225 256.591 302.42 256.48C302.959 256.163 303.589 256.034 304.21 256.114C304.748 256.164 305.262 256.36 305.696 256.682C306.131 257.004 306.469 257.438 306.673 257.939C306.878 258.44 306.942 258.987 306.858 259.521C306.774 260.056 306.545 260.557 306.197 260.97C305.848 261.384 305.393 261.693 304.881 261.866C304.369 262.039 303.82 262.068 303.293 261.949C302.765 261.831 302.281 261.571 301.891 261.196C301.501 260.822 301.221 260.347 301.082 259.825C300.878 259.23 300.878 258.585 301.082 257.99C301.226 257.815 301.386 257.654 301.56 257.508Z" fill="#E0E0E0"/>
<path d="M300.657 275.881C300.186 275.139 299.911 274.289 299.857 273.412C299.527 271.314 299.74 269.167 300.477 267.175C301.211 265.184 302.438 263.412 304.042 262.025C304.658 261.388 305.416 260.904 306.254 260.615C306.324 260.715 305.493 261.249 304.394 262.35C302.957 263.764 301.851 265.479 301.154 267.372C300.457 269.265 300.187 271.289 300.364 273.299C300.488 274.905 300.77 275.85 300.657 275.881Z" fill="#E0E0E0"/>
<path d="M295.007 247.237C295.461 249.289 296.206 251.265 297.219 253.106C298.432 254.819 299.89 256.345 301.545 257.635C301.545 257.72 300.798 257.494 299.812 256.834C298.518 255.963 297.423 254.828 296.599 253.504C295.764 252.183 295.213 250.703 294.979 249.158C294.817 248.528 294.826 247.865 295.007 247.24V247.237Z" fill="#E0E0E0"/>
<path d="M291.554 258.538C291.667 258.355 293.569 259.525 296.19 260.062C298.811 260.599 301.023 260.33 301.052 260.556C299.448 261.174 297.688 261.253 296.035 260.781C294.335 260.548 292.76 259.76 291.554 258.538Z" fill="#E0E0E0"/>
<path d="M339.17 257.508C338.957 258.226 338.957 258.992 339.17 259.71C339.31 260.065 339.522 260.387 339.794 260.654C340.066 260.922 340.391 261.129 340.748 261.262C341.187 261.379 341.651 261.363 342.08 261.215C342.509 261.066 342.885 260.793 343.158 260.43C343.464 260.095 343.665 259.676 343.735 259.227C343.806 258.778 343.742 258.318 343.553 257.905C343.36 257.578 343.1 257.295 342.789 257.076C342.479 256.858 342.126 256.707 341.753 256.636C341.014 256.528 340.259 256.641 339.583 256.96C339.69 256.76 339.851 256.594 340.048 256.48C340.581 256.158 341.208 256.029 341.824 256.114C342.362 256.164 342.876 256.36 343.31 256.682C343.745 257.004 344.083 257.439 344.287 257.939C344.492 258.44 344.556 258.987 344.472 259.521C344.388 260.056 344.159 260.557 343.811 260.97C343.462 261.384 343.007 261.693 342.495 261.866C341.983 262.039 341.434 262.068 340.907 261.95C340.379 261.831 339.895 261.571 339.505 261.196C339.115 260.822 338.835 260.347 338.696 259.825C338.492 259.23 338.492 258.585 338.696 257.99C338.958 257.646 339.141 257.494 339.17 257.508Z" fill="#E0E0E0"/>
<path d="M338.197 275.881C337.733 275.136 337.459 274.288 337.397 273.412C337.073 271.31 337.291 269.161 338.031 267.168C338.771 265.175 340.008 263.404 341.625 262.025C342.235 261.386 342.99 260.902 343.825 260.615C343.825 260.715 343.064 261.249 341.979 262.35C340.536 263.76 339.425 265.475 338.726 267.368C338.026 269.262 337.756 271.288 337.935 273.299C338.07 274.154 338.157 275.016 338.197 275.881Z" fill="#E0E0E0"/>
<path d="M332.561 247.237C333.015 249.289 333.76 251.265 334.773 253.106C335.986 254.819 337.444 256.345 339.099 257.635C339.099 257.72 338.352 257.494 337.366 256.834C336.072 255.963 334.977 254.828 334.153 253.504C333.318 252.183 332.766 250.703 332.532 249.158C332.378 248.525 332.388 247.864 332.561 247.237Z" fill="#E0E0E0"/>
<path d="M329.108 258.538C329.221 258.355 331.123 259.525 333.744 260.062C336.365 260.599 338.577 260.33 338.606 260.556C337.008 261.173 335.253 261.252 333.606 260.781C331.9 260.551 330.319 259.762 329.108 258.538Z" fill="#E0E0E0"/>
<path d="M403.427 370.917H288.201C286.706 370.917 285.272 370.323 284.215 369.264C283.158 368.206 282.564 366.77 282.564 365.273C282.564 363.776 283.158 362.34 284.215 361.282C285.272 360.223 286.706 359.629 288.201 359.629H403.427C404.922 359.629 406.356 360.223 407.413 361.282C408.47 362.34 409.064 363.776 409.064 365.273C409.064 366.77 408.47 368.206 407.413 369.264C406.356 370.323 404.922 370.917 403.427 370.917Z" fill="#263238"/>
<path d="M296.303 370.92L277.336 481.285H282.526L307.464 370.92H296.303Z" fill="#263238"/>
<path d="M341.015 370.92L320.85 481.285H326.05L352.175 370.92H341.015Z" fill="#263238"/>
<path d="M390.463 370.92L412.953 481.285H407.753L379.302 370.92H390.463Z" fill="#263238"/>
<path d="M594.874 27.5226C578.331 25.5611 569.509 35.8052 565.846 43.7062C562.183 51.6073 561.28 60.4966 560.846 69.2157C560.412 77.9348 560.24 86.7381 557.946 95.1488C556.746 99.5223 554.973 103.77 554.409 108.27C553.845 112.771 554.733 117.783 558.087 120.843" fill="#263238"/>
<path d="M611.022 36.1997C615.39 45.103 612.178 55.9528 614.46 65.5471C615.625 69.4794 617.037 73.3343 618.687 77.0888C621.505 84.8066 622.703 93.0461 623.83 101.22C624.394 105.325 624.915 109.685 622.999 113.396C621.844 115.338 620.187 116.932 618.203 118.01C616.219 119.088 613.981 119.609 611.726 119.52C608.713 119.444 605.781 118.525 603.263 116.867C600.745 115.208 598.742 112.877 597.479 110.137C595.619 105.904 595.647 101.205 595.718 96.6337C596 76.8084 596.296 56.901 599.776 37.3741" fill="#263238"/>
<path d="M686.947 81.0969L676.647 77.1178C676.294 76.9821 675.915 76.9286 675.538 76.9612C675.162 76.9939 674.797 77.1118 674.473 77.3062C674.148 77.5005 673.872 77.7662 673.665 78.0831C673.459 78.4 673.326 78.7598 673.279 79.1354C672.979 81.6045 671.379 88.264 669.658 85.922L669.531 85.7808C667.121 82.3094 664.106 80.433 662.88 80.4901C662.584 80.5783 662.319 80.7502 662.118 80.985C661.917 81.2199 661.788 81.5078 661.747 81.8143C661.705 82.1208 661.753 82.4328 661.883 82.713C662.014 82.9931 662.223 83.2295 662.485 83.3938C662.573 83.4501 662.658 83.5113 662.739 83.577C663.791 84.5656 664.735 85.6628 665.557 86.8502C666.364 87.9108 666.979 89.1047 667.375 90.3777C667.798 91.7885 668.122 93.002 668.347 94.0323L667.727 100.904L655.045 135.348L632.823 112.18C632.823 112.18 620.93 138.481 620.662 139.355C620.462 139.948 631.794 151.757 639.249 159.433C641.881 162.138 645.19 164.086 648.831 165.071C652.473 166.057 656.311 166.044 659.946 165.034C663.581 164.025 666.877 162.055 669.491 159.332C672.104 156.609 673.939 153.233 674.802 149.556L684.455 101.033H684.201L685.21 97.5058L688.451 84.0456C688.6 83.4551 688.53 82.8304 688.253 82.2879C687.976 81.7454 687.512 81.3221 686.947 81.0969Z" fill="#FFBE9D"/>
<path d="M644.335 400.973L644.575 388.035L620.394 387.428L619.83 406.352L621.324 406.479C627.989 407.015 655.256 408.765 659.766 407.524C664.77 406.122 644.335 400.973 644.335 400.973Z" fill="#92E3A9"/>
<path d="M628.609 406.433C628.299 404.38 627.246 402.512 625.65 401.185C624.076 399.865 622.064 399.186 620.013 399.282L619.83 406.055L628.609 406.433Z" fill="white"/>
<path d="M654.312 403.851C654.312 403.851 661.47 406.109 660.54 407.279C659.61 408.45 631.991 407.731 619.829 406.348V405.798L652.042 406.912C652.042 406.912 652.903 403.881 654.312 403.851Z" fill="white"/>
<path d="M619.505 405.771C619.64 405.794 619.779 405.794 619.914 405.771L621.114 405.884L625.514 406.184C629.22 406.424 634.349 406.664 640.014 406.819C645.679 406.974 650.822 407.002 654.542 406.96C650.822 406.96 645.692 406.875 640.028 406.72C634.364 406.565 629.234 406.353 625.514 406.184L621.114 405.973H619.914L619.505 405.771Z" fill="#263238"/>
<path d="M652.071 407.293C652.295 406.569 652.592 405.869 652.959 405.205C653.403 404.599 653.919 404.049 654.495 403.568C653.746 403.803 653.11 404.305 652.705 404.979C652.214 405.644 651.988 406.469 652.071 407.292V407.293Z" fill="#263238"/>
<path d="M645.04 403.485C645.332 403.209 645.592 402.901 645.815 402.567C646.181 402.017 646.435 401.537 646.365 401.495C646.295 401.453 645.942 401.862 645.576 402.412C645.21 402.963 644.969 403.428 645.04 403.485Z" fill="#263238"/>
<path d="M643.095 402.398C643.408 402.252 643.702 402.067 643.969 401.848C644.392 401.495 644.702 401.128 644.645 401.072C644.588 401.015 644.208 401.255 643.785 401.622C643.362 401.99 643.053 402.328 643.095 402.398Z" fill="#263238"/>
<path d="M641.925 400.069C642.322 400.231 642.751 400.299 643.179 400.27C643.604 400.336 644.038 400.302 644.447 400.169C644.05 400.008 643.621 399.94 643.193 399.969C642.768 399.902 642.334 399.937 641.925 400.069Z" fill="#263238"/>
<path d="M641.545 398.447C641.968 398.69 642.437 398.842 642.922 398.894C643.408 398.945 643.898 398.896 644.363 398.748C643.899 398.656 643.427 398.609 642.954 398.606C642.49 398.512 642.018 398.46 641.545 398.451V398.447Z" fill="#263238"/>
<path d="M645.913 401.382C646.425 401.48 646.951 401.48 647.463 401.382C648.025 401.317 648.581 401.208 649.126 401.058C649.458 400.97 649.779 400.848 650.084 400.691C650.178 400.642 650.262 400.574 650.33 400.491C650.398 400.409 650.448 400.314 650.479 400.211C650.507 400.099 650.502 399.98 650.464 399.87C650.427 399.76 650.359 399.663 650.268 399.591C649.892 399.383 649.473 399.265 649.045 399.244C648.616 399.223 648.188 399.301 647.794 399.471C647.399 399.641 647.049 399.899 646.77 400.226C646.49 400.552 646.289 400.938 646.181 401.354C646.15 401.493 646.15 401.638 646.181 401.777C646.356 401.302 646.608 400.859 646.928 400.466C647.305 400.055 647.795 399.766 648.337 399.634C648.641 399.541 648.961 399.509 649.278 399.54C649.595 399.572 649.903 399.666 650.183 399.817C650.423 400 650.324 400.283 650.042 400.438C649.766 400.59 649.472 400.708 649.168 400.79C648.639 400.962 648.097 401.09 647.547 401.172C646.505 401.354 645.913 401.341 645.913 401.382Z" fill="#263238"/>
<path d="M646.307 401.481C646.512 401.159 646.588 400.771 646.518 400.395C646.481 399.987 646.345 399.595 646.123 399.252C645.996 399.017 645.812 398.818 645.588 398.672C645.364 398.527 645.107 398.44 644.841 398.42C644.686 398.454 644.55 398.545 644.458 398.675C644.367 398.804 644.328 398.964 644.348 399.121C644.378 399.371 644.465 399.61 644.601 399.822C644.787 400.174 645.023 400.497 645.301 400.781C645.536 401.068 645.836 401.295 646.175 401.444C645.92 401.191 645.68 400.924 645.456 400.643C645.208 400.354 644.995 400.037 644.822 399.698C644.622 399.359 644.498 398.767 644.822 398.711C645.146 398.654 645.611 399.077 645.837 399.401C646.052 399.703 646.192 400.051 646.246 400.418C646.302 400.769 646.322 401.125 646.307 401.481Z" fill="#263238"/>
<path d="M620.168 399.167C620.168 399.167 620.858 399.167 621.958 399.267C623.378 399.469 624.713 400.067 625.809 400.993C626.906 401.918 627.72 403.135 628.158 404.502C628.324 405.073 628.461 405.652 628.567 406.237C628.567 406.237 628.567 406.068 628.567 405.743C628.541 405.299 628.465 404.859 628.341 404.432C627.943 402.997 627.12 401.716 625.981 400.759C624.841 399.802 623.439 399.213 621.958 399.07C621.518 399.02 621.073 399.02 620.633 399.07C620.337 399.096 620.168 399.138 620.168 399.167Z" fill="#263238"/>
<path d="M622.929 389.149C622.729 390.798 622.616 392.455 622.591 394.116C622.495 395.774 622.495 397.437 622.591 399.096C622.915 395.791 623.042 392.469 622.972 389.148L622.929 389.149Z" fill="#263238"/>
<path d="M631.709 404.091C634.025 404.586 636.409 404.672 638.755 404.346C638.755 404.261 637.163 404.346 635.218 404.246C634.052 404.135 632.88 404.084 631.709 404.091Z" fill="#263238"/>
<path d="M626.974 403.963C626.974 403.963 627.087 404.302 627.242 404.664C627.397 405.027 627.467 405.355 627.552 405.355C627.637 405.355 627.693 404.975 627.552 404.554C627.411 404.133 627.073 403.911 626.974 403.963Z" fill="#263238"/>
<path d="M625.241 401.692C625.308 401.905 625.424 402.098 625.579 402.257C625.833 402.511 626.058 402.695 626.129 402.638C626.2 402.58 626.029 402.327 625.791 402.059C625.553 401.79 625.297 401.636 625.241 401.692Z" fill="#263238"/>
<path d="M622.704 400.606C622.704 400.691 623.042 400.691 623.394 400.831C623.746 400.971 624 401.156 624.07 401.1C624.14 401.043 623.943 400.704 623.492 400.549C623.041 400.394 622.69 400.535 622.704 400.606Z" fill="#263238"/>
<path d="M620.901 400.084C620.901 400.154 621.014 400.285 621.211 400.367C621.408 400.449 621.592 400.452 621.62 400.367C621.648 400.282 621.52 400.155 621.32 400.084C621.12 400.013 620.929 399.999 620.901 400.084Z" fill="#263238"/>
<path d="M713.257 321.466L707.62 309.825L685.764 320.239L693.81 337.367L695.219 336.803C701.405 334.262 726.519 323.469 729.969 320.323C733.814 316.809 713.257 321.466 713.257 321.466Z" fill="#92E3A9"/>
<path d="M701.674 333.416C700.469 331.722 698.683 330.532 696.657 330.072C694.666 329.609 692.574 329.912 690.795 330.919L693.695 337.043L701.674 333.416Z" fill="white"/>
<path d="M723.445 319.519C723.445 319.519 730.857 318.291 730.491 319.759C730.125 321.227 705.239 333.093 693.768 337.367L693.568 336.86L722.893 323.258C722.893 323.258 722.205 320.181 723.445 319.519Z" fill="white"/>
<path d="M693.303 337.014L693.698 336.873L694.811 336.421L698.869 334.7C702.279 333.289 706.969 331.13 712.087 328.692C717.205 326.254 721.81 323.951 725.108 322.244L729.008 320.184L730.051 319.606C730.176 319.548 730.294 319.477 730.403 319.394L730.023 319.564L728.952 320.085L725.021 322.061C721.695 323.726 717.087 325.998 711.972 328.424C706.857 330.85 702.108 332.996 698.782 334.52L694.71 336.322L693.625 336.816C693.51 336.87 693.401 336.937 693.301 337.016L693.303 337.014Z" fill="#263238"/>
<path d="M723.008 323.597C722.873 322.857 722.821 322.104 722.853 321.353C722.977 320.606 723.19 319.877 723.487 319.18C722.967 319.78 722.643 320.524 722.557 321.313C722.471 322.103 722.629 322.9 723.008 323.597Z" fill="#263238"/>
<path d="M715.004 323.385C715.195 323.028 715.298 322.631 715.304 322.227C715.404 321.829 715.404 321.412 715.304 321.014C715.114 321.375 715.012 321.776 715.004 322.185C714.918 322.58 714.918 322.989 715.004 323.385Z" fill="#263238"/>
<path d="M712.792 323.3C713.007 323.03 713.182 322.731 713.313 322.411C713.524 321.89 713.651 321.452 713.581 321.424C713.511 321.396 713.271 321.791 713.046 322.299C712.821 322.808 712.721 323.275 712.792 323.3Z" fill="#263238"/>
<path d="M710.692 321.777C711.121 321.739 711.535 321.604 711.904 321.381C712.538 321.081 713.031 320.788 712.989 320.718C712.56 320.756 712.146 320.891 711.777 321.114C711.372 321.254 711.002 321.48 710.692 321.777Z" fill="#263238"/>
<path d="M709.621 320.493C710.104 320.547 710.592 320.463 711.03 320.253C711.511 320.118 711.939 319.838 712.256 319.452C711.771 319.587 711.299 319.766 710.847 319.987C710.424 320.121 710.014 320.291 709.621 320.495V320.493Z" fill="#263238"/>
<path d="M714.848 321.127C715.353 320.984 715.83 320.755 716.257 320.45C716.76 320.15 717.233 319.8 717.666 319.405C717.924 319.178 718.155 318.923 718.356 318.644C718.477 318.471 718.528 318.259 718.497 318.051C718.47 317.935 718.41 317.83 718.325 317.748C718.241 317.665 718.134 317.609 718.018 317.585C717.357 317.573 716.712 317.793 716.197 318.209C715.682 318.624 715.329 319.207 715.2 319.857C715.122 320.239 715.122 320.633 715.2 321.015C715.216 321.155 715.264 321.291 715.341 321.41C715.294 320.906 715.318 320.398 715.412 319.9C715.556 319.383 715.844 318.918 716.243 318.559C716.709 318.112 717.331 317.864 717.976 317.868C718.276 317.868 718.314 318.235 718.131 318.503C717.951 318.759 717.743 318.994 717.511 319.204C717.116 319.593 716.692 319.952 716.243 320.277C715.358 320.83 714.82 321.085 714.848 321.127Z" fill="#263238"/>
<path d="M715.243 321.026C715.27 320.647 715.16 320.271 714.933 319.967C714.721 319.618 714.425 319.328 714.073 319.121C713.852 318.972 713.597 318.88 713.331 318.852C713.066 318.825 712.798 318.864 712.551 318.966C712.425 319.064 712.342 319.207 712.321 319.366C712.3 319.524 712.342 319.685 712.438 319.812C712.575 320.023 712.758 320.202 712.973 320.334C713.301 320.557 713.656 320.737 714.03 320.87C714.368 321.029 714.743 321.092 715.115 321.054C714.773 320.95 714.439 320.823 714.115 320.673C713.765 320.524 713.434 320.335 713.128 320.108C712.79 319.908 712.409 319.432 712.72 319.207C712.921 319.14 713.134 319.12 713.344 319.146C713.553 319.173 713.755 319.247 713.932 319.362C714.259 319.538 714.543 319.783 714.763 320.082C714.948 320.383 715.109 320.699 715.243 321.026Z" fill="#263238"/>
<path d="M690.879 330.811C691.406 330.528 691.958 330.293 692.528 330.11C693.889 329.641 695.353 329.563 696.756 329.885C698.147 330.221 699.419 330.934 700.434 331.944C700.85 332.388 701.236 332.859 701.589 333.355C701.54 333.2 701.469 333.053 701.378 332.918C701.148 332.534 700.88 332.175 700.578 331.845C699.575 330.75 698.265 329.984 696.82 329.647C695.375 329.309 693.861 329.417 692.478 329.955C692.055 330.107 691.652 330.311 691.278 330.562C691.136 330.629 691.004 330.715 690.884 330.816L690.879 330.811Z" fill="#263238"/>
<path d="M688.822 320.619C689.386 322.182 690.035 323.713 690.767 325.205C691.419 326.732 692.157 328.221 692.979 329.664C692.42 328.099 691.77 326.567 691.034 325.078C690.392 323.546 689.653 322.057 688.822 320.619Z" fill="#263238"/>
<path d="M703.406 329.974C704.567 329.722 705.69 329.318 706.746 328.772C707.84 328.311 708.872 327.713 709.818 326.994C709.818 326.924 708.409 327.685 706.618 328.504C704.827 329.323 703.378 329.889 703.406 329.974Z" fill="#263238"/>
<path d="M699.123 332.006C699.123 332.091 699.377 332.26 699.687 332.513C699.997 332.767 700.194 333.021 700.279 332.979C700.364 332.937 700.279 332.583 699.87 332.288C699.461 331.993 699.137 331.934 699.123 332.006Z" fill="#263238"/>
<path d="M696.544 330.764C696.544 330.834 696.769 331.004 697.108 331.116C697.447 331.229 697.728 331.286 697.756 331.202C697.784 331.117 697.545 330.961 697.206 330.849C696.867 330.737 696.572 330.682 696.544 330.764Z" fill="#263238"/>
<path d="M693.796 330.943C694.033 330.889 694.273 330.851 694.515 330.83C694.754 330.814 694.995 330.814 695.234 330.83C695.137 330.734 695.019 330.663 694.889 330.621C694.759 330.579 694.622 330.568 694.487 330.59C694.022 330.651 693.754 330.891 693.796 330.943Z" fill="#263238"/>
<path d="M691.894 331.287C691.894 331.372 692.077 331.428 692.289 331.414C692.501 331.4 692.684 331.314 692.669 331.231C692.654 331.147 692.486 331.103 692.274 331.117C692.062 331.131 691.894 331.216 691.894 331.287Z" fill="#263238"/>
<path d="M534.449 146.197L539.449 121.999C543.493 99.254 576.284 96.9831 576.284 96.9831L601.268 96.5315C601.268 96.5315 619.768 94.0203 631.213 106.902C643.064 120.235 649.278 126.895 649.278 126.895L632.03 154.465L620.252 142.273C622.458 146.124 623.678 150.463 623.803 154.901C623.803 162.294 616.095 165.723 616.095 165.723L614.164 184.517L623.746 202.859L545.342 220.272C546.906 207.079 545.934 196.992 552.148 187.157L558.235 150.388L534.449 146.197Z" fill="#92E3A9"/>
<path d="M544.835 220.188C544.835 220.188 655.735 187.807 665.74 192.534C675.745 197.261 717.259 313.466 717.259 313.466L685.44 328.986L644.955 229.908C644.955 229.908 566.183 260.625 553.543 258.014C540.903 255.404 544.835 220.188 544.835 220.188Z" fill="#263238"/>
<path d="M591.632 216.929C593.21 217.451 654.015 237.374 658.232 245.265C662.449 253.156 654.385 393.739 654.385 393.739L617.211 397.69L619.491 259.794L552.923 258.114L591.632 216.929Z" fill="#263238"/>
<path d="M552.557 258.114C552.885 258.11 553.211 258.067 553.529 257.987L556.347 257.494C558.757 257.042 562.237 256.351 566.521 255.434C575.103 253.614 586.911 250.862 599.763 247.151C606.203 245.275 612.276 243.328 617.758 241.437C623.24 239.547 628.115 237.655 632.146 235.92C634.175 235.102 635.993 234.283 637.571 233.55C639.149 232.817 640.516 232.139 641.615 231.648L644.137 230.378C644.437 230.248 644.721 230.082 644.982 229.884C644.665 229.97 644.359 230.088 644.066 230.237L641.487 231.379C640.374 231.887 639.007 232.494 637.4 233.158C635.793 233.821 633.976 234.568 631.933 235.415C627.889 237.081 622.985 238.844 617.517 240.763C612.049 242.683 605.962 244.53 599.55 246.408C586.713 250.104 574.95 252.94 566.407 254.873L556.289 257.176L553.541 257.811C553.201 257.867 552.87 257.969 552.557 258.114Z" fill="#455A64"/>
<path d="M659.159 276.5C659.318 275.856 659.422 275.2 659.469 274.538C659.61 273.128 659.793 271.307 660.019 269.162C660.245 267.018 660.484 264.139 660.752 261.176C661.204 257.9 661.204 254.576 660.752 251.3C660.082 247.982 658.332 244.979 655.777 242.763C653.753 240.958 651.456 239.487 648.971 238.403C647.342 237.658 645.68 236.995 643.983 236.414C643.365 236.164 642.723 235.98 642.067 235.863C642.067 236.004 644.702 236.935 648.789 238.897C651.18 240.031 653.392 241.51 655.356 243.285C657.755 245.427 659.401 248.287 660.049 251.44C660.471 254.652 660.471 257.907 660.049 261.119C659.849 264.082 659.654 266.763 659.485 269.119C659.316 271.475 659.26 273.084 659.175 274.509C659.097 275.17 659.092 275.837 659.161 276.499L659.159 276.5Z" fill="#455A64"/>
<path d="M663.189 42.5487C663.189 42.5487 672.503 40.7705 685.889 28.594C699.275 16.4175 705.889 -0.0905809 707.477 0.0365811C709.065 0.163743 716.129 -2.86713 728.614 26.3651C741.099 55.5974 735.66 62.1467 732.996 62.0196C730.332 61.8924 712.606 56.3754 701.389 57.3496C690.172 58.3238 675.63 63.7267 675.63 63.7267L663.189 42.5487Z" fill="#455A64"/>
<path d="M643.066 57.7311L647.392 66.5644C648.275 68.3713 649.817 69.7698 651.7 70.4708C653.583 71.1718 655.663 71.1218 657.51 70.3311L677.562 63.968L666.754 37.1599L646.617 47.1726C645.69 47.6306 644.863 48.2672 644.183 49.046C643.502 49.8248 642.982 50.7304 642.652 51.7109C642.323 52.6914 642.189 53.7276 642.26 54.7598C642.331 55.792 642.605 56.8001 643.066 57.7261V57.7311Z" fill="#263238"/>
<path d="M654.241 67.6788L660.216 80.2788L663.401 79.4888L683.58 96.9L689.68 85.7538C689.68 85.7538 677.618 80.1096 675.49 75.708C673.362 71.3064 675.983 70.3742 675.983 70.3742L670.431 63.6727L654.241 67.6788Z" fill="#263238"/>
<path d="M727.475 26.8868C734.084 42.718 736.62 56.7248 733.112 58.1817C729.604 59.6385 721.458 47.9807 714.793 32.1485C708.128 16.3163 705.648 2.31048 709.156 0.853623C712.664 -0.603233 720.866 11.0286 727.475 26.8868Z" fill="#263238"/>
<path d="M641.12 66.3661L646.545 64.8281L643.389 58.3939L639.289 60.797L641.12 66.3661Z" fill="#455A64"/>
<path d="M672.335 65.9706L657.609 74.7888L655.904 71.2053L672.335 65.9706Z" fill="#455A64"/>
<path d="M643.39 58.3939L646.546 64.8281L645.433 65.1525L642.896 58.6763L643.39 58.3939Z" fill="#455A64"/>
<path d="M676.759 61.9775L680.437 60.7359L676.759 61.9775Z" fill="black"/>
<path d="M647.054 59.9599C651.179 58.7448 655.158 57.0793 658.919 54.9936C656.828 55.4998 654.797 56.2282 652.86 57.1664C650.833 57.8922 648.887 58.8285 647.054 59.9599Z" fill="#455A64"/>
<path d="M645.518 56.1371C647.424 55.6496 649.265 54.9342 651 54.0063C652.84 53.2678 654.589 52.3211 656.214 51.1847C652.466 52.3859 648.874 54.0296 645.514 56.081L645.518 56.1371Z" fill="#455A64"/>
<path d="M649.041 63.9821C649.041 64.0822 649.703 63.9821 650.732 63.6576L652.532 63.122C653.194 62.8967 653.941 62.5713 654.646 62.2609C656.487 61.5764 658.234 60.6613 659.846 59.5374C657.954 60.0351 656.121 60.7354 654.379 61.6261C653.632 61.9364 652.97 62.2749 652.293 62.5272L650.574 63.19C650.015 63.3483 649.494 63.6177 649.041 63.9821Z" fill="#455A64"/>
<path d="M713.2 22.9788C713.2 22.9788 721.387 18.2097 725.488 29.2147C729.589 40.2198 721.063 41.7868 721.063 41.7868C717.571 35.9193 714.924 29.5875 713.2 22.9788Z" fill="#455A64"/>
<path d="M704.999 9.75897C705.025 10.4611 705.11 11.1598 705.253 11.8476C705.478 13.1743 705.774 15.1208 706.225 17.4918L707.24 21.3437C707.409 22.0346 707.606 22.7545 707.804 23.4744L708.104 24.6029C708.217 24.9693 708.358 25.3368 708.484 25.7173C709.02 27.2412 709.584 28.8213 710.175 30.4724L710.612 31.7139C710.753 32.1375 710.964 32.532 711.148 32.9555L712.275 35.4527C712.655 36.2998 713.036 37.1319 713.402 37.9639C713.602 38.3594 713.754 38.7819 713.98 39.1774L714.614 40.3349L717.052 44.7405C717.252 45.093 717.432 45.4414 717.644 45.7849L718.292 46.7441L719.518 48.5924L721.73 51.8967C723.224 53.7991 724.464 55.311 725.323 56.3553C725.75 56.919 726.221 57.4473 726.732 57.9354C726.393 57.3207 725.997 56.7396 725.548 56.2001L722.138 51.5863C721.476 50.57 720.729 49.4556 720.01 48.27C719.615 47.6773 719.221 47.0565 718.81 46.4217L718.19 45.4625C717.979 45.124 717.81 44.7716 717.612 44.4321L715.231 40.0265L714.597 38.8691C714.386 38.4886 714.231 38.068 714.033 37.6555C713.667 36.8375 713.286 36.0044 712.92 35.1723L711.793 32.6892C711.61 32.2797 711.412 31.8882 711.257 31.4616L710.82 30.2341C710.214 28.597 709.65 27.03 709.101 25.5211C708.974 25.1546 708.819 24.7871 708.706 24.4066C708.593 24.0261 708.495 23.6727 708.396 23.3052C708.18 22.571 707.983 21.8654 707.804 21.1885C707.409 19.7777 707.057 18.5502 706.719 17.3837C706.226 15.0557 705.831 13.1513 705.535 11.7395C705.423 11.0646 705.243 10.4028 704.999 9.76397V9.75897Z" fill="#263238"/>
<path d="M676.9 77.8227C676.594 79.6669 676.67 81.5545 677.125 83.3678C677.28 83.9885 677.675 84.7786 678.309 84.6514C678.477 84.6054 678.633 84.5237 678.767 84.4117C678.901 84.2997 679.009 84.1602 679.084 84.0026C679.716 83.0375 680.085 81.9236 680.155 80.7714C679.876 82.4288 679.982 84.1281 680.465 85.7378C680.705 86.4857 681.156 87.3038 681.874 87.3749C682.592 87.446 683.283 86.4857 683.438 85.6396C683.426 84.776 683.516 83.914 683.706 83.0714C683.507 84.7243 683.483 86.3938 683.636 88.0517C683.652 88.5644 683.772 89.0685 683.988 89.5336C684.088 89.7719 684.251 89.9783 684.46 90.1301C684.668 90.282 684.915 90.3735 685.172 90.3947C685.448 90.3874 685.716 90.3045 685.948 90.1552C686.18 90.0058 686.366 89.7957 686.487 89.5476C686.734 89.0552 686.878 88.5176 686.91 87.9676C687.135 86.1333 687.276 84.2989 687.319 82.4506" fill="#FFBE9D"/>
<path d="M617.884 98.3949C617.884 98.1125 618.828 97.9433 620.223 97.2234C622.152 96.1865 623.722 94.5873 624.723 92.6376C625.453 91.3273 625.93 89.8917 626.132 88.4052C626.324 86.7115 626.219 84.9972 625.822 83.3397C624.723 79.3659 622.882 75.6365 620.397 72.3487C617.72 68.8226 615.318 65.0963 613.21 61.2025C611.547 57.8283 610.616 54.1405 610.476 50.3807C610.366 47.877 610.676 45.3726 611.392 42.9713C611.913 41.2921 612.449 40.4741 612.674 40.5302C612.899 40.5862 612.874 41.5605 612.787 43.2246C612.655 45.5376 612.75 47.8579 613.069 50.1524C613.54 53.4858 614.604 56.7076 616.211 59.6646C618.432 63.3157 620.835 66.8523 623.411 70.261C626.177 73.9459 628.127 78.1784 629.132 82.6769C629.527 84.7418 629.527 86.8629 629.132 88.9278C628.759 90.7327 628.031 92.4451 626.99 93.9652C625.55 96.2056 623.33 97.8301 620.761 98.5231C618.871 98.9596 617.884 98.6072 617.884 98.3949Z" fill="#263238"/>
<path d="M600.158 96.3343C600.313 91.0996 600.538 86.2604 600.538 86.2604C600.538 86.2604 611.064 84.8496 611.515 74.145C611.966 63.4404 610.839 38.5607 610.839 38.5607L591.421 29.2628L574.511 48.6215L574.328 95.8887C574.313 99.3163 575.659 102.609 578.069 105.044C580.479 107.478 583.756 108.854 587.179 108.869C590.548 108.889 593.792 107.589 596.217 105.247C598.642 102.905 600.057 99.7064 600.158 96.3343Z" fill="#FFBE9D"/>
<path d="M608.528 56.842C608.528 57.121 608.445 57.3938 608.291 57.6258C608.136 57.8578 607.916 58.0386 607.658 58.1454C607.401 58.2522 607.117 58.2801 606.844 58.2256C606.571 58.1712 606.32 58.0368 606.123 57.8395C605.926 57.6422 605.791 57.3909 605.737 57.1172C605.683 56.8435 605.711 56.5599 605.817 56.3021C605.924 56.0443 606.104 55.8239 606.336 55.6689C606.568 55.5139 606.84 55.4312 607.119 55.4312C607.493 55.4312 607.851 55.5798 608.115 55.8444C608.38 56.109 608.528 56.4678 608.528 56.842Z" fill="#263238"/>
<path d="M610.346 55.1068C610.177 55.29 609.176 54.4439 607.725 54.3868C606.274 54.3298 605.217 55.0637 605.062 54.8664C604.907 54.6692 605.162 54.4569 605.626 54.1185C606.249 53.6704 607.005 53.4449 607.771 53.4782C608.538 53.5114 609.271 53.8014 609.853 54.3017C610.289 54.7403 610.43 55.1068 610.346 55.1068Z" fill="#263238"/>
<path d="M593.042 56.842C592.949 57.1249 592.769 57.3711 592.528 57.5453C592.287 57.7196 591.997 57.813 591.699 57.8121C591.402 57.8113 591.112 57.7162 590.872 57.5405C590.632 57.3649 590.454 57.1176 590.362 56.8342C590.271 56.5508 590.272 56.2457 590.364 55.9626C590.457 55.6796 590.636 55.4332 590.877 55.2585C591.118 55.0839 591.408 54.9901 591.706 54.9905C592.003 54.991 592.293 55.0856 592.533 55.2609C592.774 55.4367 592.953 55.6844 593.044 55.9685C593.136 56.2526 593.135 56.5584 593.042 56.842Z" fill="#263238"/>
<path d="M594.352 55.4602C594.183 55.6434 593.168 54.7974 591.731 54.7403C590.294 54.6832 589.209 55.4312 589.054 55.2339C588.899 55.0367 589.154 54.8104 589.632 54.4719C590.253 54.0335 591.001 53.815 591.76 53.8511C592.525 53.8804 593.258 54.162 593.846 54.6522C594.281 55.1068 594.436 55.3891 594.352 55.4602Z" fill="#263238"/>
<path d="M599.791 67.89C600.558 67.6732 601.348 67.5501 602.144 67.5236C602.51 67.5236 602.863 67.4385 602.933 67.1711C602.967 66.7628 602.889 66.353 602.708 65.9856L601.651 62.9377C600.679 60.3406 599.898 57.6762 599.312 54.9656C600.491 57.4711 601.471 60.0657 602.243 62.7254L603.243 65.8014C603.472 66.2851 603.531 66.8317 603.412 67.3533C603.359 67.4889 603.276 67.6104 603.168 67.7084C603.06 67.8063 602.932 67.8781 602.792 67.9181C602.586 67.9442 602.378 67.9442 602.172 67.9181C601.38 68.0131 600.58 68.0036 599.791 67.89Z" fill="#263238"/>
<path d="M600.538 86.2594C595.535 86.1345 590.676 84.5505 586.559 81.7016C586.559 81.7016 589.859 89.5466 600.359 88.8978L600.538 86.2594Z" fill="#EB996E"/>
<path d="M599.284 71.6849C599.195 71.2301 598.995 70.8042 598.703 70.445C598.41 70.0858 598.034 69.8042 597.607 69.6253C597.316 69.4892 596.998 69.4187 596.677 69.4187C596.356 69.4187 596.038 69.4892 595.747 69.6253C595.459 69.7681 595.222 69.9965 595.068 70.2792C594.914 70.562 594.851 70.8853 594.887 71.2053C594.965 71.5638 595.149 71.8903 595.416 72.1421C595.683 72.3939 596.019 72.5591 596.381 72.6161C597.097 72.7243 597.828 72.6761 598.523 72.4749C598.719 72.444 598.907 72.372 599.073 72.2636C599.158 72.212 599.227 72.1363 599.269 72.046C599.312 71.9557 599.327 71.8548 599.313 71.756" fill="#EB996E"/>
<path d="M595.691 67.8049C595.591 67.8049 595.423 68.2004 595.48 68.8913C595.561 69.8209 595.981 70.6881 596.659 71.3281C597.337 71.9681 598.226 72.3363 599.158 72.3627C599.858 72.3627 600.258 72.1795 600.243 72.0804C599.129 71.9204 598.081 71.4566 597.213 70.7397C595.874 69.4841 595.916 67.8049 595.691 67.8049Z" fill="#263238"/>
<path d="M611.727 37.3571C611.327 40.4685 609.812 43.3285 607.464 45.4049C605.115 47.4812 602.093 48.6325 598.96 48.6445L601.877 42.1963C599.284 45.2302 596.593 48.3341 593.042 50.1404C589.491 51.9467 584.827 52.158 581.769 49.5757C580.797 52.2141 580.811 55.1348 579.909 57.8012C579.007 60.4676 576.909 71.4596 574.117 71.0501C571.566 70.6696 569.734 59.5794 569.086 57.0813C568.297 53.5882 568.341 49.9584 569.212 46.4852C570.084 43.012 571.759 39.7928 574.103 37.0878C576.861 33.8505 580.335 31.3016 584.248 29.6434C588.162 27.9853 592.408 27.2636 596.649 27.5356C600.426 27.6866 604.072 28.9641 607.119 31.2043C609.723 33.2783 611.542 36.18 612.276 39.4298" fill="#263238"/>
<path d="M612.093 50.2385C610.592 49.0029 609.538 47.3076 609.093 45.4134C608.641 43.5368 608.4 41.6154 608.374 39.6851C608.374 39.1344 608.374 38.4155 608.966 38.2743C609.558 38.1331 609.924 38.6698 610.178 39.1494C612.073 42.7249 612.751 46.8219 612.109 50.8183L611.757 50.4939" fill="#263238"/>
<path d="M569.861 44.5103C563.703 67.7208 561.716 92.0879 564.861 112.645C565.185 114.762 564.579 116.991 565.256 119.036C565.539 120.081 566.115 121.022 566.917 121.747C567.719 122.473 568.713 122.952 569.779 123.128C571.779 123.298 574.006 122.07 575.697 123.128C577.022 123.929 577.346 125.683 578.332 126.867C578.989 127.551 579.828 128.032 580.749 128.254C581.67 128.477 582.636 128.431 583.532 128.123C585.318 127.472 586.846 126.259 587.886 124.666C591.719 119.319 591.55 111.968 589.718 105.661C587.886 99.3541 584.645 93.4846 582.672 87.1916C579.022 75.4387 580.079 62.8106 581.178 50.5069L582.136 39.7552" fill="#263238"/>
<path d="M629.384 142.768C634.415 137.647 633.964 137.124 633.284 136.673C631.438 135.262 624.11 145.35 624.463 142.246C624.816 139.142 634.82 131.057 632.918 129.73C630.339 127.995 622.857 138.647 622.152 139.493C621.447 140.339 620.221 139.338 620.898 138.604C621.856 137.546 631.734 126.188 629.212 124.494C627.803 123.535 626.394 126.257 626.394 126.257C626.394 126.257 617.939 137.545 616.755 136.727C615.571 135.909 620.334 129.037 622.096 126.85C623.858 124.663 623.505 122.97 621.969 122.97C620.898 122.97 615.346 129.517 613.655 131.718C611.964 133.92 607.426 140.043 607.255 135.147V134.921C607.255 130.096 605.606 126.386 604.437 125.624C604.159 125.482 603.847 125.421 603.536 125.448C603.226 125.474 602.928 125.587 602.678 125.773C602.428 125.959 602.234 126.211 602.119 126.502C602.004 126.792 601.972 127.109 602.027 127.416C602.038 127.654 602.09 127.888 602.182 128.108C602.233 128.217 602.275 128.33 602.309 128.446C602.673 130.072 602.867 131.732 602.887 133.398C602.945 134.884 602.745 136.369 602.295 137.786C601.788 139.408 601.28 140.777 600.886 141.92L600.153 142.809L559.161 166.02V146.495C559.161 146.495 536.53 145.508 535.699 146.157C535.135 146.594 533.599 165.162 535.699 177.196C536.421 181.452 538.273 185.435 541.062 188.728C543.85 192.02 547.472 194.501 551.548 195.909C555.623 197.318 560.002 197.602 564.226 196.732C568.449 195.863 572.36 193.871 575.55 190.967L609.595 159.927L609.722 160.027L614.569 156.034L615.513 154.538L616.64 153.508C621.08 150.163 625.334 146.578 629.384 142.768Z" fill="#FFBE9D"/>
<path d="M211.514 150.952C211.514 150.952 230.129 191.785 231.327 193.365C232.525 194.945 255.846 209.859 255.846 209.859L278.477 208.575L252.577 181.387L230.819 138.24L211.514 150.952Z" fill="#FFBE9D"/>
<path d="M155.556 53.8512C155.703 54.2635 155.728 54.7097 155.628 55.1361C155.528 55.5624 155.307 55.9507 154.992 56.2542C154.666 56.5516 154.262 56.7496 153.828 56.8246C153.393 56.8997 152.946 56.8487 152.54 56.6777C151.032 56.0149 150.722 53.9683 150.934 52.3322C151.146 50.6961 151.596 48.9038 150.821 47.426C150.084 46.3922 149.173 45.4947 148.129 44.7736C147.308 44.0261 146.672 43.0978 146.271 42.0619C145.87 41.0261 145.715 39.9111 145.818 38.805C145.945 37.7002 146.373 36.6518 147.057 35.7755C147.741 34.8992 148.653 34.2289 149.693 33.8386C151.835 33.1187 154.541 33.6384 156.076 31.9763C157.189 30.7747 157.147 28.9004 157.992 27.4896C159.274 25.2868 162.219 24.7951 164.77 25.0064C167.321 25.2177 169.899 25.8815 172.337 25.1336C174.366 24.5128 175.973 22.9748 177.847 21.9876C179.9 20.9024 182.241 20.4881 184.541 20.8026C186.841 21.1171 188.986 22.1447 190.673 23.7413C192.36 25.3378 193.506 27.4232 193.95 29.7049C194.394 31.9866 194.113 34.3502 193.147 36.464C192.521 38.0185 191.362 39.2989 189.878 40.0756" fill="#263238"/>
<path d="M158.093 97.0402L182.049 95.1207C182.204 92.2991 182.049 81.4914 182.049 81.4914C182.049 81.4914 191.998 79.9394 192.124 69.9767C192.25 60.014 190.518 37.1018 190.518 37.1018C184.859 34.6675 178.654 33.7895 172.542 34.5583C166.431 35.3271 160.636 37.715 155.754 41.4754L154.345 42.6178L158.093 97.0402Z" fill="#FFBE9D"/>
<path d="M187.097 54.0204C186.863 53.7957 186.713 53.497 186.673 53.1747C186.634 52.8524 186.706 52.5262 186.879 52.2512C187.051 51.9762 187.313 51.7692 187.621 51.6652C187.928 51.5612 188.262 51.5665 188.565 51.6803C188.869 51.794 189.124 52.0092 189.288 52.2896C189.452 52.5699 189.514 52.8982 189.464 53.2191C189.414 53.54 189.255 53.8338 189.014 54.0509C188.773 54.268 188.464 54.3951 188.14 54.4109C187.949 54.4201 187.758 54.3903 187.578 54.3232C187.399 54.256 187.235 54.153 187.097 54.0204Z" fill="#263238"/>
<path d="M190.574 51.9597C190.419 52.143 189.447 51.381 188.066 51.381C186.685 51.381 185.699 52.0819 185.558 51.9027C185.417 51.7234 185.558 51.5072 186.065 51.1827C186.65 50.7575 187.357 50.5347 188.08 50.5479C188.802 50.5531 189.503 50.7904 190.08 51.2248C190.503 51.5803 190.644 51.8896 190.574 51.9597Z" fill="#263238"/>
<path d="M173.889 53.1603C174.053 53.2594 174.195 53.39 174.309 53.5447C174.422 53.6993 174.503 53.8749 174.548 54.0612C174.593 54.2475 174.601 54.4409 174.571 54.6302C174.541 54.8195 174.473 55.001 174.373 55.1641C174.272 55.3272 174.14 55.4688 173.985 55.5806C173.829 55.6924 173.653 55.7723 173.467 55.8155C173.28 55.8588 173.087 55.8646 172.898 55.8327C172.71 55.8007 172.529 55.7316 172.367 55.6294C172.044 55.4255 171.814 55.1021 171.728 54.7296C171.642 54.357 171.706 53.9655 171.907 53.6401C172.107 53.3147 172.428 53.0817 172.799 52.9919C173.17 52.902 173.562 52.9625 173.889 53.1603Z" fill="#263238"/>
<path d="M175.679 53.1743C175.524 53.3435 174.538 52.5956 173.171 52.5956C171.804 52.5956 170.804 53.2874 170.649 53.1172C170.494 52.947 170.734 52.7217 171.17 52.3973C171.752 51.9663 172.461 51.7428 173.185 51.7625C173.908 51.7615 174.611 51.9994 175.185 52.4394C175.609 52.7788 175.75 53.1032 175.679 53.1743Z" fill="#263238"/>
<path d="M181.172 64.5037C181.881 64.2188 182.634 64.0611 183.398 64.0381C183.75 64.0381 184.032 63.911 184.06 63.7277C184.07 63.3676 183.982 63.0115 183.806 62.6974C183.454 61.7803 183.087 60.8631 182.721 59.8758C181.693 57.5154 180.906 55.0572 180.372 52.5385C181.626 54.7827 182.655 57.1459 183.444 59.5935C183.81 60.5667 184.144 61.4959 184.473 62.4151C184.71 62.8706 184.781 63.3947 184.673 63.8969C184.623 64.0357 184.54 64.1605 184.433 64.2612C184.325 64.3618 184.195 64.4353 184.053 64.4757C183.855 64.5279 183.652 64.5565 183.447 64.5608C182.693 64.6721 181.926 64.6531 181.178 64.5047L181.172 64.5037Z" fill="#263238"/>
<path d="M176.722 66.0277C178.865 66.9775 181.126 67.6326 183.444 67.9751C182.981 68.6969 182.287 69.2395 181.475 69.5139C180.663 69.7883 179.782 69.7781 178.977 69.4851C175.989 68.3977 176.722 66.0277 176.722 66.0277Z" fill="white"/>
<path d="M181.992 81.3502C177.395 81.4346 172.878 80.1478 169.014 77.6535C169.014 77.6535 172.072 84.8356 182.006 83.9325L181.992 81.3502Z" fill="#EB996E"/>
<path d="M190.659 39.586C190.659 39.586 184.839 42.9583 176.68 39.586C171.325 37.3832 165.224 36.5821 163.998 37.7096C162.772 38.837 162.857 44.1999 157.868 46.1754C157.868 46.1754 158.968 56.3063 154.895 56.2352C150.822 56.1641 152.189 40.2779 152.189 40.2779L161.729 34.6337L172.368 31.8121L182.655 32.5039L190.687 34.0699L190.659 39.586Z" fill="#263238"/>
<path d="M155.43 52.948C155.261 52.8779 148.582 50.9164 148.807 57.7451C149.032 64.5738 155.853 62.9377 155.853 62.7395C155.853 62.5412 155.43 52.948 155.43 52.948Z" fill="#FFBE9D"/>
<path d="M153.598 60.2143C153.503 60.2928 153.399 60.36 153.288 60.4145C153.001 60.518 152.687 60.518 152.4 60.4145C151.956 60.1463 151.591 59.7643 151.343 59.3079C151.096 58.8516 150.974 58.3373 150.991 57.8182C150.952 57.2363 151.044 56.6531 151.259 56.111C151.319 55.8953 151.43 55.6971 151.582 55.5327C151.734 55.3684 151.923 55.2426 152.133 55.1658C152.267 55.1262 152.412 55.1356 152.54 55.1925C152.668 55.2493 152.772 55.3499 152.833 55.4762C152.933 55.6595 152.833 55.8006 152.933 55.8006C153.033 55.8006 153.074 55.6875 152.933 55.4051C152.894 55.2377 152.794 55.0913 152.651 54.9956C152.558 54.9237 152.451 54.8726 152.337 54.8458C152.223 54.819 152.104 54.8172 151.989 54.8404C151.713 54.903 151.457 55.0358 151.247 55.2261C151.037 55.4164 150.879 55.6577 150.789 55.9268C150.518 56.5282 150.397 57.1866 150.437 57.8452C150.422 58.453 150.587 59.0516 150.91 59.5662C151.234 60.0807 151.701 60.4883 152.255 60.7379C152.441 60.7827 152.635 60.7858 152.823 60.7468C153.01 60.7079 153.187 60.6279 153.34 60.5126C153.598 60.3835 153.679 60.2303 153.598 60.2143Z" fill="#EB996E"/>
<path d="M150.778 31.8261C150.708 31.6429 151.835 31.1632 153.202 31.5858C154.569 32.0083 155.231 32.9966 155.062 33.1658C154.893 33.335 154.132 32.6441 152.976 32.2907C151.82 31.9372 150.849 32.0233 150.778 31.8261Z" fill="#263238"/>
<path d="M154.669 27.5226C154.909 27.5226 154.88 28.9334 155.204 30.6125C155.528 32.2917 156.289 33.4341 156.12 33.5613C155.951 33.6885 154.852 32.6021 154.485 30.7397C154.182 29.6774 154.247 28.5436 154.669 27.5226Z" fill="#263238"/>
<path d="M183.908 49.7309C183.683 49.3925 184.965 48.3201 186.924 48.207C188.883 48.0938 190.25 49.1081 190.066 49.4485C189.882 49.789 188.558 49.5897 186.994 49.6738C185.43 49.7579 184.106 50.0974 183.908 49.7309Z" fill="#263238"/>
<path d="M168.634 48.4473C168.409 48.1229 169.677 47.0365 171.65 46.9373C173.623 46.8382 174.976 47.8265 174.792 48.1789C174.608 48.5314 173.284 48.3201 171.706 48.4042C170.128 48.4883 168.831 48.8137 168.634 48.4473Z" fill="#263238"/>
<path d="M112.267 469.771L109.914 479.803C109.914 479.803 93.614 500.967 88.579 499.966C85.296 499.289 89.34 493.758 95.54 477.658L96.84 471.013L112.267 469.771Z" fill="#92E3A9"/>
<path d="M87.903 496.733C88.1189 497.081 88.4197 497.367 88.777 497.565C89.2864 497.785 89.8461 497.86 90.3951 497.783C90.9442 497.706 91.4616 497.479 91.891 497.128C94.754 494.731 97.4649 492.159 100.008 489.424C103.024 486.264 105.56 483.202 107.35 480.958C108.139 479.942 108.759 479.039 109.436 478.278L110 477.544C110.127 477.375 110.2 477.29 110.211 477.304L110.042 477.572L109.521 478.348C109.056 478.997 108.38 479.942 107.506 481.086C105.234 484.065 102.802 486.92 100.221 489.636C97.6705 492.38 94.9304 494.94 92.021 497.298C91.4735 497.678 90.838 497.911 90.175 497.975C89.6864 497.996 89.2008 497.889 88.766 497.665C88.4877 497.518 88.2542 497.298 88.09 497.03C88.0133 496.941 87.9503 496.841 87.903 496.733Z" fill="#263238"/>
<path d="M90.186 489.976C90.6114 489.809 91.0728 489.755 91.525 489.821C92.6185 489.933 93.6706 490.3 94.597 490.893C95.5588 491.441 96.3382 492.26 96.838 493.249C97.0561 493.653 97.1767 494.102 97.19 494.561C97.045 494.142 96.8657 493.736 96.654 493.347C96.1244 492.406 95.3499 491.625 94.413 491.089C93.5263 490.513 92.5271 490.133 91.482 489.975C91.0503 489.953 90.6177 489.953 90.186 489.976Z" fill="#263238"/>
<path d="M105.686 484.994C105.604 484.842 105.537 484.681 105.486 484.515C105.343 484.054 105.239 483.582 105.176 483.104C104.935 481.552 105.202 479.963 105.937 478.575C106.642 477.166 107.797 476.033 109.22 475.358C109.671 475.164 110.144 475.026 110.629 474.949H111.136C110.532 475.11 109.943 475.322 109.375 475.583C108.027 476.276 106.933 477.377 106.247 478.73C105.553 480.076 105.268 481.597 105.43 483.103C105.445 483.741 105.531 484.375 105.686 484.994Z" fill="#263238"/>
<path d="M111.238 471.464C111.308 471.464 110.938 472.875 110.632 474.653C110.507 475.734 110.222 476.789 109.786 477.785C109.786 477.785 110.04 476.374 110.35 474.596C110.477 473.511 110.776 472.454 111.238 471.464Z" fill="#263238"/>
<path d="M95.231 479.012C95.9175 478.817 96.6445 478.817 97.331 479.012C98.0312 479.125 98.6855 479.433 99.219 479.901C99.219 479.971 98.359 479.549 97.26 479.294C96.161 479.04 95.245 479.097 95.231 479.012Z" fill="#263238"/>
<path d="M94.907 480.724C95.4756 480.516 96.0994 480.516 96.668 480.724C97.2647 480.813 97.8097 481.114 98.204 481.571C98.204 481.641 97.514 481.219 96.598 481.006C95.682 480.794 94.921 480.804 94.907 480.724Z" fill="#263238"/>
<path d="M93.596 482.865C94.1563 482.57 94.8029 482.486 95.4201 482.625C96.0372 482.765 96.5845 483.12 96.964 483.627C96.4583 483.33 95.9192 483.095 95.358 482.926C94.7748 482.84 94.1838 482.819 93.596 482.865Z" fill="#263238"/>
<path d="M96.358 478.293C96.358 478.293 97.105 478.093 98.274 477.644C98.9501 477.379 99.605 477.063 100.233 476.699C100.606 476.487 100.968 476.256 101.318 476.008C101.656 475.754 102.018 475.387 102.008 475.007C101.998 474.626 101.515 474.414 101.134 474.499C100.748 474.635 100.404 474.868 100.134 475.176C99.528 475.741 99.021 476.29 98.598 476.756C97.767 477.687 97.298 478.308 97.273 478.28C97.248 478.252 97.343 478.097 97.541 477.8C97.739 477.504 98.048 477.099 98.441 476.615C98.9093 476.043 99.408 475.496 99.935 474.978C100.241 474.63 100.635 474.371 101.076 474.23C101.207 474.187 101.345 474.174 101.481 474.19C101.618 474.207 101.749 474.253 101.866 474.326C101.983 474.398 102.082 474.495 102.157 474.61C102.233 474.725 102.282 474.856 102.302 474.992C102.27 475.248 102.18 475.493 102.038 475.708C101.897 475.923 101.707 476.103 101.485 476.233C101.128 476.486 100.756 476.716 100.372 476.924C99.722 477.285 99.0434 477.592 98.343 477.841C97.8831 478.002 97.4122 478.129 96.934 478.222C96.7464 478.273 96.5524 478.297 96.358 478.293Z" fill="#263238"/>
<path d="M97.232 478.096C97.098 477.49 96.9978 476.878 96.932 476.261C96.8199 475.616 96.6305 474.986 96.368 474.385C96.212 474.034 96.008 473.706 95.762 473.412C95.508 473.129 95.142 472.89 94.832 473.073C94.6939 473.193 94.5917 473.348 94.537 473.523C94.4822 473.697 94.477 473.883 94.522 474.061C94.5896 474.438 94.6982 474.808 94.846 475.162C95.1161 475.764 95.4773 476.321 95.917 476.813C96.664 477.645 97.256 478.055 97.228 478.097C97.0693 478.037 96.9217 477.951 96.791 477.842C96.4465 477.579 96.1217 477.292 95.819 476.981C95.3413 476.488 94.9462 475.921 94.649 475.302C94.4836 474.928 94.3654 474.534 94.297 474.131C94.2392 473.896 94.2511 473.649 94.3312 473.421C94.4114 473.193 94.5562 472.994 94.748 472.847C94.9763 472.758 95.228 472.75 95.4613 472.825C95.6945 472.9 95.8953 473.052 96.03 473.257C96.2969 473.57 96.5154 473.922 96.678 474.301C96.9417 474.926 97.1125 475.587 97.185 476.262C97.255 476.841 97.285 477.293 97.298 477.673C97.2911 477.817 97.2676 477.959 97.228 478.097L97.232 478.096Z" fill="#263238"/>
<path d="M109.915 479.803L111.056 475.02C111.056 475.02 107.068 475.754 106.025 478.745C105.418 480.38 105.154 482.124 105.25 483.866L96.57 493.235C96.57 493.235 94.386 489.003 90.44 489.99C90.44 489.99 87.34 496.833 87.44 498.54C87.54 500.247 89.526 500.05 90.258 499.725C93.1318 498.064 95.7517 495.997 98.037 493.587C102.588 488.748 107.674 482.696 109.915 479.803Z" fill="black"/>
<path d="M193.308 474.822V461.505L168.422 461.204L168.098 480.675L169.634 480.788C176.511 481.254 204.581 482.679 209.189 481.339C214.403 479.803 193.308 474.822 193.308 474.822Z" fill="#92E3A9"/>
<path d="M177.201 480.593C176.853 478.484 175.745 476.577 174.087 475.231C172.452 473.904 170.382 473.235 168.281 473.355L168.196 480.324L177.201 480.593Z" fill="black"/>
<path d="M203.608 477.644C203.608 477.644 211.008 479.873 210.062 481.086C209.116 482.3 180.695 481.934 168.168 480.677V480.112L201.325 480.813C201.325 480.813 202.157 477.686 203.608 477.644Z" fill="black"/>
<path d="M167.83 480.099C167.971 480.114 168.112 480.114 168.253 480.099L169.479 480.184L174.002 480.439C177.821 480.622 183.102 480.805 188.939 480.89C194.776 480.975 200.057 480.89 203.89 480.89L208.413 480.749H188.939C183.105 480.749 177.839 480.509 174.016 480.383L169.493 480.227H168.253L167.83 480.099Z" fill="#263238"/>
<path d="M201.359 481.214C201.575 480.466 201.868 479.742 202.233 479.055C202.689 478.429 203.213 477.856 203.797 477.348C203.019 477.621 202.371 478.174 201.979 478.9C201.495 479.568 201.275 480.392 201.359 481.214Z" fill="#263238"/>
<path d="M194.054 477.39C194.359 477.109 194.627 476.792 194.854 476.445C195.22 475.88 195.474 475.372 195.404 475.33C195.334 475.288 194.967 475.711 194.604 476.275C194.241 476.84 193.984 477.348 194.054 477.39Z" fill="#263238"/>
<path d="M192.054 476.289C192.054 476.359 192.505 476.089 192.942 475.725C193.379 475.36 193.689 474.977 193.632 474.924C193.575 474.871 193.181 475.107 192.744 475.488C192.307 475.87 191.998 476.233 192.054 476.289Z" fill="#263238"/>
<path d="M190.813 473.918C191.666 474.139 192.557 474.163 193.42 473.988C193.006 473.829 192.562 473.767 192.12 473.805C191.681 473.748 191.235 473.786 190.813 473.918Z" fill="#263238"/>
<path d="M190.391 472.254C190.805 472.542 191.296 472.699 191.8 472.706C192.305 472.792 192.825 472.729 193.294 472.523C192.828 472.443 192.357 472.4 191.885 472.395C191.392 472.308 190.892 472.261 190.391 472.254Z" fill="#263238"/>
<path d="M194.928 475.217C195.458 475.32 196.004 475.32 196.534 475.217C197.112 475.154 197.683 475.036 198.239 474.865C198.581 474.768 198.911 474.636 199.225 474.469C199.321 474.418 199.406 474.349 199.474 474.264C199.542 474.179 199.592 474.081 199.62 473.975C199.647 473.859 199.641 473.737 199.601 473.625C199.561 473.512 199.49 473.414 199.395 473.341C198.788 473.031 198.092 472.941 197.427 473.087C196.761 473.233 196.167 473.606 195.745 474.142C195.499 474.461 195.317 474.825 195.209 475.214C195.172 475.353 195.172 475.499 195.209 475.638C195.374 475.127 195.627 474.65 195.956 474.227C196.33 473.803 196.82 473.499 197.365 473.352C197.995 473.156 198.676 473.211 199.265 473.507C199.519 473.707 199.406 474 199.124 474.17C198.839 474.326 198.537 474.449 198.224 474.536C197.686 474.718 197.135 474.855 196.575 474.946C195.548 475.175 194.928 475.175 194.928 475.217Z" fill="#263238"/>
<path d="M195.351 475.301C195.545 474.969 195.616 474.579 195.551 474.2C195.497 473.779 195.353 473.374 195.128 473.014C194.994 472.776 194.803 472.575 194.571 472.429C194.34 472.284 194.076 472.199 193.803 472.182C193.641 472.216 193.498 472.311 193.403 472.448C193.309 472.585 193.271 472.752 193.296 472.916C193.333 473.172 193.424 473.418 193.564 473.636C193.765 473.999 194.017 474.332 194.311 474.624C194.804 475.118 195.199 475.315 195.211 475.273C195.223 475.231 194.901 474.991 194.464 474.472C194.214 474.174 193.992 473.853 193.802 473.513C193.591 473.16 193.45 472.554 193.802 472.483C194.154 472.411 194.602 472.864 194.859 473.183C195.078 473.496 195.228 473.852 195.296 474.228C195.345 474.583 195.363 474.942 195.352 475.3L195.351 475.301Z" fill="#263238"/>
<path d="M168.422 473.284C168.422 473.284 169.122 473.284 170.254 473.369C171.721 473.544 173.108 474.135 174.251 475.073C175.394 476.01 176.247 477.254 176.708 478.659C177.074 479.732 177.103 480.452 177.159 480.452C177.215 480.452 177.159 480.268 177.159 479.944C176.979 478.187 176.192 476.547 174.934 475.309C173.676 474.07 172.026 473.309 170.268 473.157C169.8 473.11 169.327 473.11 168.859 473.157C168.708 473.177 168.56 473.22 168.422 473.285V473.284Z" fill="#263238"/>
<path d="M171.127 462.941C170.836 466.347 170.751 469.768 170.873 473.184C171.164 469.778 171.249 466.358 171.127 462.941Z" fill="#263238"/>
<path d="M180.372 478.194C181.561 478.491 182.783 478.628 184.008 478.603C185.23 478.68 186.457 478.599 187.658 478.363C187.658 478.278 186.023 478.363 184.008 478.363C181.993 478.363 180.372 478.109 180.372 478.194Z" fill="#263238"/>
<path d="M175.482 478.123C175.561 478.376 175.661 478.621 175.782 478.857C175.951 479.237 176.022 479.558 176.106 479.548C176.19 479.538 176.247 479.167 176.106 478.73C175.965 478.292 175.538 478.067 175.482 478.123Z" fill="#263238"/>
<path d="M173.678 475.81C173.608 475.81 173.778 476.134 174.03 476.403C174.282 476.671 174.537 476.826 174.594 476.769C174.651 476.712 174.494 476.459 174.242 476.19C173.99 475.922 173.734 475.754 173.678 475.81Z" fill="#263238"/>
<path d="M171.057 474.737C171.057 474.823 171.395 474.823 171.757 474.949C172.119 475.075 172.391 475.287 172.448 475.231C172.505 475.175 172.321 474.822 171.856 474.666C171.391 474.511 171.029 474.652 171.057 474.737Z" fill="#263238"/>
<path d="M169.183 474.159C169.183 474.244 169.296 474.37 169.507 474.459C169.718 474.548 169.902 474.544 169.93 474.459C169.958 474.374 169.817 474.259 169.62 474.177C169.479 474.128 169.327 474.122 169.183 474.159Z" fill="#263238"/>
<path d="M210.245 210.481L198.634 469.079L159.854 469.897L166.294 253.401L122.68 471.548H85.817L135.053 210.481" fill="#263238"/>
<path d="M124.597 468.036L123.709 471.86L85.817 472.367L86.395 466.399L124.597 468.036Z" fill="#455A64"/>
<path d="M95.089 467.867C95.289 467.867 95.371 468.388 95.272 468.968C95.173 469.548 94.948 469.984 94.737 469.955C94.526 469.926 94.455 469.42 94.554 468.841C94.653 468.262 94.892 467.826 95.089 467.867Z" fill="#455A64"/>
<path d="M96.513 459.4C96.713 459.4 96.713 460.401 96.513 461.573C96.313 462.744 96.006 463.661 95.813 463.632C95.62 463.603 95.602 462.616 95.813 461.445C96.024 460.275 96.316 459.36 96.513 459.4Z" fill="#455A64"/>
<path d="M97.936 450.92C98.136 450.92 98.136 451.936 97.936 453.107C97.736 454.277 97.429 455.195 97.217 455.152C97.005 455.109 97.017 454.151 97.217 452.98C97.417 451.808 97.739 450.89 97.936 450.92Z" fill="#455A64"/>
<path d="M99.36 442.454C99.56 442.454 99.56 443.456 99.36 444.627C99.16 445.799 98.839 446.716 98.641 446.687C98.443 446.658 98.441 445.67 98.641 444.514C98.841 443.357 99.162 442.412 99.36 442.454Z" fill="#455A64"/>
<path d="M100.783 433.974C100.983 433.974 100.983 434.991 100.783 436.161C100.583 437.332 100.262 438.25 100.064 438.221C99.866 438.192 99.864 437.205 100.064 436.034C100.264 434.864 100.585 433.946 100.783 433.974Z" fill="#455A64"/>
<path d="M102.206 425.509C102.406 425.509 102.417 426.51 102.206 427.681C101.995 428.853 101.685 429.77 101.487 429.741C101.289 429.712 101.276 428.74 101.487 427.568C101.698 426.397 102.009 425.467 102.206 425.509Z" fill="#455A64"/>
<path d="M103.642 417.029C103.842 417.029 103.842 418.045 103.642 419.216C103.442 420.386 103.121 421.304 102.923 421.275C102.725 421.246 102.723 420.259 102.923 419.089C103.123 417.918 103.442 417.001 103.642 417.029Z" fill="#455A64"/>
<path d="M105.081 408.564C105.281 408.564 105.281 409.58 105.081 410.751C104.881 411.921 104.56 412.84 104.362 412.796C104.164 412.753 104.162 411.795 104.362 410.624C104.562 409.452 104.883 408.536 105.081 408.564Z" fill="#455A64"/>
<path d="M106.518 400.097C106.718 400.097 106.718 401.099 106.518 402.27C106.318 403.442 105.997 404.359 105.799 404.33C105.601 404.301 105.599 403.313 105.799 402.143C105.999 400.972 106.32 400.055 106.518 400.097Z" fill="#455A64"/>
<path d="M107.969 391.619C108.169 391.619 108.169 392.635 107.969 393.805C107.769 394.976 107.448 395.894 107.236 395.865C107.024 395.836 107.036 394.849 107.236 393.678C107.436 392.508 107.772 391.59 107.969 391.619Z" fill="#455A64"/>
<path d="M109.421 383.153C109.621 383.153 109.621 384.169 109.421 385.339C109.221 386.51 108.886 387.428 108.688 387.385C108.49 387.342 108.488 386.384 108.688 385.212C108.888 384.041 109.223 383.125 109.421 383.153Z" fill="#455A64"/>
<path d="M110.887 374.687C111.087 374.687 111.087 375.703 110.887 376.874C110.687 378.044 110.366 378.962 110.168 378.919C109.97 378.876 109.968 377.918 110.168 376.747C110.368 375.575 110.675 374.659 110.887 374.687Z" fill="#455A64"/>
<path d="M112.352 366.221C112.552 366.221 112.552 367.237 112.352 368.408C112.152 369.578 111.831 370.497 111.633 370.453C111.435 370.41 111.433 369.452 111.633 368.281C111.833 367.109 112.154 366.193 112.352 366.221Z" fill="#455A64"/>
<path d="M113.818 357.755C114.029 357.755 114.018 358.772 113.818 359.942C113.618 361.113 113.282 362.031 113.085 361.988C112.888 361.945 112.885 360.986 113.085 359.815C113.285 358.643 113.62 357.727 113.818 357.755Z" fill="#455A64"/>
<path d="M115.311 349.304C115.511 349.304 115.511 350.305 115.311 351.476C115.111 352.648 114.776 353.565 114.578 353.522C114.38 353.479 114.378 352.521 114.578 351.349C114.778 350.178 115.113 349.262 115.311 349.304Z" fill="#455A64"/>
<path d="M116.805 340.838C117.005 340.838 117.005 341.854 116.805 343.011C116.605 344.167 116.27 345.099 116.072 345.07C115.874 345.041 115.872 344.054 116.072 342.883C116.272 341.713 116.607 340.796 116.805 340.838Z" fill="#455A64"/>
<path d="M118.369 332.372C118.569 332.372 118.569 333.388 118.369 334.559C118.169 335.729 117.834 336.647 117.622 336.604C117.41 336.561 117.439 335.588 117.622 334.432C117.805 333.275 118.115 332.344 118.369 332.372Z" fill="#455A64"/>
<path d="M119.778 323.92C119.978 323.92 119.961 324.937 119.778 326.093C119.595 327.249 119.243 328.182 119.045 328.153C118.847 328.124 118.845 327.136 119.045 325.966C119.245 324.795 119.622 323.878 119.778 323.92Z" fill="#455A64"/>
<path d="M121.357 315.468C121.557 315.468 121.54 316.47 121.357 317.641C121.174 318.813 120.822 319.73 120.624 319.687C120.426 319.644 120.424 318.686 120.624 317.514C120.824 316.343 121.188 315.426 121.357 315.468Z" fill="#455A64"/>
<path d="M122.892 307.018C123.103 307.018 123.092 308.019 122.892 309.19C122.692 310.362 122.342 311.279 122.145 311.236C121.948 311.193 121.945 310.22 122.145 309.063C122.345 307.907 122.695 306.978 122.892 307.018Z" fill="#455A64"/>
<path d="M124.457 298.566C124.657 298.566 124.64 299.582 124.457 300.739C124.274 301.895 123.907 302.827 123.71 302.784C123.513 302.741 123.51 301.768 123.71 300.612C123.91 299.455 124.26 298.524 124.457 298.566Z" fill="#455A64"/>
<path d="M126.021 290.114C126.221 290.114 126.204 291.13 126.021 292.287C125.838 293.443 125.471 294.376 125.26 294.333C125.049 294.29 125.077 293.331 125.26 292.16C125.443 290.988 125.827 290.072 126.021 290.114Z" fill="#455A64"/>
<path d="M127.613 281.676C127.813 281.676 127.796 282.678 127.613 283.849C127.43 285.021 127.049 285.923 126.852 285.895C126.655 285.867 126.669 284.879 126.852 283.708C127.035 282.538 127.416 281.634 127.613 281.676Z" fill="#455A64"/>
<path d="M129.205 273.226C129.405 273.226 129.388 274.242 129.205 275.412C129.022 276.583 128.641 277.486 128.444 277.444C128.247 277.402 128.275 276.443 128.444 275.271C128.613 274.1 129.008 273.198 129.205 273.226Z" fill="#455A64"/>
<path d="M130.823 264.788C131.023 264.788 131.006 265.804 130.823 266.975C130.64 268.145 130.259 269.048 130.062 269.006C129.865 268.964 129.879 267.99 130.062 266.834C130.245 265.677 130.628 264.746 130.823 264.788Z" fill="#455A64"/>
<path d="M132.46 256.35C132.66 256.35 132.643 257.366 132.46 258.537C132.277 259.707 131.882 260.611 131.685 260.569C131.488 260.526 131.502 259.552 131.685 258.396C131.868 257.239 132.263 256.32 132.46 256.35Z" fill="#455A64"/>
<path d="M134.123 247.926C134.323 247.926 134.292 248.943 134.123 250.099C133.954 251.256 133.545 252.173 133.348 252.145C133.151 252.117 133.165 251.129 133.348 249.958C133.531 248.788 133.87 247.884 134.123 247.926Z" fill="#455A64"/>
<path d="M135.8 239.504C136 239.504 135.969 240.52 135.73 241.676C135.491 242.833 135.152 243.75 134.955 243.708C134.758 243.666 134.786 242.692 134.955 241.535C135.124 240.379 135.603 239.462 135.8 239.504Z" fill="#455A64"/>
<path d="M137.491 231.08C137.691 231.08 137.66 232.096 137.491 233.253C137.322 234.409 136.913 235.326 136.716 235.284C136.519 235.242 136.547 234.268 136.716 233.112C136.885 231.955 137.294 231.038 137.491 231.08Z" fill="#455A64"/>
<path d="M139.21 222.656C139.41 222.656 139.379 223.673 139.21 224.829C139.041 225.985 138.618 226.903 138.421 226.861C138.224 226.819 138.252 225.844 138.421 224.688C138.59 223.531 139.013 222.614 139.21 222.656Z" fill="#455A64"/>
<path d="M140.507 216.364C140.707 216.364 140.775 216.901 140.662 217.479C140.549 218.056 140.282 218.48 140.084 218.438C139.886 218.396 139.816 217.902 139.943 217.323C140.07 216.745 140.31 216.322 140.507 216.364Z" fill="#455A64"/>
<path d="M166.53 467.838C166.741 467.838 166.882 468.331 166.84 468.91C166.798 469.489 166.629 469.954 166.431 469.954C166.233 469.954 166.079 469.461 166.107 468.868C166.135 468.275 166.28 467.824 166.53 467.838Z" fill="#455A64"/>
<path d="M166.9 459.217C167.1 459.217 167.224 460.19 167.182 461.389C167.14 462.589 166.928 463.534 166.731 463.534C166.534 463.534 166.407 462.547 166.449 461.361C166.491 460.176 166.689 459.217 166.9 459.217Z" fill="#455A64"/>
<path d="M167.168 450.596C167.368 450.596 167.506 451.569 167.468 452.754C167.43 453.94 167.243 454.913 167.045 454.899C166.847 454.885 166.707 453.926 166.735 452.74C166.763 451.555 166.957 450.596 167.168 450.596Z" fill="#455A64"/>
<path d="M167.376 441.975C167.576 441.975 167.714 442.948 167.686 444.133C167.658 445.319 167.475 446.292 167.277 446.278C167.079 446.264 166.925 445.305 166.953 444.119C166.981 442.934 167.182 441.961 167.376 441.975Z" fill="#455A64"/>
<path d="M167.591 433.34C167.791 433.34 167.929 434.313 167.901 435.512C167.873 436.712 167.69 437.657 167.478 437.657C167.266 437.657 167.14 436.684 167.168 435.498C167.196 434.313 167.379 433.34 167.591 433.34Z" fill="#455A64"/>
<path d="M167.798 424.776C168.009 424.776 168.15 425.749 168.108 426.935C168.066 428.12 167.897 429.093 167.685 429.093C167.473 429.093 167.347 428.106 167.375 426.921C167.403 425.735 167.605 424.776 167.798 424.776Z" fill="#455A64"/>
<path d="M168.098 416.084C168.298 416.084 168.422 417.071 168.38 418.256C168.338 419.442 168.14 420.401 167.943 420.401C167.746 420.401 167.605 419.428 167.643 418.228C167.681 417.029 167.887 416.084 168.098 416.084Z" fill="#455A64"/>
<path d="M168.451 407.464C168.662 407.464 168.775 408.451 168.733 409.636C168.691 410.822 168.479 411.781 168.282 411.781C168.085 411.781 167.944 410.794 168 409.608C168.056 408.423 168.253 407.464 168.451 407.464Z" fill="#455A64"/>
<path d="M168.788 398.843C168.999 398.843 169.126 399.83 169.07 401.016C169.014 402.201 168.83 403.16 168.633 403.16C168.436 403.16 168.295 402.187 168.333 400.987C168.371 399.788 168.591 398.843 168.788 398.843Z" fill="#455A64"/>
<path d="M169.098 390.222C169.309 390.222 169.436 391.209 169.398 392.395C169.36 393.58 169.173 394.539 168.961 394.539C168.749 394.539 168.623 393.566 168.661 392.366C168.699 391.167 168.887 390.222 169.098 390.222Z" fill="#455A64"/>
<path d="M169.352 381.601C169.563 381.601 169.69 382.574 169.662 383.76C169.634 384.945 169.437 385.918 169.225 385.904C169.013 385.89 168.887 384.931 168.925 383.745C168.963 382.56 169.098 381.587 169.352 381.601Z" fill="#455A64"/>
<path d="M169.578 372.966C169.789 372.966 169.93 373.953 169.888 375.139C169.846 376.324 169.677 377.283 169.479 377.283C169.281 377.283 169.127 376.31 169.155 375.125C169.183 373.939 169.38 372.966 169.578 372.966Z" fill="#455A64"/>
<path d="M169.761 364.345C169.972 364.345 170.113 365.318 170.085 366.518C170.057 367.717 169.885 368.662 169.676 368.662C169.467 368.662 169.338 367.689 169.352 366.504C169.366 365.318 169.564 364.345 169.761 364.345Z" fill="#455A64"/>
<path d="M169.917 355.724C170.117 355.724 170.269 356.697 170.241 357.883C170.213 359.068 170.041 360.041 169.846 360.041C169.651 360.041 169.494 359.068 169.508 357.869C169.522 356.669 169.705 355.724 169.917 355.724Z" fill="#455A64"/>
<path d="M170.015 347.172C170.215 347.172 170.367 348.131 170.353 349.331C170.339 350.53 170.17 351.475 169.973 351.475C169.776 351.475 169.607 350.516 169.621 349.317C169.635 348.117 169.818 347.089 170.015 347.172Z" fill="#455A64"/>
<path d="M170.07 338.468C170.281 338.468 170.436 339.441 170.436 340.627C170.436 341.812 170.253 342.785 170.056 342.785C169.859 342.785 169.69 341.812 169.69 340.627C169.69 339.441 169.87 338.468 170.07 338.468Z" fill="#455A64"/>
<path d="M170.099 329.847C170.299 329.847 170.465 330.806 170.465 332.006C170.465 333.205 170.296 334.15 170.085 334.15C169.874 334.15 169.719 333.191 169.733 332.006C169.747 330.82 169.887 329.847 170.099 329.847Z" fill="#455A64"/>
<path d="M170.07 321.212C170.27 321.212 170.436 322.185 170.45 323.371C170.464 324.556 170.295 325.529 170.084 325.529C169.873 325.529 169.718 324.57 169.718 323.371C169.718 322.171 169.873 321.212 170.07 321.212Z" fill="#455A64"/>
<path d="M170.001 312.591C170.212 312.591 170.381 313.55 170.396 314.75C170.411 315.949 170.241 316.908 170.044 316.908C169.847 316.908 169.664 315.935 169.649 314.75C169.634 313.564 169.803 312.591 170.001 312.591Z" fill="#455A64"/>
<path d="M169.887 303.97C170.098 303.97 170.267 304.929 170.282 306.115C170.297 307.3 170.155 308.273 169.958 308.273C169.761 308.273 169.578 307.314 169.549 306.129C169.52 304.943 169.69 303.97 169.887 303.97Z" fill="#455A64"/>
<path d="M169.732 295.349C169.943 295.349 170.127 296.294 170.141 297.494C170.155 298.693 170.014 299.652 169.817 299.652C169.62 299.652 169.437 298.693 169.408 297.508C169.379 296.322 169.535 295.349 169.732 295.349Z" fill="#455A64"/>
<path d="M169.534 286.714C169.745 286.714 169.929 287.673 169.957 288.859C169.985 290.044 169.844 291.017 169.647 291.031C169.45 291.045 169.252 290.072 169.224 288.873C169.196 287.673 169.334 286.714 169.534 286.714Z" fill="#455A64"/>
<path d="M169.24 278.037C169.44 278.037 169.649 278.996 169.691 280.182C169.733 281.367 169.606 282.34 169.409 282.354C169.212 282.368 169 281.395 168.958 280.21C168.855 279.473 168.952 278.722 169.24 278.037Z" fill="#455A64"/>
<path d="M168.732 269.472C168.943 269.472 169.169 270.403 169.239 271.589C169.309 272.774 169.239 273.761 169.014 273.775C168.789 273.789 168.591 272.83 168.507 271.645C168.423 270.459 168.534 269.486 168.732 269.472Z" fill="#455A64"/>
<path d="M167.943 260.88C168.143 260.88 168.408 261.797 168.535 262.983C168.697 263.711 168.643 264.471 168.38 265.169C168.225 265.197 167.915 264.238 167.802 263.053C167.689 261.867 167.689 260.894 167.943 260.88Z" fill="#455A64"/>
<path d="M167.111 254.516C167.322 254.516 167.548 254.939 167.632 255.517C167.716 256.095 167.632 256.589 167.421 256.618C167.21 256.648 166.984 256.195 166.9 255.617C166.816 255.039 166.914 254.544 167.111 254.516Z" fill="#455A64"/>
<path d="M199.648 470.335L158.642 471.012L158.966 464.169L199.648 464.38V470.335Z" fill="#455A64"/>
<path d="M172.748 213.768C172.817 214.297 172.817 214.833 172.748 215.362C172.748 216.547 172.648 218 172.593 219.707C172.424 223.376 172.156 228.428 171.818 234.015C171.635 236.836 171.452 239.447 171.297 241.888C171.292 244.067 170.974 246.234 170.353 248.322C170.105 249.033 169.711 249.684 169.197 250.233C168.682 250.783 168.059 251.218 167.366 251.511C166.985 251.666 166.578 251.747 166.166 251.751C165.898 251.751 165.757 251.751 165.757 251.681C166.269 251.596 166.77 251.454 167.251 251.258C168.499 250.602 169.44 249.482 169.872 248.14C170.395 246.084 170.646 243.968 170.619 241.847C170.76 239.406 170.919 236.753 171.084 233.974C171.422 228.329 171.775 223.335 172.07 219.68C172.225 217.973 172.352 216.52 172.45 215.349C172.496 214.813 172.596 214.284 172.748 213.768Z" fill="#455A64"/>
<path d="M168.775 217.197C168.775 217.097 169.423 217.197 169.649 218.072C169.71 218.316 169.713 218.569 169.659 218.814C169.606 219.059 169.496 219.288 169.339 219.483C169.107 219.708 168.814 219.86 168.497 219.921C168.179 219.982 167.851 219.949 167.552 219.826C167.253 219.703 166.997 219.496 166.814 219.23C166.63 218.963 166.529 218.649 166.521 218.326C166.543 218.072 166.624 217.827 166.759 217.611C166.894 217.396 167.078 217.215 167.296 217.084C168.057 216.633 168.607 216.999 168.536 217.084C168.465 217.169 168.057 217.084 167.606 217.522C167.482 217.626 167.382 217.756 167.312 217.901C167.241 218.047 167.202 218.206 167.197 218.368C167.224 218.547 167.297 218.716 167.409 218.859C167.521 219.002 167.668 219.113 167.836 219.181C168.004 219.249 168.186 219.273 168.366 219.249C168.546 219.225 168.716 219.154 168.86 219.045C168.968 218.922 169.05 218.779 169.102 218.625C169.153 218.47 169.173 218.306 169.16 218.143C169.099 217.55 168.718 217.366 168.775 217.197Z" fill="#455A64"/>
<path d="M132.291 223.334C132.291 223.207 133.531 223.758 135.591 224.035C138.263 224.444 140.996 224.075 143.465 222.972C145.933 221.869 148.033 220.078 149.513 217.813C150.683 216.078 151.077 214.822 151.19 214.864C151.036 216.02 150.611 217.122 149.95 218.081C148.513 220.529 146.35 222.468 143.76 223.626C141.171 224.785 138.286 225.105 135.506 224.544C134.355 224.397 133.254 223.982 132.291 223.334Z" fill="#455A64"/>
<path d="M196.774 213.768C196.887 213.768 196.915 214.826 197.408 216.434C198.029 218.521 199.227 220.389 200.862 221.824C202.498 223.259 204.505 224.202 206.652 224.545C208.315 224.827 209.372 224.7 209.386 224.827C208.482 225.147 207.511 225.225 206.568 225.052C204.271 224.837 202.1 223.903 200.363 222.384C198.625 220.864 197.409 218.836 196.887 216.587C196.596 215.673 196.556 214.698 196.774 213.765V213.768Z" fill="#455A64"/>
<path d="M218.531 219.679L135.053 214.035L136.025 172.85V143.051L126.725 156.779L101.925 130.832L129.643 104.207C134.349 99.289 140.14 95.5439 146.553 93.2724C149.951 92.0591 153.516 91.3786 157.122 91.2548C165.427 93.8789 174.337 93.8789 182.642 91.2548L186.869 91.7344C197.954 93.0467 208.289 98.0101 216.25 105.844L242.883 144.561L212.868 160.181L209.387 148.229C209.387 148.229 218.729 211.426 218.531 219.679Z" fill="#455A64"/>
<path d="M135.279 144.603C135.955 142.855 136.86 141.205 137.97 139.697C138.863 138.05 139.978 136.534 141.282 135.191C140.6 136.933 139.696 138.579 138.59 140.087C137.679 141.725 136.567 143.242 135.279 144.603Z" fill="#263238"/>
<path d="M218.588 283.624L51.871 251.891L63.722 191.277L230.453 223.008L244.206 256.45L218.588 283.624Z" fill="#92E3A9"/>
<path d="M218.588 283.624L51.871 251.891L63.722 191.277L230.453 223.008L244.206 256.45L218.588 283.624Z" fill="black"/>
<path d="M216.333 278.22L53.153 246.219L65.004 185.605L228.198 217.62L241.951 251.062L216.333 278.22Z" fill="#92E3A9"/>
<path d="M116.875 220.089L106.659 235.483L104.306 235.073L99.881 217.126L102.46 217.564L106.067 232.309L114.522 219.68L116.875 220.089Z" fill="white"/>
<path d="M126.895 234.735L118.046 233.183L115.552 237.035L113.1 236.597L123.539 221.246L125.892 221.656L130.556 239.66L128.062 239.222L126.895 234.735ZM126.402 232.675L124.232 223.885L119.215 231.475L126.402 232.675Z" fill="white"/>
<path d="M132.841 231.475C133.028 230.323 133.448 229.221 134.076 228.237C134.704 227.253 135.527 226.408 136.493 225.754C137.459 225.1 138.548 224.65 139.694 224.433C140.84 224.216 142.018 224.236 143.156 224.492C144.341 224.65 145.478 225.063 146.489 225.701C147.501 226.339 148.363 227.187 149.018 228.188L147.218 229.43C146.738 228.676 146.102 228.034 145.354 227.548C144.605 227.061 143.761 226.741 142.878 226.608C142.026 226.434 141.149 226.432 140.296 226.603C139.444 226.774 138.635 227.115 137.916 227.605C137.198 228.095 136.585 228.724 136.113 229.455C135.642 230.186 135.322 231.005 135.172 231.862C135.022 232.719 135.045 233.598 135.241 234.446C135.436 235.294 135.799 236.094 136.309 236.8C136.818 237.505 137.464 238.1 138.207 238.551C138.951 239.002 139.777 239.299 140.637 239.425C141.513 239.598 142.416 239.584 143.285 239.381C144.155 239.179 144.972 238.794 145.682 238.252L146.964 240.015C146.005 240.742 144.9 241.253 143.725 241.514C142.551 241.774 141.334 241.778 140.158 241.525C139.005 241.378 137.894 240.996 136.894 240.404C135.893 239.812 135.024 239.021 134.339 238.08C133.654 237.14 133.169 236.069 132.911 234.934C132.654 233.799 132.631 232.624 132.844 231.479L132.841 231.475Z" fill="white"/>
<path d="M160.869 240.675L152.02 239.123L149.469 242.975L147.017 242.552L157.459 227.243L159.812 227.667L164.476 245.589L161.968 245.152L160.869 240.675ZM160.362 238.616L158.206 229.825L153.187 237.356L160.362 238.616Z" fill="white"/>
<path d="M184.172 231.856L181.272 248.533L179.313 248.195L171.492 234.015L169.322 246.446L166.941 246.036L169.858 229.359L171.803 229.697L179.624 243.877L181.78 231.475L184.172 231.856Z" fill="white"/>
<path d="M192.127 235.383L186.42 234.396L186.772 232.323L200.553 234.726L200.187 236.799L194.48 235.812L191.927 250.396L189.574 249.986L192.127 235.383Z" fill="white"/>
<path d="M91.976 224.813L93.597 228.778C94.2468 231.096 95.1199 233.346 96.204 235.495C96.731 236.545 97.4312 237.499 98.275 238.316C99.2851 239.417 100.448 240.367 101.727 241.138C101.982 241.252 102.198 241.44 102.346 241.678C102.495 241.915 102.569 242.192 102.56 242.471C102.551 242.751 102.459 243.022 102.295 243.25C102.132 243.477 101.904 243.651 101.642 243.748C100.416 243.988 96.964 242.464 94.131 239.092C91.298 235.72 91.411 242.662 91.411 245.2C91.411 247.738 91.031 255.556 90.255 256.177C89.114 257.078 87.944 256.022 88 253.497C88.056 250.971 87.7 243.366 86.365 243.437C85.03 243.508 85.224 256.389 85.224 256.389C85.224 256.389 85.703 259.127 84.167 259.211C81.349 259.436 82.208 245.737 82.321 244.424C82.406 243.523 80.912 243.535 80.912 244.509C80.912 245.483 81.391 257.362 78.559 257.617C76.389 257.817 79.137 246.329 77.671 243.944C76.205 241.559 76.471 252.862 74.388 252.956C73.627 252.956 72.979 252.956 73.824 246.394C74.669 239.833 79.724 221.971 79.724 221.971L92.139 224.92" fill="#FFBE9D"/>
<path d="M122.822 153.266C122.822 153.266 105.322 167.756 104.193 172.709C103.064 177.661 94.625 232.646 94.625 232.646L77.504 230.064C77.504 230.064 78.364 161.704 84.353 155.068C90.342 148.433 105.18 132.874 105.18 132.874L122.822 153.266Z" fill="#FFBE9D"/>
<path d="M85.662 162.339C85.4568 162.191 85.2882 161.998 85.169 161.775C84.7329 160.999 84.6081 160.086 84.82 159.221C85.0319 158.356 85.5647 157.604 86.31 157.119C86.8557 156.748 87.4927 156.535 88.1513 156.503C88.81 156.47 89.4647 156.62 90.044 156.935C90.6606 157.275 91.1279 157.834 91.354 158.501C91.4583 158.815 91.4996 159.146 91.4754 159.475C91.4512 159.804 91.362 160.125 91.213 160.42C91.0819 160.659 90.9046 160.87 90.6915 161.04C90.4783 161.21 90.2335 161.336 89.9713 161.411C89.7092 161.485 89.4348 161.507 89.1642 161.474C88.8935 161.442 88.6321 161.356 88.395 161.221C88.0928 161.003 87.871 160.691 87.7639 160.334C87.6569 159.977 87.6706 159.594 87.803 159.245C88.003 158.766 88.296 158.653 88.31 158.681C88.1946 158.882 88.1001 159.095 88.028 159.316C87.9513 159.605 87.9688 159.912 88.0777 160.191C88.1867 160.47 88.3815 160.707 88.634 160.867C88.8212 160.965 89.0259 161.024 89.2361 161.041C89.4463 161.058 89.6578 161.034 89.8584 160.968C90.059 160.903 90.2446 160.799 90.4046 160.661C90.5645 160.523 90.6955 160.355 90.79 160.167C90.9862 159.721 91.0111 159.219 90.86 158.756C90.674 158.228 90.2967 157.79 89.803 157.528C89.3182 157.264 88.7706 157.138 88.2194 157.163C87.6681 157.188 87.1341 157.363 86.675 157.669C86.2928 157.913 85.9685 158.238 85.7251 158.62C85.4816 159.003 85.3249 159.434 85.266 159.884C85.1732 160.723 85.3101 161.572 85.662 162.339Z" fill="#EB996E"/>
<path d="M264.301 208.505C264.301 208.505 280.309 202.861 281.408 203.764C282.989 206.081 284.357 208.537 285.495 211.102C285.667 211.453 285.746 211.843 285.726 212.234C285.706 212.624 285.586 213.004 285.379 213.335C285.171 213.667 284.883 213.941 284.541 214.13C284.199 214.319 283.814 214.418 283.423 214.417C283.012 214.417 282.608 214.308 282.254 214.099C281.9 213.891 281.607 213.591 281.408 213.231L278.787 208.448L264.301 208.505Z" fill="#FFBE9D"/>
<path d="M270.557 208.505C270.557 208.505 286.565 202.861 287.65 203.764C289.236 206.078 290.604 208.534 291.736 211.102C291.908 211.453 291.987 211.843 291.967 212.233C291.947 212.624 291.827 213.003 291.62 213.335C291.413 213.667 291.125 213.94 290.783 214.129C290.44 214.319 290.056 214.418 289.665 214.417C289.254 214.416 288.851 214.306 288.497 214.098C288.143 213.889 287.85 213.59 287.65 213.231L285.029 208.448L270.557 208.505Z" fill="#FFBE9D"/>
<path d="M276.842 208.505C276.842 208.505 292.864 202.861 293.949 203.764C295.536 206.078 296.904 208.534 298.036 211.102C298.208 211.453 298.287 211.843 298.267 212.233C298.247 212.624 298.127 213.003 297.92 213.335C297.713 213.667 297.425 213.94 297.083 214.129C296.74 214.319 296.356 214.418 295.965 214.417C295.554 214.416 295.151 214.306 294.797 214.098C294.443 213.889 294.15 213.59 293.95 213.231L291.329 208.448L276.842 208.505Z" fill="#FFBE9D"/>
<path d="M285.199 210.495C284.562 209.695 284.084 208.78 283.79 207.8C283.41 206.802 282.908 205.854 282.296 204.979C281.979 204.52 281.523 204.174 280.996 203.991C280.367 203.991 279.746 204.131 279.178 204.401C275.927 205.448 272.753 206.719 269.678 208.206C270.408 207.498 271.251 206.916 272.172 206.485C274.312 205.31 276.57 204.364 278.908 203.663C279.593 203.335 280.35 203.184 281.108 203.225C281.815 203.435 282.425 203.89 282.827 204.509C283.443 205.44 283.918 206.458 284.236 207.529C284.61 208.5 284.931 209.49 285.199 210.495Z" fill="#EB996E"/>
<path d="M291.149 210.141C290.797 209.613 290.508 209.044 290.289 208.448C289.634 207.094 288.875 205.792 288.02 204.554C287.8 204.265 287.505 204.042 287.167 203.91C286.829 203.778 286.461 203.742 286.104 203.806C285.45 203.911 284.808 204.081 284.188 204.314C283.032 204.723 282.229 204.596 282.243 204.497C282.257 204.398 282.943 204.342 284.004 203.834C284.64 203.51 285.318 203.277 286.019 203.142C286.487 203.046 286.972 203.07 287.428 203.212C287.906 203.384 288.327 203.687 288.64 204.088C290.749 207.136 291.37 210.099 291.149 210.141Z" fill="#EB996E"/>
<path d="M297.402 210.141C297.049 209.613 296.76 209.045 296.542 208.448C295.887 207.094 295.128 205.792 294.273 204.554C294.053 204.265 293.758 204.042 293.42 203.91C293.082 203.779 292.714 203.742 292.357 203.806C291.703 203.911 291.061 204.081 290.441 204.314C289.285 204.723 288.482 204.596 288.496 204.497C288.51 204.398 289.196 204.342 290.257 203.834C290.894 203.513 291.572 203.28 292.272 203.143C292.74 203.047 293.225 203.071 293.681 203.213C294.161 203.381 294.582 203.685 294.893 204.089C297.007 207.136 297.627 210.099 297.402 210.141Z" fill="#EB996E"/>
<path d="M504.236 47.6803C505.574 47.089 506.71 46.1173 507.501 44.8857C508.293 43.6541 508.706 42.2169 508.689 40.7524C508.704 39.8197 508.533 38.8932 508.188 38.0267C507.843 37.1602 507.33 36.3709 506.678 35.7045C506.026 35.038 505.248 34.5076 504.39 34.144C503.532 33.7804 502.611 33.5908 501.679 33.5861C500.747 33.5815 499.824 33.7619 498.962 34.117C498.101 34.472 497.318 34.9947 496.659 35.6546C496.001 36.3146 495.48 37.0987 495.126 37.9618C494.772 38.8248 494.592 39.7495 494.598 40.6824C494.559 42.1695 494.963 43.6346 495.758 44.891C496.554 46.1474 497.705 47.1383 499.065 47.7373C488.271 49.3744 488.75 61.1274 488.75 61.1274L514.298 61.2406C514.298 61.2406 514.946 49.3074 504.236 47.6803Z" fill="#92E3A9"/>
<path d="M492.245 44.7646C492.778 44.7347 493.305 44.6302 493.809 44.4542C495.187 44.0772 496.404 43.2597 497.275 42.1262C497.981 41.2173 498.421 40.1296 498.546 38.9847C498.67 37.8398 498.474 36.6828 497.979 35.6431C497.484 34.6034 496.711 33.7221 495.744 33.0975C494.778 32.473 493.657 32.13 492.507 32.1068C491.357 32.0836 490.223 32.3812 489.232 32.9663C488.242 33.5514 487.433 34.4008 486.897 35.4197C486.361 36.4386 486.118 37.5868 486.197 38.7358C486.275 39.8848 486.671 40.9893 487.34 41.9259C488.161 43.0974 489.345 43.9652 490.708 44.3951C491.666 44.6955 492.258 44.6955 492.244 44.7616C492.23 44.8276 492.103 44.7616 491.835 44.7616C491.427 44.7648 491.02 44.7174 490.623 44.6204C489.142 44.2706 487.831 43.4117 486.917 42.1933C486.229 41.2852 485.784 40.2172 485.621 39.0894C485.458 37.9615 485.584 36.8108 485.987 35.7451C486.482 34.4202 487.375 33.2818 488.543 32.4871C489.712 31.6924 491.098 31.2805 492.51 31.3085C493.922 31.3364 495.291 31.8027 496.427 32.643C497.563 33.4833 498.411 34.6561 498.853 35.9994C499.212 37.0807 499.292 38.2356 499.085 39.3562C498.878 40.4768 498.391 41.5266 497.669 42.4076C496.712 43.5893 495.372 44.3981 493.882 44.6935C493.483 44.7708 493.076 44.7993 492.67 44.7786C492.382 44.8066 492.245 44.7936 492.245 44.7646Z" fill="#455A64"/>
<path d="M483.029 50.634C483.62 49.2393 484.43 47.9484 485.429 46.8102C486.233 45.5199 487.241 44.3699 488.416 43.4058C487.82 44.8025 487.011 46.0974 486.016 47.2437C485.205 48.5245 484.197 49.6688 483.029 50.634Z" fill="#455A64"/>
<path d="M528.277 61.0894C528.277 61.0894 528.477 61.3437 528.827 61.8513L530.377 64.0662C531.786 66.0557 533.677 68.9193 536.183 72.5319C536.199 72.5477 536.211 72.5664 536.22 72.587C536.229 72.6076 536.233 72.6298 536.233 72.6521C536.233 72.6744 536.229 72.6965 536.22 72.7172C536.211 72.7378 536.199 72.7565 536.183 72.7722C536.151 72.7833 536.115 72.7833 536.083 72.7722H519.808C519.754 72.7723 519.702 72.7516 519.663 72.7143C519.623 72.677 519.6 72.6261 519.597 72.572C519.589 72.5347 519.589 72.4961 519.597 72.4588L519.977 72.7692C515.581 76.7551 510.249 79.5609 504.477 80.9246C501.197 81.6945 497.819 81.9645 494.458 81.7257C490.853 81.543 487.302 80.7708 483.946 79.4398C480.368 78.0553 477.038 76.1017 474.082 73.6544C471.003 71.0771 468.395 67.9835 466.374 64.5117C463.74 60.0654 462.122 55.0905 461.635 49.9439C461.149 44.7974 461.806 39.6068 463.56 34.7447C465.314 29.8826 468.121 25.4696 471.78 21.8222C475.439 18.1749 479.859 15.3837 484.723 13.649C489.586 11.9143 494.773 11.2791 499.911 11.7889C505.049 12.2988 510.01 13.941 514.439 16.5979C518.868 19.2547 522.655 22.8602 525.527 27.1557C528.4 31.4512 530.287 36.3301 531.054 41.4423C531.124 41.964 531.209 42.4726 531.279 42.9803C531.349 43.4879 531.279 43.9966 531.364 44.4762C531.364 45.4635 531.491 46.4097 531.464 47.2978C531.427 48.9477 531.277 50.593 531.013 52.2221C530.641 54.4748 530.038 56.683 529.213 58.8115C528.931 59.5314 528.692 60.0811 528.523 60.4345C528.446 60.624 528.357 60.8079 528.255 60.9852C528.308 60.7925 528.375 60.6038 528.455 60.4205C528.61 60.039 528.821 59.4893 529.075 58.7554C529.835 56.6244 530.388 54.4251 530.727 52.188C530.964 50.5712 531.091 48.94 531.107 47.3058C531.107 46.4047 531.023 45.4715 530.98 44.4842C530.995 43.9882 530.961 43.4919 530.88 43.0023L530.64 41.4784C529.875 36.4694 528.014 31.6913 525.192 27.4853C522.369 23.2793 518.654 19.7491 514.312 17.1468C509.969 14.5445 505.107 12.9342 500.071 12.4309C495.035 11.9276 489.95 12.5437 485.18 14.2353C480.409 15.9268 476.071 18.6521 472.474 22.2165C468.876 25.7809 466.11 30.0965 464.371 34.8553C462.632 39.614 461.963 44.6985 462.414 49.7457C462.864 54.7929 464.421 59.6783 466.975 64.0531C468.955 67.4593 471.511 70.4955 474.528 73.0266C477.418 75.4058 480.666 77.3108 484.152 78.6708C487.444 79.9848 490.928 80.7522 494.467 80.9427C497.774 81.1854 501.098 80.9333 504.331 80.1947C510.026 78.888 515.297 76.1546 519.648 72.2506C519.695 72.2051 519.758 72.1796 519.824 72.1796C519.89 72.1796 519.953 72.2051 520 72.2506C520.03 72.2916 520.046 72.341 520.046 72.3918C520.046 72.4425 520.03 72.4919 520 72.5329L519.62 72.2085C519.863 72.1381 520.114 72.1043 520.367 72.1084H528.596L535.98 72.1935L535.839 72.4619L530.137 63.8028L528.728 61.545C528.549 61.4244 528.396 61.2695 528.277 61.0894Z" fill="#263238"/>
</svg>
