<svg width="180" height="204" viewBox="0 0 180 204" fill="none" xmlns="http://www.w3.org/2000/svg">
<g clip-path="url(#clip0_470_3182)">
<g opacity="0.5">
<g opacity="0.5">
<path opacity="0.5" d="M1.10555 51.2623C1.10555 51.1878 1.17864 51.1878 1.17864 51.1133C1.17864 51.0387 1.25174 51.0387 1.25174 50.9642C1.25174 50.8897 1.32483 50.8897 1.32483 50.8152C2.12887 49.3249 3.29837 48.1327 4.54097 47.6111L4.90644 47.4621L49.7862 27.4923L94.666 7.52247L95.0315 7.37344C96.3472 6.77733 97.5898 6.92636 98.54 7.59699C98.54 7.59699 98.6131 7.59699 98.6131 7.6715C98.6131 7.6715 98.6862 7.6715 98.6862 7.74601L103.876 11.6208L100.514 12.6639L104.972 74.0636C105.118 75.6284 104.68 77.3423 103.803 78.8325C103.803 78.9071 103.73 78.9071 103.73 78.9816C103.73 79.0561 103.657 79.0561 103.657 79.1306C102.853 80.6209 101.683 81.8131 100.44 82.4092L10.9733 122.125L11.3387 126L6.44142 122.274C6.44142 122.274 6.36832 122.274 6.36832 122.2C5.4181 121.529 4.76025 120.337 4.61407 118.772L0.00913677 55.8822C-0.0639574 54.3174 0.301513 52.6781 1.10555 51.2623Z" fill="white"/>
<g opacity="0.5">
<path opacity="0.5" d="M14.9076 126.611L105.508 86.329C108.216 85.1355 110.265 81.2565 109.972 77.6759L105.435 15.612C105.142 12.0314 102.727 10.1665 100.019 11.36L9.41886 51.6419C6.78428 52.8354 4.73516 56.7144 5.02789 60.295L9.56523 122.359C9.78477 125.94 12.1998 127.879 14.9076 126.611Z" fill="url(#paint0_linear_470_3182)"/>
<path opacity="0.5" d="M9.90751 51.9018L54.7425 32L60 104.627L15.3111 126.533C12.3902 127.87 9.76147 126.236 9.54241 122.895L5.0151 60.2189C4.79603 56.9515 6.98667 53.1642 9.90751 51.9018Z" fill="url(#paint1_linear_470_3182)"/>
<path opacity="0.5" d="M99.7162 11.4282L55 31.4356L60.2436 104L105.105 86.5308C108.019 85.187 110.203 81.4543 109.985 78.1695L105.47 15.1609C105.251 11.8015 102.629 10.1591 99.7162 11.4282Z" fill="url(#paint2_linear_470_3182)"/>
<path opacity="0.5" d="M109 83.0838C108.121 84.791 106.729 86.2012 105.118 86.8692L15.1749 126.579C13.5635 127.247 12.0987 127.099 11 126.282L56.7773 60L109 83.0838Z" fill="url(#paint3_linear_470_3182)"/>
<path opacity="0.5" d="M6 54.9162C6.87892 53.209 8.27055 51.7988 9.88191 51.1308L99.8251 11.4207C101.436 10.7527 102.901 10.9011 104 11.7176L58.296 78L6 54.9162Z" fill="url(#paint4_linear_470_3182)"/>
</g>
</g>
<g opacity="0.5">
<path opacity="0.5" d="M25.7992 63.5413C25.7992 63.4668 25.8719 63.3922 25.8719 63.3922C25.8719 63.3177 25.9447 63.3177 25.9447 63.2432C25.9447 63.1686 26.0174 63.1686 26.0174 63.0941C26.745 61.4542 27.909 60.038 29.2186 59.3671L29.5823 59.1435L76.0714 33.9493L122.56 8.75508L122.924 8.53146C124.307 7.78607 125.616 7.86061 126.707 8.53146C126.707 8.53146 126.78 8.53146 126.78 8.606C126.78 8.606 126.853 8.606 126.853 8.68054L132.746 12.482L129.254 13.8237L138.93 79.5672C139.148 81.2816 138.857 83.1451 138.057 84.785C138.057 84.8595 137.984 84.8595 137.984 84.934C137.984 85.0086 137.911 85.0086 137.911 85.0831C137.184 86.723 136.02 88.1392 134.71 88.8101L42.0231 138.9L42.6778 143L37.0759 139.422C37.0759 139.422 37.0031 139.422 37.0031 139.348C35.9118 138.677 35.1115 137.484 34.8933 135.77L25.0717 68.5354C24.8534 66.8956 25.1444 65.1066 25.7992 63.5413Z" fill="white"/>
<g opacity="0.5">
<path opacity="0.5" d="M47.0244 143.477L140.766 92.6581C143.605 91.0933 145.424 86.7714 144.915 82.9712L135.162 16.6533C134.58 12.853 131.814 10.9902 129.048 12.555L35.2339 63.2994C32.3954 64.8642 30.5759 69.186 31.0854 72.9863L40.838 139.304C41.4203 143.179 44.1859 144.967 47.0244 143.477Z" fill="url(#paint5_linear_470_3182)"/>
<path opacity="0.5" d="M35.6878 63.1999L82.44 38L94 115.986L47.6136 143.348C44.5407 144.988 41.6141 143.422 41.102 139.918L31.0784 72.6685C30.5663 69.0898 32.6149 64.9147 35.6878 63.1999Z" fill="url(#paint6_linear_470_3182)"/>
<path opacity="0.5" d="M128.536 12.6485L82 37.7536L93.4337 115L140.334 92.5688C143.393 90.9348 145.432 86.7011 144.922 83.2101L135.018 16.1394C134.435 12.5742 131.522 11.0144 128.536 12.6485Z" fill="url(#paint7_linear_470_3182)"/>
<path opacity="0.5" d="M144 88.4952C143.201 90.3584 141.822 91.998 140.224 92.8924L47.4292 143.348C45.7592 144.242 44.1618 144.168 43 143.422L86.4932 68L144 88.4952Z" fill="url(#paint8_linear_470_3182)"/>
<path opacity="0.5" d="M32 67.4847C32.7987 65.6196 34.1783 63.9784 35.7757 63.0832L128.571 12.6528C130.241 11.7575 131.838 11.8321 133 12.5782L89.5068 88L32 67.4847Z" fill="url(#paint9_linear_470_3182)"/>
</g>
</g>
</g>
<path d="M51.7143 63.0285C51.7143 62.954 51.7877 62.8796 51.7877 62.8052C51.7877 62.7307 51.861 62.7307 51.861 62.6563C51.861 62.5818 51.9344 62.5818 51.9344 62.5074C52.6679 60.7208 53.8415 59.2319 55.2352 58.413L55.6019 58.1897L104.527 29.5292L153.452 0.868718L153.819 0.645389C155.213 -0.173482 156.68 -0.173482 157.853 0.422061C157.853 0.422061 157.927 0.422061 157.927 0.496504C157.927 0.496504 158 0.496504 158 0.570946L164.455 4.36753L160.934 5.85639L173.844 75.386C174.211 77.1726 173.917 79.1826 173.11 80.9692C173.11 81.0436 173.037 81.0436 173.037 81.1181C173.037 81.1925 172.964 81.1925 172.964 81.267C172.23 83.0536 171.057 84.5425 169.663 85.3613L72.1059 142.608L72.9861 147L66.898 143.427C66.898 143.427 66.8246 143.427 66.8246 143.352C65.651 142.682 64.6975 141.417 64.4041 139.63L51.1275 68.3884C50.8341 66.6762 51.0542 64.7407 51.7143 63.0285Z" fill="white"/>
<path d="M76.9987 147.32L175.794 89.4873C178.805 87.7754 180.568 83.0119 179.834 78.9926L166.759 8.80432C166.024 4.78506 162.939 2.92429 160.001 4.6362L61.2062 62.5434C58.1946 64.2553 56.4317 69.0189 57.1662 73.0381L70.241 143.226C70.9755 147.246 73.9871 149.106 76.9987 147.32Z" fill="url(#paint10_linear_470_3182)"/>
<path d="M61.6314 62.5977L110.643 34L126 116.302L77.4296 147.202C74.1965 149.059 71.0369 147.574 70.3755 143.786L57.1491 72.774C56.4143 68.9858 58.4718 64.4547 61.6314 62.5977Z" fill="url(#paint11_linear_470_3182)"/>
<path d="M159.664 4.79817L111 33.3498L126.176 115L175.351 89.2665C178.561 87.4125 180.531 82.8145 179.874 79.1065L166.741 8.13537C166.012 4.42737 162.874 2.94417 159.664 4.79817Z" fill="url(#paint12_linear_470_3182)"/>
<path d="M180 84.6674C179.189 86.6865 177.789 88.556 176.094 89.5281L77.7899 147.184C76.0213 148.231 74.3264 148.231 73 147.409L117.067 65L180 84.6674Z" fill="url(#paint13_linear_470_3182)"/>
<path d="M58 67.3897C58.81 65.3688 60.2092 63.4976 61.903 62.5246L160.213 4.81651C161.981 3.76863 163.674 3.76863 165 4.59196L120.963 87L58 67.3897Z" fill="url(#paint14_linear_470_3182)"/>
</g>
<g opacity="0.3" filter="url(#filter0_f_470_3182)">
<rect x="26" y="177" width="128" height="7" fill="#6ACCF7"/>
</g>
<defs>
<filter id="filter0_f_470_3182" x="6" y="157" width="168" height="47" filterUnits="userSpaceOnUse" color-interpolation-filters="sRGB">
<feFlood flood-opacity="0" result="BackgroundImageFix"/>
<feBlend mode="normal" in="SourceGraphic" in2="BackgroundImageFix" result="shape"/>
<feGaussianBlur stdDeviation="10" result="effect1_foregroundBlur_470_3182"/>
</filter>
<linearGradient id="paint0_linear_470_3182" x1="107.782" y1="46.6586" x2="4.54898" y2="54.1507" gradientUnits="userSpaceOnUse">
<stop stop-color="#7BDAFF"/>
<stop offset="1" stop-color="#59BDEF"/>
</linearGradient>
<linearGradient id="paint1_linear_470_3182" x1="-11.0487" y1="171.23" x2="52.3555" y2="80.0106" gradientUnits="userSpaceOnUse">
<stop offset="0.7677" stop-color="#59BDEF"/>
<stop offset="0.8452" stop-color="#55B8EB"/>
<stop offset="0.9318" stop-color="#49ABE1"/>
<stop offset="1" stop-color="#3A9BD5"/>
</linearGradient>
<linearGradient id="paint2_linear_470_3182" x1="136.17" y1="105.684" x2="67.6747" y2="67.9242" gradientUnits="userSpaceOnUse">
<stop offset="0.7677" stop-color="#59BDEF"/>
<stop offset="0.8452" stop-color="#55B8EB"/>
<stop offset="0.9318" stop-color="#49ABE1"/>
<stop offset="1" stop-color="#3A9BD5"/>
</linearGradient>
<linearGradient id="paint3_linear_470_3182" x1="65.5837" y1="180.796" x2="23.6375" y2="85.8762" gradientUnits="userSpaceOnUse">
<stop offset="0.7677" stop-color="#3A9BD5"/>
<stop offset="0.8386" stop-color="#3896D2"/>
<stop offset="0.9179" stop-color="#3189C9"/>
<stop offset="1" stop-color="#2573BA"/>
</linearGradient>
<linearGradient id="paint4_linear_470_3182" x1="87.3179" y1="0.691901" x2="-16.4284" y2="61.735" gradientUnits="userSpaceOnUse">
<stop stop-color="#7BDAFF"/>
<stop offset="1" stop-color="#59BDEF"/>
</linearGradient>
<linearGradient id="paint5_linear_470_3182" x1="139.994" y1="49.7985" x2="30.0654" y2="65.9626" gradientUnits="userSpaceOnUse">
<stop stop-color="#7BDAFF"/>
<stop offset="1" stop-color="#59BDEF"/>
</linearGradient>
<linearGradient id="paint6_linear_470_3182" x1="22.6807" y1="193.883" x2="83.7829" y2="90.1191" gradientUnits="userSpaceOnUse">
<stop offset="0.7677" stop-color="#59BDEF"/>
<stop offset="0.8452" stop-color="#55B8EB"/>
<stop offset="0.9318" stop-color="#49ABE1"/>
<stop offset="1" stop-color="#3A9BD5"/>
</linearGradient>
<linearGradient id="paint7_linear_470_3182" x1="175.216" y1="110.503" x2="98.7353" y2="75.3129" gradientUnits="userSpaceOnUse">
<stop offset="0.7677" stop-color="#59BDEF"/>
<stop offset="0.8452" stop-color="#55B8EB"/>
<stop offset="0.9318" stop-color="#49ABE1"/>
<stop offset="1" stop-color="#3A9BD5"/>
</linearGradient>
<linearGradient id="paint8_linear_470_3182" x1="105.483" y1="197.727" x2="52.0082" y2="99.2974" gradientUnits="userSpaceOnUse">
<stop offset="0.7677" stop-color="#3A9BD5"/>
<stop offset="0.8386" stop-color="#3896D2"/>
<stop offset="0.9179" stop-color="#3189C9"/>
<stop offset="1" stop-color="#2573BA"/>
</linearGradient>
<linearGradient id="paint9_linear_470_3182" x1="114.35" y1="2.08076" x2="7.55457" y2="75.231" gradientUnits="userSpaceOnUse">
<stop stop-color="#7BDAFF"/>
<stop offset="1" stop-color="#59BDEF"/>
</linearGradient>
<linearGradient id="paint10_linear_470_3182" x1="173.333" y1="43.936" x2="55.8108" y2="65.8136" gradientUnits="userSpaceOnUse">
<stop stop-color="#7BDAFF"/>
<stop offset="1" stop-color="#59BDEF"/>
</linearGradient>
<linearGradient id="paint11_linear_470_3182" x1="52.8226" y1="201.777" x2="113.326" y2="88.748" gradientUnits="userSpaceOnUse">
<stop offset="0.7677" stop-color="#59BDEF"/>
<stop offset="0.8452" stop-color="#55B8EB"/>
<stop offset="0.9318" stop-color="#49ABE1"/>
<stop offset="1" stop-color="#3A9BD5"/>
</linearGradient>
<linearGradient id="paint12_linear_470_3182" x1="213.293" y1="106.996" x2="130.421" y2="72.3557" gradientUnits="userSpaceOnUse">
<stop offset="0.7677" stop-color="#59BDEF"/>
<stop offset="0.8452" stop-color="#55B8EB"/>
<stop offset="0.9318" stop-color="#49ABE1"/>
<stop offset="1" stop-color="#3A9BD5"/>
</linearGradient>
<linearGradient id="paint13_linear_470_3182" x1="142.636" y1="202.976" x2="81.9161" y2="99.3821" gradientUnits="userSpaceOnUse">
<stop offset="0.7677" stop-color="#3A9BD5"/>
<stop offset="0.8386" stop-color="#3896D2"/>
<stop offset="0.9179" stop-color="#3189C9"/>
<stop offset="1" stop-color="#2573BA"/>
</linearGradient>
<linearGradient id="paint14_linear_470_3182" x1="144.458" y1="-5.84019" x2="32.7272" y2="77.771" gradientUnits="userSpaceOnUse">
<stop stop-color="#7BDAFF"/>
<stop offset="1" stop-color="#59BDEF"/>
</linearGradient>
<clipPath id="clip0_470_3182">
<rect width="180" height="148" fill="white"/>
</clipPath>
</defs>
</svg>
