<svg width="24" height="24" viewBox="0 0 24 24" fill="none" xmlns="http://www.w3.org/2000/svg">
<path d="M21.9619 5.90547C21.2133 6.22937 20.4205 6.44328 19.6088 6.54034C20.4644 6.03484 21.105 5.24128 21.4119 4.3066C20.6025 4.76861 19.7217 5.09676 18.8044 5.27798C18.1875 4.62924 17.3704 4.19902 16.4798 4.05407C15.5891 3.90911 14.6748 4.05753 13.8786 4.47629C13.0824 4.89505 12.4489 5.56075 12.0764 6.37009C11.7038 7.17943 11.613 8.08718 11.8181 8.95249C8.41 8.79562 5.38875 7.18383 3.36813 4.74892C3.0003 5.36465 2.80792 6.0666 2.81125 6.78088C2.81075 7.44489 2.97684 8.09875 3.29478 8.68439C3.61271 9.27003 4.07265 9.76933 4.63375 10.138C3.98352 10.1186 3.34744 9.94626 2.77875 9.63534V9.68394C2.77855 10.616 3.10576 11.5194 3.70491 12.2411C4.30406 12.9628 5.1383 13.4584 6.06625 13.6439C5.71475 13.7363 5.35258 13.7837 4.98875 13.7848C4.72563 13.7848 4.47438 13.7596 4.22375 13.714C4.48783 14.5161 4.99938 15.2171 5.68719 15.7196C6.37501 16.222 7.20486 16.5009 8.06125 16.5174C6.61026 17.6359 4.81987 18.2427 2.97687 18.2406C2.65044 18.2418 2.32423 18.2238 2 18.1864C3.88006 19.3722 6.06648 20.0016 8.29937 20C15.8412 20 19.9625 13.8512 19.9625 8.52616C19.9625 8.35637 19.9625 8.18351 19.9494 8.01002C20.7555 7.44131 21.4503 6.73348 22 5.92085L21.9619 5.90547Z" fill="white"/>
</svg>
